<?xml version="1.0" encoding="UTF-8" standalone="no" ?>
<!DOCTYPE svg PUBLIC "-//W3C//DTD SVG 1.1//EN" "http://www.w3.org/Graphics/SVG/1.1/DTD/svg11.dtd">
<svg xmlns="http://www.w3.org/2000/svg" xmlns:xlink="http://www.w3.org/1999/xlink" version="1.1" width="640" height="480" viewBox="0 0 640 480" xml:space="preserve">
<desc>Created with Fabric.js 3.6.6</desc>
<defs>
</defs>
<g transform="matrix(1 0 0 1 320.12 240.12)"  >
<g style=""   >
		<g transform="matrix(5.72 0 0 5.72 -6.87 -0.88)"  >
<circle style="stroke: rgb(23,148,172); stroke-width: 3; stroke-dasharray: none; stroke-linecap: butt; stroke-dashoffset: 0; stroke-linejoin: miter; stroke-miterlimit: 4; fill: rgb(255,255,0); fill-opacity: 0; fill-rule: nonzero; opacity: 1;" vector-effect="non-scaling-stroke"  cx="0" cy="0" r="40" />
</g>
		<g transform="matrix(5.72 0 0 5.72 6.82 0.82)"  >
<circle style="stroke: rgb(161,212,226); stroke-width: 3; stroke-dasharray: none; stroke-linecap: butt; stroke-dashoffset: 0; stroke-linejoin: miter; stroke-miterlimit: 4; fill: rgb(255,255,0); fill-opacity: 0; fill-rule: nonzero; opacity: 1;" vector-effect="non-scaling-stroke"  cx="0" cy="0" r="40" />
</g>
</g>
</g>
<g transform="matrix(0.53 0 0 0.53 317.85 237.9)"  >
<g style=""   >
		<g transform="matrix(1 0 0 1 -16.98 3.76)" id="freepik--background-simple--inject-12"  >
<path style="stroke: none; stroke-width: 1; stroke-dasharray: none; stroke-linecap: butt; stroke-dashoffset: 0; stroke-linejoin: miter; stroke-miterlimit: 4; fill: rgb(23,148,172); fill-rule: nonzero; opacity: 1;"  transform=" translate(-358.02, -253.76)" d="M 696 277.29 s 10 -178 -141 -227 s -227 -13 -275 33 s -64 76 -119 82 s -106 16 -132 83 s 7 120 57 153 s 108 -2 154 19 s 75 56 169 60 s 97 -23 145 -65 S 687 417.29 696 277.29 Z" stroke-linecap="round" />
</g>
		<g transform="matrix(1 0 0 1 -16.98 3.76)" id="freepik--background-simple--inject-12"  >
<path style="stroke: none; stroke-width: 1; stroke-dasharray: none; stroke-linecap: butt; stroke-dashoffset: 0; stroke-linejoin: miter; stroke-miterlimit: 4; fill: rgb(255,255,255); fill-rule: nonzero; opacity: 0.7000000000000001;"  transform=" translate(-358.02, -253.76)" d="M 696 277.29 s 10 -178 -141 -227 s -227 -13 -275 33 s -64 76 -119 82 s -106 16 -132 83 s 7 120 57 153 s 108 -2 154 19 s 75 56 169 60 s 97 -23 145 -65 S 687 417.29 696 277.29 Z" stroke-linecap="round" />
</g>
		<g transform="matrix(1 0 0 1 -343.37 68.41)" id="freepik--Plants--inject-12"  >
<path style="stroke: none; stroke-width: 1; stroke-dasharray: none; stroke-linecap: butt; stroke-dashoffset: 0; stroke-linejoin: miter; stroke-miterlimit: 4; fill: rgb(0,0,0); fill-rule: nonzero; opacity: 0.30000000000000004;"  transform=" translate(-31.63, -318.41)" d="M 29.16 325.36 C 32.88 327 42 326.78 42 326.78 s -2 -6 -2.13 -6.32 c -2 -4.18 -8.31 -11.08 -13.45 -10.39 a 6.14 6.14 0 0 0 -4.93 7.7 C 22.33 321.33 26 324 29.16 325.36 Z" stroke-linecap="round" />
</g>
		<g transform="matrix(1 0 0 1 -287.1 113.99)" id="freepik--Plants--inject-12"  >
<path style="stroke: none; stroke-width: 1; stroke-dasharray: none; stroke-linecap: butt; stroke-dashoffset: 0; stroke-linejoin: miter; stroke-miterlimit: 4; fill: rgb(0,0,0); fill-rule: nonzero; opacity: 0.30000000000000004;"  transform=" translate(-87.9, -363.99)" d="M 32.3 351.73 c 3.86 0.57 12 -1.79 12.63 -2 a 110.2 110.2 0 0 0 4.93 13.64 c 1.12 2.59 2.33 5.16 3.57 7.72 c -0.74 -1.09 -1.41 -2.05 -1.52 -2.18 c -3 -3.5 -10.95 -8.49 -15.72 -6.46 a 6.14 6.14 0 0 0 -2.72 8.72 c 1.76 3.21 6 4.8 9.41 5.3 s 10.44 -1.37 12.28 -1.88 c 0.48 1 1 2 1.45 2.93 c 2.35 4.69 4.72 9.35 6.9 14 c 0.77 1.64 1.47 3.28 2.18 4.92 c -0.66 -1 -1.23 -1.77 -1.33 -1.89 c -3 -3.5 -10.94 -8.49 -15.72 -6.46 a 6.14 6.14 0 0 0 -2.72 8.72 c 1.77 3.21 6 4.8 9.41 5.3 s 9.77 -1.19 12 -1.79 c 0.67 1.7 1.35 3.4 1.92 5.08 c 0.37 1.15 0.8 2.24 1.1 3.42 s 0.65 2.31 1 3.45 c 0.54 2.21 1.1 4.5 1.56 6.67 c 0.34 1.51 0.63 3 0.93 4.41 c -0.75 -1.63 -2.28 -4.81 -2.44 -5.06 c -2.46 -3.92 -9.53 -10.05 -14.56 -8.77 a 6.14 6.14 0 0 0 -4 8.21 c 1.26 3.44 5.19 5.64 8.5 6.66 c 3.64 1.11 11.71 0.09 12.71 0 c 0.49 2.41 0.93 4.76 1.32 7 c 0.87 4.9 1.52 9.3 2 13 h 3.4 c -0.59 -3.85 -1.36 -8.43 -2.39 -13.59 c -0.48 -2.44 -1 -5 -1.65 -7.72 a 67.4 67.4 0 0 0 7.1 -3.34 c 2.65 2.88 9.46 6.24 10.34 6.67 c -0.93 2.28 -1.85 4.48 -2.75 6.55 c -1.89 4.33 -3.67 8.17 -5.25 11.43 h 3.68 c 1.35 -3 2.84 -6.44 4.4 -10.24 c 1 -2.3 1.92 -4.79 2.89 -7.35 c 1 0.2 9 1.83 12.68 1 c 3.37 -0.77 7.46 -2.68 9 -6 a 6.14 6.14 0 0 0 -3.39 -8.49 c -4.91 -1.65 -12.42 3.94 -15.17 7.66 c -0.16 0.22 -1.66 2.81 -2.57 4.45 c 0.39 -1.05 0.78 -2.06 1.17 -3.15 c 0.79 -2.14 1.5 -4.29 2.29 -6.61 l 1 -3.44 c 0.36 -1.13 0.61 -2.38 0.92 -3.59 c 0.67 -2.81 1.21 -5.68 1.69 -8.6 c 1.87 0.69 8.57 3 12 2.77 s 7.78 -1.51 9.78 -4.58 a 6.14 6.14 0 0 0 -2.06 -8.9 c -4.61 -2.38 -12.88 2 -16.16 5.28 c -0.2 0.2 -2.3 2.81 -3.42 4.26 c 0.28 -1.75 0.56 -3.5 0.78 -5.28 c 0.64 -5.14 1.13 -10.37 1.63 -15.58 c 0.16 -1.6 0.33 -3.18 0.5 -4.78 c 0.66 0.26 8.56 3.19 12.44 2.92 c 3.45 -0.24 7.78 -1.51 9.78 -4.58 a 6.14 6.14 0 0 0 -2.06 -8.9 c -4.61 -2.38 -12.88 2 -16.16 5.28 c -0.25 0.24 -3.25 4 -4 5 c 0.37 -3.5 0.77 -7 1.31 -10.41 a 107.2 107.2 0 0 1 3 -13.7 c 0.31 0.12 8.53 3.22 12.51 2.94 c 3.45 -0.24 7.78 -1.51 9.78 -4.58 a 6.14 6.14 0 0 0 -2.06 -8.9 c -4.62 -2.38 -12.88 2 -16.16 5.28 c -0.26 0.25 -3.49 4.3 -4 5.07 c 0.08 -0.26 0.13 -0.53 0.21 -0.79 a 79.6 79.6 0 0 1 5.43 -13 c 1.18 -2.31 2.44 -4.45 3.7 -6.5 c 1.48 0.73 8.25 4 11.85 4.17 s 7.9 -0.65 10.23 -3.48 a 6.14 6.14 0 0 0 -1.08 -9.07 c -4.32 -2.87 -13 0.57 -16.64 3.46 c -0.19 0.16 -2 2 -3.33 3.32 c 0.59 -0.92 1.18 -1.88 1.76 -2.75 c 2.17 -3.27 4.35 -6.12 6.31 -8.64 c 1.13 -1.42 2.17 -2.69 3.16 -3.86 c 1.83 0 9.17 -0.25 12.38 -1.76 s 6.71 -4.21 7.47 -7.8 a 6.14 6.14 0 0 0 -5.14 -7.55 c -5.15 -0.56 -11.28 6.51 -13.17 10.74 c -0.16 0.37 -2 6.38 -2 6.38 h 0.11 c -1 1.11 -2 2.3 -3.11 3.64 c -2 2.48 -4.27 5.3 -6.52 8.53 A 107.42 107.42 0 0 0 117 334.44 a 80 80 0 0 0 -5.78 13 a 1 1 0 0 1 0 0.17 c 0 -1.52 0 -5.77 -0.08 -6.1 c -0.6 -4.59 -4.45 -13.12 -9.55 -14.06 a 6.13 6.13 0 0 0 -7.08 5.77 c -0.3 3.65 2.34 7.3 4.93 9.61 c 2.91 2.6 11 5.12 11.63 5.31 a 110.36 110.36 0 0 0 -3.42 14.1 c -0.49 2.77 -0.9 5.58 -1.28 8.41 c 0 -1.32 0 -2.49 -0.07 -2.66 c -0.59 -4.59 -4.44 -13.12 -9.55 -14.06 a 6.14 6.14 0 0 0 -7.08 5.77 c -0.3 3.65 2.35 7.3 4.93 9.61 s 9.46 4.62 11.28 5.2 c -0.13 1.09 -0.28 2.17 -0.41 3.26 c -0.62 5.2 -1.22 10.4 -2 15.48 c -0.26 1.79 -0.58 3.54 -0.9 5.3 c 0 -1.17 0 -2.15 -0.06 -2.3 c -0.6 -4.6 -4.45 -13.12 -9.55 -14.06 A 6.13 6.13 0 0 0 85.89 388 c -0.3 3.65 2.35 7.3 4.93 9.61 s 8.79 4.39 11 5.09 c -0.38 1.79 -0.75 3.58 -1.2 5.3 c -0.33 1.16 -0.57 2.31 -1 3.46 l -1.1 3.41 c -0.78 2.14 -1.57 4.36 -2.38 6.43 c -0.56 1.44 -1.11 2.81 -1.67 4.19 c 0.28 -1.78 0.76 -5.28 0.77 -5.57 a 23.81 23.81 0 0 0 -3.2 -11.6 a 7.76 7.76 0 0 0 -0.08 -1.36 a 6.15 6.15 0 0 0 -7.51 -5.21 c -5 1.34 -8.19 10.14 -8.43 14.76 c 0 0.28 0.16 3.25 0.31 5.13 c -0.26 -1.09 -0.49 -2.15 -0.76 -3.27 c -0.53 -2.22 -1.12 -4.41 -1.74 -6.78 l -1 -3.43 c -0.32 -1.15 -0.81 -2.33 -1.21 -3.51 c -1 -2.71 -2.13 -5.41 -3.33 -8.1 c 1.94 -0.46 8.8 -2.22 11.56 -4.33 s 5.66 -5.55 5.63 -9.21 a 6.14 6.14 0 0 0 -6.63 -6.29 c -5.16 0.56 -9.63 8.78 -10.57 13.31 c -0.06 0.29 -0.36 3.62 -0.5 5.45 c -0.73 -1.61 -1.46 -3.23 -2.26 -4.84 c -2.3 -4.64 -4.78 -9.27 -7.23 -13.89 q -1.12 -2.13 -2.22 -4.26 c 0.69 -0.16 8.89 -2.06 12 -4.43 c 2.75 -2.11 5.66 -5.55 5.63 -9.22 A 6.13 6.13 0 0 0 67 352.52 c -5.15 0.56 -9.63 8.77 -10.57 13.31 c -0.07 0.34 -0.5 5.14 -0.55 6.36 c -1.62 -3.13 -3.21 -6.26 -4.66 -9.41 a 108.49 108.49 0 0 1 -5.06 -13.07 c 0.32 -0.08 8.9 -2 12.06 -4.45 c 2.75 -2.11 5.66 -5.55 5.63 -9.22 a 6.13 6.13 0 0 0 -6.63 -6.28 c -5.16 0.56 -9.63 8.78 -10.57 13.31 c -0.07 0.36 -0.53 5.52 -0.55 6.46 c -0.08 -0.26 -0.19 -0.52 -0.27 -0.78 a 79.5 79.5 0 0 1 -2.62 -13.81 c -0.29 -2.58 -0.42 -5.05 -0.5 -7.47 c 1.63 -0.2 9.09 -1.19 12.18 -3.06 s 6.23 -4.9 6.61 -8.54 a 6.14 6.14 0 0 0 -5.9 -7 c -5.19 0 -10.54 7.67 -12 12.08 c -0.08 0.24 -0.6 2.76 -0.95 4.6 c 0 -1.09 -0.05 -2.21 -0.05 -3.26 c 0 -3.92 0.26 -7.51 0.5 -10.69 c 0.16 -1.81 0.33 -3.44 0.51 -5 c 1.5 -1 7.5 -5.27 9.35 -8.3 s 3.27 -7.21 1.93 -10.62 a 6.13 6.13 0 0 0 -8.45 -3.47 c -4.61 2.38 -5.82 11.66 -5.06 16.22 c 0.06 0.4 1.8 6.46 1.88 6.4 l 0.09 -0.06 c -0.2 1.46 -0.4 3 -0.58 4.76 c -0.32 3.18 -0.65 6.77 -0.74 10.71 A 108.82 108.82 0 0 0 42.36 335 a 80.24 80.24 0 0 0 2.35 14 a 1 1 0 0 1 0 0.16 c -0.81 -1.28 -3.21 -4.79 -3.43 -5 c -3 -3.5 -10.95 -8.49 -15.72 -6.46 a 6.14 6.14 0 0 0 -2.72 8.72 C 24.65 349.65 28.88 351.24 32.3 351.73 Z" stroke-linecap="round" />
</g>
		<g transform="matrix(1 0 0 1 -259.11 65.82)" id="freepik--Plants--inject-12"  >
<path style="stroke: none; stroke-width: 1; stroke-dasharray: none; stroke-linecap: butt; stroke-dashoffset: 0; stroke-linejoin: miter; stroke-miterlimit: 4; fill: rgb(0,0,0); fill-rule: nonzero; opacity: 0.30000000000000004;"  transform=" translate(-115.89, -315.82)" d="M 121.26 327.36 c 0.08 0.05 1.65 -6.05 1.71 -6.45 c 0.64 -4.58 -0.83 -13.82 -5.5 -16.08 a 6.13 6.13 0 0 0 -8.35 3.7 c -1.25 3.44 0.33 7.66 2.21 10.57 C 113.54 322.51 121.25 327.36 121.26 327.36 Z" stroke-linecap="round" />
</g>
		<g transform="matrix(1 0 0 1 243.2 68.41)" id="freepik--Plants--inject-12"  >
<path style="stroke: none; stroke-width: 1; stroke-dasharray: none; stroke-linecap: butt; stroke-dashoffset: 0; stroke-linejoin: miter; stroke-miterlimit: 4; fill: rgb(0,0,0); fill-rule: nonzero; opacity: 0.30000000000000004;"  transform=" translate(-618.2, -318.41)" d="M 615.74 325.36 c 3.72 1.63 12.82 1.42 12.83 1.42 s -2 -6 -2.13 -6.32 c -2 -4.18 -8.31 -11.08 -13.45 -10.39 a 6.14 6.14 0 0 0 -4.93 7.7 C 608.91 321.33 612.57 324 615.74 325.36 Z" stroke-linecap="round" />
</g>
		<g transform="matrix(1 0 0 1 299.44 114.01)" id="freepik--Plants--inject-12"  >
<path style="stroke: none; stroke-width: 1; stroke-dasharray: none; stroke-linecap: butt; stroke-dashoffset: 0; stroke-linejoin: miter; stroke-miterlimit: 4; fill: rgb(0,0,0); fill-rule: nonzero; opacity: 0.30000000000000004;"  transform=" translate(-674.44, -364.01)" d="M 618.88 351.73 c 3.86 0.57 12 -1.79 12.63 -2 a 110.2 110.2 0 0 0 4.93 13.64 c 1.12 2.59 2.33 5.16 3.57 7.72 c -0.74 -1.09 -1.41 -2.05 -1.52 -2.18 c -3 -3.5 -11 -8.49 -15.72 -6.46 a 6.14 6.14 0 0 0 -2.72 8.72 c 1.76 3.21 6 4.8 9.41 5.3 s 10.44 -1.37 12.28 -1.88 c 0.48 1 1 2 1.45 2.93 c 2.35 4.69 4.72 9.35 6.9 14 c 0.77 1.64 1.47 3.28 2.18 4.92 c -0.66 -1 -1.23 -1.77 -1.33 -1.89 c -3 -3.5 -10.94 -8.49 -15.72 -6.46 a 6.14 6.14 0 0 0 -2.72 8.72 c 1.77 3.21 6 4.8 9.41 5.3 s 9.77 -1.19 12 -1.79 c 0.67 1.7 1.35 3.4 1.92 5.08 c 0.37 1.15 0.8 2.24 1.1 3.42 s 0.65 2.31 1 3.45 c 0.54 2.21 1.1 4.5 1.56 6.67 c 0.34 1.51 0.63 3 0.93 4.41 c -0.75 -1.63 -2.28 -4.81 -2.44 -5.06 c -2.46 -3.92 -9.53 -10.05 -14.56 -8.77 a 6.14 6.14 0 0 0 -4 8.21 c 1.26 3.44 5.19 5.64 8.5 6.66 c 3.64 1.11 11.71 0.09 12.71 0 c 0.49 2.41 0.93 4.76 1.32 7 c 0.87 4.9 1.52 9.3 2 13 h 3.4 c -0.59 -3.85 -1.36 -8.43 -2.39 -13.59 c -0.48 -2.44 -1 -5 -1.65 -7.72 a 67.4 67.4 0 0 0 7.1 -3.34 c 2.65 2.88 9.46 6.24 10.34 6.67 c -0.93 2.28 -1.85 4.48 -2.75 6.55 c -1.89 4.33 -3.67 8.17 -5.25 11.43 h 3.68 c 1.35 -3 2.84 -6.44 4.4 -10.24 c 1 -2.3 1.92 -4.79 2.89 -7.35 c 1 0.2 9 1.83 12.68 1 c 3.37 -0.77 7.46 -2.68 9 -6 a 6.14 6.14 0 0 0 -3.39 -8.49 c -4.91 -1.65 -12.42 3.94 -15.17 7.66 c -0.16 0.22 -1.66 2.81 -2.57 4.45 c 0.39 -1.05 0.78 -2.06 1.17 -3.15 c 0.79 -2.14 1.5 -4.29 2.29 -6.61 l 1 -3.44 c 0.36 -1.13 0.61 -2.38 0.92 -3.59 c 0.67 -2.81 1.21 -5.68 1.69 -8.6 c 1.87 0.69 8.57 3 12 2.77 s 7.78 -1.51 9.78 -4.58 a 6.14 6.14 0 0 0 -2.06 -8.9 c -4.61 -2.38 -12.88 2 -16.16 5.28 c -0.2 0.2 -2.3 2.81 -3.42 4.26 c 0.28 -1.75 0.56 -3.5 0.78 -5.28 c 0.64 -5.14 1.13 -10.37 1.63 -15.58 c 0.16 -1.6 0.33 -3.18 0.5 -4.78 c 0.66 0.26 8.56 3.19 12.44 2.92 c 3.45 -0.24 7.78 -1.51 9.78 -4.58 a 6.14 6.14 0 0 0 -2.06 -8.9 c -4.61 -2.38 -12.88 2 -16.16 5.28 c -0.25 0.24 -3.25 4 -4 5 c 0.37 -3.5 0.77 -7 1.31 -10.41 a 107.2 107.2 0 0 1 3 -13.7 c 0.31 0.12 8.53 3.22 12.51 2.94 c 3.45 -0.24 7.78 -1.51 9.78 -4.58 a 6.14 6.14 0 0 0 -2.06 -8.9 c -4.62 -2.38 -12.88 2 -16.16 5.28 c -0.26 0.25 -3.49 4.3 -4 5.07 c 0.08 -0.26 0.13 -0.53 0.21 -0.79 a 79.6 79.6 0 0 1 5.43 -13 c 1.18 -2.31 2.44 -4.45 3.7 -6.5 c 1.48 0.73 8.25 4 11.85 4.17 s 7.9 -0.65 10.23 -3.48 A 6.14 6.14 0 0 0 729 320 c -4.32 -2.87 -13 0.57 -16.64 3.46 c -0.19 0.16 -2 2 -3.33 3.32 c 0.59 -0.92 1.18 -1.88 1.76 -2.75 c 2.17 -3.27 4.35 -6.12 6.31 -8.64 c 1.13 -1.42 2.17 -2.69 3.17 -3.86 c 1.82 0 9.16 -0.25 12.37 -1.76 s 6.71 -4.21 7.47 -7.8 a 6.14 6.14 0 0 0 -5.14 -7.55 c -5.15 -0.56 -11.28 6.51 -13.17 10.74 c -0.16 0.37 -2.05 6.38 -2 6.38 H 720 c -1 1.11 -2 2.3 -3.11 3.64 c -2 2.48 -4.27 5.3 -6.52 8.53 a 107.42 107.42 0 0 0 -6.77 10.78 a 79.11 79.11 0 0 0 -5.77 13 l -0.05 0.17 c 0 -1.52 0 -5.77 -0.08 -6.1 c -0.6 -4.59 -4.45 -13.12 -9.55 -14.06 a 6.13 6.13 0 0 0 -7.08 5.77 c -0.3 3.65 2.35 7.3 4.93 9.61 c 2.91 2.6 11 5.12 11.63 5.31 a 110.36 110.36 0 0 0 -3.42 14.1 c -0.49 2.77 -0.9 5.58 -1.28 8.41 c 0 -1.32 0 -2.49 -0.07 -2.66 c -0.6 -4.59 -4.44 -13.12 -9.55 -14.06 a 6.14 6.14 0 0 0 -7.08 5.77 c -0.3 3.65 2.35 7.3 4.93 9.61 s 9.46 4.62 11.28 5.2 c -0.13 1.09 -0.28 2.17 -0.41 3.26 c -0.62 5.2 -1.22 10.4 -2 15.48 c -0.26 1.79 -0.58 3.54 -0.9 5.3 c 0 -1.17 0 -2.15 -0.06 -2.3 c -0.6 -4.6 -4.45 -13.12 -9.55 -14.06 a 6.13 6.13 0 0 0 -7.08 5.77 c -0.3 3.65 2.35 7.3 4.93 9.61 s 8.79 4.39 11 5.09 c -0.38 1.79 -0.75 3.58 -1.2 5.3 c -0.33 1.16 -0.57 2.31 -1 3.46 l -1.1 3.41 c -0.78 2.14 -1.57 4.36 -2.38 6.43 c -0.56 1.44 -1.11 2.81 -1.67 4.19 c 0.28 -1.78 0.76 -5.28 0.77 -5.57 a 23.81 23.81 0 0 0 -3.2 -11.6 a 7.76 7.76 0 0 0 -0.08 -1.36 a 6.15 6.15 0 0 0 -7.51 -5.21 c -5 1.34 -8.19 10.14 -8.43 14.76 c 0 0.28 0.16 3.25 0.31 5.13 c -0.26 -1.09 -0.49 -2.15 -0.76 -3.27 c -0.53 -2.22 -1.12 -4.41 -1.74 -6.78 l -1 -3.43 c -0.32 -1.15 -0.81 -2.33 -1.21 -3.51 c -1 -2.71 -2.13 -5.41 -3.33 -8.1 c 1.94 -0.46 8.8 -2.22 11.56 -4.33 S 672 386.63 672 383 a 6.14 6.14 0 0 0 -6.63 -6.29 c -5.16 0.56 -9.63 8.78 -10.57 13.31 c -0.06 0.29 -0.36 3.62 -0.5 5.45 c -0.73 -1.61 -1.46 -3.23 -2.26 -4.84 c -2.3 -4.64 -4.78 -9.27 -7.23 -13.89 q -1.12 -2.13 -2.22 -4.26 c 0.69 -0.16 8.89 -2.06 12 -4.43 c 2.75 -2.11 5.66 -5.55 5.63 -9.22 a 6.13 6.13 0 0 0 -6.63 -6.28 c -5.15 0.56 -9.63 8.77 -10.57 13.31 c -0.07 0.34 -0.5 5.14 -0.55 6.36 c -1.62 -3.13 -3.21 -6.26 -4.66 -9.41 a 108.49 108.49 0 0 1 -5.06 -13.07 c 0.32 -0.08 8.9 -2 12.06 -4.45 c 2.75 -2.11 5.66 -5.55 5.63 -9.22 a 6.13 6.13 0 0 0 -6.63 -6.28 c -5.16 0.56 -9.63 8.78 -10.57 13.31 c -0.07 0.36 -0.53 5.52 -0.55 6.46 c -0.08 -0.26 -0.19 -0.52 -0.27 -0.78 a 79.5 79.5 0 0 1 -2.62 -13.81 c -0.29 -2.58 -0.42 -5.05 -0.5 -7.47 c 1.63 -0.2 9.09 -1.19 12.18 -3.06 s 6.23 -4.9 6.61 -8.54 a 6.14 6.14 0 0 0 -5.9 -7 c -5.19 0 -10.54 7.67 -12 12.08 c -0.08 0.24 -0.6 2.76 -1 4.6 c 0 -1.09 0 -2.21 0 -3.26 c 0 -3.92 0.26 -7.51 0.5 -10.69 c 0.16 -1.81 0.33 -3.44 0.51 -5 c 1.5 -1 7.5 -5.27 9.35 -8.3 s 3.27 -7.21 1.93 -10.62 a 6.13 6.13 0 0 0 -8.45 -3.47 c -4.61 2.38 -5.82 11.66 -5.06 16.22 c 0.06 0.4 1.8 6.46 1.88 6.4 l 0.09 -0.06 c -0.2 1.46 -0.4 3 -0.58 4.76 c -0.32 3.18 -0.65 6.77 -0.74 10.71 a 108.82 108.82 0 0 0 0.31 12.72 a 80.24 80.24 0 0 0 2.35 14 a 1 1 0 0 1 0.05 0.16 c -0.81 -1.28 -3.21 -4.79 -3.43 -5 c -3 -3.5 -10.95 -8.49 -15.72 -6.46 a 6.14 6.14 0 0 0 -2.72 8.72 C 611.23 349.65 615.46 351.24 618.88 351.73 Z" stroke-linecap="round" />
</g>
		<g transform="matrix(1 0 0 1 327.47 65.82)" id="freepik--Plants--inject-12"  >
<path style="stroke: none; stroke-width: 1; stroke-dasharray: none; stroke-linecap: butt; stroke-dashoffset: 0; stroke-linejoin: miter; stroke-miterlimit: 4; fill: rgb(0,0,0); fill-rule: nonzero; opacity: 0.30000000000000004;"  transform=" translate(-702.47, -315.82)" d="M 707.84 327.36 c 0.08 0.05 1.65 -6.05 1.71 -6.45 c 0.64 -4.58 -0.83 -13.82 -5.5 -16.08 a 6.13 6.13 0 0 0 -8.35 3.7 c -1.25 3.44 0.33 7.66 2.21 10.57 C 700.12 322.51 707.83 327.36 707.84 327.36 Z" stroke-linecap="round" />
</g>
		<g transform="matrix(1 0 0 1 1.56 194.34)" id="freepik--Floor--inject-12"  >
<line style="stroke: rgb(38,50,56); stroke-width: 1; stroke-dasharray: none; stroke-linecap: round; stroke-dashoffset: 0; stroke-linejoin: round; stroke-miterlimit: 4; fill: none; fill-rule: nonzero; opacity: 1;"  x1="-357.295" y1="0" x2="357.295" y2="0" />
</g>
		<g transform="matrix(1 0 0 1 -279.92 -182.9)" id="freepik--Codes--inject-12"  >
<path style="stroke: none; stroke-width: 1; stroke-dasharray: none; stroke-linecap: butt; stroke-dashoffset: 0; stroke-linejoin: miter; stroke-miterlimit: 4; fill: rgb(0,0,0); fill-rule: nonzero; opacity: 0.30000000000000004;"  transform=" translate(-95.08, -67.1)" d="M 133.58 68.1 h -77 a 1 1 0 0 1 0 -2 h 77 a 1 1 0 0 1 0 2 Z" stroke-linecap="round" />
</g>
		<g transform="matrix(1 0 0 1 -298.29 -159.87)" id="freepik--Codes--inject-12"  >
<path style="stroke: none; stroke-width: 1; stroke-dasharray: none; stroke-linecap: butt; stroke-dashoffset: 0; stroke-linejoin: miter; stroke-miterlimit: 4; fill: rgb(0,0,0); fill-rule: nonzero; opacity: 0.30000000000000004;"  transform=" translate(-76.71, -90.13)" d="M 96.8 91.13 H 56.62 a 1 1 0 0 1 0 -2 H 96.8 a 1 1 0 1 1 0 2 Z" stroke-linecap="round" />
</g>
		<g transform="matrix(1 0 0 1 -299.65 -172.53)" id="freepik--Codes--inject-12"  >
<path style="stroke: none; stroke-width: 1; stroke-dasharray: none; stroke-linecap: butt; stroke-dashoffset: 0; stroke-linejoin: miter; stroke-miterlimit: 4; fill: rgb(0,0,0); fill-rule: nonzero; opacity: 0.30000000000000004;"  transform=" translate(-75.35, -77.47)" d="M 94.08 78.47 H 56.62 a 1 1 0 0 1 0 -2 H 94.08 a 1 1 0 1 1 0 2 Z" stroke-linecap="round" />
</g>
		<g transform="matrix(1 0 0 1 -262.88 -172.53)" id="freepik--Codes--inject-12"  >
<path style="stroke: none; stroke-width: 1; stroke-dasharray: none; stroke-linecap: butt; stroke-dashoffset: 0; stroke-linejoin: miter; stroke-miterlimit: 4; fill: rgb(0,0,0); fill-rule: nonzero; opacity: 0.30000000000000004;"  transform=" translate(-112.13, -77.47)" d="M 122 78.47 H 102.25 a 1 1 0 0 1 0 -2 H 122 a 1 1 0 0 1 0 2 Z" stroke-linecap="round" />
</g>
		<g transform="matrix(1 0 0 1 -231.54 -172.53)" id="freepik--Codes--inject-12"  >
<path style="stroke: none; stroke-width: 1; stroke-dasharray: none; stroke-linecap: butt; stroke-dashoffset: 0; stroke-linejoin: miter; stroke-miterlimit: 4; fill: rgb(0,0,0); fill-rule: nonzero; opacity: 0.30000000000000004;"  transform=" translate(-143.46, -77.47)" d="M 153.33 78.47 H 133.58 a 1 1 0 0 1 0 -2 h 19.75 a 1 1 0 0 1 0 2 Z" stroke-linecap="round" />
</g>
		<g transform="matrix(1 0 0 1 -299.65 -150.08)" id="freepik--Codes--inject-12"  >
<path style="stroke: none; stroke-width: 1; stroke-dasharray: none; stroke-linecap: butt; stroke-dashoffset: 0; stroke-linejoin: miter; stroke-miterlimit: 4; fill: rgb(0,0,0); fill-rule: nonzero; opacity: 0.30000000000000004;"  transform=" translate(-75.35, -99.92)" d="M 94.08 100.92 H 56.62 a 1 1 0 1 1 0 -2 H 94.08 a 1 1 0 0 1 0 2 Z" stroke-linecap="round" />
</g>
		<g transform="matrix(1 0 0 1 -262.88 -150.08)" id="freepik--Codes--inject-12"  >
<path style="stroke: none; stroke-width: 1; stroke-dasharray: none; stroke-linecap: butt; stroke-dashoffset: 0; stroke-linejoin: miter; stroke-miterlimit: 4; fill: rgb(0,0,0); fill-rule: nonzero; opacity: 0.30000000000000004;"  transform=" translate(-112.13, -99.92)" d="M 122 100.92 H 102.25 a 1 1 0 0 1 0 -2 H 122 a 1 1 0 0 1 0 2 Z" stroke-linecap="round" />
</g>
		<g transform="matrix(1 0 0 1 -231.54 -150.08)" id="freepik--Codes--inject-12"  >
<path style="stroke: none; stroke-width: 1; stroke-dasharray: none; stroke-linecap: butt; stroke-dashoffset: 0; stroke-linejoin: miter; stroke-miterlimit: 4; fill: rgb(0,0,0); fill-rule: nonzero; opacity: 0.30000000000000004;"  transform=" translate(-143.46, -99.92)" d="M 153.33 100.92 H 133.58 a 1 1 0 0 1 0 -2 h 19.75 a 1 1 0 0 1 0 2 Z" stroke-linecap="round" />
</g>
		<g transform="matrix(1 0 0 1 -299.65 -127.63)" id="freepik--Codes--inject-12"  >
<path style="stroke: none; stroke-width: 1; stroke-dasharray: none; stroke-linecap: butt; stroke-dashoffset: 0; stroke-linejoin: miter; stroke-miterlimit: 4; fill: rgb(0,0,0); fill-rule: nonzero; opacity: 0.30000000000000004;"  transform=" translate(-75.35, -122.37)" d="M 94.08 123.37 H 56.62 a 1 1 0 0 1 0 -2 H 94.08 a 1 1 0 0 1 0 2 Z" stroke-linecap="round" />
</g>
		<g transform="matrix(1 0 0 1 -262.88 -127.63)" id="freepik--Codes--inject-12"  >
<path style="stroke: none; stroke-width: 1; stroke-dasharray: none; stroke-linecap: butt; stroke-dashoffset: 0; stroke-linejoin: miter; stroke-miterlimit: 4; fill: rgb(0,0,0); fill-rule: nonzero; opacity: 0.30000000000000004;"  transform=" translate(-112.13, -122.37)" d="M 122 123.37 H 102.25 a 1 1 0 0 1 0 -2 H 122 a 1 1 0 0 1 0 2 Z" stroke-linecap="round" />
</g>
		<g transform="matrix(1 0 0 1 -231.54 -127.63)" id="freepik--Codes--inject-12"  >
<path style="stroke: none; stroke-width: 1; stroke-dasharray: none; stroke-linecap: butt; stroke-dashoffset: 0; stroke-linejoin: miter; stroke-miterlimit: 4; fill: rgb(0,0,0); fill-rule: nonzero; opacity: 0.30000000000000004;"  transform=" translate(-143.46, -122.37)" d="M 153.33 123.37 H 133.58 a 1 1 0 0 1 0 -2 h 19.75 a 1 1 0 1 1 0 2 Z" stroke-linecap="round" />
</g>
		<g transform="matrix(1 0 0 1 -280.98 -117.84)" id="freepik--Codes--inject-12"  >
<path style="stroke: none; stroke-width: 1; stroke-dasharray: none; stroke-linecap: butt; stroke-dashoffset: 0; stroke-linejoin: miter; stroke-miterlimit: 4; fill: rgb(0,0,0); fill-rule: nonzero; opacity: 0.30000000000000004;"  transform=" translate(-94.03, -132.16)" d="M 108.27 133.16 H 79.78 a 1 1 0 0 1 0 -2 h 28.49 a 1 1 0 1 1 0 2 Z" stroke-linecap="round" />
</g>
		<g transform="matrix(1 0 0 1 -253 -117.84)" id="freepik--Codes--inject-12"  >
<path style="stroke: none; stroke-width: 1; stroke-dasharray: none; stroke-linecap: butt; stroke-dashoffset: 0; stroke-linejoin: miter; stroke-miterlimit: 4; fill: rgb(0,0,0); fill-rule: nonzero; opacity: 0.30000000000000004;"  transform=" translate(-122, -132.16)" d="M 129.5 133.16 h -15 a 1 1 0 1 1 0 -2 h 15 a 1 1 0 0 1 0 2 Z" stroke-linecap="round" />
</g>
		<g transform="matrix(1 0 0 1 -229.17 -117.84)" id="freepik--Codes--inject-12"  >
<path style="stroke: none; stroke-width: 1; stroke-dasharray: none; stroke-linecap: butt; stroke-dashoffset: 0; stroke-linejoin: miter; stroke-miterlimit: 4; fill: rgb(0,0,0); fill-rule: nonzero; opacity: 0.30000000000000004;"  transform=" translate(-145.83, -132.16)" d="M 153.33 133.16 h -15 a 1 1 0 0 1 0 -2 h 15 a 1 1 0 0 1 0 2 Z" stroke-linecap="round" />
</g>
		<g transform="matrix(1 0 0 1 -280.98 -105.75)" id="freepik--Codes--inject-12"  >
<path style="stroke: none; stroke-width: 1; stroke-dasharray: none; stroke-linecap: butt; stroke-dashoffset: 0; stroke-linejoin: miter; stroke-miterlimit: 4; fill: rgb(0,0,0); fill-rule: nonzero; opacity: 0.30000000000000004;"  transform=" translate(-94.03, -144.25)" d="M 108.27 145.25 H 79.78 a 1 1 0 0 1 0 -2 h 28.49 a 1 1 0 0 1 0 2 Z" stroke-linecap="round" />
</g>
		<g transform="matrix(1 0 0 1 -253 -105.75)" id="freepik--Codes--inject-12"  >
<path style="stroke: none; stroke-width: 1; stroke-dasharray: none; stroke-linecap: butt; stroke-dashoffset: 0; stroke-linejoin: miter; stroke-miterlimit: 4; fill: rgb(0,0,0); fill-rule: nonzero; opacity: 0.30000000000000004;"  transform=" translate(-122, -144.25)" d="M 129.5 145.25 h -15 a 1 1 0 0 1 0 -2 h 15 a 1 1 0 0 1 0 2 Z" stroke-linecap="round" />
</g>
		<g transform="matrix(1 0 0 1 -229.17 -105.75)" id="freepik--Codes--inject-12"  >
<path style="stroke: none; stroke-width: 1; stroke-dasharray: none; stroke-linecap: butt; stroke-dashoffset: 0; stroke-linejoin: miter; stroke-miterlimit: 4; fill: rgb(0,0,0); fill-rule: nonzero; opacity: 0.30000000000000004;"  transform=" translate(-145.83, -144.25)" d="M 153.33 145.25 h -15 a 1 1 0 0 1 0 -2 h 15 a 1 1 0 1 1 0 2 Z" stroke-linecap="round" />
</g>
		<g transform="matrix(1 0 0 1 -279.92 -92.51)" id="freepik--Codes--inject-12"  >
<path style="stroke: none; stroke-width: 1; stroke-dasharray: none; stroke-linecap: butt; stroke-dashoffset: 0; stroke-linejoin: miter; stroke-miterlimit: 4; fill: rgb(0,0,0); fill-rule: nonzero; opacity: 0.30000000000000004;"  transform=" translate(-95.08, -157.49)" d="M 133.58 158.49 h -77 a 1 1 0 0 1 0 -2 h 77 a 1 1 0 1 1 0 2 Z" stroke-linecap="round" />
</g>
		<g transform="matrix(1 0 0 1 -298.29 -69.48)" id="freepik--Codes--inject-12"  >
<path style="stroke: none; stroke-width: 1; stroke-dasharray: none; stroke-linecap: butt; stroke-dashoffset: 0; stroke-linejoin: miter; stroke-miterlimit: 4; fill: rgb(0,0,0); fill-rule: nonzero; opacity: 0.30000000000000004;"  transform=" translate(-76.71, -180.52)" d="M 96.8 181.52 H 56.62 a 1 1 0 0 1 0 -2 H 96.8 a 1 1 0 0 1 0 2 Z" stroke-linecap="round" />
</g>
		<g transform="matrix(1 0 0 1 -299.65 -82.14)" id="freepik--Codes--inject-12"  >
<path style="stroke: none; stroke-width: 1; stroke-dasharray: none; stroke-linecap: butt; stroke-dashoffset: 0; stroke-linejoin: miter; stroke-miterlimit: 4; fill: rgb(0,0,0); fill-rule: nonzero; opacity: 0.30000000000000004;"  transform=" translate(-75.35, -167.86)" d="M 94.08 168.86 H 56.62 a 1 1 0 0 1 0 -2 H 94.08 a 1 1 0 0 1 0 2 Z" stroke-linecap="round" />
</g>
		<g transform="matrix(1 0 0 1 -262.88 -82.14)" id="freepik--Codes--inject-12"  >
<path style="stroke: none; stroke-width: 1; stroke-dasharray: none; stroke-linecap: butt; stroke-dashoffset: 0; stroke-linejoin: miter; stroke-miterlimit: 4; fill: rgb(0,0,0); fill-rule: nonzero; opacity: 0.30000000000000004;"  transform=" translate(-112.13, -167.86)" d="M 122 168.86 H 102.25 a 1 1 0 0 1 0 -2 H 122 a 1 1 0 0 1 0 2 Z" stroke-linecap="round" />
</g>
		<g transform="matrix(1 0 0 1 -231.54 -82.14)" id="freepik--Codes--inject-12"  >
<path style="stroke: none; stroke-width: 1; stroke-dasharray: none; stroke-linecap: butt; stroke-dashoffset: 0; stroke-linejoin: miter; stroke-miterlimit: 4; fill: rgb(0,0,0); fill-rule: nonzero; opacity: 0.30000000000000004;"  transform=" translate(-143.46, -167.86)" d="M 153.33 168.86 H 133.58 a 1 1 0 0 1 0 -2 h 19.75 a 1 1 0 1 1 0 2 Z" stroke-linecap="round" />
</g>
		<g transform="matrix(1 0 0 1 -299.65 -59.69)" id="freepik--Codes--inject-12"  >
<path style="stroke: none; stroke-width: 1; stroke-dasharray: none; stroke-linecap: butt; stroke-dashoffset: 0; stroke-linejoin: miter; stroke-miterlimit: 4; fill: rgb(0,0,0); fill-rule: nonzero; opacity: 0.30000000000000004;"  transform=" translate(-75.35, -190.31)" d="M 94.08 191.31 H 56.62 a 1 1 0 0 1 0 -2 H 94.08 a 1 1 0 0 1 0 2 Z" stroke-linecap="round" />
</g>
		<g transform="matrix(1 0 0 1 -262.88 -59.69)" id="freepik--Codes--inject-12"  >
<path style="stroke: none; stroke-width: 1; stroke-dasharray: none; stroke-linecap: butt; stroke-dashoffset: 0; stroke-linejoin: miter; stroke-miterlimit: 4; fill: rgb(0,0,0); fill-rule: nonzero; opacity: 0.30000000000000004;"  transform=" translate(-112.13, -190.31)" d="M 122 191.31 H 102.25 a 1 1 0 0 1 0 -2 H 122 a 1 1 0 0 1 0 2 Z" stroke-linecap="round" />
</g>
		<g transform="matrix(1 0 0 1 -231.54 -59.69)" id="freepik--Codes--inject-12"  >
<path style="stroke: none; stroke-width: 1; stroke-dasharray: none; stroke-linecap: butt; stroke-dashoffset: 0; stroke-linejoin: miter; stroke-miterlimit: 4; fill: rgb(0,0,0); fill-rule: nonzero; opacity: 0.30000000000000004;"  transform=" translate(-143.46, -190.31)" d="M 153.33 191.31 H 133.58 a 1 1 0 1 1 0 -2 h 19.75 a 1 1 0 0 1 0 2 Z" stroke-linecap="round" />
</g>
		<g transform="matrix(1 0 0 1 -299.65 -37.24)" id="freepik--Codes--inject-12"  >
<path style="stroke: none; stroke-width: 1; stroke-dasharray: none; stroke-linecap: butt; stroke-dashoffset: 0; stroke-linejoin: miter; stroke-miterlimit: 4; fill: rgb(0,0,0); fill-rule: nonzero; opacity: 0.30000000000000004;"  transform=" translate(-75.35, -212.76)" d="M 94.08 213.76 H 56.62 a 1 1 0 0 1 0 -2 H 94.08 a 1 1 0 0 1 0 2 Z" stroke-linecap="round" />
</g>
		<g transform="matrix(1 0 0 1 -262.88 -37.24)" id="freepik--Codes--inject-12"  >
<path style="stroke: none; stroke-width: 1; stroke-dasharray: none; stroke-linecap: butt; stroke-dashoffset: 0; stroke-linejoin: miter; stroke-miterlimit: 4; fill: rgb(0,0,0); fill-rule: nonzero; opacity: 0.30000000000000004;"  transform=" translate(-112.13, -212.76)" d="M 122 213.76 H 102.25 a 1 1 0 0 1 0 -2 H 122 a 1 1 0 0 1 0 2 Z" stroke-linecap="round" />
</g>
		<g transform="matrix(1 0 0 1 -231.54 -37.24)" id="freepik--Codes--inject-12"  >
<path style="stroke: none; stroke-width: 1; stroke-dasharray: none; stroke-linecap: butt; stroke-dashoffset: 0; stroke-linejoin: miter; stroke-miterlimit: 4; fill: rgb(0,0,0); fill-rule: nonzero; opacity: 0.30000000000000004;"  transform=" translate(-143.46, -212.76)" d="M 153.33 213.76 H 133.58 a 1 1 0 0 1 0 -2 h 19.75 a 1 1 0 1 1 0 2 Z" stroke-linecap="round" />
</g>
		<g transform="matrix(1 0 0 1 -280.98 -27.45)" id="freepik--Codes--inject-12"  >
<path style="stroke: none; stroke-width: 1; stroke-dasharray: none; stroke-linecap: butt; stroke-dashoffset: 0; stroke-linejoin: miter; stroke-miterlimit: 4; fill: rgb(0,0,0); fill-rule: nonzero; opacity: 0.30000000000000004;"  transform=" translate(-94.03, -222.55)" d="M 108.27 223.55 H 79.78 a 1 1 0 0 1 0 -2 h 28.49 a 1 1 0 0 1 0 2 Z" stroke-linecap="round" />
</g>
		<g transform="matrix(1 0 0 1 -253 -27.45)" id="freepik--Codes--inject-12"  >
<path style="stroke: none; stroke-width: 1; stroke-dasharray: none; stroke-linecap: butt; stroke-dashoffset: 0; stroke-linejoin: miter; stroke-miterlimit: 4; fill: rgb(0,0,0); fill-rule: nonzero; opacity: 0.30000000000000004;"  transform=" translate(-122, -222.55)" d="M 129.5 223.55 h -15 a 1 1 0 0 1 0 -2 h 15 a 1 1 0 0 1 0 2 Z" stroke-linecap="round" />
</g>
		<g transform="matrix(1 0 0 1 -229.17 -27.45)" id="freepik--Codes--inject-12"  >
<path style="stroke: none; stroke-width: 1; stroke-dasharray: none; stroke-linecap: butt; stroke-dashoffset: 0; stroke-linejoin: miter; stroke-miterlimit: 4; fill: rgb(0,0,0); fill-rule: nonzero; opacity: 0.30000000000000004;"  transform=" translate(-145.83, -222.55)" d="M 153.33 223.55 h -15 a 1 1 0 0 1 0 -2 h 15 a 1 1 0 0 1 0 2 Z" stroke-linecap="round" />
</g>
		<g transform="matrix(1 0 0 1 -280.98 -15.36)" id="freepik--Codes--inject-12"  >
<path style="stroke: none; stroke-width: 1; stroke-dasharray: none; stroke-linecap: butt; stroke-dashoffset: 0; stroke-linejoin: miter; stroke-miterlimit: 4; fill: rgb(0,0,0); fill-rule: nonzero; opacity: 0.30000000000000004;"  transform=" translate(-94.03, -234.64)" d="M 108.27 235.64 H 79.78 a 1 1 0 1 1 0 -2 h 28.49 a 1 1 0 0 1 0 2 Z" stroke-linecap="round" />
</g>
		<g transform="matrix(1 0 0 1 -253 -15.36)" id="freepik--Codes--inject-12"  >
<path style="stroke: none; stroke-width: 1; stroke-dasharray: none; stroke-linecap: butt; stroke-dashoffset: 0; stroke-linejoin: miter; stroke-miterlimit: 4; fill: rgb(0,0,0); fill-rule: nonzero; opacity: 0.30000000000000004;"  transform=" translate(-122, -234.64)" d="M 129.5 235.64 h -15 a 1 1 0 0 1 0 -2 h 15 a 1 1 0 0 1 0 2 Z" stroke-linecap="round" />
</g>
		<g transform="matrix(1 0 0 1 -229.17 -15.36)" id="freepik--Codes--inject-12"  >
<path style="stroke: none; stroke-width: 1; stroke-dasharray: none; stroke-linecap: butt; stroke-dashoffset: 0; stroke-linejoin: miter; stroke-miterlimit: 4; fill: rgb(0,0,0); fill-rule: nonzero; opacity: 0.30000000000000004;"  transform=" translate(-145.83, -234.64)" d="M 153.33 235.64 h -15 a 1 1 0 0 1 0 -2 h 15 a 1 1 0 1 1 0 2 Z" stroke-linecap="round" />
</g>
		<g transform="matrix(1 0 0 1 -312.64 -196.28)" id="freepik--Codes--inject-12"  >
<path style="stroke: none; stroke-width: 1; stroke-dasharray: none; stroke-linecap: butt; stroke-dashoffset: 0; stroke-linejoin: miter; stroke-miterlimit: 4; fill: rgb(0,0,0); fill-rule: nonzero; opacity: 0.30000000000000004;"  transform=" translate(-62.36, -53.72)" d="M 58.72 53.29 L 66 49.57 v 1.07 l -6.1 3.06 v 0 L 66 56.79 v 1.07 l -7.24 -3.73 Z" stroke-linecap="round" />
</g>
		<g transform="matrix(1 0 0 1 -312.66 -196.28)" id="freepik--Codes--inject-12"  >
<path style="stroke: none; stroke-width: 1; stroke-dasharray: none; stroke-linecap: butt; stroke-dashoffset: 0; stroke-linejoin: miter; stroke-miterlimit: 4; fill: rgb(0,0,0); fill-rule: nonzero; opacity: 0.30000000000000004;"  transform=" translate(-62.34, -53.72)" d="M 66.46 58.68 l -8.24 -4.24 V 53 l 8.24 -4.24 V 51 l -5.52 2.76 l 5.52 2.77 Z m -7.24 -4.85 l 0.14 0.07 v -0.37 l -0.14 0.07 Z" stroke-linecap="round" />
</g>
		<g transform="matrix(1 0 0 1 -302.01 -197.16)" id="freepik--Codes--inject-12"  >
<path style="stroke: none; stroke-width: 1; stroke-dasharray: none; stroke-linecap: butt; stroke-dashoffset: 0; stroke-linejoin: miter; stroke-miterlimit: 4; fill: rgb(0,0,0); fill-rule: nonzero; opacity: 0.30000000000000004;"  transform=" translate(-72.99, -52.84)" d="M 70.28 58.49 l 4.35 -11.31 H 75.7 L 71.33 58.49 Z" stroke-linecap="round" />
</g>
		<g transform="matrix(1 0 0 1 -302.01 -197.16)" id="freepik--Codes--inject-12"  >
<polygon style="stroke: none; stroke-width: 1; stroke-dasharray: none; stroke-linecap: butt; stroke-dashoffset: 0; stroke-linejoin: miter; stroke-miterlimit: 4; fill: rgb(0,0,0); fill-rule: nonzero; opacity: 0.30000000000000004;"  points="-1.32,6.16 -3.43,6.16 1.3,-6.16 3.43,-6.16 -1.32,6.16 " />
</g>
		<g transform="matrix(1 0 0 1 -291.38 -196.28)" id="freepik--Codes--inject-12"  >
<path style="stroke: none; stroke-width: 1; stroke-dasharray: none; stroke-linecap: butt; stroke-dashoffset: 0; stroke-linejoin: miter; stroke-miterlimit: 4; fill: rgb(0,0,0); fill-rule: nonzero; opacity: 0.30000000000000004;"  transform=" translate(-83.62, -53.72)" d="M 87.22 54.15 L 80 57.86 V 56.79 l 6.14 -3.06 v 0 L 80 50.64 V 49.57 l 7.23 3.71 Z" stroke-linecap="round" />
</g>
		<g transform="matrix(1 0 0 1 -291.39 -196.26)" id="freepik--Codes--inject-12"  >
<path style="stroke: none; stroke-width: 1; stroke-dasharray: none; stroke-linecap: butt; stroke-dashoffset: 0; stroke-linejoin: miter; stroke-miterlimit: 4; fill: rgb(0,0,0); fill-rule: nonzero; opacity: 0.30000000000000004;"  transform=" translate(-83.6, -53.74)" d="M 79.49 58.68 v -2.2 L 85 53.71 L 79.49 51 v -2.2 L 87.72 53 v 1.49 Z m 7.14 -5.14 v 0.35 l 0.09 0 v -0.26 Z" stroke-linecap="round" />
</g>
		<g transform="matrix(1 0 0 1 -20.44 -182.9)" id="freepik--Codes--inject-12"  >
<path style="stroke: none; stroke-width: 1; stroke-dasharray: none; stroke-linecap: butt; stroke-dashoffset: 0; stroke-linejoin: miter; stroke-miterlimit: 4; fill: rgb(0,0,0); fill-rule: nonzero; opacity: 0.30000000000000004;"  transform=" translate(-354.56, -67.1)" d="M 393.06 68.1 h -77 a 1 1 0 0 1 0 -2 h 77 a 1 1 0 0 1 0 2 Z" stroke-linecap="round" />
</g>
		<g transform="matrix(1 0 0 1 -38.81 -159.87)" id="freepik--Codes--inject-12"  >
<path style="stroke: none; stroke-width: 1; stroke-dasharray: none; stroke-linecap: butt; stroke-dashoffset: 0; stroke-linejoin: miter; stroke-miterlimit: 4; fill: rgb(0,0,0); fill-rule: nonzero; opacity: 0.30000000000000004;"  transform=" translate(-336.19, -90.13)" d="M 356.28 91.13 H 316.1 a 1 1 0 0 1 0 -2 h 40.18 a 1 1 0 0 1 0 2 Z" stroke-linecap="round" />
</g>
		<g transform="matrix(1 0 0 1 -40.17 -172.53)" id="freepik--Codes--inject-12"  >
<path style="stroke: none; stroke-width: 1; stroke-dasharray: none; stroke-linecap: butt; stroke-dashoffset: 0; stroke-linejoin: miter; stroke-miterlimit: 4; fill: rgb(0,0,0); fill-rule: nonzero; opacity: 0.30000000000000004;"  transform=" translate(-334.83, -77.47)" d="M 353.56 78.47 H 316.1 a 1 1 0 0 1 0 -2 h 37.46 a 1 1 0 0 1 0 2 Z" stroke-linecap="round" />
</g>
		<g transform="matrix(1 0 0 1 -3.39 -172.53)" id="freepik--Codes--inject-12"  >
<path style="stroke: none; stroke-width: 1; stroke-dasharray: none; stroke-linecap: butt; stroke-dashoffset: 0; stroke-linejoin: miter; stroke-miterlimit: 4; fill: rgb(0,0,0); fill-rule: nonzero; opacity: 0.30000000000000004;"  transform=" translate(-371.61, -77.47)" d="M 381.48 78.47 H 361.73 a 1 1 0 0 1 0 -2 h 19.75 a 1 1 0 0 1 0 2 Z" stroke-linecap="round" />
</g>
		<g transform="matrix(1 0 0 1 27.94 -172.53)" id="freepik--Codes--inject-12"  >
<path style="stroke: none; stroke-width: 1; stroke-dasharray: none; stroke-linecap: butt; stroke-dashoffset: 0; stroke-linejoin: miter; stroke-miterlimit: 4; fill: rgb(0,0,0); fill-rule: nonzero; opacity: 0.30000000000000004;"  transform=" translate(-402.94, -77.47)" d="M 412.81 78.47 H 393.06 a 1 1 0 0 1 0 -2 h 19.75 a 1 1 0 0 1 0 2 Z" stroke-linecap="round" />
</g>
		<g transform="matrix(1 0 0 1 -40.17 -150.08)" id="freepik--Codes--inject-12"  >
<path style="stroke: none; stroke-width: 1; stroke-dasharray: none; stroke-linecap: butt; stroke-dashoffset: 0; stroke-linejoin: miter; stroke-miterlimit: 4; fill: rgb(0,0,0); fill-rule: nonzero; opacity: 0.30000000000000004;"  transform=" translate(-334.83, -99.92)" d="M 353.56 100.92 H 316.1 a 1 1 0 0 1 0 -2 h 37.46 a 1 1 0 0 1 0 2 Z" stroke-linecap="round" />
</g>
		<g transform="matrix(1 0 0 1 -3.39 -150.08)" id="freepik--Codes--inject-12"  >
<path style="stroke: none; stroke-width: 1; stroke-dasharray: none; stroke-linecap: butt; stroke-dashoffset: 0; stroke-linejoin: miter; stroke-miterlimit: 4; fill: rgb(0,0,0); fill-rule: nonzero; opacity: 0.30000000000000004;"  transform=" translate(-371.61, -99.92)" d="M 381.48 100.92 H 361.73 a 1 1 0 0 1 0 -2 h 19.75 a 1 1 0 0 1 0 2 Z" stroke-linecap="round" />
</g>
		<g transform="matrix(1 0 0 1 27.94 -150.08)" id="freepik--Codes--inject-12"  >
<path style="stroke: none; stroke-width: 1; stroke-dasharray: none; stroke-linecap: butt; stroke-dashoffset: 0; stroke-linejoin: miter; stroke-miterlimit: 4; fill: rgb(0,0,0); fill-rule: nonzero; opacity: 0.30000000000000004;"  transform=" translate(-402.94, -99.92)" d="M 412.81 100.92 H 393.06 a 1 1 0 0 1 0 -2 h 19.75 a 1 1 0 0 1 0 2 Z" stroke-linecap="round" />
</g>
		<g transform="matrix(1 0 0 1 -40.17 -127.63)" id="freepik--Codes--inject-12"  >
<path style="stroke: none; stroke-width: 1; stroke-dasharray: none; stroke-linecap: butt; stroke-dashoffset: 0; stroke-linejoin: miter; stroke-miterlimit: 4; fill: rgb(0,0,0); fill-rule: nonzero; opacity: 0.30000000000000004;"  transform=" translate(-334.83, -122.37)" d="M 353.56 123.37 H 316.1 a 1 1 0 0 1 0 -2 h 37.46 a 1 1 0 0 1 0 2 Z" stroke-linecap="round" />
</g>
		<g transform="matrix(1 0 0 1 -3.39 -127.63)" id="freepik--Codes--inject-12"  >
<path style="stroke: none; stroke-width: 1; stroke-dasharray: none; stroke-linecap: butt; stroke-dashoffset: 0; stroke-linejoin: miter; stroke-miterlimit: 4; fill: rgb(0,0,0); fill-rule: nonzero; opacity: 0.30000000000000004;"  transform=" translate(-371.61, -122.37)" d="M 381.48 123.37 H 361.73 a 1 1 0 0 1 0 -2 h 19.75 a 1 1 0 0 1 0 2 Z" stroke-linecap="round" />
</g>
		<g transform="matrix(1 0 0 1 27.94 -127.63)" id="freepik--Codes--inject-12"  >
<path style="stroke: none; stroke-width: 1; stroke-dasharray: none; stroke-linecap: butt; stroke-dashoffset: 0; stroke-linejoin: miter; stroke-miterlimit: 4; fill: rgb(0,0,0); fill-rule: nonzero; opacity: 0.30000000000000004;"  transform=" translate(-402.94, -122.37)" d="M 412.81 123.37 H 393.06 a 1 1 0 0 1 0 -2 h 19.75 a 1 1 0 1 1 0 2 Z" stroke-linecap="round" />
</g>
		<g transform="matrix(1 0 0 1 -21.5 -117.84)" id="freepik--Codes--inject-12"  >
<path style="stroke: none; stroke-width: 1; stroke-dasharray: none; stroke-linecap: butt; stroke-dashoffset: 0; stroke-linejoin: miter; stroke-miterlimit: 4; fill: rgb(0,0,0); fill-rule: nonzero; opacity: 0.30000000000000004;"  transform=" translate(-353.5, -132.16)" d="M 367.75 133.16 H 339.26 a 1 1 0 0 1 0 -2 h 28.49 a 1 1 0 0 1 0 2 Z" stroke-linecap="round" />
</g>
		<g transform="matrix(1 0 0 1 6.5 -117.84)" id="freepik--Codes--inject-12"  >
<path style="stroke: none; stroke-width: 1; stroke-dasharray: none; stroke-linecap: butt; stroke-dashoffset: 0; stroke-linejoin: miter; stroke-miterlimit: 4; fill: rgb(0,0,0); fill-rule: nonzero; opacity: 0.30000000000000004;"  transform=" translate(-381.5, -132.16)" d="M 389 133.16 H 374 a 1 1 0 0 1 0 -2 h 15 a 1 1 0 0 1 0 2 Z" stroke-linecap="round" />
</g>
		<g transform="matrix(1 0 0 1 30.31 -117.84)" id="freepik--Codes--inject-12"  >
<path style="stroke: none; stroke-width: 1; stroke-dasharray: none; stroke-linecap: butt; stroke-dashoffset: 0; stroke-linejoin: miter; stroke-miterlimit: 4; fill: rgb(0,0,0); fill-rule: nonzero; opacity: 0.30000000000000004;"  transform=" translate(-405.31, -132.16)" d="M 412.81 133.16 h -15 a 1 1 0 0 1 0 -2 h 15 a 1 1 0 0 1 0 2 Z" stroke-linecap="round" />
</g>
		<g transform="matrix(1 0 0 1 -21.5 -105.75)" id="freepik--Codes--inject-12"  >
<path style="stroke: none; stroke-width: 1; stroke-dasharray: none; stroke-linecap: butt; stroke-dashoffset: 0; stroke-linejoin: miter; stroke-miterlimit: 4; fill: rgb(0,0,0); fill-rule: nonzero; opacity: 0.30000000000000004;"  transform=" translate(-353.5, -144.25)" d="M 367.75 145.25 H 339.26 a 1 1 0 0 1 0 -2 h 28.49 a 1 1 0 0 1 0 2 Z" stroke-linecap="round" />
</g>
		<g transform="matrix(1 0 0 1 6.5 -105.75)" id="freepik--Codes--inject-12"  >
<path style="stroke: none; stroke-width: 1; stroke-dasharray: none; stroke-linecap: butt; stroke-dashoffset: 0; stroke-linejoin: miter; stroke-miterlimit: 4; fill: rgb(0,0,0); fill-rule: nonzero; opacity: 0.30000000000000004;"  transform=" translate(-381.5, -144.25)" d="M 389 145.25 H 374 a 1 1 0 0 1 0 -2 h 15 a 1 1 0 0 1 0 2 Z" stroke-linecap="round" />
</g>
		<g transform="matrix(1 0 0 1 30.31 -105.75)" id="freepik--Codes--inject-12"  >
<path style="stroke: none; stroke-width: 1; stroke-dasharray: none; stroke-linecap: butt; stroke-dashoffset: 0; stroke-linejoin: miter; stroke-miterlimit: 4; fill: rgb(0,0,0); fill-rule: nonzero; opacity: 0.30000000000000004;"  transform=" translate(-405.31, -144.25)" d="M 412.81 145.25 h -15 a 1 1 0 1 1 0 -2 h 15 a 1 1 0 0 1 0 2 Z" stroke-linecap="round" />
</g>
		<g transform="matrix(1 0 0 1 -20.44 -92.51)" id="freepik--Codes--inject-12"  >
<path style="stroke: none; stroke-width: 1; stroke-dasharray: none; stroke-linecap: butt; stroke-dashoffset: 0; stroke-linejoin: miter; stroke-miterlimit: 4; fill: rgb(0,0,0); fill-rule: nonzero; opacity: 0.30000000000000004;"  transform=" translate(-354.56, -157.49)" d="M 393.06 158.49 h -77 a 1 1 0 0 1 0 -2 h 77 a 1 1 0 0 1 0 2 Z" stroke-linecap="round" />
</g>
		<g transform="matrix(1 0 0 1 -38.81 -69.48)" id="freepik--Codes--inject-12"  >
<path style="stroke: none; stroke-width: 1; stroke-dasharray: none; stroke-linecap: butt; stroke-dashoffset: 0; stroke-linejoin: miter; stroke-miterlimit: 4; fill: rgb(0,0,0); fill-rule: nonzero; opacity: 0.30000000000000004;"  transform=" translate(-336.19, -180.52)" d="M 356.28 181.52 H 316.1 a 1 1 0 0 1 0 -2 h 40.18 a 1 1 0 0 1 0 2 Z" stroke-linecap="round" />
</g>
		<g transform="matrix(1 0 0 1 -40.17 -82.14)" id="freepik--Codes--inject-12"  >
<path style="stroke: none; stroke-width: 1; stroke-dasharray: none; stroke-linecap: butt; stroke-dashoffset: 0; stroke-linejoin: miter; stroke-miterlimit: 4; fill: rgb(0,0,0); fill-rule: nonzero; opacity: 0.30000000000000004;"  transform=" translate(-334.83, -167.86)" d="M 353.56 168.86 H 316.1 a 1 1 0 0 1 0 -2 h 37.46 a 1 1 0 1 1 0 2 Z" stroke-linecap="round" />
</g>
		<g transform="matrix(1 0 0 1 -3.39 -82.14)" id="freepik--Codes--inject-12"  >
<path style="stroke: none; stroke-width: 1; stroke-dasharray: none; stroke-linecap: butt; stroke-dashoffset: 0; stroke-linejoin: miter; stroke-miterlimit: 4; fill: rgb(0,0,0); fill-rule: nonzero; opacity: 0.30000000000000004;"  transform=" translate(-371.61, -167.86)" d="M 381.48 168.86 H 361.73 a 1 1 0 0 1 0 -2 h 19.75 a 1 1 0 0 1 0 2 Z" stroke-linecap="round" />
</g>
		<g transform="matrix(1 0 0 1 27.94 -82.14)" id="freepik--Codes--inject-12"  >
<path style="stroke: none; stroke-width: 1; stroke-dasharray: none; stroke-linecap: butt; stroke-dashoffset: 0; stroke-linejoin: miter; stroke-miterlimit: 4; fill: rgb(0,0,0); fill-rule: nonzero; opacity: 0.30000000000000004;"  transform=" translate(-402.94, -167.86)" d="M 412.81 168.86 H 393.06 a 1 1 0 0 1 0 -2 h 19.75 a 1 1 0 1 1 0 2 Z" stroke-linecap="round" />
</g>
		<g transform="matrix(1 0 0 1 -40.17 -59.69)" id="freepik--Codes--inject-12"  >
<path style="stroke: none; stroke-width: 1; stroke-dasharray: none; stroke-linecap: butt; stroke-dashoffset: 0; stroke-linejoin: miter; stroke-miterlimit: 4; fill: rgb(0,0,0); fill-rule: nonzero; opacity: 0.30000000000000004;"  transform=" translate(-334.83, -190.31)" d="M 353.56 191.31 H 316.1 a 1 1 0 0 1 0 -2 h 37.46 a 1 1 0 0 1 0 2 Z" stroke-linecap="round" />
</g>
		<g transform="matrix(1 0 0 1 -3.39 -59.69)" id="freepik--Codes--inject-12"  >
<path style="stroke: none; stroke-width: 1; stroke-dasharray: none; stroke-linecap: butt; stroke-dashoffset: 0; stroke-linejoin: miter; stroke-miterlimit: 4; fill: rgb(0,0,0); fill-rule: nonzero; opacity: 0.30000000000000004;"  transform=" translate(-371.61, -190.31)" d="M 381.48 191.31 H 361.73 a 1 1 0 0 1 0 -2 h 19.75 a 1 1 0 0 1 0 2 Z" stroke-linecap="round" />
</g>
		<g transform="matrix(1 0 0 1 27.94 -59.69)" id="freepik--Codes--inject-12"  >
<path style="stroke: none; stroke-width: 1; stroke-dasharray: none; stroke-linecap: butt; stroke-dashoffset: 0; stroke-linejoin: miter; stroke-miterlimit: 4; fill: rgb(0,0,0); fill-rule: nonzero; opacity: 0.30000000000000004;"  transform=" translate(-402.94, -190.31)" d="M 412.81 191.31 H 393.06 a 1 1 0 0 1 0 -2 h 19.75 a 1 1 0 0 1 0 2 Z" stroke-linecap="round" />
</g>
		<g transform="matrix(1 0 0 1 -40.17 -37.24)" id="freepik--Codes--inject-12"  >
<path style="stroke: none; stroke-width: 1; stroke-dasharray: none; stroke-linecap: butt; stroke-dashoffset: 0; stroke-linejoin: miter; stroke-miterlimit: 4; fill: rgb(0,0,0); fill-rule: nonzero; opacity: 0.30000000000000004;"  transform=" translate(-334.83, -212.76)" d="M 353.56 213.76 H 316.1 a 1 1 0 0 1 0 -2 h 37.46 a 1 1 0 0 1 0 2 Z" stroke-linecap="round" />
</g>
		<g transform="matrix(1 0 0 1 -3.39 -37.24)" id="freepik--Codes--inject-12"  >
<path style="stroke: none; stroke-width: 1; stroke-dasharray: none; stroke-linecap: butt; stroke-dashoffset: 0; stroke-linejoin: miter; stroke-miterlimit: 4; fill: rgb(0,0,0); fill-rule: nonzero; opacity: 0.30000000000000004;"  transform=" translate(-371.61, -212.76)" d="M 381.48 213.76 H 361.73 a 1 1 0 0 1 0 -2 h 19.75 a 1 1 0 0 1 0 2 Z" stroke-linecap="round" />
</g>
		<g transform="matrix(1 0 0 1 27.94 -37.24)" id="freepik--Codes--inject-12"  >
<path style="stroke: none; stroke-width: 1; stroke-dasharray: none; stroke-linecap: butt; stroke-dashoffset: 0; stroke-linejoin: miter; stroke-miterlimit: 4; fill: rgb(0,0,0); fill-rule: nonzero; opacity: 0.30000000000000004;"  transform=" translate(-402.94, -212.76)" d="M 412.81 213.76 H 393.06 a 1 1 0 1 1 0 -2 h 19.75 a 1 1 0 0 1 0 2 Z" stroke-linecap="round" />
</g>
		<g transform="matrix(1 0 0 1 -21.5 -27.45)" id="freepik--Codes--inject-12"  >
<path style="stroke: none; stroke-width: 1; stroke-dasharray: none; stroke-linecap: butt; stroke-dashoffset: 0; stroke-linejoin: miter; stroke-miterlimit: 4; fill: rgb(0,0,0); fill-rule: nonzero; opacity: 0.30000000000000004;"  transform=" translate(-353.5, -222.55)" d="M 367.75 223.55 H 339.26 a 1 1 0 0 1 0 -2 h 28.49 a 1 1 0 0 1 0 2 Z" stroke-linecap="round" />
</g>
		<g transform="matrix(1 0 0 1 6.5 -27.45)" id="freepik--Codes--inject-12"  >
<path style="stroke: none; stroke-width: 1; stroke-dasharray: none; stroke-linecap: butt; stroke-dashoffset: 0; stroke-linejoin: miter; stroke-miterlimit: 4; fill: rgb(0,0,0); fill-rule: nonzero; opacity: 0.30000000000000004;"  transform=" translate(-381.5, -222.55)" d="M 389 223.55 H 374 a 1 1 0 0 1 0 -2 h 15 a 1 1 0 0 1 0 2 Z" stroke-linecap="round" />
</g>
		<g transform="matrix(1 0 0 1 30.31 -27.45)" id="freepik--Codes--inject-12"  >
<path style="stroke: none; stroke-width: 1; stroke-dasharray: none; stroke-linecap: butt; stroke-dashoffset: 0; stroke-linejoin: miter; stroke-miterlimit: 4; fill: rgb(0,0,0); fill-rule: nonzero; opacity: 0.30000000000000004;"  transform=" translate(-405.31, -222.55)" d="M 412.81 223.55 h -15 a 1 1 0 0 1 0 -2 h 15 a 1 1 0 0 1 0 2 Z" stroke-linecap="round" />
</g>
		<g transform="matrix(1 0 0 1 -21.5 -15.36)" id="freepik--Codes--inject-12"  >
<path style="stroke: none; stroke-width: 1; stroke-dasharray: none; stroke-linecap: butt; stroke-dashoffset: 0; stroke-linejoin: miter; stroke-miterlimit: 4; fill: rgb(0,0,0); fill-rule: nonzero; opacity: 0.30000000000000004;"  transform=" translate(-353.5, -234.64)" d="M 367.75 235.64 H 339.26 a 1 1 0 0 1 0 -2 h 28.49 a 1 1 0 0 1 0 2 Z" stroke-linecap="round" />
</g>
		<g transform="matrix(1 0 0 1 6.5 -15.36)" id="freepik--Codes--inject-12"  >
<path style="stroke: none; stroke-width: 1; stroke-dasharray: none; stroke-linecap: butt; stroke-dashoffset: 0; stroke-linejoin: miter; stroke-miterlimit: 4; fill: rgb(0,0,0); fill-rule: nonzero; opacity: 0.30000000000000004;"  transform=" translate(-381.5, -234.64)" d="M 389 235.64 H 374 a 1 1 0 1 1 0 -2 h 15 a 1 1 0 0 1 0 2 Z" stroke-linecap="round" />
</g>
		<g transform="matrix(1 0 0 1 30.31 -15.36)" id="freepik--Codes--inject-12"  >
<path style="stroke: none; stroke-width: 1; stroke-dasharray: none; stroke-linecap: butt; stroke-dashoffset: 0; stroke-linejoin: miter; stroke-miterlimit: 4; fill: rgb(0,0,0); fill-rule: nonzero; opacity: 0.30000000000000004;"  transform=" translate(-405.31, -234.64)" d="M 412.81 235.64 h -15 a 1 1 0 0 1 0 -2 h 15 a 1 1 0 1 1 0 2 Z" stroke-linecap="round" />
</g>
		<g transform="matrix(1 0 0 1 -53.18 -196.3)" id="freepik--Codes--inject-12"  >
<path style="stroke: none; stroke-width: 1; stroke-dasharray: none; stroke-linecap: butt; stroke-dashoffset: 0; stroke-linejoin: miter; stroke-miterlimit: 4; fill: rgb(0,0,0); fill-rule: nonzero; opacity: 0.30000000000000004;"  transform=" translate(-321.82, -53.7)" d="M 318.2 53.29 l 7.24 -3.72 v 1.07 l -6.1 3.06 v 0 l 6.1 3.06 v 1.07 l -7.24 -3.73 Z" stroke-linecap="round" />
</g>
		<g transform="matrix(1 0 0 1 -53.18 -196.28)" id="freepik--Codes--inject-12"  >
<path style="stroke: none; stroke-width: 1; stroke-dasharray: none; stroke-linecap: butt; stroke-dashoffset: 0; stroke-linejoin: miter; stroke-miterlimit: 4; fill: rgb(0,0,0); fill-rule: nonzero; opacity: 0.30000000000000004;"  transform=" translate(-321.82, -53.72)" d="M 325.94 58.68 l -8.24 -4.24 V 53 l 8.24 -4.24 V 51 l -5.52 2.76 l 5.52 2.77 Z m -7.24 -4.85 l 0.14 0.07 v -0.37 l -0.14 0.07 Z" stroke-linecap="round" />
</g>
		<g transform="matrix(1 0 0 1 -42.53 -197.16)" id="freepik--Codes--inject-12"  >
<path style="stroke: none; stroke-width: 1; stroke-dasharray: none; stroke-linecap: butt; stroke-dashoffset: 0; stroke-linejoin: miter; stroke-miterlimit: 4; fill: rgb(0,0,0); fill-rule: nonzero; opacity: 0.30000000000000004;"  transform=" translate(-332.47, -52.84)" d="M 329.76 58.49 l 4.36 -11.31 h 1.06 l -4.37 11.31 Z" stroke-linecap="round" />
</g>
		<g transform="matrix(1 0 0 1 -42.53 -197.16)" id="freepik--Codes--inject-12"  >
<polygon style="stroke: none; stroke-width: 1; stroke-dasharray: none; stroke-linecap: butt; stroke-dashoffset: 0; stroke-linejoin: miter; stroke-miterlimit: 4; fill: rgb(0,0,0); fill-rule: nonzero; opacity: 0.30000000000000004;"  points="-1.32,6.16 -3.43,6.16 1.3,-6.16 3.43,-6.16 -1.32,6.16 " />
</g>
		<g transform="matrix(1 0 0 1 -31.92 -196.28)" id="freepik--Codes--inject-12"  >
<path style="stroke: none; stroke-width: 1; stroke-dasharray: none; stroke-linecap: butt; stroke-dashoffset: 0; stroke-linejoin: miter; stroke-miterlimit: 4; fill: rgb(0,0,0); fill-rule: nonzero; opacity: 0.30000000000000004;"  transform=" translate(-343.08, -53.72)" d="M 346.7 54.15 l -7.23 3.71 V 56.79 l 6.14 -3.06 v 0 l -6.14 -3.06 V 49.57 l 7.23 3.71 Z" stroke-linecap="round" />
</g>
		<g transform="matrix(1 0 0 1 -31.9 -196.26)" id="freepik--Codes--inject-12"  >
<path style="stroke: none; stroke-width: 1; stroke-dasharray: none; stroke-linecap: butt; stroke-dashoffset: 0; stroke-linejoin: miter; stroke-miterlimit: 4; fill: rgb(0,0,0); fill-rule: nonzero; opacity: 0.30000000000000004;"  transform=" translate(-343.11, -53.74)" d="M 339 58.68 v -2.2 l 5.55 -2.77 L 339 51 v -2.2 L 347.21 53 v 1.49 Z m 7.14 -5.14 v 0.35 l 0.1 0 v -0.26 Z" stroke-linecap="round" />
</g>
		<g transform="matrix(1 0 0 1 -156.39 -158.06)" id="freepik--Gears--inject-12"  >
<path style="stroke: rgb(0,0,0); stroke-width: 1; stroke-dasharray: none; stroke-linecap: butt; stroke-dashoffset: 0; stroke-linejoin: miter; stroke-miterlimit: 10; fill: none; fill-rule: nonzero; opacity: 0.30000000000000004;"  transform=" translate(-218.61, -91.94)" d="M 250.84 96.88 V 87.17 l -9.71 -1.08 a 23.28 23.28 0 0 0 -2.37 -5.78 l 6.12 -7.67 L 238 65.77 l -7.62 6.11 a 23.34 23.34 0 0 0 -5.77 -2.42 l -1.08 -9.75 h -9.72 l -1.08 9.71 A 23.28 23.28 0 0 0 207 71.79 l -7.66 -6.12 l -6.87 6.87 l 6.1 7.62 a 23.34 23.34 0 0 0 -2.42 5.77 L 186.37 87 v 9.72 l 9.7 1.08 a 22.93 22.93 0 0 0 2.38 5.78 l -6.13 7.66 l 6.87 6.87 l 7.63 -6.1 a 23.27 23.27 0 0 0 5.76 2.42 l 1.09 9.74 h 9.71 l 1.08 -9.7 a 22.93 22.93 0 0 0 5.78 -2.38 l 7.67 6.13 l 6.87 -6.87 l -6.11 -7.63 A 23.27 23.27 0 0 0 241.09 98 Z m -32.24 6.66 A 11.6 11.6 0 1 1 230.2 92 A 11.59 11.59 0 0 1 218.6 103.54 Z" stroke-linecap="round" />
</g>
		<g transform="matrix(1 0 0 1 -107.88 -172.3)" id="freepik--Gears--inject-12"  >
<path style="stroke: rgb(0,0,0); stroke-width: 1; stroke-dasharray: none; stroke-linecap: butt; stroke-dashoffset: 0; stroke-linejoin: miter; stroke-miterlimit: 10; fill: none; fill-rule: nonzero; opacity: 0.30000000000000004;"  transform=" translate(-267.12, -77.7)" d="M 289 77.38 L 287.94 71 l -6.54 0.36 a 15.32 15.32 0 0 0 -2.22 -3.56 L 282.39 62 l -5.31 -3.78 l -4.38 4.88 a 15.47 15.47 0 0 0 -4.08 -1 l -1.8 -6.33 l -6.43 1.08 l 0.36 6.54 a 15.63 15.63 0 0 0 -3.56 2.21 l -5.76 -3.2 l -3.78 5.3 l 4.88 4.38 a 15.66 15.66 0 0 0 -1 4.08 L 245.24 78 l 1.08 6.43 l 6.54 -0.36 a 15.69 15.69 0 0 0 2.21 3.57 l -3.2 5.75 l 5.31 3.79 l 4.37 -4.89 a 15.27 15.27 0 0 0 4.08 1 l 1.8 6.33 l 6.43 -1.07 L 273.5 92 a 15.35 15.35 0 0 0 3.57 -2.21 L 282.82 93 l 3.79 -5.31 l -4.89 -4.38 a 15.18 15.18 0 0 0 1 -4.08 Z m -20.61 8 a 7.78 7.78 0 1 1 6.39 -9 A 7.78 7.78 0 0 1 268.41 85.36 Z" stroke-linecap="round" />
</g>
		<g transform="matrix(1 0 0 1 203.14 -134.44)" id="freepik--Gears--inject-12"  >
<path style="stroke: rgb(0,0,0); stroke-width: 1; stroke-dasharray: none; stroke-linecap: butt; stroke-dashoffset: 0; stroke-linejoin: miter; stroke-miterlimit: 10; fill: none; fill-rule: nonzero; opacity: 0.30000000000000004;"  transform=" translate(-578.13, -115.56)" d="M 636.07 124.39 V 106.92 L 618.63 105 a 41.59 41.59 0 0 0 -4.28 -10.39 l 11 -13.78 L 613 68.46 l -13.71 11 a 41.83 41.83 0 0 0 -10.37 -4.34 l -2 -17.52 H 569.53 L 567.59 75 a 41.51 41.51 0 0 0 -10.4 4.28 l -13.77 -11 L 531.07 80.62 l 11 13.72 a 41.62 41.62 0 0 0 -4.35 10.36 l -17.52 2 v 17.47 l 17.44 1.94 a 41.59 41.59 0 0 0 4.28 10.39 l -11 13.77 l 12.35 12.35 l 13.72 -11 A 41.6 41.6 0 0 0 567.3 156 l 2 17.52 h 17.47 L 588.66 156 a 41.44 41.44 0 0 0 10.39 -4.28 l 13.78 11 l 12.35 -12.35 l -11 -13.72 a 41.6 41.6 0 0 0 4.34 -10.36 Z m -58 12 A 20.84 20.84 0 1 1 599 115.52 A 20.84 20.84 0 0 1 578.12 136.36 Z" stroke-linecap="round" />
</g>
		<g transform="matrix(1 0 0 1 290.36 -160.12)" id="freepik--Gears--inject-12"  >
<path style="stroke: rgb(0,0,0); stroke-width: 1; stroke-dasharray: none; stroke-linecap: butt; stroke-dashoffset: 0; stroke-linejoin: miter; stroke-miterlimit: 10; fill: none; fill-rule: nonzero; opacity: 0.30000000000000004;"  transform=" translate(-665.36, -89.89)" d="M 704.71 89.33 l -1.94 -11.56 L 691 78.42 A 27.68 27.68 0 0 0 687 72 l 5.76 -10.34 l -9.54 -6.81 l -7.87 8.78 A 27.86 27.86 0 0 0 668 61.92 l -3.23 -11.39 l -11.56 1.94 l 0.64 11.76 a 27.83 27.83 0 0 0 -6.4 4 l -10.34 -5.77 L 630.34 72 l 8.78 7.86 a 28.44 28.44 0 0 0 -1.73 7.35 L 626 90.43 L 627.94 102 l 11.77 -0.65 a 27.68 27.68 0 0 0 4 6.41 l -5.77 10.34 l 9.55 6.81 l 7.86 -8.78 a 27.93 27.93 0 0 0 7.35 1.72 l 3.23 11.39 l 11.56 -1.94 l -0.65 -11.76 a 27.89 27.89 0 0 0 6.41 -4 l 10.34 5.77 l 6.81 -9.55 l -8.78 -7.86 a 28 28 0 0 0 1.72 -7.35 Z m -37 14.35 a 14 14 0 1 1 11.49 -16.11 A 14 14 0 0 1 667.67 103.68 Z" stroke-linecap="round" />
</g>
		<g transform="matrix(1 0 0 1 10.61 17.28)" id="freepik--device-1--inject-12"  >
<path style="stroke: rgb(38,50,56); stroke-width: 1; stroke-dasharray: none; stroke-linecap: round; stroke-dashoffset: 0; stroke-linejoin: round; stroke-miterlimit: 4; fill: rgb(201,201,201); fill-rule: nonzero; opacity: 1;"  transform=" translate(-385.61, -267.28)" d="M 158.27 112.93 H 612.94 a 10.46 10.46 0 0 1 10.46 10.46 V 421.63 a 0 0 0 0 1 0 0 H 147.81 a 0 0 0 0 1 0 0 V 123.39 a 10.46 10.46 0 0 1 10.46 -10.46 Z" stroke-linecap="round" />
</g>
		<g transform="matrix(1 0 0 1 11.7 164.81)" id="freepik--device-1--inject-12"  >
<rect style="stroke: rgb(38,50,56); stroke-width: 1; stroke-dasharray: none; stroke-linecap: round; stroke-dashoffset: 0; stroke-linejoin: round; stroke-miterlimit: 4; fill: rgb(38,50,56); fill-rule: nonzero; opacity: 1;"  x="-163.425" y="-8.05" rx="0" ry="0" width="326.85" height="16.1" />
</g>
		<g transform="matrix(1 0 0 1 11.7 168.69)" id="freepik--device-1--inject-12"  >
<rect style="stroke: rgb(38,50,56); stroke-width: 1; stroke-dasharray: none; stroke-linecap: round; stroke-dashoffset: 0; stroke-linejoin: round; stroke-miterlimit: 4; fill: rgb(255,255,255); fill-rule: nonzero; opacity: 1;"  x="-163.425" y="-4.175" rx="0" ry="0" width="326.85" height="8.35" />
</g>
		<g transform="matrix(1 0 0 1 9.6 188.37)" id="freepik--device-1--inject-12"  >
<path style="stroke: rgb(38,50,56); stroke-width: 1; stroke-dasharray: none; stroke-linecap: round; stroke-dashoffset: 0; stroke-linejoin: round; stroke-miterlimit: 4; fill: rgb(38,50,56); fill-rule: nonzero; opacity: 1;"  transform=" translate(-384.6, -438.38)" d="M 109.35 432.41 s 5.37 6.56 21.47 11.93 H 642.56 s 11.93 -3 17.3 -11.33 Z" stroke-linecap="round" />
</g>
		<g transform="matrix(1 0 0 1 9.64 176.93)" id="freepik--device-1--inject-12"  >
<rect style="stroke: rgb(38,50,56); stroke-width: 1; stroke-dasharray: none; stroke-linecap: round; stroke-dashoffset: 0; stroke-linejoin: round; stroke-miterlimit: 4; fill: rgb(201,201,201); fill-rule: nonzero; opacity: 1;"  x="-276.38" y="-6.27" rx="1.89" ry="1.89" width="552.76" height="12.54" />
</g>
		<g transform="matrix(1 0 0 1 10.5 -127.73)" id="freepik--device-1--inject-12"  >
<circle style="stroke: none; stroke-width: 1; stroke-dasharray: none; stroke-linecap: butt; stroke-dashoffset: 0; stroke-linejoin: miter; stroke-miterlimit: 4; fill: rgb(38,50,56); fill-rule: nonzero; opacity: 1;"  cx="0" cy="0" r="4.17" />
</g>
		<g transform="matrix(1 0 0 1 10.6 10.53)" id="freepik--device-1--inject-12"  >
<rect style="stroke: none; stroke-width: 1; stroke-dasharray: none; stroke-linecap: butt; stroke-dashoffset: 0; stroke-linejoin: miter; stroke-miterlimit: 4; fill: rgb(38,50,56); fill-rule: nonzero; opacity: 1;"  x="-218.5" y="-123.48" rx="0" ry="0" width="437" height="246.96" />
</g>
		<g transform="matrix(1 0 0 1 48.36 28.6)" id="freepik--device-1--inject-12"  >
<polygon style="stroke: none; stroke-width: 1; stroke-dasharray: none; stroke-linecap: butt; stroke-dashoffset: 0; stroke-linejoin: miter; stroke-miterlimit: 4; fill: rgb(255,255,255); fill-rule: nonzero; opacity: 0.30000000000000004;"  points="180.74,105.4 180.74,-105.4 -180.74,105.4 180.74,105.4 " />
</g>
		<g transform="matrix(1 0 0 1 -20.25 -7.53)" id="freepik--device-1--inject-12"  >
<path style="stroke: rgb(38,50,56); stroke-width: 1; stroke-dasharray: none; stroke-linecap: round; stroke-dashoffset: 0; stroke-linejoin: round; stroke-miterlimit: 4; fill: rgb(23,148,172); fill-rule: nonzero; opacity: 1;"  transform=" translate(-354.75, -242.47)" d="M 405.23 250.18 V 235 L 390 233.27 a 36.16 36.16 0 0 0 -3.72 -9.05 l 9.59 -12 l -10.76 -10.76 L 373.2 211 a 36.71 36.71 0 0 0 -9 -3.78 L 362.47 192 H 347.25 l -1.69 15.19 a 36.19 36.19 0 0 0 -9.05 3.73 l -12 -9.6 l -10.76 10.76 L 323.31 224 a 36 36 0 0 0 -3.79 9 l -15.26 1.69 v 15.22 l 15.19 1.69 a 36.19 36.19 0 0 0 3.73 9.05 l -9.6 12 l 10.76 10.76 l 12 -9.55 a 36.39 36.39 0 0 0 9 3.78 L 347 292.93 h 15.22 l 1.69 -15.19 A 36 36 0 0 0 373 274 l 12 9.6 l 10.75 -10.76 l -9.55 -11.94 a 36.33 36.33 0 0 0 3.78 -9 Z m -50.49 10.43 a 18.16 18.16 0 1 1 18.16 -18.16 A 18.16 18.16 0 0 1 354.74 260.61 Z" stroke-linecap="round" />
</g>
		<g transform="matrix(1 0 0 1 55.71 -29.87)" id="freepik--device-1--inject-12"  >
<path style="stroke: rgb(38,50,56); stroke-width: 1; stroke-dasharray: none; stroke-linecap: round; stroke-dashoffset: 0; stroke-linejoin: round; stroke-miterlimit: 4; fill: rgb(255,255,255); fill-rule: nonzero; opacity: 1;"  transform=" translate(-430.71, -220.13)" d="M 465 219.64 l -1.69 -10.08 l -10.25 0.57 a 23.65 23.65 0 0 0 -3.47 -5.58 l 5 -9 l -8.32 -5.93 l -6.85 7.65 a 24.62 24.62 0 0 0 -6.39 -1.51 l -2.82 -9.91 l -10.07 1.68 l 0.56 10.25 a 24.4 24.4 0 0 0 -5.58 3.47 l -9 -5 l -5.93 8.31 l 7.65 6.85 a 24.18 24.18 0 0 0 -1.5 6.4 l -9.92 2.81 l 1.69 10.08 l 10.24 -0.57 a 24.32 24.32 0 0 0 3.47 5.58 l -5 9 l 8.31 5.93 L 422 243 a 24.29 24.29 0 0 0 6.4 1.51 l 2.82 9.91 l 10.07 -1.68 l -0.56 -10.25 a 24.4 24.4 0 0 0 5.58 -3.47 l 9 5 l 5.93 -8.32 l -7.65 -6.85 a 24.58 24.58 0 0 0 1.5 -6.4 Z m -32.27 12.5 a 12.19 12.19 0 1 1 10 -14 A 12.18 12.18 0 0 1 432.75 232.14 Z" stroke-linecap="round" />
</g>
		<g transform="matrix(1 0 0 1 -81.84 69.75)" id="freepik--device-1--inject-12"  >
<path style="stroke: none; stroke-width: 1; stroke-dasharray: none; stroke-linecap: butt; stroke-dashoffset: 0; stroke-linejoin: miter; stroke-miterlimit: 4; fill: rgb(184,184,184); fill-rule: nonzero; opacity: 1;"  transform=" translate(-293.16, -319.75)" d="M 293.18 331 a 6.46 6.46 0 0 1 -3.57 -0.87 a 4.76 4.76 0 0 1 -1.91 -2.49 a 11.47 11.47 0 0 1 -0.57 -3.8 v -8.37 a 10.79 10.79 0 0 1 0.58 -3.75 a 4.72 4.72 0 0 1 1.91 -2.4 a 6.67 6.67 0 0 1 3.56 -0.83 a 6.39 6.39 0 0 1 3.54 0.85 a 4.74 4.74 0 0 1 1.89 2.4 a 10.58 10.58 0 0 1 0.59 3.73 v 8.39 a 11 11 0 0 1 -0.59 3.76 a 5 5 0 0 1 -1.89 2.5 A 6.22 6.22 0 0 1 293.18 331 Z m 0 -2.42 A 2.89 2.89 0 0 0 295 328 a 2.44 2.44 0 0 0 0.84 -1.41 a 9.09 9.09 0 0 0 0.22 -2.14 V 314.8 a 8.65 8.65 0 0 0 -0.22 -2.11 a 2.31 2.31 0 0 0 -0.84 -1.36 a 3 3 0 0 0 -1.85 -0.48 a 3.09 3.09 0 0 0 -1.87 0.48 a 2.33 2.33 0 0 0 -0.86 1.36 a 9.18 9.18 0 0 0 -0.22 2.11 v 9.68 a 9.65 9.65 0 0 0 0.22 2.14 a 2.46 2.46 0 0 0 0.86 1.41 A 3 3 0 0 0 293.18 328.54 Z" stroke-linecap="round" />
</g>
		<g transform="matrix(1 0 0 1 -67.31 69.68)" id="freepik--device-1--inject-12"  >
<path style="stroke: none; stroke-width: 1; stroke-dasharray: none; stroke-linecap: butt; stroke-dashoffset: 0; stroke-linejoin: miter; stroke-miterlimit: 4; fill: rgb(184,184,184); fill-rule: nonzero; opacity: 1;"  transform=" translate(-307.69, -319.68)" d="M 302.22 330.72 V 308.64 h 5.48 a 6.09 6.09 0 0 1 3.18 0.72 a 4.26 4.26 0 0 1 1.73 2.09 a 9 9 0 0 1 0.54 3.3 a 6.9 6.9 0 0 1 -0.61 3 a 4.41 4.41 0 0 1 -1.81 2 a 5.94 5.94 0 0 1 -3 0.69 H 305.3 v 10.28 Z m 3.08 -12.48 h 1.42 a 5.92 5.92 0 0 0 2.1 -0.3 a 1.91 1.91 0 0 0 1.09 -1.05 a 5.43 5.43 0 0 0 0.33 -2.12 a 9.89 9.89 0 0 0 -0.23 -2.42 a 1.72 1.72 0 0 0 -1 -1.17 a 6 6 0 0 0 -2.29 -0.33 H 305.3 Z" stroke-linecap="round" />
</g>
		<g transform="matrix(1 0 0 1 -55.38 69.68)" id="freepik--device-1--inject-12"  >
<path style="stroke: none; stroke-width: 1; stroke-dasharray: none; stroke-linecap: butt; stroke-dashoffset: 0; stroke-linejoin: miter; stroke-miterlimit: 4; fill: rgb(184,184,184); fill-rule: nonzero; opacity: 1;"  transform=" translate(-319.62, -319.68)" d="M 315.31 330.72 V 308.64 h 8.55 v 2.29 h -5.47 v 7.31 h 4.44 v 2.18 h -4.44 v 8.09 h 5.53 v 2.21 Z" stroke-linecap="round" />
</g>
		<g transform="matrix(1 0 0 1 -42.93 69.68)" id="freepik--device-1--inject-12"  >
<path style="stroke: none; stroke-width: 1; stroke-dasharray: none; stroke-linecap: butt; stroke-dashoffset: 0; stroke-linejoin: miter; stroke-miterlimit: 4; fill: rgb(184,184,184); fill-rule: nonzero; opacity: 1;"  transform=" translate(-332.07, -319.68)" d="M 326.4 330.72 V 308.64 h 4.44 a 9.78 9.78 0 0 1 3.65 0.59 a 4.09 4.09 0 0 1 2.14 1.88 a 7.06 7.06 0 0 1 0.7 3.39 a 8.86 8.86 0 0 1 -0.28 2.33 a 4.45 4.45 0 0 1 -0.87 1.77 a 3.32 3.32 0 0 1 -1.58 1 l 3.14 11.07 h -3 l -2.89 -10.36 h -2.4 v 10.36 Z m 3.08 -12.57 h 1.17 a 5.83 5.83 0 0 0 2.13 -0.32 a 2.18 2.18 0 0 0 1.19 -1.12 a 5.09 5.09 0 0 0 0.39 -2.21 a 4.39 4.39 0 0 0 -0.71 -2.79 a 3.58 3.58 0 0 0 -2.81 -0.86 h -1.36 Z" stroke-linecap="round" />
</g>
		<g transform="matrix(1 0 0 1 -29.47 69.68)" id="freepik--device-1--inject-12"  >
<path style="stroke: none; stroke-width: 1; stroke-dasharray: none; stroke-linecap: butt; stroke-dashoffset: 0; stroke-linejoin: miter; stroke-miterlimit: 4; fill: rgb(184,184,184); fill-rule: nonzero; opacity: 1;"  transform=" translate(-345.53, -319.68)" d="M 339.34 330.72 L 344 308.64 h 3 l 4.72 22.08 H 348.8 l -1 -5.56 H 343.3 l -1.07 5.56 Z M 343.7 323 h 3.68 L 345.53 313 Z" stroke-linecap="round" />
</g>
		<g transform="matrix(1 0 0 1 -18.01 69.68)" id="freepik--device-1--inject-12"  >
<path style="stroke: none; stroke-width: 1; stroke-dasharray: none; stroke-linecap: butt; stroke-dashoffset: 0; stroke-linejoin: miter; stroke-miterlimit: 4; fill: rgb(184,184,184); fill-rule: nonzero; opacity: 1;"  transform=" translate(-356.99, -319.68)" d="M 355.5 330.72 V 310.93 h -3.73 v -2.29 h 10.44 v 2.29 h -3.63 v 19.79 Z" stroke-linecap="round" />
</g>
		<g transform="matrix(1 0 0 1 -9 69.68)" id="freepik--device-1--inject-12"  >
<path style="stroke: none; stroke-width: 1; stroke-dasharray: none; stroke-linecap: butt; stroke-dashoffset: 0; stroke-linejoin: miter; stroke-miterlimit: 4; fill: rgb(184,184,184); fill-rule: nonzero; opacity: 1;"  transform=" translate(-366, -319.68)" d="M 364.5 330.72 V 308.64 h 3 v 22.08 Z" stroke-linecap="round" />
</g>
		<g transform="matrix(1 0 0 1 1.54 69.68)" id="freepik--device-1--inject-12"  >
<path style="stroke: none; stroke-width: 1; stroke-dasharray: none; stroke-linecap: butt; stroke-dashoffset: 0; stroke-linejoin: miter; stroke-miterlimit: 4; fill: rgb(184,184,184); fill-rule: nonzero; opacity: 1;"  transform=" translate(-376.54, -319.68)" d="M 371.09 330.72 V 308.64 h 2.1 l 6.27 14.67 V 308.64 H 382 v 22.08 h -2 l -6.35 -15.07 v 15.07 Z" stroke-linecap="round" />
</g>
		<g transform="matrix(1 0 0 1 15.99 69.73)" id="freepik--device-1--inject-12"  >
<path style="stroke: none; stroke-width: 1; stroke-dasharray: none; stroke-linecap: butt; stroke-dashoffset: 0; stroke-linejoin: miter; stroke-miterlimit: 4; fill: rgb(184,184,184); fill-rule: nonzero; opacity: 1;"  transform=" translate(-390.99, -319.73)" d="M 390.74 331 a 5.52 5.52 0 0 1 -3.31 -0.89 a 4.9 4.9 0 0 1 -1.8 -2.57 a 13.09 13.09 0 0 1 -0.56 -4.06 v -7.39 a 14.6 14.6 0 0 1 0.51 -4.13 a 4.61 4.61 0 0 1 1.8 -2.6 a 6.23 6.23 0 0 1 3.61 -0.9 a 6.88 6.88 0 0 1 3.34 0.7 a 4.1 4.1 0 0 1 1.84 2.12 a 9.87 9.87 0 0 1 0.57 3.61 v 0.82 h -2.89 V 315 a 11.75 11.75 0 0 0 -0.19 -2.36 a 2.22 2.22 0 0 0 -0.78 -1.36 a 3 3 0 0 0 -1.84 -0.45 a 2.65 2.65 0 0 0 -2 0.63 a 2.9 2.9 0 0 0 -0.77 1.7 a 17.83 17.83 0 0 0 -0.15 2.44 v 8.18 a 13 13 0 0 0 0.23 2.64 a 2.64 2.64 0 0 0 0.89 1.58 a 2.89 2.89 0 0 0 1.85 0.52 A 2.76 2.76 0 0 0 393 328 a 3.16 3.16 0 0 0 0.9 -1.69 a 13.62 13.62 0 0 0 0.24 -2.78 V 322 h -2.81 v -2.18 h 5.59 v 10.93 H 395 l -0.3 -2.54 a 4.64 4.64 0 0 1 -1.37 2 A 3.79 3.79 0 0 1 390.74 331 Z" stroke-linecap="round" />
</g>
		<g transform="matrix(1 0 0 1 36.25 69.74)" id="freepik--device-1--inject-12"  >
<path style="stroke: none; stroke-width: 1; stroke-dasharray: none; stroke-linecap: butt; stroke-dashoffset: 0; stroke-linejoin: miter; stroke-miterlimit: 4; fill: rgb(184,184,184); fill-rule: nonzero; opacity: 1;"  transform=" translate(-411.25, -319.74)" d="M 411.51 331 a 5.82 5.82 0 0 1 -3.18 -0.81 a 5.22 5.22 0 0 1 -1.92 -2.27 a 9.43 9.43 0 0 1 -0.76 -3.35 l 2.72 -0.73 a 12.84 12.84 0 0 0 0.37 2.26 a 4.1 4.1 0 0 0 0.94 1.78 a 2.38 2.38 0 0 0 1.83 0.7 a 2.32 2.32 0 0 0 1.81 -0.67 a 2.73 2.73 0 0 0 0.61 -1.92 a 3.89 3.89 0 0 0 -0.68 -2.41 a 12 12 0 0 0 -1.71 -1.84 l -3.71 -3.27 a 6.26 6.26 0 0 1 -1.61 -2.09 a 6.74 6.74 0 0 1 -0.52 -2.79 a 5 5 0 0 1 1.39 -3.76 a 5.25 5.25 0 0 1 3.79 -1.34 a 7.39 7.39 0 0 1 2.31 0.34 a 4.14 4.14 0 0 1 1.66 1 a 5.15 5.15 0 0 1 1.06 1.79 a 10.05 10.05 0 0 1 0.53 2.52 l -2.61 0.71 a 11.71 11.71 0 0 0 -0.33 -2 a 3 3 0 0 0 -0.86 -1.47 a 2.53 2.53 0 0 0 -1.76 -0.56 a 2.45 2.45 0 0 0 -1.78 0.62 a 2.36 2.36 0 0 0 -0.64 1.81 a 3.55 3.55 0 0 0 0.34 1.66 a 4.74 4.74 0 0 0 1.1 1.34 l 3.73 3.27 a 11.22 11.22 0 0 1 2.21 2.6 a 6.54 6.54 0 0 1 1 3.58 a 5.61 5.61 0 0 1 -0.68 2.82 a 4.68 4.68 0 0 1 -1.87 1.82 A 5.89 5.89 0 0 1 411.51 331 Z" stroke-linecap="round" />
</g>
		<g transform="matrix(1 0 0 1 49.03 69.68)" id="freepik--device-1--inject-12"  >
<path style="stroke: none; stroke-width: 1; stroke-dasharray: none; stroke-linecap: butt; stroke-dashoffset: 0; stroke-linejoin: miter; stroke-miterlimit: 4; fill: rgb(184,184,184); fill-rule: nonzero; opacity: 1;"  transform=" translate(-424.03, -319.68)" d="M 422.57 330.72 v -7.8 l -4.77 -14.28 h 2.87 l 3.38 10.66 l 3.32 -10.66 h 2.89 l -4.74 14.28 v 7.8 Z" stroke-linecap="round" />
</g>
		<g transform="matrix(1 0 0 1 62.25 69.74)" id="freepik--device-1--inject-12"  >
<path style="stroke: none; stroke-width: 1; stroke-dasharray: none; stroke-linecap: butt; stroke-dashoffset: 0; stroke-linejoin: miter; stroke-miterlimit: 4; fill: rgb(184,184,184); fill-rule: nonzero; opacity: 1;"  transform=" translate(-437.25, -319.74)" d="M 437.51 331 a 5.82 5.82 0 0 1 -3.18 -0.81 a 5.22 5.22 0 0 1 -1.92 -2.27 a 9.43 9.43 0 0 1 -0.76 -3.35 l 2.72 -0.73 a 12.84 12.84 0 0 0 0.37 2.26 a 4.1 4.1 0 0 0 0.94 1.78 a 2.38 2.38 0 0 0 1.83 0.7 a 2.32 2.32 0 0 0 1.81 -0.67 a 2.73 2.73 0 0 0 0.61 -1.92 a 3.89 3.89 0 0 0 -0.68 -2.41 a 12 12 0 0 0 -1.71 -1.84 l -3.71 -3.27 a 6.26 6.26 0 0 1 -1.61 -2.09 a 6.74 6.74 0 0 1 -0.52 -2.79 a 5 5 0 0 1 1.39 -3.76 a 5.25 5.25 0 0 1 3.79 -1.34 a 7.28 7.28 0 0 1 2.3 0.34 a 4.11 4.11 0 0 1 1.67 1 a 5.15 5.15 0 0 1 1.06 1.79 a 10.05 10.05 0 0 1 0.53 2.52 l -2.61 0.71 a 11.71 11.71 0 0 0 -0.33 -2 a 3 3 0 0 0 -0.86 -1.47 a 2.55 2.55 0 0 0 -1.76 -0.56 a 2.45 2.45 0 0 0 -1.78 0.62 a 2.36 2.36 0 0 0 -0.64 1.81 a 3.55 3.55 0 0 0 0.34 1.66 a 4.74 4.74 0 0 0 1.1 1.34 l 3.73 3.27 a 11.47 11.47 0 0 1 2.21 2.6 a 6.54 6.54 0 0 1 1 3.58 a 5.51 5.51 0 0 1 -0.69 2.82 a 4.59 4.59 0 0 1 -1.86 1.82 A 5.89 5.89 0 0 1 437.51 331 Z" stroke-linecap="round" />
</g>
		<g transform="matrix(1 0 0 1 74.1 69.68)" id="freepik--device-1--inject-12"  >
<path style="stroke: none; stroke-width: 1; stroke-dasharray: none; stroke-linecap: butt; stroke-dashoffset: 0; stroke-linejoin: miter; stroke-miterlimit: 4; fill: rgb(184,184,184); fill-rule: nonzero; opacity: 1;"  transform=" translate(-449.11, -319.68)" d="M 447.62 330.72 V 310.93 h -3.73 v -2.29 h 10.43 v 2.29 H 450.7 v 19.79 Z" stroke-linecap="round" />
</g>
		<g transform="matrix(1 0 0 1 85.77 69.68)" id="freepik--device-1--inject-12"  >
<path style="stroke: none; stroke-width: 1; stroke-dasharray: none; stroke-linecap: butt; stroke-dashoffset: 0; stroke-linejoin: miter; stroke-miterlimit: 4; fill: rgb(184,184,184); fill-rule: nonzero; opacity: 1;"  transform=" translate(-460.77, -319.68)" d="M 456.45 330.72 V 308.64 H 465 v 2.29 h -5.48 v 7.31 H 464 v 2.18 h -4.44 v 8.09 h 5.53 v 2.21 Z" stroke-linecap="round" />
</g>
		<g transform="matrix(1 0 0 1 99.81 69.68)" id="freepik--device-1--inject-12"  >
<path style="stroke: none; stroke-width: 1; stroke-dasharray: none; stroke-linecap: butt; stroke-dashoffset: 0; stroke-linejoin: miter; stroke-miterlimit: 4; fill: rgb(184,184,184); fill-rule: nonzero; opacity: 1;"  transform=" translate(-474.81, -319.68)" d="M 467.49 330.72 l 0.41 -22.08 h 3 l 3.9 17.91 l 3.92 -17.91 h 3 l 0.41 22.08 h -2.48 l -0.25 -16 l -3.73 16 H 474 l -3.71 -16 l -0.25 16 Z" stroke-linecap="round" />
</g>
		<g transform="matrix(1 0 0 1 264.36 18.31)" id="freepik--device-2--inject-12"  >
<rect style="stroke: rgb(38,50,56); stroke-width: 1; stroke-dasharray: none; stroke-linecap: round; stroke-dashoffset: 0; stroke-linejoin: round; stroke-miterlimit: 4; fill: rgb(38,50,56); fill-rule: nonzero; opacity: 1;"  x="-58.47" y="-110.445" rx="7.67" ry="7.67" width="116.94" height="220.89" />
</g>
		<g transform="matrix(1 0 0 1 271 13.88)" id="freepik--device-2--inject-12"  >
<rect style="stroke: rgb(38,50,56); stroke-width: 1; stroke-dasharray: none; stroke-linecap: round; stroke-dashoffset: 0; stroke-linejoin: round; stroke-miterlimit: 4; fill: rgb(23,148,172); fill-rule: nonzero; opacity: 1;"  x="-58.47" y="-110.445" rx="7.67" ry="7.67" width="116.94" height="220.89" />
</g>
		<g transform="matrix(1 0 0 1 271 -85.96)" id="freepik--device-2--inject-12"  >
<path style="stroke: none; stroke-width: 1; stroke-dasharray: none; stroke-linecap: butt; stroke-dashoffset: 0; stroke-linejoin: miter; stroke-miterlimit: 4; fill: rgb(38,50,56); fill-rule: nonzero; opacity: 1;"  transform=" translate(-646, -164.04)" d="M 657.59 165.62 H 634.42 a 1.58 1.58 0 0 1 -1.58 -1.58 h 0 a 1.58 1.58 0 0 1 1.58 -1.58 h 23.17 a 1.58 1.58 0 0 1 1.58 1.58 h 0 A 1.58 1.58 0 0 1 657.59 165.62 Z" stroke-linecap="round" />
</g>
		<g transform="matrix(1 0 0 1 271 109.8)" id="freepik--device-2--inject-12"  >
<path style="stroke: rgb(38,50,56); stroke-width: 0.704333; stroke-dasharray: none; stroke-linecap: butt; stroke-dashoffset: 0; stroke-linejoin: miter; stroke-miterlimit: 10; fill: rgb(255,255,255); fill-rule: nonzero; opacity: 1;"  transform=" translate(-646, -359.8)" d="M 652.32 359.8 a 6.32 6.32 0 1 0 -6.32 6.32 A 6.31 6.31 0 0 0 652.32 359.8 Z" stroke-linecap="round" />
</g>
		<g transform="matrix(1 0 0 1 271 109.8)" id="freepik--device-2--inject-12"  >
<rect style="stroke: none; stroke-width: 1; stroke-dasharray: none; stroke-linecap: butt; stroke-dashoffset: 0; stroke-linejoin: miter; stroke-miterlimit: 4; fill: rgb(38,50,56); fill-rule: nonzero; opacity: 1;"  x="-3.2" y="-3.2" rx="0" ry="0" width="6.4" height="6.4" />
</g>
		<g transform="matrix(1 0 0 1 271 13.88)" id="freepik--device-2--inject-12"  >
<rect style="stroke: none; stroke-width: 1; stroke-dasharray: none; stroke-linecap: butt; stroke-dashoffset: 0; stroke-linejoin: miter; stroke-miterlimit: 4; fill: rgb(38,50,56); fill-rule: nonzero; opacity: 1;"  x="-53.275" y="-86.19" rx="0" ry="0" width="106.55" height="172.38" />
</g>
		<g transform="matrix(1 0 0 1 274.62 71.11)" id="freepik--device-2--inject-12"  >
<polygon style="stroke: none; stroke-width: 1; stroke-dasharray: none; stroke-linecap: butt; stroke-dashoffset: 0; stroke-linejoin: miter; stroke-miterlimit: 4; fill: rgb(255,255,255); fill-rule: nonzero; opacity: 0.30000000000000004;"  points="49.66,-28.96 -49.66,28.96 49.66,28.96 49.66,-28.96 " />
</g>
		<g transform="matrix(1 0 0 1 257.61 3.49)" id="freepik--device-2--inject-12"  >
<path style="stroke: rgb(38,50,56); stroke-width: 1; stroke-dasharray: none; stroke-linecap: round; stroke-dashoffset: 0; stroke-linejoin: round; stroke-miterlimit: 4; fill: rgb(23,148,172); fill-rule: nonzero; opacity: 1;"  transform=" translate(-632.61, -253.5)" d="M 658 257.39 v -7.66 l -7.64 -0.85 a 18.2 18.2 0 0 0 -1.88 -4.55 l 4.83 -6 l -5.41 -5.41 l -6 4.81 a 18.2 18.2 0 0 0 -4.54 -1.91 l -0.86 -7.67 h -7.65 l -0.85 7.64 a 18.39 18.39 0 0 0 -4.55 1.87 l -6 -4.83 L 612 238.21 l 4.8 6 a 18.4 18.4 0 0 0 -1.9 4.54 l -7.68 0.85 v 7.66 l 7.65 0.85 a 18.17 18.17 0 0 0 1.87 4.55 l -4.83 6 l 5.41 5.41 l 6 -4.81 a 18.09 18.09 0 0 0 4.55 1.9 l 0.85 7.68 h 7.65 l 0.85 -7.64 a 18.46 18.46 0 0 0 4.56 -1.87 l 6 4.82 l 5.42 -5.41 l -4.81 -6 a 18 18 0 0 0 1.9 -4.54 Z m -25.39 5.24 a 9.14 9.14 0 1 1 9.13 -9.13 A 9.14 9.14 0 0 1 632.6 262.63 Z" stroke-linecap="round" />
</g>
		<g transform="matrix(1 0 0 1 295.81 -7.74)" id="freepik--device-2--inject-12"  >
<path style="stroke: rgb(38,50,56); stroke-width: 1; stroke-dasharray: none; stroke-linecap: round; stroke-dashoffset: 0; stroke-linejoin: round; stroke-miterlimit: 4; fill: rgb(255,255,255); fill-rule: nonzero; opacity: 1;"  transform=" translate(-670.81, -242.26)" d="M 688.07 242 l -0.85 -5.06 l -5.16 0.28 a 12.46 12.46 0 0 0 -1.74 -2.81 l 2.52 -4.53 l -4.18 -3 l -3.44 3.85 A 12.6 12.6 0 0 0 672 230 l -1.42 -5 l -5.06 0.85 l 0.28 5.15 a 12.5 12.5 0 0 0 -2.81 1.75 l -4.53 -2.53 l -3 4.18 l 3.85 3.45 a 12 12 0 0 0 -0.76 3.22 l -5 1.41 l 0.85 5.07 l 5.15 -0.28 a 12.5 12.5 0 0 0 1.75 2.81 l -2.53 4.53 l 4.18 3 l 3.45 -3.85 a 12.4 12.4 0 0 0 3.22 0.76 l 1.41 5 l 5.07 -0.85 l -0.28 -5.16 a 11.84 11.84 0 0 0 2.8 -1.74 l 4.54 2.53 l 3 -4.19 l -3.85 -3.44 a 12.5 12.5 0 0 0 0.76 -3.22 Z m -16.23 6.29 a 6.13 6.13 0 1 1 5 -7.06 A 6.12 6.12 0 0 1 671.84 248.31 Z" stroke-linecap="round" />
</g>
		<g transform="matrix(1 0 0 1 154.49 -6.43)" id="freepik--Arrow--inject-12"  >
<polygon style="stroke: none; stroke-width: 1; stroke-dasharray: none; stroke-linecap: butt; stroke-dashoffset: 0; stroke-linejoin: miter; stroke-miterlimit: 4; fill: rgb(23,148,172); fill-rule: nonzero; opacity: 1;"  points="53.03,0 15.69,-29.31 15.69,-14.66 -53.03,-14.66 -53.03,14.67 15.69,14.67 15.69,29.31 53.03,0 " />
</g>
		<g transform="matrix(1 0 0 1 -276.59 -68.77)" id="freepik--Character--inject-12"  >
<path style="stroke: rgb(38,50,56); stroke-width: 1; stroke-dasharray: none; stroke-linecap: round; stroke-dashoffset: 0; stroke-linejoin: round; stroke-miterlimit: 4; fill: rgb(255,255,255); fill-rule: nonzero; opacity: 1;"  transform=" translate(-98.41, -181.23)" d="M 83.92 161.28 s -6 5.12 -5.58 9.62 s 6.51 15.52 7.91 18.78 s -1.86 11 -1.86 11 l 20.17 6.83 s -0.47 -2.48 0 -3.57 s 1.24 -4 1.24 -4 s 3.1 1.08 4 1.39 s 4.19 -1.24 4.35 -2.64 s 0.15 -2.32 0.31 -4.34 a 38.43 38.43 0 0 1 0.77 -6.21 c 0.31 -0.62 3.42 -2.63 3.26 -3.72 s -3.72 -5.27 -4 -6.67 s 0.46 -4.5 0.15 -6.21 s -3.26 -7.6 -3.26 -7.6 s 1.87 -1.55 -3.25 -5.74 S 90.13 152.75 83.92 161.28 Z" stroke-linecap="round" />
</g>
		<g transform="matrix(1 0 0 1 -279.99 -76.57)" id="freepik--Character--inject-12"  >
<path style="stroke: rgb(38,50,56); stroke-width: 1; stroke-dasharray: none; stroke-linecap: round; stroke-dashoffset: 0; stroke-linejoin: round; stroke-miterlimit: 4; fill: rgb(130,130,130); fill-rule: nonzero; opacity: 1;"  transform=" translate(-95.01, -173.43)" d="M 108.13 158.18 c -5.12 -4.19 -18 -5.43 -24.21 3.1 c 0 0 -6 5.12 -5.58 9.62 s 6.51 15.52 7.91 18.78 a 4.53 4.53 0 0 1 0.32 1.54 c 1 0.52 3.52 1.37 8.06 -0.15 c 6.05 -2 6.05 -2.95 6.05 -2.95 s -0.31 -0.77 -0.93 -2.17 s -0.31 -7.29 1.86 -7.29 S 105.8 183 105.8 183 l 1.55 -0.46 l -0.93 -4.5 s 3.41 -4.35 4 -5 s -3.72 -5.58 -3.72 -5.58 l 4.65 -3.57 S 113.25 162.37 108.13 158.18 Z" stroke-linecap="round" />
</g>
		<g transform="matrix(1 0 0 1 -279.98 -84.35)" id="freepik--Character--inject-12"  >
<path style="stroke: rgb(38,50,56); stroke-width: 1; stroke-dasharray: none; stroke-linecap: round; stroke-dashoffset: 0; stroke-linejoin: round; stroke-miterlimit: 4; fill: rgb(38,50,56); fill-rule: nonzero; opacity: 1;"  transform=" translate(-95.02, -165.65)" d="M 108.13 158.18 c -5.12 -4.19 -18 -5.43 -24.21 3.1 c 0 0 -6 5.12 -5.58 9.62 A 22.67 22.67 0 0 0 80 176.34 c 9.49 0.69 26.74 -8.85 26.74 -8.85 l 4.65 -3.57 S 113.25 162.37 108.13 158.18 Z" stroke-linecap="round" />
</g>
		<g transform="matrix(1 0 0 1 -272 -60.52)" id="freepik--Character--inject-12"  >
<path style="stroke: rgb(38,50,56); stroke-width: 1; stroke-dasharray: none; stroke-linecap: round; stroke-dashoffset: 0; stroke-linejoin: round; stroke-miterlimit: 4; fill: none; fill-rule: nonzero; opacity: 1;"  transform=" translate(-103, -189.48)" d="M 100.68 188.12 s 1.39 2.18 2.64 2.64 s 2 -1.24 2 -1.24" stroke-linecap="round" />
</g>
		<g transform="matrix(1 0 0 1 -261.62 -71.81)" id="freepik--Character--inject-12"  >
<path style="stroke: none; stroke-width: 1; stroke-dasharray: none; stroke-linecap: butt; stroke-dashoffset: 0; stroke-linejoin: miter; stroke-miterlimit: 4; fill: rgb(38,50,56); fill-rule: nonzero; opacity: 1;"  transform=" translate(-113.38, -178.19)" d="M 114 178.19 c 0 1.12 -0.28 2 -0.62 2 s -0.62 -0.9 -0.62 -2 s 0.28 -2 0.62 -2 S 114 177.08 114 178.19 Z" stroke-linecap="round" />
</g>
		<g transform="matrix(1 0 0 1 -261.76 -74.95)" id="freepik--Character--inject-12"  >
<path style="stroke: rgb(38,50,56); stroke-width: 1; stroke-dasharray: none; stroke-linecap: round; stroke-dashoffset: 0; stroke-linejoin: round; stroke-miterlimit: 4; fill: none; fill-rule: nonzero; opacity: 1;"  transform=" translate(-113.24, -175.05)" d="M 112.16 175.71 s -0.31 -2 2.17 -1.08" stroke-linecap="round" />
</g>
		<g transform="matrix(1 0 0 1 -261.36 -59.39)" id="freepik--Character--inject-12"  >
<path style="stroke: rgb(38,50,56); stroke-width: 1; stroke-dasharray: none; stroke-linecap: round; stroke-dashoffset: 0; stroke-linejoin: round; stroke-miterlimit: 4; fill: none; fill-rule: nonzero; opacity: 1;"  transform=" translate(-113.63, -190.61)" d="M 114.8 191.23 a 5.66 5.66 0 0 1 -2.33 -1.24" stroke-linecap="round" />
</g>
		<g transform="matrix(1 0 0 1 -233.39 3.01)" id="freepik--Character--inject-12"  >
<polygon style="stroke: rgb(38,50,56); stroke-width: 1; stroke-dasharray: none; stroke-linecap: round; stroke-dashoffset: 0; stroke-linejoin: round; stroke-miterlimit: 4; fill: rgb(38,50,56); fill-rule: nonzero; opacity: 1;"  points="21.63,-13.76 -13.49,-13.76 -21.64,13.76 13.48,13.76 21.63,-13.76 " />
</g>
		<g transform="matrix(1 0 0 1 -241.59 17.99)" id="freepik--Character--inject-12"  >
<rect style="stroke: rgb(38,50,56); stroke-width: 1; stroke-dasharray: none; stroke-linecap: round; stroke-dashoffset: 0; stroke-linejoin: round; stroke-miterlimit: 4; fill: rgb(255,255,255); fill-rule: nonzero; opacity: 1;"  x="-21.43" y="-0.93" rx="0" ry="0" width="42.86" height="1.86" />
</g>
		<g transform="matrix(1 0 0 1 -269.82 196.04)" id="freepik--Character--inject-12"  >
<path style="stroke: rgb(38,50,56); stroke-width: 1; stroke-dasharray: none; stroke-linecap: round; stroke-dashoffset: 0; stroke-linejoin: round; stroke-miterlimit: 4; fill: rgb(255,255,255); fill-rule: nonzero; opacity: 1;"  transform=" translate(-105.18, -446.04)" d="M 105.64 438.06 s 3.78 5.29 6.33 6.68 s 8.82 3 8.82 4.64 s -0.47 1.86 -3.25 2.79 s -7.89 0.92 -10.67 0.92 a 47.35 47.35 0 0 0 -6.73 0.24 a 67.32 67.32 0 0 1 -8.36 0.69 c -2.32 0 -2.2 -6.17 -2.2 -6.17 Z" stroke-linecap="round" />
</g>
		<g transform="matrix(1 0 0 1 -287.6 130.09)" id="freepik--Character--inject-12"  >
<path style="stroke: rgb(38,50,56); stroke-width: 1; stroke-dasharray: none; stroke-linecap: round; stroke-dashoffset: 0; stroke-linejoin: round; stroke-miterlimit: 4; fill: rgb(38,50,56); fill-rule: nonzero; opacity: 1;"  transform=" translate(-87.4, -380.09)" d="M 69.16 313.33 s 4.63 36.54 9.8 51 s 3 18.78 6.53 33.47 s 4.09 49.27 4.09 50.08 s 1.63 0 7.35 -3 a 29 29 0 0 0 8.71 -6.8 a 42.46 42.46 0 0 0 -0.82 -5.17 c -0.55 -2.18 -1.63 -7.9 -1.63 -7.9 s 2.17 -18.51 -0.28 -48.17 S 99.38 312 99.38 312 S 80.32 316.06 69.16 313.33 Z" stroke-linecap="round" />
</g>
		<g transform="matrix(1 0 0 1 -280.51 205.2)" id="freepik--Character--inject-12"  >
<path style="stroke: rgb(38,50,56); stroke-width: 1; stroke-dasharray: none; stroke-linecap: round; stroke-dashoffset: 0; stroke-linejoin: round; stroke-miterlimit: 4; fill: rgb(255,255,255); fill-rule: nonzero; opacity: 1;"  transform=" translate(-94.49, -455.2)" d="M 95.71 447.44 s 3.91 4.08 6.36 5.38 s 10.11 4.08 10.27 5.22 s -0.65 3.43 -1.14 3.59 A 85.17 85.17 0 0 1 98 463.1 c -6.2 0.16 -13.37 -0.66 -15.16 -0.66 s -6 1.63 -6.2 -3.26 s 2.45 -11.9 2.45 -11.9 S 87.72 449.89 95.71 447.44 Z" stroke-linecap="round" />
</g>
		<g transform="matrix(1 0 0 1 -277.87 127.23)" id="freepik--Character--inject-12"  >
<path style="stroke: rgb(38,50,56); stroke-width: 1; stroke-dasharray: none; stroke-linecap: round; stroke-dashoffset: 0; stroke-linejoin: round; stroke-miterlimit: 4; fill: rgb(38,50,56); fill-rule: nonzero; opacity: 1;"  transform=" translate(-97.13, -377.23)" d="M 83 322.8 s 2 28 3 36.42 s -1 26.27 -3.22 38.66 s -3 37.91 -3 37.91 a 2 2 0 0 0 -0.74 2.48 A 35.47 35.47 0 0 1 80.51 442 s -2.73 1 -2.48 2.72 s 1 5 1 5 a 53 53 0 0 0 6.69 0.24 a 45.94 45.94 0 0 0 9.42 -1 l 2 -1 s 0.49 -4 0.49 -6.19 s -2.47 -4.46 -2.23 -5.7 s 1.49 -8.18 2.48 -13.88 s 0.25 -9.17 2 -15.11 s 11.4 -41.38 11.4 -41.38 s 4.46 -41.14 4.71 -46.84 s 0.25 -8.18 0.25 -8.18 s -7.68 -6.19 -9.42 -6.19 S 83 322.8 83 322.8 Z" stroke-linecap="round" />
</g>
		<g transform="matrix(1 0 0 1 -285.08 14.81)" id="freepik--Character--inject-12"  >
<path style="stroke: rgb(38,50,56); stroke-width: 1; stroke-dasharray: none; stroke-linecap: round; stroke-dashoffset: 0; stroke-linejoin: round; stroke-miterlimit: 4; fill: rgb(23,148,172); fill-rule: nonzero; opacity: 1;"  transform=" translate(-89.92, -264.81)" d="M 81.13 204.42 s -22.19 18.15 -22.19 21.72 S 67 282.77 67 285.1 s -3.41 30.25 -3.41 30.25 s 14.89 9.93 19.86 9.93 s 16 -7.14 19.08 -9.46 s 3.88 -3.73 4.65 -3.11 s 12.11 10.55 13.19 10.71 s 0.16 -5.43 0.16 -5.43 s -0.47 -33.2 -1.09 -36.93 s -1.55 -29.17 -1.55 -36.61 s 2.79 -18.78 0.31 -23.59 s -8.84 -8.07 -8.84 -8.07 A 42.72 42.72 0 0 0 81.13 204.42 Z" stroke-linecap="round" />
</g>
		<g transform="matrix(1 0 0 1 -292.32 1.13)" id="freepik--Character--inject-12"  >
<path style="stroke: rgb(38,50,56); stroke-width: 1; stroke-dasharray: none; stroke-linecap: round; stroke-dashoffset: 0; stroke-linejoin: round; stroke-miterlimit: 4; fill: none; fill-rule: nonzero; opacity: 1;"  transform=" translate(-82.67, -251.13)" d="M 81 248.43 a 34.81 34.81 0 0 0 3.35 5.39" stroke-linecap="round" />
</g>
		<g transform="matrix(1 0 0 1 -299.78 -13.5)" id="freepik--Character--inject-12"  >
<path style="stroke: rgb(38,50,56); stroke-width: 1; stroke-dasharray: none; stroke-linecap: round; stroke-dashoffset: 0; stroke-linejoin: round; stroke-miterlimit: 4; fill: none; fill-rule: nonzero; opacity: 1;"  transform=" translate(-75.22, -236.5)" d="M 72.14 229.87 s 3 6.8 6.16 13.25" stroke-linecap="round" />
</g>
		<g transform="matrix(1 0 0 1 -293.45 5.78)" id="freepik--Character--inject-12"  >
<line style="stroke: rgb(38,50,56); stroke-width: 1; stroke-dasharray: none; stroke-linecap: round; stroke-dashoffset: 0; stroke-linejoin: round; stroke-miterlimit: 4; fill: none; fill-rule: nonzero; opacity: 1;"  x1="-3.299999999999997" y1="-4.39500000000001" x2="3.299999999999997" y2="4.39500000000001" />
</g>
		<g transform="matrix(1 0 0 1 -281.33 -44.6)" id="freepik--Character--inject-12"  >
<path style="stroke: rgb(38,50,56); stroke-width: 1; stroke-dasharray: none; stroke-linecap: round; stroke-dashoffset: 0; stroke-linejoin: round; stroke-miterlimit: 4; fill: rgb(23,148,172); fill-rule: nonzero; opacity: 1;"  transform=" translate(-93.67, -205.4)" d="M 81 198.05 L 78 205.5 s 6.2 0.31 11.94 1.09 s 19.4 6.2 19.4 6.2 s -1.4 -5.58 -2.49 -6.67 A 25.26 25.26 0 0 0 94 199.3 A 47.62 47.62 0 0 0 81 198.05 Z" stroke-linecap="round" />
</g>
		<g transform="matrix(1 0 0 1 -250.06 27.48)" id="freepik--Character--inject-12"  >
<path style="stroke: rgb(38,50,56); stroke-width: 1; stroke-dasharray: none; stroke-linecap: round; stroke-dashoffset: 0; stroke-linejoin: round; stroke-miterlimit: 4; fill: rgb(255,255,255); fill-rule: nonzero; opacity: 1;"  transform=" translate(-124.94, -277.48)" d="M 96.21 275.66 s 2.3 16.91 3.59 17.48 s 32 -15.76 34.25 -16.91 a 11.34 11.34 0 0 1 4 -1.15 c 0.43 -0.14 4.3 -0.14 5.73 -0.86 s 2.87 -2.58 3.3 -2.86 s 3.87 -0.43 4.87 -1.15 s 2.29 -1.29 1.43 -1.72 a 44.46 44.46 0 0 0 -5.16 -1.29 s -0.14 -2 -1.86 -2.29 s -1.15 0.43 -5.3 -2 s -3.73 -0.43 -7.31 2.15 s -5.31 5.45 -5.74 5.59 s -13.47 5 -13.47 5 Z" stroke-linecap="round" />
</g>
		<g transform="matrix(1 0 0 1 -230.27 16.77)" id="freepik--Character--inject-12"  >
<line style="stroke: rgb(38,50,56); stroke-width: 1; stroke-dasharray: none; stroke-linecap: round; stroke-dashoffset: 0; stroke-linejoin: round; stroke-miterlimit: 4; fill: rgb(255,255,255); fill-rule: nonzero; opacity: 1;"  x1="3.510000000000005" y1="0.4300000000000068" x2="-3.510000000000005" y2="-0.4300000000000068" />
</g>
		<g transform="matrix(1 0 0 1 -268.93 -7.73)" id="freepik--Character--inject-12"  >
<path style="stroke: rgb(38,50,56); stroke-width: 1; stroke-dasharray: none; stroke-linecap: round; stroke-dashoffset: 0; stroke-linejoin: round; stroke-miterlimit: 4; fill: rgb(23,148,172); fill-rule: nonzero; opacity: 1;"  transform=" translate(-106.07, -242.27)" d="M 97.31 228.29 s -4.46 12 -4.23 13.62 s 2.35 28.19 2.35 28.19 l 20 0.24 s 2.58 -24.43 3.28 -33.59 s 0.47 -16 -1.64 -18.32 s -8.93 -4.23 -11.51 -4.23" stroke-linecap="round" />
</g>
		<g transform="matrix(1 0 0 1 -270.26 20.01)" id="freepik--Character--inject-12"  >
<path style="stroke: rgb(38,50,56); stroke-width: 1; stroke-dasharray: none; stroke-linecap: round; stroke-dashoffset: 0; stroke-linejoin: round; stroke-miterlimit: 4; fill: rgb(23,148,172); fill-rule: nonzero; opacity: 1;"  transform=" translate(-104.74, -270.01)" d="M 93.2 265.34 s 0.58 12.32 1.44 13.33 s 2.29 0.43 3.29 0 a 84.1 84.1 0 0 1 11.9 -2.3 c 3.3 -0.28 4 -0.28 4.73 -0.71 s 1 -1 1 -2.44 s 1.29 -8.6 0.43 -10.61 S 99.65 258.89 93.2 265.34 Z" stroke-linecap="round" />
</g>
		<g transform="matrix(1 0 0 1 -266.03 18.63)" id="freepik--Character--inject-12"  >
<polygon style="stroke: rgb(38,50,56); stroke-width: 1; stroke-dasharray: none; stroke-linecap: round; stroke-dashoffset: 0; stroke-linejoin: round; stroke-miterlimit: 4; fill: rgb(23,148,172); fill-rule: nonzero; opacity: 1;"  points="-1,-7.59 -0.43,7.74 0.86,7.74 1,-7.74 -1,-7.59 " />
</g>
</g>
</g>
</svg>