<?xml version="1.0" encoding="UTF-8" standalone="no" ?>
<!DOCTYPE svg PUBLIC "-//W3C//DTD SVG 1.1//EN" "http://www.w3.org/Graphics/SVG/1.1/DTD/svg11.dtd">
<svg xmlns="http://www.w3.org/2000/svg" xmlns:xlink="http://www.w3.org/1999/xlink" version="1.1" width="640" height="480" viewBox="0 0 640 480" xml:space="preserve">
<desc>Created with Fabric.js 3.6.6</desc>
<defs>
</defs>
<g transform="matrix(0.9 0 0 0.9 312.32 221.2)"  >
<g style=""   >
		<g transform="matrix(1 0 0 1 6.67 -28.1)" id="freepik--background-simple--inject-2"  >
<path style="stroke: none; stroke-width: 1; stroke-dasharray: none; stroke-linecap: butt; stroke-dashoffset: 0; stroke-linejoin: miter; stroke-miterlimit: 4; fill: rgb(23,148,172); fill-rule: nonzero; opacity: 1;"  transform=" translate(-256.67, -221.9)" d="M 417.83 133.15 S 394.38 85 342.61 77.88 s -87.92 27.63 -126 45.46 c -20 9.34 -42.74 5.71 -63.92 10.23 C 84.94 148 59.43 238.55 87.64 290 c 24.42 44.57 67.4 67.75 132.86 73.1 s 111.36 11.59 170 -32.09 S 445.18 196.44 417.83 133.15 Z" stroke-linecap="round" />
</g>
		<g transform="matrix(1 0 0 1 6.67 -28.1)" id="freepik--background-simple--inject-2"  >
<path style="stroke: none; stroke-width: 1; stroke-dasharray: none; stroke-linecap: butt; stroke-dashoffset: 0; stroke-linejoin: miter; stroke-miterlimit: 4; fill: rgb(255,255,255); fill-rule: nonzero; opacity: 0.85;"  transform=" translate(-256.67, -221.9)" d="M 417.83 133.15 S 394.38 85 342.61 77.88 s -87.92 27.63 -126 45.46 c -20 9.34 -42.74 5.71 -63.92 10.23 C 84.94 148 59.43 238.55 87.64 290 c 24.42 44.57 67.4 67.75 132.86 73.1 s 111.36 11.59 170 -32.09 S 445.18 196.44 417.83 133.15 Z" stroke-linecap="round" />
</g>
		<g transform="matrix(1 0 0 1 9.83 153.99)" id="freepik--Floor--inject-2"  >
<ellipse style="stroke: none; stroke-width: 1; stroke-dasharray: none; stroke-linecap: butt; stroke-dashoffset: 0; stroke-linejoin: miter; stroke-miterlimit: 4; fill: rgb(23,148,172); fill-rule: nonzero; opacity: 1;"  cx="0" cy="0" rx="171.7" ry="12.81" />
</g>
		<g transform="matrix(1 0 0 1 9.83 153.99)" id="freepik--Floor--inject-2"  >
<ellipse style="stroke: none; stroke-width: 1; stroke-dasharray: none; stroke-linecap: butt; stroke-dashoffset: 0; stroke-linejoin: miter; stroke-miterlimit: 4; fill: rgb(255,255,255); fill-rule: nonzero; opacity: 0.5;"  cx="0" cy="0" rx="171.7" ry="12.81" />
</g>
		<g transform="matrix(1 0 0 1 10.92 139.22)" id="freepik--Floor--inject-2"  >
<line style="stroke: rgb(0,0,0); stroke-width: 1; stroke-dasharray: none; stroke-linecap: butt; stroke-dashoffset: 0; stroke-linejoin: miter; stroke-miterlimit: 10; fill: rgb(255,255,255); fill-rule: nonzero; opacity: 1;"  x1="164.245" y1="0" x2="-164.245" y2="0" />
</g>
		<g transform="matrix(1 0 0 1 130.5 25.09)" id="freepik--Table--inject-2"  >
<path style="stroke: none; stroke-width: 1; stroke-dasharray: none; stroke-linecap: butt; stroke-dashoffset: 0; stroke-linejoin: miter; stroke-miterlimit: 4; fill: rgb(255,255,255); fill-rule: nonzero; opacity: 1;"  transform=" translate(-380.5, -275.09)" d="M 363.48 270.8 a 10.7 10.7 0 0 1 0 8.58 h 30.3 s 3.74 -0.92 3.74 -4.29 a 6.26 6.26 0 0 0 -3.65 -4.2 Z" stroke-linecap="round" />
</g>
		<g transform="matrix(1 0 0 1 130.63 25.01)" id="freepik--Table--inject-2"  >
<path style="stroke: none; stroke-width: 1; stroke-dasharray: none; stroke-linecap: butt; stroke-dashoffset: 0; stroke-linejoin: miter; stroke-miterlimit: 4; fill: rgb(0,0,0); fill-rule: nonzero; opacity: 0.25;"  transform=" translate(-380.63, -275.01)" d="M 395.22 271.53 a 7.75 7.75 0 0 0 -4 -0.65 h -2.87 l -7.46 0 l -14.5 0 a 12 12 0 0 1 -2.69 0 a 8.86 8.86 0 0 1 0.59 1.76 h 30.26 v 6.54 a 4.57 4.57 0 0 0 3 -4 a 3.69 3.69 0 0 0 -2 -3.4 Z" stroke-linecap="round" />
</g>
		<g transform="matrix(1 0 0 1 129.75 25.25)" id="freepik--Table--inject-2"  >
<path style="stroke: none; stroke-width: 1; stroke-dasharray: none; stroke-linecap: butt; stroke-dashoffset: 0; stroke-linejoin: miter; stroke-miterlimit: 4; fill: rgb(38,50,56); fill-rule: nonzero; opacity: 1;"  transform=" translate(-379.75, -275.25)" d="M 392.64 280.56 H 362.2 a 0.91 0.91 0 0 1 0 -1.82 h 30.44 a 3.52 3.52 0 1 0 0 -7 H 362.47 a 0.91 0.91 0 1 1 0 -1.82 h 30.17 a 5.34 5.34 0 1 1 0 10.67 Z" stroke-linecap="round" />
</g>
		<g transform="matrix(1 0 0 1 129.04 35.67)" id="freepik--Table--inject-2"  >
<path style="stroke: none; stroke-width: 1; stroke-dasharray: none; stroke-linecap: butt; stroke-dashoffset: 0; stroke-linejoin: miter; stroke-miterlimit: 4; fill: rgb(255,255,255); fill-rule: nonzero; opacity: 1;"  transform=" translate(-379.04, -285.67)" d="M 396.06 281.38 a 10.71 10.71 0 0 0 0 8.58 h -30.3 s -3.74 -0.91 -3.74 -4.29 a 6.23 6.23 0 0 1 3.65 -4.19 Z" stroke-linecap="round" />
</g>
		<g transform="matrix(1 0 0 1 128.94 35.58)" id="freepik--Table--inject-2"  >
<path style="stroke: none; stroke-width: 1; stroke-dasharray: none; stroke-linecap: butt; stroke-dashoffset: 0; stroke-linejoin: miter; stroke-miterlimit: 4; fill: rgb(0,0,0); fill-rule: nonzero; opacity: 0.25;"  transform=" translate(-378.94, -285.58)" d="M 364.31 282.11 a 7.79 7.79 0 0 1 4.05 -0.64 h 2.86 l 7.46 0 l 14.51 -0.05 a 11.48 11.48 0 0 0 2.69 0 a 8.44 8.44 0 0 0 -0.6 1.76 H 365 v 6.55 a 4.56 4.56 0 0 1 -3 -4 a 3.69 3.69 0 0 1 2 -3.39 Z" stroke-linecap="round" />
</g>
		<g transform="matrix(1 0 0 1 129.69 35.83)" id="freepik--Table--inject-2"  >
<path style="stroke: none; stroke-width: 1; stroke-dasharray: none; stroke-linecap: butt; stroke-dashoffset: 0; stroke-linejoin: miter; stroke-miterlimit: 4; fill: rgb(38,50,56); fill-rule: nonzero; opacity: 1;"  transform=" translate(-379.69, -285.83)" d="M 366.9 291.15 h 30.44 a 0.92 0.92 0 0 0 0 -1.83 H 366.9 a 3.52 3.52 0 1 1 0 -7 h 30.16 a 0.92 0.92 0 1 0 0 -1.83 H 366.9 a 5.35 5.35 0 1 0 0 10.68 Z" stroke-linecap="round" />
</g>
		<g transform="matrix(1 0 0 1 56.75 27.98)" id="freepik--Table--inject-2"  >
<path style="stroke: none; stroke-width: 1; stroke-dasharray: none; stroke-linecap: butt; stroke-dashoffset: 0; stroke-linejoin: miter; stroke-miterlimit: 4; fill: rgb(38,50,56); fill-rule: nonzero; opacity: 1;"  transform=" translate(-306.75, -277.98)" d="M 312 267.9 l 2 -3.54 H 299.51 l 2.05 3.54 c -2.87 2.5 -5.86 6 -5.86 10 c 0 7.57 4.95 13.71 11.05 13.71 s 11.05 -6.14 11.05 -13.71 C 317.8 273.94 314.81 270.4 312 267.9 Z" stroke-linecap="round" />
</g>
		<g transform="matrix(1 0 0 1 78.83 30.62)" id="freepik--Table--inject-2"  >
<path style="stroke: none; stroke-width: 1; stroke-dasharray: none; stroke-linecap: butt; stroke-dashoffset: 0; stroke-linejoin: miter; stroke-miterlimit: 4; fill: rgb(38,50,56); fill-rule: nonzero; opacity: 1;"  transform=" translate(-328.83, -280.62)" d="M 333 272.54 l 1.65 -2.85 H 323 l 1.65 2.85 c -2.31 2 -4.71 4.85 -4.71 8 c 0 6.09 4 11 8.89 11 s 8.88 -4.94 8.88 -11 C 337.74 277.39 335.34 274.55 333 272.54 Z" stroke-linecap="round" />
</g>
		<g transform="matrix(1 0 0 1 96.47 32.8)" id="freepik--Table--inject-2"  >
<path style="stroke: none; stroke-width: 1; stroke-dasharray: none; stroke-linecap: butt; stroke-dashoffset: 0; stroke-linejoin: miter; stroke-miterlimit: 4; fill: rgb(38,50,56); fill-rule: nonzero; opacity: 1;"  transform=" translate(-346.47, -282.8)" d="M 349.82 276.29 l 1.32 -2.29 h -9.35 l 1.32 2.29 c -1.86 1.61 -3.78 3.9 -3.78 6.44 c 0 4.89 3.19 8.86 7.13 8.86 s 7.14 -4 7.14 -8.86 C 353.6 280.19 351.67 277.9 349.82 276.29 Z" stroke-linecap="round" />
</g>
		<g transform="matrix(1 0 0 1 44.67 125.67)" id="freepik--Table--inject-2"  >
<polygon style="stroke: none; stroke-width: 1; stroke-dasharray: none; stroke-linecap: butt; stroke-dashoffset: 0; stroke-linejoin: miter; stroke-miterlimit: 4; fill: rgb(38,50,56); fill-rule: nonzero; opacity: 1;"  points="1.47,24 -1.47,24 -4,-24 4,-24 1.47,24 " />
</g>
		<g transform="matrix(1 0 0 1 155.87 125.67)" id="freepik--Table--inject-2"  >
<polygon style="stroke: none; stroke-width: 1; stroke-dasharray: none; stroke-linecap: butt; stroke-dashoffset: 0; stroke-linejoin: miter; stroke-miterlimit: 4; fill: rgb(38,50,56); fill-rule: nonzero; opacity: 1;"  points="1.47,24 -1.47,24 -4,-24 4,-24 1.47,24 " />
</g>
		<g transform="matrix(1 0 0 1 100 74.56)" id="freepik--Table--inject-2"  >
<rect style="stroke: none; stroke-width: 1; stroke-dasharray: none; stroke-linecap: butt; stroke-dashoffset: 0; stroke-linejoin: miter; stroke-miterlimit: 4; fill: rgb(23,148,172); fill-rule: nonzero; opacity: 1;"  x="-63" y="-33.11" rx="0" ry="0" width="126" height="66.22" />
</g>
		<g transform="matrix(1 0 0 1 100 74.56)" id="freepik--Table--inject-2"  >
<rect style="stroke: none; stroke-width: 1; stroke-dasharray: none; stroke-linecap: butt; stroke-dashoffset: 0; stroke-linejoin: miter; stroke-miterlimit: 4; fill: rgb(255,255,255); fill-rule: nonzero; opacity: 0.4;"  x="-63" y="-33.11" rx="0" ry="0" width="126" height="66.22" />
</g>
		<g transform="matrix(1 0 0 1 100 74.56)" id="freepik--Table--inject-2"  >
<rect style="stroke: rgb(38,50,56); stroke-width: 1; stroke-dasharray: none; stroke-linecap: round; stroke-dashoffset: 0; stroke-linejoin: round; stroke-miterlimit: 4; fill: none; fill-rule: nonzero; opacity: 1;"  x="-57.35" y="-28.885" rx="0" ry="0" width="114.7" height="57.77" />
</g>
		<g transform="matrix(1 0 0 1 99.63 74.3)" id="freepik--Table--inject-2"  >
<line style="stroke: rgb(38,50,56); stroke-width: 1; stroke-dasharray: none; stroke-linecap: round; stroke-dashoffset: 0; stroke-linejoin: round; stroke-miterlimit: 4; fill: rgb(255,255,255); fill-rule: nonzero; opacity: 1;"  x1="0" y1="-28.625" x2="0" y2="28.625" />
</g>
		<g transform="matrix(1 0 0 1 48.49 75.24)" id="freepik--Table--inject-2"  >
<rect style="stroke: none; stroke-width: 1; stroke-dasharray: none; stroke-linecap: butt; stroke-dashoffset: 0; stroke-linejoin: miter; stroke-miterlimit: 4; fill: rgb(38,50,56); fill-rule: nonzero; opacity: 1;"  x="-1.41" y="-6.1" rx="0" ry="0" width="2.82" height="12.2" />
</g>
		<g transform="matrix(1 0 0 1 152.19 75.24)" id="freepik--Table--inject-2"  >
<rect style="stroke: none; stroke-width: 1; stroke-dasharray: none; stroke-linecap: butt; stroke-dashoffset: 0; stroke-linejoin: miter; stroke-miterlimit: 4; fill: rgb(38,50,56); fill-rule: nonzero; opacity: 1;"  x="-1.41" y="-6.1" rx="0" ry="0" width="2.82" height="12.2" />
</g>
		<g transform="matrix(1 0 0 1 -86.69 81.94)" id="freepik--Plant--inject-2"  >
<path style="stroke: rgb(38,50,56); stroke-width: 1; stroke-dasharray: none; stroke-linecap: round; stroke-dashoffset: 0; stroke-linejoin: round; stroke-miterlimit: 4; fill: none; fill-rule: nonzero; opacity: 1;"  transform=" translate(-163.31, -331.94)" d="M 162.19 379.25 s -3.16 -2.81 -2.81 -21 s 14 -42.41 4.56 -73.61" stroke-linecap="round" />
</g>
		<g transform="matrix(1 0 0 1 -99.84 33.41)" id="freepik--Plant--inject-2"  >
<path style="stroke: none; stroke-width: 1; stroke-dasharray: none; stroke-linecap: butt; stroke-dashoffset: 0; stroke-linejoin: miter; stroke-miterlimit: 4; fill: rgb(23,148,172); fill-rule: nonzero; opacity: 1;"  transform=" translate(-150.16, -283.41)" d="M 165.34 288.46 s -1.4 -11.22 -6.66 -14.72 s -18.23 0 -22.08 8.76 s 0.35 11.92 0.35 11.92 a 18.71 18.71 0 0 1 13.67 -8.06 C 159.73 285.65 165.34 288.46 165.34 288.46 Z" stroke-linecap="round" />
</g>
		<g transform="matrix(1 0 0 1 -98.9 36.68)" id="freepik--Plant--inject-2"  >
<path style="stroke: none; stroke-width: 1; stroke-dasharray: none; stroke-linecap: butt; stroke-dashoffset: 0; stroke-linejoin: miter; stroke-miterlimit: 4; fill: rgb(0,0,0); fill-rule: nonzero; opacity: 0.19;"  transform=" translate(-151.1, -286.68)" d="M 150.62 286.36 c 8.5 -0.66 13.95 1.74 14.64 2.06 c -1.34 -4.54 -5.85 -8.55 -12.54 -9.43 c -8.06 -1.05 -15.77 15.43 -15.77 15.43 A 18.71 18.71 0 0 1 150.62 286.36 Z" stroke-linecap="round" />
</g>
		<g transform="matrix(1 0 0 1 -96.71 67.3)" id="freepik--Plant--inject-2"  >
<path style="stroke: none; stroke-width: 1; stroke-dasharray: none; stroke-linecap: butt; stroke-dashoffset: 0; stroke-linejoin: miter; stroke-miterlimit: 4; fill: rgb(23,148,172); fill-rule: nonzero; opacity: 1;"  transform=" translate(-153.29, -317.3)" d="M 167.09 311.59 s -7.2 -8.71 -13.52 -8.84 s -15.38 9.78 -13.93 19.25 s 6.7 9.86 6.7 9.86 a 18.73 18.73 0 0 1 7.2 -14.14 C 160.86 312.24 167.09 311.59 167.09 311.59 Z" stroke-linecap="round" />
</g>
		<g transform="matrix(1 0 0 1 -93.5 70.27)" id="freepik--Plant--inject-2"  >
<path style="stroke: none; stroke-width: 1; stroke-dasharray: none; stroke-linecap: butt; stroke-dashoffset: 0; stroke-linejoin: miter; stroke-miterlimit: 4; fill: rgb(0,0,0); fill-rule: nonzero; opacity: 0.19;"  transform=" translate(-156.5, -320.27)" d="M 153.54 317.72 c 6.83 -5.11 12.71 -6 13.47 -6.12 c -3.58 -3.11 -9.53 -4.07 -15.65 -1.22 c -7.36 3.45 -5 21.48 -5 21.48 A 18.73 18.73 0 0 1 153.54 317.72 Z" stroke-linecap="round" />
</g>
		<g transform="matrix(1 0 0 1 -71.12 81.71)" id="freepik--Plant--inject-2"  >
<path style="stroke: none; stroke-width: 1; stroke-dasharray: none; stroke-linecap: butt; stroke-dashoffset: 0; stroke-linejoin: miter; stroke-miterlimit: 4; fill: rgb(23,148,172); fill-rule: nonzero; opacity: 1;"  transform=" translate(-178.88, -331.71)" d="M 165.08 326 s 7.2 -8.71 13.52 -8.85 s 15.38 9.79 13.93 19.25 s -6.7 9.87 -6.7 9.87 a 18.72 18.72 0 0 0 -7.2 -14.14 C 171.31 326.61 165.08 326 165.08 326 Z" stroke-linecap="round" />
</g>
		<g transform="matrix(1 0 0 1 -74.34 84.65)" id="freepik--Plant--inject-2"  >
<path style="stroke: none; stroke-width: 1; stroke-dasharray: none; stroke-linecap: butt; stroke-dashoffset: 0; stroke-linejoin: miter; stroke-miterlimit: 4; fill: rgb(0,0,0); fill-rule: nonzero; opacity: 0.19;"  transform=" translate(-175.66, -334.65)" d="M 178.63 332.1 c -6.83 -5.12 -12.71 -6 -13.47 -6.12 c 3.58 -3.11 9.53 -4.08 15.64 -1.22 c 7.37 3.44 5 21.48 5 21.48 A 18.72 18.72 0 0 0 178.63 332.1 Z" stroke-linecap="round" />
</g>
		<g transform="matrix(1 0 0 1 -77.08 113.93)" id="freepik--Plant--inject-2"  >
<path style="stroke: none; stroke-width: 1; stroke-dasharray: none; stroke-linecap: butt; stroke-dashoffset: 0; stroke-linejoin: miter; stroke-miterlimit: 4; fill: rgb(23,148,172); fill-rule: nonzero; opacity: 1;"  transform=" translate(-172.92, -363.93)" d="M 159.12 358.21 s 7.2 -8.71 13.52 -8.84 s 15.38 9.79 13.93 19.25 s -6.7 9.87 -6.7 9.87 a 18.74 18.74 0 0 0 -7.2 -14.15 C 165.36 358.86 159.12 358.21 159.12 358.21 Z" stroke-linecap="round" />
</g>
		<g transform="matrix(1 0 0 1 -80.29 116.9)" id="freepik--Plant--inject-2"  >
<path style="stroke: none; stroke-width: 1; stroke-dasharray: none; stroke-linecap: butt; stroke-dashoffset: 0; stroke-linejoin: miter; stroke-miterlimit: 4; fill: rgb(0,0,0); fill-rule: nonzero; opacity: 0.19;"  transform=" translate(-169.71, -366.9)" d="M 172.67 364.34 c -6.83 -5.11 -12.71 -6 -13.47 -6.11 c 3.58 -3.12 9.53 -4.08 15.65 -1.23 c 7.36 3.45 5 21.49 5 21.49 A 18.74 18.74 0 0 0 172.67 364.34 Z" stroke-linecap="round" />
</g>
		<g transform="matrix(1 0 0 1 -96.69 92.49)" id="freepik--Plant--inject-2"  >
<path style="stroke: none; stroke-width: 1; stroke-dasharray: none; stroke-linecap: butt; stroke-dashoffset: 0; stroke-linejoin: miter; stroke-miterlimit: 4; fill: rgb(23,148,172); fill-rule: nonzero; opacity: 1;"  transform=" translate(-153.31, -342.49)" d="M 163.31 338.36 s -5.22 -6.31 -9.79 -6.41 S 142.37 339 143.43 345.9 s 4.85 7.14 4.85 7.14 a 13.55 13.55 0 0 1 5.22 -10.24 A 21.79 21.79 0 0 1 163.31 338.36 Z" stroke-linecap="round" />
</g>
		<g transform="matrix(1 0 0 1 -94.36 94.62)" id="freepik--Plant--inject-2"  >
<path style="stroke: none; stroke-width: 1; stroke-dasharray: none; stroke-linecap: butt; stroke-dashoffset: 0; stroke-linejoin: miter; stroke-miterlimit: 4; fill: rgb(0,0,0); fill-rule: nonzero; opacity: 0.19;"  transform=" translate(-155.64, -344.62)" d="M 153.5 342.8 a 22.33 22.33 0 0 1 9.75 -4.44 c -2.59 -2.25 -6.9 -2.95 -11.33 -0.88 C 146.58 340 148.28 353 148.28 353 A 13.55 13.55 0 0 1 153.5 342.8 Z" stroke-linecap="round" />
</g>
		<g transform="matrix(1 0 0 1 -74.95 42.72)" id="freepik--Plant--inject-2"  >
<path style="stroke: none; stroke-width: 1; stroke-dasharray: none; stroke-linecap: butt; stroke-dashoffset: 0; stroke-linejoin: miter; stroke-miterlimit: 4; fill: rgb(23,148,172); fill-rule: nonzero; opacity: 1;"  transform=" translate(-175.05, -292.72)" d="M 165.05 288.58 s 5.22 -6.31 9.8 -6.41 s 11.14 7.09 10.09 13.95 s -4.86 7.15 -4.86 7.15 A 13.58 13.58 0 0 0 174.86 293 A 21.88 21.88 0 0 0 165.05 288.58 Z" stroke-linecap="round" />
</g>
		<g transform="matrix(1 0 0 1 -77.27 44.85)" id="freepik--Plant--inject-2"  >
<path style="stroke: none; stroke-width: 1; stroke-dasharray: none; stroke-linecap: butt; stroke-dashoffset: 0; stroke-linejoin: miter; stroke-miterlimit: 4; fill: rgb(0,0,0); fill-rule: nonzero; opacity: 0.19;"  transform=" translate(-172.73, -294.85)" d="M 174.86 293 a 22.11 22.11 0 0 0 -9.75 -4.43 c 2.59 -2.26 6.9 -2.95 11.33 -0.89 c 5.34 2.5 3.65 15.57 3.65 15.57 A 13.61 13.61 0 0 0 174.86 293 Z" stroke-linecap="round" />
</g>
		<g transform="matrix(1 0 0 1 -100.44 114.98)" id="freepik--Plant--inject-2"  >
<path style="stroke: none; stroke-width: 1; stroke-dasharray: none; stroke-linecap: butt; stroke-dashoffset: 0; stroke-linejoin: miter; stroke-miterlimit: 4; fill: rgb(23,148,172); fill-rule: nonzero; opacity: 1;"  transform=" translate(-149.56, -364.98)" d="M 159.56 360.84 s -5.22 -6.31 -9.8 -6.4 s -11.14 7.09 -10.09 13.94 s 4.85 7.15 4.85 7.15 a 13.55 13.55 0 0 1 5.22 -10.24 A 21.9 21.9 0 0 1 159.56 360.84 Z" stroke-linecap="round" />
</g>
		<g transform="matrix(1 0 0 1 -98.12 117.12)" id="freepik--Plant--inject-2"  >
<path style="stroke: none; stroke-width: 1; stroke-dasharray: none; stroke-linecap: butt; stroke-dashoffset: 0; stroke-linejoin: miter; stroke-miterlimit: 4; fill: rgb(0,0,0); fill-rule: nonzero; opacity: 0.19;"  transform=" translate(-151.88, -367.12)" d="M 149.74 365.29 a 22.25 22.25 0 0 1 9.76 -4.44 c -2.59 -2.25 -6.91 -3 -11.34 -0.88 c -5.33 2.49 -3.64 15.56 -3.64 15.56 A 13.55 13.55 0 0 1 149.74 365.29 Z" stroke-linecap="round" />
</g>
		<g transform="matrix(1 0 0 1 -89.04 138.18)" id="freepik--Plant--inject-2"  >
<path style="stroke: rgb(38,50,56); stroke-width: 1; stroke-dasharray: none; stroke-linecap: round; stroke-dashoffset: 0; stroke-linejoin: round; stroke-miterlimit: 4; fill: rgb(38,50,56); fill-rule: nonzero; opacity: 1;"  transform=" translate(-160.96, -388.18)" d="M 147.16 376.09 a 13.78 13.78 0 0 0 -3.55 9.12 c 0 8.32 7.77 15.07 17.35 15.07 s 17.35 -6.75 17.35 -15.07 a 13.78 13.78 0 0 0 -3.55 -9.12 Z" stroke-linecap="round" />
</g>
		<g transform="matrix(1 0 0 1 -61.33 -104.67)" id="freepik--Pictures--inject-2"  >
<rect style="stroke: none; stroke-width: 1; stroke-dasharray: none; stroke-linecap: butt; stroke-dashoffset: 0; stroke-linejoin: miter; stroke-miterlimit: 4; fill: rgb(23,148,172); fill-rule: nonzero; opacity: 1;"  x="-34" y="-49" rx="0" ry="0" width="68" height="98" />
</g>
		<g transform="matrix(1 0 0 1 -61.33 -104.67)" id="freepik--Pictures--inject-2"  >
<rect style="stroke: none; stroke-width: 1; stroke-dasharray: none; stroke-linecap: butt; stroke-dashoffset: 0; stroke-linejoin: miter; stroke-miterlimit: 4; fill: rgb(255,255,255); fill-rule: nonzero; opacity: 0.59;"  x="-34" y="-49" rx="0" ry="0" width="68" height="98" />
</g>
		<g transform="matrix(1 0 0 1 -61.34 -104.67)" id="freepik--Pictures--inject-2"  >
<rect style="stroke: none; stroke-width: 1; stroke-dasharray: none; stroke-linecap: butt; stroke-dashoffset: 0; stroke-linejoin: miter; stroke-miterlimit: 4; fill: rgb(255,255,255); fill-rule: nonzero; opacity: 1;"  x="-24.285" y="-35" rx="0" ry="0" width="48.57" height="70" />
</g>
		<g transform="matrix(1 0 0 1 -139.08 -66.33)" id="freepik--Pictures--inject-2"  >
<rect style="stroke: none; stroke-width: 1; stroke-dasharray: none; stroke-linecap: butt; stroke-dashoffset: 0; stroke-linejoin: miter; stroke-miterlimit: 4; fill: rgb(23,148,172); fill-rule: nonzero; opacity: 1;"  x="-23.59" y="-34" rx="0" ry="0" width="47.18" height="68" />
</g>
		<g transform="matrix(1 0 0 1 -139.08 -66.33)" id="freepik--Pictures--inject-2"  >
<rect style="stroke: none; stroke-width: 1; stroke-dasharray: none; stroke-linecap: butt; stroke-dashoffset: 0; stroke-linejoin: miter; stroke-miterlimit: 4; fill: rgb(255,255,255); fill-rule: nonzero; opacity: 0.59;"  x="-23.59" y="-34" rx="0" ry="0" width="47.18" height="68" />
</g>
		<g transform="matrix(1 0 0 1 -139.08 -66.34)" id="freepik--Pictures--inject-2"  >
<rect style="stroke: none; stroke-width: 1; stroke-dasharray: none; stroke-linecap: butt; stroke-dashoffset: 0; stroke-linejoin: miter; stroke-miterlimit: 4; fill: rgb(255,255,255); fill-rule: nonzero; opacity: 1;"  x="-16.85" y="-24.285" rx="0" ry="0" width="33.7" height="48.57" />
</g>
		<g transform="matrix(1 0 0 1 49.92 -35)" id="freepik--Pictures--inject-2"  >
<rect style="stroke: none; stroke-width: 1; stroke-dasharray: none; stroke-linecap: butt; stroke-dashoffset: 0; stroke-linejoin: miter; stroke-miterlimit: 4; fill: rgb(23,148,172); fill-rule: nonzero; opacity: 1;"  x="-23.59" y="-34" rx="0" ry="0" width="47.18" height="68" />
</g>
		<g transform="matrix(1 0 0 1 49.92 -35)" id="freepik--Pictures--inject-2"  >
<rect style="stroke: none; stroke-width: 1; stroke-dasharray: none; stroke-linecap: butt; stroke-dashoffset: 0; stroke-linejoin: miter; stroke-miterlimit: 4; fill: rgb(255,255,255); fill-rule: nonzero; opacity: 0.59;"  x="-23.59" y="-34" rx="0" ry="0" width="47.18" height="68" />
</g>
		<g transform="matrix(1 0 0 1 49.92 -35)" id="freepik--Pictures--inject-2"  >
<rect style="stroke: none; stroke-width: 1; stroke-dasharray: none; stroke-linecap: butt; stroke-dashoffset: 0; stroke-linejoin: miter; stroke-miterlimit: 4; fill: rgb(255,255,255); fill-rule: nonzero; opacity: 1;"  x="-16.85" y="-24.285" rx="0" ry="0" width="33.7" height="48.57" />
</g>
		<g transform="matrix(1 0 0 1 66.51 -120.55)" id="freepik--Character--inject-2"  >
<path style="stroke: rgb(38,50,56); stroke-width: 1; stroke-dasharray: none; stroke-linecap: round; stroke-dashoffset: 0; stroke-linejoin: round; stroke-miterlimit: 4; fill: rgb(255,255,255); fill-rule: nonzero; opacity: 1;"  transform=" translate(-316.51, -129.45)" d="M 350.14 124.76 a 13.24 13.24 0 0 0 -15.35 -21.17 a 20 20 0 0 0 -36.29 11.58 c 0 0.6 0 1.19 0.09 1.78 a 18.75 18.75 0 1 0 -5.34 36.72 l 0.54 0 a 20.22 20.22 0 0 0 35.48 -1 a 17.49 17.49 0 1 0 20.87 -27.87 Z" stroke-linecap="round" />
</g>
		<g transform="matrix(1 0 0 1 31.74 -89.24)" id="freepik--Character--inject-2"  >
<circle style="stroke: rgb(38,50,56); stroke-width: 1; stroke-dasharray: none; stroke-linecap: round; stroke-dashoffset: 0; stroke-linejoin: round; stroke-miterlimit: 4; fill: rgb(255,255,255); fill-rule: nonzero; opacity: 1;"  cx="0" cy="0" r="3.76" />
</g>
		<g transform="matrix(1 0 0 1 42.12 -97.45)" id="freepik--Character--inject-2"  >
<path style="stroke: rgb(38,50,56); stroke-width: 1; stroke-dasharray: none; stroke-linecap: round; stroke-dashoffset: 0; stroke-linejoin: round; stroke-miterlimit: 4; fill: rgb(255,255,255); fill-rule: nonzero; opacity: 1;"  transform=" translate(-292.12, -152.55)" d="M 297.67 152.55 a 5.55 5.55 0 1 1 -5.55 -5.55 A 5.55 5.55 0 0 1 297.67 152.55 Z" stroke-linecap="round" />
</g>
		<g transform="matrix(1 0 0 1 22.34 -89.24)" id="freepik--Character--inject-2"  >
<path style="stroke: rgb(38,50,56); stroke-width: 1; stroke-dasharray: none; stroke-linecap: round; stroke-dashoffset: 0; stroke-linejoin: round; stroke-miterlimit: 4; fill: rgb(255,255,255); fill-rule: nonzero; opacity: 1;"  transform=" translate(-272.34, -160.76)" d="M 274.22 160.76 a 1.88 1.88 0 1 1 -1.88 -1.88 A 1.88 1.88 0 0 1 274.22 160.76 Z" stroke-linecap="round" />
</g>
		<g transform="matrix(1 0 0 1 -14.86 74.67)" id="freepik--Character--inject-2"  >
<path style="stroke: rgb(38,50,56); stroke-width: 1; stroke-dasharray: none; stroke-linecap: round; stroke-dashoffset: 0; stroke-linejoin: round; stroke-miterlimit: 4; fill: rgb(255,255,255); fill-rule: nonzero; opacity: 1;"  transform=" translate(-235.14, -324.67)" d="M 237.38 241.36 S 227.75 264.25 224.5 278 s -3 42.5 -3 45 s -10 16.5 -10.75 24.75 s -5.5 40.75 -6.5 44.25 s -9.5 14 -9.25 15.25 s 11 0.5 11.75 0.5 S 209 393 210 390.75 S 226 358 228.75 348.5 s 3.75 -22.25 3.75 -22.25 l 16 -40.5 l 6 39 s -2.25 19.75 -0.5 29.5 s 1.75 50.75 2 51.5 s 18.75 0.75 18.75 0.75 s 2 -1 -1.75 -3 c -0.94 -0.5 -11.75 -6.75 -12.5 -7.75 s 7.25 -36.5 8 -47.25 s -0.25 -25.75 -0.25 -25.75 s 5 -28 4 -44.25 S 264 241.36 264 241.36 Z" stroke-linecap="round" />
</g>
		<g transform="matrix(1 0 0 1 -10.38 60.19)" id="freepik--Character--inject-2"  >
<path style="stroke: rgb(38,50,56); stroke-width: 1; stroke-dasharray: none; stroke-linecap: round; stroke-dashoffset: 0; stroke-linejoin: round; stroke-miterlimit: 4; fill: rgb(38,50,56); fill-rule: nonzero; opacity: 1;"  transform=" translate(-239.62, -310.19)" d="M 264 375.72 c 2 -10.33 4.18 -21.86 4.55 -27.22 c 0.75 -10.75 -0.25 -25.75 -0.25 -25.75 s 5 -28 4 -44.25 S 264 241.36 264 241.36 h -26.6 S 227.75 264.25 224.5 278 s -3 42.5 -3 45 s -10 16.5 -10.75 24.75 c -0.45 4.91 -2.31 18.39 -3.95 29.25 a 17.49 17.49 0 0 0 8.81 2 c 4.88 -10.33 11.42 -24.53 13.14 -30.48 c 2.75 -9.5 3.75 -22.25 3.75 -22.25 l 16 -40.5 l 6 39 s -2.25 19.75 -0.5 29.5 c 0.68 3.76 1.09 12.19 1.36 21.16 A 31.34 31.34 0 0 0 264 375.72 Z" stroke-linecap="round" />
</g>
		<g transform="matrix(1 0 0 1 2.25 30)" id="freepik--Character--inject-2"  >
<line style="stroke: rgb(255,255,255); stroke-width: 1; stroke-dasharray: none; stroke-linecap: round; stroke-dashoffset: 0; stroke-linejoin: round; stroke-miterlimit: 4; fill: none; fill-rule: nonzero; opacity: 1;"  x1="-3.75" y1="5.75" x2="3.75" y2="-5.75" />
</g>
		<g transform="matrix(1 0 0 1 6.65 4.13)" id="freepik--Character--inject-2"  >
<path style="stroke: rgb(255,255,255); stroke-width: 1; stroke-dasharray: none; stroke-linecap: round; stroke-dashoffset: 0; stroke-linejoin: round; stroke-miterlimit: 4; fill: none; fill-rule: nonzero; opacity: 1;"  transform=" translate(-256.65, -254.13)" d="M 254.75 244.5 l 0.5 19.25 s 3 -2.25 3.25 -4 s -0.75 -13.25 -0.75 -13.25" stroke-linecap="round" />
</g>
		<g transform="matrix(1 0 0 1 -47.96 149.83)" id="freepik--Character--inject-2"  >
<path style="stroke: rgb(38,50,56); stroke-width: 1; stroke-dasharray: none; stroke-linecap: round; stroke-dashoffset: 0; stroke-linejoin: round; stroke-miterlimit: 4; fill: rgb(23,148,172); fill-rule: nonzero; opacity: 1;"  transform=" translate(-202.04, -399.83)" d="M 206.75 407.75 c 0.54 0 1.48 -7.76 2.34 -12.88 a 9.29 9.29 0 0 0 -1.84 -2.87 c -1.25 -1 -3.25 1.25 -3.25 1.25 l -0.35 0.15 c -2.18 4.32 -8.87 12.74 -8.65 13.85 S 206 407.75 206.75 407.75 Z" stroke-linecap="round" />
</g>
		<g transform="matrix(1 0 0 1 -48.5 155.5)" id="freepik--Character--inject-2"  >
<line style="stroke: rgb(38,50,56); stroke-width: 1; stroke-dasharray: none; stroke-linecap: round; stroke-dashoffset: 0; stroke-linejoin: round; stroke-miterlimit: 4; fill: none; fill-rule: nonzero; opacity: 1;"  x1="-5.5" y1="0" x2="5.5" y2="0" />
</g>
		<g transform="matrix(1 0 0 1 15.57 151.13)" id="freepik--Character--inject-2"  >
<path style="stroke: rgb(38,50,56); stroke-width: 1; stroke-dasharray: none; stroke-linecap: round; stroke-dashoffset: 0; stroke-linejoin: round; stroke-miterlimit: 4; fill: rgb(23,148,172); fill-rule: nonzero; opacity: 1;"  transform=" translate(-265.57, -401.13)" d="M 273 403.5 c -0.94 -0.5 -11.75 -6.75 -12.5 -7.75 c 0 0 -2 1 -1.75 2 a 9.37 9.37 0 0 1 0.25 2 l -3.15 0.43 c 0.05 3.29 0.1 5.41 0.15 5.57 c 0.25 0.75 18.75 0.75 18.75 0.75 S 276.75 405.5 273 403.5 Z" stroke-linecap="round" />
</g>
		<g transform="matrix(1 0 0 1 15.25 154.75)" id="freepik--Character--inject-2"  >
<line style="stroke: rgb(38,50,56); stroke-width: 1; stroke-dasharray: none; stroke-linecap: round; stroke-dashoffset: 0; stroke-linejoin: round; stroke-miterlimit: 4; fill: none; fill-rule: nonzero; opacity: 1;"  x1="-9.25" y1="0" x2="9.25" y2="0" />
</g>
		<g transform="matrix(1 0 0 1 -30.22 -19.84)" id="freepik--Character--inject-2"  >
<path style="stroke: rgb(38,50,56); stroke-width: 1; stroke-dasharray: none; stroke-linecap: round; stroke-dashoffset: 0; stroke-linejoin: round; stroke-miterlimit: 4; fill: rgb(255,255,255); fill-rule: nonzero; opacity: 1;"  transform=" translate(-219.78, -230.16)" d="M 212.05 207.16 s -21.54 25.52 -21.35 27 s 32.2 16.65 35.1 17.19 s 6.15 1.81 7.42 1.81 s 5.61 -2.89 5.61 -2.89 s 7 2.53 7.24 1.63 s -4.71 -2.36 -4.71 -2.36 h 6.52 s 1.62 -0.36 0 -0.9 a 51.82 51.82 0 0 0 -6.34 -1.09 l 6.52 -0.18 s 1.81 -0.54 0 -0.9 s -5.79 -0.73 -5.79 -0.73 l 5.24 -0.72 s 0.91 -1.09 -0.36 -1.09 s -7.42 -0.18 -8 0 S 235 245 235 245 l 3.62 -2.35 s -1.09 -0.73 -1.63 -0.36 s -4.34 2.89 -4.53 3.43 s -2.89 2.18 -2.89 2.18 s -1.81 -0.37 -3.44 -0.55 s -22.07 -17.19 -22.07 -17.19 l 19.18 -18.09 Z" stroke-linecap="round" />
</g>
		<g transform="matrix(1 0 0 1 26.02 -39.74)" id="freepik--Character--inject-2"  >
<path style="stroke: rgb(38,50,56); stroke-width: 1; stroke-dasharray: none; stroke-linecap: round; stroke-dashoffset: 0; stroke-linejoin: round; stroke-miterlimit: 4; fill: rgb(255,255,255); fill-rule: nonzero; opacity: 1;"  transform=" translate(-276.02, -210.26)" d="M 264.16 207.34 s 17.19 12.13 20.27 12.67 s 4.88 -5.43 2 -9.23 s -14.3 -10.31 -14.3 -10.31 Z" stroke-linecap="round" />
</g>
		<g transform="matrix(1 0 0 1 -8.36 -34.57)" id="freepik--Character--inject-2"  >
<path style="stroke: rgb(38,50,56); stroke-width: 1; stroke-dasharray: none; stroke-linecap: round; stroke-dashoffset: 0; stroke-linejoin: round; stroke-miterlimit: 4; fill: rgb(23,148,172); fill-rule: nonzero; opacity: 1;"  transform=" translate(-241.64, -215.43)" d="M 235.75 191.06 s -9.05 -0.73 -12.66 0.9 s -14.3 15.38 -14.3 15.38 l 11.58 7.78 l 2.35 -0.9 s 4 8.14 7.24 11.58 s 7.06 8.68 7.06 11.4 a 19.09 19.09 0 0 0 0.36 4.16 H 264 l -1.27 -11.76 s 6 -7.92 5.62 -12.26 a 18.88 18.88 0 0 0 -2.93 -8.07 l 9.07 -7.9 s -3.07 -9.77 -6.87 -11.22 s -12.49 0 -12.49 0 S 242.45 193.05 235.75 191.06 Z" stroke-linecap="round" />
</g>
		<g transform="matrix(1 0 0 1 -12.1 -25.66)" id="freepik--Character--inject-2"  >
<path style="stroke: rgb(38,50,56); stroke-width: 1; stroke-dasharray: none; stroke-linecap: round; stroke-dashoffset: 0; stroke-linejoin: round; stroke-miterlimit: 4; fill: none; fill-rule: nonzero; opacity: 1;"  transform=" translate(-237.9, -224.34)" d="M 233.51 222.4 s 2.59 3.87 8.79 3.87" stroke-linecap="round" />
</g>
		<g transform="matrix(1 0 0 1 -12.91 -90.72)" id="freepik--Character--inject-2"  >
<path style="stroke: rgb(38,50,56); stroke-width: 1; stroke-dasharray: none; stroke-linecap: round; stroke-dashoffset: 0; stroke-linejoin: round; stroke-miterlimit: 4; fill: rgb(38,50,56); fill-rule: nonzero; opacity: 1;"  transform=" translate(-237.09, -159.28)" d="M 225.94 138.59 s -5.57 -3.1 -6 -1.86 s 2.27 1.86 1.65 2.27 s -3.51 0.2 -3.72 1.44 s 1.86 1.65 0.42 1.86 s -4.75 0 -4.75 1.65 s 2.68 1.85 2.07 2.47 s -3.92 0.83 -4.13 3.09 s 1.45 2.27 0.41 3.3 s -2.68 1.86 -3.09 4.13 s 0.62 2.47 1 3.5 s -1.44 2.27 -0.62 4.54 s 2.89 2.68 2.89 3.71 s -2.06 1.45 0.62 4.13 s 4.95 2.68 4.95 2.68 s -1.86 2.27 -0.62 3.92 s 1.24 0.41 2.06 1 s -0.41 2.06 1.24 2.47 s 2.89 -2.06 3.3 -0.21 s 1.24 3.92 2.27 3.51 s 1.85 -2.47 2.06 -1.86 s 1.24 2.69 2.47 2.69 s 2.07 -1.24 2.89 0 a 4.07 4.07 0 0 0 3.51 1.85 c 1 -0.21 1.65 -1.85 2.68 -1.85 s 2.88 1.44 3.5 1 s 1.45 -1.86 2.68 -1 s 3.72 1.64 4.33 0.82 s -0.2 -2.68 1.24 -2.68 s 3.71 0.41 3.92 -1 s -2.06 -2.89 0.41 -2.89 s 3.51 0.62 3.51 -1.44 v -3.92 s 0.82 0.41 1 -1 a 14.63 14.63 0 0 1 1.24 -3.51 s 1.23 1.65 1.23 -0.82 s -1.65 -3.3 -0.2 -3.92 s 1.85 -0.62 1.85 -1.86 a 15.39 15.39 0 0 0 -0.62 -3.3 a 3.82 3.82 0 0 0 1.65 -3.09 a 6.4 6.4 0 0 0 -0.62 -3.09 s 2.07 -1.24 -0.2 -2.27 s -1 -3.3 -1 -4.54 s -0.41 -1.85 -1.24 -2.06 s -0.82 -1.44 -0.62 -2.27 s -1 -2.47 -2.27 -2.68 s -1.65 -0.82 -1.65 -1.44 s 1.45 -2.27 -0.2 -2.27 s -2.89 -0.21 -3.1 -0.82 s -2.06 -2.89 -3.3 -2.89 s -2.88 -1.65 -2.88 -1.65 a 1.49 1.49 0 0 0 -1.45 -1.24 c -1.23 0 -2.47 -1.85 -4.74 -1.44 s -3.3 1.65 -4.54 1.24 s -0.2 -1.45 -1.85 -0.62 S 233.57 132 233 132 s -0.21 -2.07 -1.45 -0.21 s -2.06 3.3 -2.06 3.3 s 0.21 -1.65 -1 -1.44 S 225.52 136.52 225.94 138.59 Z" stroke-linecap="round" />
</g>
		<g transform="matrix(1 0 0 1 -4.2 -61.56)" id="freepik--Character--inject-2"  >
<path style="stroke: rgb(38,50,56); stroke-width: 1; stroke-dasharray: none; stroke-linecap: round; stroke-dashoffset: 0; stroke-linejoin: round; stroke-miterlimit: 4; fill: rgb(255,255,255); fill-rule: nonzero; opacity: 1;"  transform=" translate(-245.8, -188.44)" d="M 241.18 174.05 s 0.54 11.94 0.36 13.93 s -5.79 3.08 -5.79 3.08 s 5.43 11.22 11.76 11.76 s 8.33 -12.49 8.33 -12.49 a 3.85 3.85 0 0 1 -4 -2.35 c -1.09 -2.71 -0.73 -11 -0.73 -11 Z" stroke-linecap="round" />
</g>
		<g transform="matrix(1 0 0 1 -3.62 -83.54)" id="freepik--Character--inject-2"  >
<path style="stroke: rgb(38,50,56); stroke-width: 1; stroke-dasharray: none; stroke-linecap: round; stroke-dashoffset: 0; stroke-linejoin: round; stroke-miterlimit: 4; fill: rgb(255,255,255); fill-rule: nonzero; opacity: 1;"  transform=" translate(-246.38, -166.46)" d="M 239.83 152.24 s -2.57 0.18 -2.38 1.1 s 3.49 1.47 0.92 2.39 s -3.49 0.73 -3.31 1.83 s 2.94 0.92 0.74 2.76 s -2.76 1.83 -2.76 2.57 s 1.1 1.28 0.37 2.2 s -0.92 1.1 -0.73 2 s 1.65 0.73 1.28 2.2 s 0.37 2.94 5.14 7.16 s 13.4 6.42 17.25 5.51 s 4.22 -9.18 3.49 -14.87 s -6.24 -12.85 -6.24 -12.85 a 12.86 12.86 0 0 0 -3.49 -0.73 c -1.47 0 -1.1 -1.11 -2.57 -1.11 s -1.47 0.37 -2.75 0 s -1.1 -1.65 -2.2 -1.65 S 239.83 152.24 239.83 152.24 Z" stroke-linecap="round" />
</g>
		<g transform="matrix(1 0 0 1 1.22 -82.05)" id="freepik--Character--inject-2"  >
<path style="stroke: rgb(38,50,56); stroke-width: 1; stroke-dasharray: none; stroke-linecap: round; stroke-dashoffset: 0; stroke-linejoin: round; stroke-miterlimit: 4; fill: none; fill-rule: nonzero; opacity: 1;"  transform=" translate(-251.22, -167.95)" d="M 253.05 166.74 a 1.79 1.79 0 0 1 -0.73 1.65 c -0.92 0.74 -1.84 1.1 -2.94 0.37" stroke-linecap="round" />
</g>
		<g transform="matrix(1 0 0 1 4.79 -79.59)" id="freepik--Character--inject-2"  >
<line style="stroke: rgb(38,50,56); stroke-width: 1; stroke-dasharray: none; stroke-linecap: round; stroke-dashoffset: 0; stroke-linejoin: round; stroke-miterlimit: 4; fill: none; fill-rule: nonzero; opacity: 1;"  x1="-1.0100000000000051" y1="0.9200000000000017" x2="1.0100000000000051" y2="-0.9200000000000017" />
</g>
		<g transform="matrix(1 0 0 1 -8.24 -86.83)" id="freepik--Character--inject-2"  >
<line style="stroke: rgb(38,50,56); stroke-width: 1; stroke-dasharray: none; stroke-linecap: round; stroke-dashoffset: 0; stroke-linejoin: round; stroke-miterlimit: 4; fill: none; fill-rule: nonzero; opacity: 1;"  x1="-2.845000000000013" y1="0.8250000000000028" x2="2.845000000000013" y2="-0.8250000000000028" />
</g>
		<g transform="matrix(1 0 0 1 0.39 -94.07)" id="freepik--Character--inject-2"  >
<path style="stroke: rgb(38,50,56); stroke-width: 1; stroke-dasharray: none; stroke-linecap: round; stroke-dashoffset: 0; stroke-linejoin: round; stroke-miterlimit: 4; fill: none; fill-rule: nonzero; opacity: 1;"  transform=" translate(-250.39, -155.93)" d="M 248.83 157.93 s 0.73 -3.3 3.12 -4" stroke-linecap="round" />
</g>
		<g transform="matrix(1 0 0 1 -4.48 -84.36)" id="freepik--Character--inject-2"  >
<path style="stroke: none; stroke-width: 1; stroke-dasharray: none; stroke-linecap: butt; stroke-dashoffset: 0; stroke-linejoin: miter; stroke-miterlimit: 4; fill: rgb(38,50,56); fill-rule: nonzero; opacity: 1;"  transform=" translate(-245.52, -165.64)" d="M 246.44 165.64 a 0.92 0.92 0 1 1 -0.92 -0.92 A 0.92 0.92 0 0 1 246.44 165.64 Z" stroke-linecap="round" />
</g>
		<g transform="matrix(1 0 0 1 2.31 -87.84)" id="freepik--Character--inject-2"  >
<path style="stroke: none; stroke-width: 1; stroke-dasharray: none; stroke-linecap: butt; stroke-dashoffset: 0; stroke-linejoin: miter; stroke-miterlimit: 4; fill: rgb(38,50,56); fill-rule: nonzero; opacity: 1;"  transform=" translate(-252.31, -162.16)" d="M 253.23 162.15 a 0.92 0.92 0 1 1 -0.91 -0.91 A 0.92 0.92 0 0 1 253.23 162.15 Z" stroke-linecap="round" />
</g>
		<g transform="matrix(1 0 0 1 -14.62 -76.16)" id="freepik--Character--inject-2"  >
<path style="stroke: rgb(38,50,56); stroke-width: 1; stroke-dasharray: none; stroke-linecap: round; stroke-dashoffset: 0; stroke-linejoin: round; stroke-miterlimit: 4; fill: rgb(255,255,255); fill-rule: nonzero; opacity: 1;"  transform=" translate(-235.38, -173.84)" d="M 235.39 172.6 s -2 -2.9 -3.44 -0.36 s 2.54 4.48 7.15 4.23 Z" stroke-linecap="round" />
</g>
		<g transform="matrix(1 0 0 1 8.87 -67.07)" id="freepik--Character--inject-2"  >
<path style="stroke: rgb(38,50,56); stroke-width: 1; stroke-dasharray: none; stroke-linecap: round; stroke-dashoffset: 0; stroke-linejoin: round; stroke-miterlimit: 4; fill: rgb(255,255,255); fill-rule: nonzero; opacity: 1;"  transform=" translate(-258.87, -182.93)" d="M 260.05 181.94 s -3.68 -0.66 -4.2 0.39 s 3.28 2.11 5.39 1.71 S 260.05 181.94 260.05 181.94 Z" stroke-linecap="round" />
</g>
		<g transform="matrix(1 0 0 1 24.56 -53.56)" id="freepik--Character--inject-2"  >
<path style="stroke: rgb(38,50,56); stroke-width: 1; stroke-dasharray: none; stroke-linecap: round; stroke-dashoffset: 0; stroke-linejoin: round; stroke-miterlimit: 4; fill: rgb(255,255,255); fill-rule: nonzero; opacity: 1;"  transform=" translate(-274.56, -196.44)" d="M 269.05 192.14 a 5 5 0 0 1 -3.08 -0.72 c -1.09 -0.91 -2.17 -4.34 -2.17 -4.34 s -1.63 1.44 -2.53 0.72 s -2.72 -5.79 -2.72 -5.79 l 5.07 -3.62 a 10 10 0 0 0 -1.27 -2.35 c -0.72 -0.91 -4.71 -2.87 -4.34 -4 s 6.15 2.35 6.15 2.35 s 1.27 2.17 1.81 2.89 s 6.33 13.58 6.33 13.58 s 16.11 19.18 17.37 21.17 s 2.18 6.15 0.73 7.78 s -3.44 1.63 -6.88 0.18 S 269.05 192.14 269.05 192.14 Z" stroke-linecap="round" />
</g>
		<g transform="matrix(1 0 0 1 11.96 -67.93)" id="freepik--Character--inject-2"  >
<path style="stroke: rgb(38,50,56); stroke-width: 1; stroke-dasharray: none; stroke-linecap: round; stroke-dashoffset: 0; stroke-linejoin: round; stroke-miterlimit: 4; fill: none; fill-rule: nonzero; opacity: 1;"  transform=" translate(-261.96, -182.07)" d="M 264.53 180.23 s -5.26 2.76 -5.13 3.68" stroke-linecap="round" />
</g>
		<g transform="matrix(1 0 0 1 12.68 -66.22)" id="freepik--Character--inject-2"  >
<path style="stroke: rgb(38,50,56); stroke-width: 1; stroke-dasharray: none; stroke-linecap: round; stroke-dashoffset: 0; stroke-linejoin: round; stroke-miterlimit: 4; fill: none; fill-rule: nonzero; opacity: 1;"  transform=" translate(-262.68, -183.78)" d="M 265.18 182.2 s -5 2.1 -5 3.16" stroke-linecap="round" />
</g>
		<g transform="matrix(1 0 0 1 13.41 -63.66)" id="freepik--Character--inject-2"  >
<line style="stroke: rgb(38,50,56); stroke-width: 1; stroke-dasharray: none; stroke-linecap: round; stroke-dashoffset: 0; stroke-linejoin: round; stroke-miterlimit: 4; fill: none; fill-rule: nonzero; opacity: 1;"  x1="0.3300000000000125" y1="0.3299999999999983" x2="-0.3300000000000125" y2="-0.3299999999999983" />
</g>
</g>
</g>
<g transform="matrix(-5.6 0 0 5.6 313.37 241.08)"  >
<circle style="stroke: rgb(23,148,172); stroke-width: 3; stroke-dasharray: none; stroke-linecap: butt; stroke-dashoffset: 0; stroke-linejoin: miter; stroke-miterlimit: 4; fill: rgb(25,116,172); fill-opacity: 0; fill-rule: nonzero; opacity: 1;" vector-effect="non-scaling-stroke"  cx="0" cy="0" r="40" />
</g>
<g transform="matrix(5.6 0 0 5.6 327.36 239.33)"  >
<circle style="stroke: rgb(161,212,226); stroke-width: 3; stroke-dasharray: none; stroke-linecap: butt; stroke-dashoffset: 0; stroke-linejoin: miter; stroke-miterlimit: 4; fill: rgb(25,116,172); fill-opacity: 0; fill-rule: nonzero; opacity: 1;" vector-effect="non-scaling-stroke"  cx="0" cy="0" r="40" />
</g>
</svg>