<?xml version="1.0" encoding="UTF-8" standalone="no" ?>
<!DOCTYPE svg PUBLIC "-//W3C//DTD SVG 1.1//EN" "http://www.w3.org/Graphics/SVG/1.1/DTD/svg11.dtd">
<svg xmlns="http://www.w3.org/2000/svg" xmlns:xlink="http://www.w3.org/1999/xlink" version="1.1" width="640" height="480" viewBox="0 0 640 480" xml:space="preserve">
<desc>Created with Fabric.js 3.6.6</desc>
<defs>
</defs>
<g transform="matrix(1 0 0 1 320.12 240.12)"  >
<g style=""   >
		<g transform="matrix(5.72 0 0 5.72 -6.87 -0.88)"  >
<circle style="stroke: rgb(23,148,172); stroke-width: 3; stroke-dasharray: none; stroke-linecap: butt; stroke-dashoffset: 0; stroke-linejoin: miter; stroke-miterlimit: 4; fill: rgb(255,255,0); fill-opacity: 0; fill-rule: nonzero; opacity: 1;" vector-effect="non-scaling-stroke"  cx="0" cy="0" r="40" />
</g>
		<g transform="matrix(5.72 0 0 5.72 6.82 0.82)"  >
<circle style="stroke: rgb(161,212,226); stroke-width: 3; stroke-dasharray: none; stroke-linecap: butt; stroke-dashoffset: 0; stroke-linejoin: miter; stroke-miterlimit: 4; fill: rgb(255,255,0); fill-opacity: 0; fill-rule: nonzero; opacity: 1;" vector-effect="non-scaling-stroke"  cx="0" cy="0" r="40" />
</g>
</g>
</g>
<g transform="matrix(0.8 0 0 0.8 316.13 222.13)"  >
<g style=""   >
		<g transform="matrix(1 0 0 1 5.79 -8.77)" id="freepik--background-simple--inject-2"  >
<path style="stroke: none; stroke-width: 1; stroke-dasharray: none; stroke-linecap: butt; stroke-dashoffset: 0; stroke-linejoin: miter; stroke-miterlimit: 4; fill: rgb(23,148,172); fill-rule: nonzero; opacity: 1;"  transform=" translate(-255.79, -241.23)" d="M 94.46 300.61 s 27.72 66 74.81 100.88 s 110.43 35.91 159.92 -0.33 s 48.15 -111 81.93 -171.58 S 443.26 99.91 382.17 66.87 s -87.51 10 -160.91 13.48 S 36.72 145.13 94.46 300.61 Z" stroke-linecap="round" />
</g>
		<g transform="matrix(1 0 0 1 5.79 -8.77)" id="freepik--background-simple--inject-2"  >
<path style="stroke: none; stroke-width: 1; stroke-dasharray: none; stroke-linecap: butt; stroke-dashoffset: 0; stroke-linejoin: miter; stroke-miterlimit: 4; fill: rgb(255,255,255); fill-rule: nonzero; opacity: 0.7000000000000001;"  transform=" translate(-255.79, -241.23)" d="M 94.46 300.61 s 27.72 66 74.81 100.88 s 110.43 35.91 159.92 -0.33 s 48.15 -111 81.93 -171.58 S 443.26 99.91 382.17 66.87 s -87.51 10 -160.91 13.48 S 36.72 145.13 94.46 300.61 Z" stroke-linecap="round" />
</g>
		<g transform="matrix(1 0 0 1 -131.92 97.12)" id="freepik--Plants--inject-2"  >
<path style="stroke: none; stroke-width: 1; stroke-dasharray: none; stroke-linecap: butt; stroke-dashoffset: 0; stroke-linejoin: miter; stroke-miterlimit: 4; fill: rgb(23,148,172); fill-rule: nonzero; opacity: 1;"  transform=" translate(-118.08, -347.12)" d="M 119.67 342.67 c -1.42 4.56 -3.55 1.16 -4.79 -17.37 c -0.59 -8.69 -1.45 -26.46 8.47 -23.36 c 9.53 3 -0.44 30.2 -0.44 30.2 Z m 13.4 1.53 s 18.27 -22.5 10.22 -28.42 c -8.37 -6.16 -13.33 10.93 -15.6 19.34 c -4.84 17.93 -3.93 21.84 -1.1 18 Z m 5.76 18.35 s 17.23 -14.55 11.94 -20.24 c -5.51 -5.92 -11.78 6.42 -14.73 12.52 c -6.3 13 -6.17 16.13 -3.45 13.59 Z m 6.51 18.24 s 17.23 -14.56 11.93 -20.25 c -5.5 -5.92 -11.77 6.43 -14.72 12.53 c -6.3 13 -6.17 16.12 -3.45 13.59 Z M 110.25 346 s -26.73 -11.21 -30.14 -1.83 c -3.56 9.76 14.23 9.72 22.94 9.54 c 18.57 -0.4 22.06 -2.37 17.57 -4 Z m 4.83 14.38 s -28.43 -5.67 -29.91 4.2 c -1.54 10.28 15.89 6.7 24.38 4.78 c 18.12 -4.07 21.15 -6.7 16.42 -7.4 Z m 7.68 15.48 s -24.17 -4.14 -25.19 4.24 c -1.07 8.73 13.59 5.3 20.72 3.48 c 15.23 -3.86 17.74 -6.15 13.72 -6.64 Z m 4.8 12.9 S 104 382 102.06 390.26 c -2 8.56 13 6.71 20.24 5.66 c 15.55 -2.23 18.28 -4.24 14.34 -5.15 Z m -20.87 -65.66 s -13.14 -31.6 -24.51 -24.72 c -11.83 7.16 3.64 20.62 11.36 27 c 16.45 13.69 21.25 14.35 18.81 9.3 Z" stroke-linecap="round" />
</g>
		<g transform="matrix(1 0 0 1 -131.92 97.12)" id="freepik--Plants--inject-2"  >
<path style="stroke: none; stroke-width: 1; stroke-dasharray: none; stroke-linecap: butt; stroke-dashoffset: 0; stroke-linejoin: miter; stroke-miterlimit: 4; fill: rgb(255,255,255); fill-rule: nonzero; opacity: 0.4;"  transform=" translate(-118.08, -347.12)" d="M 119.67 342.67 c -1.42 4.56 -3.55 1.16 -4.79 -17.37 c -0.59 -8.69 -1.45 -26.46 8.47 -23.36 c 9.53 3 -0.44 30.2 -0.44 30.2 Z m 13.4 1.53 s 18.27 -22.5 10.22 -28.42 c -8.37 -6.16 -13.33 10.93 -15.6 19.34 c -4.84 17.93 -3.93 21.84 -1.1 18 Z m 5.76 18.35 s 17.23 -14.55 11.94 -20.24 c -5.51 -5.92 -11.78 6.42 -14.73 12.52 c -6.3 13 -6.17 16.13 -3.45 13.59 Z m 6.51 18.24 s 17.23 -14.56 11.93 -20.25 c -5.5 -5.92 -11.77 6.43 -14.72 12.53 c -6.3 13 -6.17 16.12 -3.45 13.59 Z M 110.25 346 s -26.73 -11.21 -30.14 -1.83 c -3.56 9.76 14.23 9.72 22.94 9.54 c 18.57 -0.4 22.06 -2.37 17.57 -4 Z m 4.83 14.38 s -28.43 -5.67 -29.91 4.2 c -1.54 10.28 15.89 6.7 24.38 4.78 c 18.12 -4.07 21.15 -6.7 16.42 -7.4 Z m 7.68 15.48 s -24.17 -4.14 -25.19 4.24 c -1.07 8.73 13.59 5.3 20.72 3.48 c 15.23 -3.86 17.74 -6.15 13.72 -6.64 Z m 4.8 12.9 S 104 382 102.06 390.26 c -2 8.56 13 6.71 20.24 5.66 c 15.55 -2.23 18.28 -4.24 14.34 -5.15 Z m -20.87 -65.66 s -13.14 -31.6 -24.51 -24.72 c -11.83 7.16 3.64 20.62 11.36 27 c 16.45 13.69 21.25 14.35 18.81 9.3 Z" stroke-linecap="round" />
</g>
		<g transform="matrix(1 0 0 1 -134.81 110)" id="freepik--Plants--inject-2"  >
<path style="stroke: rgb(23,148,172); stroke-width: 1.25197; stroke-dasharray: none; stroke-linecap: round; stroke-dashoffset: 0; stroke-linejoin: round; stroke-miterlimit: 4; fill: none; fill-rule: nonzero; opacity: 1;"  transform=" translate(-115.19, -360)" d="M 88.1 309.49 s 28.89 29.83 36.49 45.33 c 8.74 17.81 15.3 38.61 17.7 55.7" stroke-linecap="round" />
</g>
		<g transform="matrix(1 0 0 1 -130.94 79.39)" id="freepik--Plants--inject-2"  >
<line style="stroke: rgb(23,148,172); stroke-width: 1.25197; stroke-dasharray: none; stroke-linecap: round; stroke-dashoffset: 0; stroke-linejoin: round; stroke-miterlimit: 4; fill: none; fill-rule: nonzero; opacity: 1;"  x1="-0.5549999999999997" y1="15.414999999999992" x2="0.5549999999999997" y2="-15.414999999999992" />
</g>
		<g transform="matrix(1 0 0 1 -119.88 91.44)" id="freepik--Plants--inject-2"  >
<line style="stroke: rgb(23,148,172); stroke-width: 1.25197; stroke-dasharray: none; stroke-linecap: round; stroke-dashoffset: 0; stroke-linejoin: round; stroke-miterlimit: 4; fill: none; fill-rule: nonzero; opacity: 1;"  x1="-5.534999999999997" y1="13.375" x2="5.534999999999997" y2="-13.375" />
</g>
		<g transform="matrix(1 0 0 1 -141.7 99.5)" id="freepik--Plants--inject-2"  >
<line style="stroke: rgb(23,148,172); stroke-width: 1.25197; stroke-dasharray: none; stroke-linecap: round; stroke-dashoffset: 0; stroke-linejoin: round; stroke-miterlimit: 4; fill: none; fill-rule: nonzero; opacity: 1;"  x1="14.049999999999997" y1="1.6650000000000205" x2="-14.049999999999997" y2="-1.6650000000000205" />
</g>
		<g transform="matrix(1 0 0 1 -111.65 109.01)" id="freepik--Plants--inject-2"  >
<line style="stroke: rgb(23,148,172); stroke-width: 1.25197; stroke-dasharray: none; stroke-linecap: round; stroke-dashoffset: 0; stroke-linejoin: round; stroke-miterlimit: 4; fill: none; fill-rule: nonzero; opacity: 1;"  x1="-7.359999999999999" y1="9.930000000000007" x2="7.359999999999999" y2="-9.930000000000007" />
</g>
		<g transform="matrix(1 0 0 1 -132.22 113.8)" id="freepik--Plants--inject-2"  >
<line style="stroke: rgb(23,148,172); stroke-width: 1.25197; stroke-dasharray: none; stroke-linecap: round; stroke-dashoffset: 0; stroke-linejoin: round; stroke-miterlimit: 4; fill: none; fill-rule: nonzero; opacity: 1;"  x1="10.439999999999998" y1="-0.7750000000000057" x2="-10.439999999999998" y2="0.7750000000000057" />
</g>
		<g transform="matrix(1 0 0 1 -124.48 128.83)" id="freepik--Plants--inject-2"  >
<line style="stroke: rgb(23,148,172); stroke-width: 1.25197; stroke-dasharray: none; stroke-linecap: round; stroke-dashoffset: 0; stroke-linejoin: round; stroke-miterlimit: 4; fill: none; fill-rule: nonzero; opacity: 1;"  x1="7.975000000000001" y1="-0.9799999999999898" x2="-7.975000000000001" y2="0.9799999999999898" />
</g>
		<g transform="matrix(1 0 0 1 -108.61 131.18)" id="freepik--Plants--inject-2"  >
<line style="stroke: rgb(23,148,172); stroke-width: 1.25197; stroke-dasharray: none; stroke-linecap: round; stroke-dashoffset: 0; stroke-linejoin: round; stroke-miterlimit: 4; fill: none; fill-rule: nonzero; opacity: 1;"  x1="-3.809999999999988" y1="6.064999999999998" x2="3.809999999999988" y2="-6.064999999999998" />
</g>
		<g transform="matrix(1 0 0 1 -120.84 141.75)" id="freepik--Plants--inject-2"  >
<line style="stroke: rgb(23,148,172); stroke-width: 1.25197; stroke-dasharray: none; stroke-linecap: round; stroke-dashoffset: 0; stroke-linejoin: round; stroke-miterlimit: 4; fill: none; fill-rule: nonzero; opacity: 1;"  x1="9.395000000000003" y1="-0.3100000000000023" x2="-9.395000000000003" y2="0.3100000000000023" />
</g>
		<g transform="matrix(1 0 0 1 138.94 99.76)" id="freepik--Plants--inject-2"  >
<path style="stroke: none; stroke-width: 1; stroke-dasharray: none; stroke-linecap: butt; stroke-dashoffset: 0; stroke-linejoin: miter; stroke-miterlimit: 4; fill: rgb(23,148,172); fill-rule: nonzero; opacity: 1;"  transform=" translate(-388.94, -349.76)" d="M 398.88 355.68 c -6.06 0.46 -3 -3.65 18.27 -13.81 c 10 -4.77 30.59 -14.12 31.57 -0.94 c 0.94 12.65 -35.89 13.63 -35.89 13.63 Z m 4.47 16.54 s 35.15 11 38.37 -1.24 c 3.35 -12.78 -19.17 -10.63 -30.16 -9.37 c -23.46 2.69 -27.65 5.6 -21.77 7.13 Z m -19 15.42 s 25.28 13.53 29.52 4.61 c 4.41 -9.28 -13.12 -10.9 -21.71 -11.53 c -18.32 -1.34 -21.94 0.28 -17.67 2.3 Z m -18.5 16.24 s 25.28 13.53 29.52 4.61 c 4.41 -9.28 -13.12 -10.9 -21.7 -11.53 c -18.33 -1.34 -21.95 0.27 -17.68 2.3 Z m 24.71 -57.8 s 0.72 -36.83 -12 -36.47 c -13.21 0.38 -4.81 21.38 -0.51 31.58 c 9.17 21.76 13.14 25 13 18.88 Z m -14.72 12.45 s -6.63 -36.24 -19 -33.37 c -12.87 3 -0.46 21.92 5.78 31 c 13.31 19.5 17.84 21.85 16.45 15.94 Z m -14.69 16.34 s -6.44 -30.5 -16.83 -27.78 c -10.81 2.83 0.12 18.54 5.61 26.12 c 11.71 16.18 15.59 18.07 14.28 13.1 Z m -13 11.72 s -3.17 -31 -13.78 -29.41 c -11.05 1.67 -1.86 18.45 2.8 26.57 c 9.93 17.34 13.58 19.62 12.81 14.54 Z M 416 331.13 s 31.17 -30.33 17.71 -40.54 c -14 -10.62 -22.65 14 -26.61 26.09 c -8.46 25.87 -7 31.84 -2.16 26.59 Z" stroke-linecap="round" />
</g>
		<g transform="matrix(1 0 0 1 138.94 99.76)" id="freepik--Plants--inject-2"  >
<path style="stroke: none; stroke-width: 1; stroke-dasharray: none; stroke-linecap: butt; stroke-dashoffset: 0; stroke-linejoin: miter; stroke-miterlimit: 4; fill: rgb(255,255,255); fill-rule: nonzero; opacity: 0.4;"  transform=" translate(-388.94, -349.76)" d="M 398.88 355.68 c -6.06 0.46 -3 -3.65 18.27 -13.81 c 10 -4.77 30.59 -14.12 31.57 -0.94 c 0.94 12.65 -35.89 13.63 -35.89 13.63 Z m 4.47 16.54 s 35.15 11 38.37 -1.24 c 3.35 -12.78 -19.17 -10.63 -30.16 -9.37 c -23.46 2.69 -27.65 5.6 -21.77 7.13 Z m -19 15.42 s 25.28 13.53 29.52 4.61 c 4.41 -9.28 -13.12 -10.9 -21.71 -11.53 c -18.32 -1.34 -21.94 0.28 -17.67 2.3 Z m -18.5 16.24 s 25.28 13.53 29.52 4.61 c 4.41 -9.28 -13.12 -10.9 -21.7 -11.53 c -18.33 -1.34 -21.95 0.27 -17.68 2.3 Z m 24.71 -57.8 s 0.72 -36.83 -12 -36.47 c -13.21 0.38 -4.81 21.38 -0.51 31.58 c 9.17 21.76 13.14 25 13 18.88 Z m -14.72 12.45 s -6.63 -36.24 -19 -33.37 c -12.87 3 -0.46 21.92 5.78 31 c 13.31 19.5 17.84 21.85 16.45 15.94 Z m -14.69 16.34 s -6.44 -30.5 -16.83 -27.78 c -10.81 2.83 0.12 18.54 5.61 26.12 c 11.71 16.18 15.59 18.07 14.28 13.1 Z m -13 11.72 s -3.17 -31 -13.78 -29.41 c -11.05 1.67 -1.86 18.45 2.8 26.57 c 9.93 17.34 13.58 19.62 12.81 14.54 Z M 416 331.13 s 31.17 -30.33 17.71 -40.54 c -14 -10.62 -22.65 14 -26.61 26.09 c -8.46 25.87 -7 31.84 -2.16 26.59 Z" stroke-linecap="round" />
</g>
		<g transform="matrix(1 0 0 1 126.29 108.5)" id="freepik--Plants--inject-2"  >
<path style="stroke: rgb(23,148,172); stroke-width: 1.25197; stroke-dasharray: none; stroke-linecap: round; stroke-dashoffset: 0; stroke-linejoin: round; stroke-miterlimit: 4; fill: none; fill-rule: nonzero; opacity: 1;"  transform=" translate(-376.29, -358.5)" d="M 423.28 302.82 s -21.7 48.12 -36.45 64.37 c -16.94 18.68 -38.45 36.18 -57.52 47" stroke-linecap="round" />
</g>
		<g transform="matrix(1 0 0 1 164.28 98.73)" id="freepik--Plants--inject-2"  >
<line style="stroke: rgb(23,148,172); stroke-width: 1.25197; stroke-dasharray: none; stroke-linecap: round; stroke-dashoffset: 0; stroke-linejoin: round; stroke-miterlimit: 4; fill: none; fill-rule: nonzero; opacity: 1;"  x1="-18.474999999999994" y1="6.569999999999993" x2="18.474999999999994" y2="-6.569999999999993" />
</g>
		<g transform="matrix(1 0 0 1 155.23 117.46)" id="freepik--Plants--inject-2"  >
<line style="stroke: rgb(23,148,172); stroke-width: 1.25197; stroke-dasharray: none; stroke-linecap: round; stroke-dashoffset: 0; stroke-linejoin: round; stroke-miterlimit: 4; fill: none; fill-rule: nonzero; opacity: 1;"  x1="-18.400000000000006" y1="-0.27000000000001023" x2="18.400000000000006" y2="0.27000000000001023" />
</g>
		<g transform="matrix(1 0 0 1 135.47 95.44)" id="freepik--Plants--inject-2"  >
<line style="stroke: rgb(23,148,172); stroke-width: 1.25197; stroke-dasharray: none; stroke-linecap: round; stroke-dashoffset: 0; stroke-linejoin: round; stroke-miterlimit: 4; fill: none; fill-rule: nonzero; opacity: 1;"  x1="4.614999999999981" y1="17.38499999999999" x2="-4.614999999999981" y2="-17.38499999999999" />
</g>
		<g transform="matrix(1 0 0 1 138.32 135.41)" id="freepik--Plants--inject-2"  >
<line style="stroke: rgb(23,148,172); stroke-width: 1.25197; stroke-dasharray: none; stroke-linecap: round; stroke-dashoffset: 0; stroke-linejoin: round; stroke-miterlimit: 4; fill: none; fill-rule: nonzero; opacity: 1;"  x1="-15.185000000000002" y1="-4.034999999999997" x2="15.185000000000002" y2="4.034999999999997" />
</g>
		<g transform="matrix(1 0 0 1 123.01 113.36)" id="freepik--Plants--inject-2"  >
<line style="stroke: rgb(23,148,172); stroke-width: 1.25197; stroke-dasharray: none; stroke-linecap: round; stroke-dashoffset: 0; stroke-linejoin: round; stroke-miterlimit: 4; fill: none; fill-rule: nonzero; opacity: 1;"  x1="5.814999999999998" y1="11.974999999999994" x2="-5.814999999999998" y2="-11.974999999999994" />
</g>
		<g transform="matrix(1 0 0 1 108.89 129.54)" id="freepik--Plants--inject-2"  >
<line style="stroke: rgb(23,148,172); stroke-width: 1.25197; stroke-dasharray: none; stroke-linecap: round; stroke-dashoffset: 0; stroke-linejoin: round; stroke-miterlimit: 4; fill: none; fill-rule: nonzero; opacity: 1;"  x1="4.89500000000001" y1="8.960000000000008" x2="-4.89500000000001" y2="-8.960000000000008" />
</g>
		<g transform="matrix(1 0 0 1 113.56 149.4)" id="freepik--Plants--inject-2"  >
<line style="stroke: rgb(23,148,172); stroke-width: 1.25197; stroke-dasharray: none; stroke-linecap: round; stroke-dashoffset: 0; stroke-linejoin: round; stroke-miterlimit: 4; fill: none; fill-rule: nonzero; opacity: 1;"  x1="-8.954999999999984" y1="-1.6599999999999966" x2="8.954999999999984" y2="1.6599999999999966" />
</g>
		<g transform="matrix(1 0 0 1 95.34 139.9)" id="freepik--Plants--inject-2"  >
<line style="stroke: rgb(23,148,172); stroke-width: 1.25197; stroke-dasharray: none; stroke-linecap: round; stroke-dashoffset: 0; stroke-linejoin: round; stroke-miterlimit: 4; fill: none; fill-rule: nonzero; opacity: 1;"  x1="4.77000000000001" y1="10.955000000000013" x2="-4.77000000000001" y2="-10.955000000000013" />
</g>
		<g transform="matrix(1 0 0 1 61.3 109.56)" id="freepik--Plants--inject-2"  >
<path style="stroke: none; stroke-width: 1; stroke-dasharray: none; stroke-linecap: butt; stroke-dashoffset: 0; stroke-linejoin: miter; stroke-miterlimit: 4; fill: rgb(23,148,172); fill-rule: nonzero; opacity: 1;"  transform=" translate(-311.3, -359.56)" d="M 314.45 359.62 c -2 3.05 -2.85 0.11 0.13 -13.77 c 1.4 -6.51 4.51 -19.75 11.14 -15.38 c 6.37 4.2 -6.68 22.1 -6.68 22.1 Z m 9.52 3.94 s 18.16 -12.69 13.49 -18.73 c -4.85 -6.28 -12.09 5.23 -15.53 10.93 c -7.33 12.16 -7.48 15.22 -4.59 13 Z m 0.38 14.7 s 15.72 -7.07 13 -12.36 c -2.8 -5.51 -10 2.24 -13.46 6.1 c -7.37 8.23 -7.93 10.55 -5.39 9.26 Z m 0.94 14.77 s 15.72 -7.07 13 -12.36 c -2.8 -5.51 -10 2.24 -13.46 6.1 c -7.36 8.23 -7.92 10.55 -5.39 9.26 Z m -18.45 -33 s -17.28 -13.86 -21.76 -7.69 c -4.67 6.43 8.41 10.14 14.85 11.84 c 13.72 3.61 16.7 2.9 13.74 0.76 Z m 0.52 11.58 s -19.69 -10.15 -22.86 -3.21 c -3.29 7.23 10.27 8.27 16.91 8.65 c 14.17 0.82 16.95 -0.48 13.62 -2 Z m 2.39 13 s -16.89 -8.13 -19.41 -2.18 c -2.62 6.18 8.88 6.75 14.5 6.92 c 12 0.36 14.33 -0.8 11.48 -2 Z m 0.81 10.49 s -15.93 -9.87 -19.06 -4.23 c -3.27 5.87 8.1 7.65 13.68 8.42 c 11.89 1.64 14.32 0.73 11.62 -0.77 Z M 309 342.47 s -3 -26 -12.81 -23.31 c -10.2 2.77 -1.66 15.91 2.66 22.25 c 9.21 13.52 12.59 15 11.87 10.79 Z" stroke-linecap="round" />
</g>
		<g transform="matrix(1 0 0 1 61.3 109.56)" id="freepik--Plants--inject-2"  >
<path style="stroke: none; stroke-width: 1; stroke-dasharray: none; stroke-linecap: butt; stroke-dashoffset: 0; stroke-linejoin: miter; stroke-miterlimit: 4; fill: rgb(255,255,255); fill-rule: nonzero; opacity: 0.4;"  transform=" translate(-311.3, -359.56)" d="M 314.45 359.62 c -2 3.05 -2.85 0.11 0.13 -13.77 c 1.4 -6.51 4.51 -19.75 11.14 -15.38 c 6.37 4.2 -6.68 22.1 -6.68 22.1 Z m 9.52 3.94 s 18.16 -12.69 13.49 -18.73 c -4.85 -6.28 -12.09 5.23 -15.53 10.93 c -7.33 12.16 -7.48 15.22 -4.59 13 Z m 0.38 14.7 s 15.72 -7.07 13 -12.36 c -2.8 -5.51 -10 2.24 -13.46 6.1 c -7.37 8.23 -7.93 10.55 -5.39 9.26 Z m 0.94 14.77 s 15.72 -7.07 13 -12.36 c -2.8 -5.51 -10 2.24 -13.46 6.1 c -7.36 8.23 -7.92 10.55 -5.39 9.26 Z m -18.45 -33 s -17.28 -13.86 -21.76 -7.69 c -4.67 6.43 8.41 10.14 14.85 11.84 c 13.72 3.61 16.7 2.9 13.74 0.76 Z m 0.52 11.58 s -19.69 -10.15 -22.86 -3.21 c -3.29 7.23 10.27 8.27 16.91 8.65 c 14.17 0.82 16.95 -0.48 13.62 -2 Z m 2.39 13 s -16.89 -8.13 -19.41 -2.18 c -2.62 6.18 8.88 6.75 14.5 6.92 c 12 0.36 14.33 -0.8 11.48 -2 Z m 0.81 10.49 s -15.93 -9.87 -19.06 -4.23 c -3.27 5.87 8.1 7.65 13.68 8.42 c 11.89 1.64 14.32 0.73 11.62 -0.77 Z M 309 342.47 s -3 -26 -12.81 -23.31 c -10.2 2.77 -1.66 15.91 2.66 22.25 c 9.21 13.52 12.59 15 11.87 10.79 Z" stroke-linecap="round" />
</g>
		<g transform="matrix(1 0 0 1 58.07 121.43)" id="freepik--Plants--inject-2"  >
<path style="stroke: rgb(23,148,172); stroke-width: 1.25197; stroke-dasharray: none; stroke-linecap: round; stroke-dashoffset: 0; stroke-linejoin: round; stroke-miterlimit: 4; fill: none; fill-rule: nonzero; opacity: 1;"  transform=" translate(-308.07, -371.43)" d="M 298.24 328.6 s 14.95 28 17.27 41 c 2.68 14.93 3.12 31.59 1.28 44.66" stroke-linecap="round" />
</g>
		<g transform="matrix(1 0 0 1 66.8 99.74)" id="freepik--Plants--inject-2"  >
<line style="stroke: rgb(23,148,172); stroke-width: 1.25197; stroke-dasharray: none; stroke-linecap: round; stroke-dashoffset: 0; stroke-linejoin: round; stroke-miterlimit: 4; fill: none; fill-rule: nonzero; opacity: 1;"  x1="-3.6500000000000057" y1="11.205000000000013" x2="3.6500000000000057" y2="-11.205000000000013" />
</g>
		<g transform="matrix(1 0 0 1 72.39 110.92)" id="freepik--Plants--inject-2"  >
<line style="stroke: rgb(23,148,172); stroke-width: 1.25197; stroke-dasharray: none; stroke-linecap: round; stroke-dashoffset: 0; stroke-linejoin: round; stroke-miterlimit: 4; fill: none; fill-rule: nonzero; opacity: 1;"  x1="-6.8799999999999955" y1="8.659999999999997" x2="6.8799999999999955" y2="-8.659999999999997" />
</g>
		<g transform="matrix(1 0 0 1 54.65 112.25)" id="freepik--Plants--inject-2"  >
<line style="stroke: rgb(23,148,172); stroke-width: 1.25197; stroke-dasharray: none; stroke-linecap: round; stroke-dashoffset: 0; stroke-linejoin: round; stroke-miterlimit: 4; fill: none; fill-rule: nonzero; opacity: 1;"  x1="9.974999999999994" y1="4.180000000000007" x2="-9.974999999999994" y2="-4.180000000000007" />
</g>
		<g transform="matrix(1 0 0 1 74.73 125.56)" id="freepik--Plants--inject-2"  >
<line style="stroke: rgb(23,148,172); stroke-width: 1.25197; stroke-dasharray: none; stroke-linecap: round; stroke-dashoffset: 0; stroke-linejoin: round; stroke-miterlimit: 4; fill: none; fill-rule: nonzero; opacity: 1;"  x1="-7.4950000000000045" y1="5.75" x2="7.4950000000000045" y2="-5.75" />
</g>
		<g transform="matrix(1 0 0 1 58.62 124.75)" id="freepik--Plants--inject-2"  >
<line style="stroke: rgb(23,148,172); stroke-width: 1.25197; stroke-dasharray: none; stroke-linecap: round; stroke-dashoffset: 0; stroke-linejoin: round; stroke-miterlimit: 4; fill: none; fill-rule: nonzero; opacity: 1;"  x1="7.835000000000008" y1="1.625" x2="-7.835000000000008" y2="-1.625" />
</g>
		<g transform="matrix(1 0 0 1 61.13 137.41)" id="freepik--Plants--inject-2"  >
<line style="stroke: rgb(23,148,172); stroke-width: 1.25197; stroke-dasharray: none; stroke-linecap: round; stroke-dashoffset: 0; stroke-linejoin: round; stroke-miterlimit: 4; fill: none; fill-rule: nonzero; opacity: 1;"  x1="6.064999999999998" y1="0.9550000000000125" x2="-6.064999999999998" y2="-0.9550000000000125" />
</g>
		<g transform="matrix(1 0 0 1 72.3 142.49)" id="freepik--Plants--inject-2"  >
<line style="stroke: rgb(23,148,172); stroke-width: 1.25197; stroke-dasharray: none; stroke-linecap: round; stroke-dashoffset: 0; stroke-linejoin: round; stroke-miterlimit: 4; fill: none; fill-rule: nonzero; opacity: 1;"  x1="-4.074999999999989" y1="3.655000000000001" x2="4.074999999999989" y2="-3.655000000000001" />
</g>
		<g transform="matrix(1 0 0 1 61.1 147.68)" id="freepik--Plants--inject-2"  >
<line style="stroke: rgb(23,148,172); stroke-width: 1.25197; stroke-dasharray: none; stroke-linecap: round; stroke-dashoffset: 0; stroke-linejoin: round; stroke-miterlimit: 4; fill: none; fill-rule: nonzero; opacity: 1;"  x1="6.969999999999999" y1="1.75" x2="-6.969999999999999" y2="-1.75" />
</g>
		<g transform="matrix(1 0 0 1 -161.62 139.05)" id="freepik--Plants--inject-2"  >
<path style="stroke: none; stroke-width: 1; stroke-dasharray: none; stroke-linecap: butt; stroke-dashoffset: 0; stroke-linejoin: miter; stroke-miterlimit: 4; fill: rgb(23,148,172); fill-rule: nonzero; opacity: 1;"  transform=" translate(-88.38, -389.05)" d="M 91.8 384 c 0.61 2.89 -1.56 1.7 -7.82 -7.92 C 81 371.62 75.21 362.29 81.5 361 c 6 -1.27 8.87 16.42 8.87 16.42 Z m 7.69 -3.22 s 3.06 -17.64 -3.06 -18.41 c -6.38 -0.79 -3.89 9.92 -2.58 15.14 c 2.8 11.13 4.47 13 4.83 10 Z m 8.65 8.16 s 4.89 -13.05 0.32 -14.52 c -4.75 -1.53 -4.41 7 -4.16 11.2 c 0.53 8.91 1.54 10.56 2.24 8.37 Z m 9 7.87 s 4.89 -13.05 0.32 -14.52 c -4.75 -1.53 -4.41 7 -4.16 11.2 c 0.53 8.91 1.54 10.56 2.24 8.37 Z m -29.44 -8.2 s -17.79 2 -16.8 8.11 c 1 6.34 10.61 0.95 15.25 -1.78 c 9.89 -5.81 11.18 -7.93 8.26 -7.45 Z m 7 6.3 s -17 5.52 -14.86 11.29 c 2.27 6 10.58 -1.18 14.59 -4.78 c 8.54 -7.66 9.38 -10 6.62 -8.95 Z m 8.81 6 s -14.28 5.06 -12.3 9.89 c 2 5 8.92 -1.25 12.22 -4.38 c 7 -6.68 7.71 -8.67 5.39 -7.72 Z m 6.48 5.51 S 95.22 410 96.67 415 c 1.51 5.22 9 -0.29 12.62 -3.06 c 7.72 -5.89 8.58 -7.8 6.18 -7.1 Z M 78.88 377.38 s -16.62 -13.07 -20.67 -5.93 c -4.22 7.43 8.18 10 14.28 11.15 c 13 2.41 15.79 1.32 13 -0.67 Z" stroke-linecap="round" />
</g>
		<g transform="matrix(1 0 0 1 -161.62 139.05)" id="freepik--Plants--inject-2"  >
<path style="stroke: none; stroke-width: 1; stroke-dasharray: none; stroke-linecap: butt; stroke-dashoffset: 0; stroke-linejoin: miter; stroke-miterlimit: 4; fill: rgb(255,255,255); fill-rule: nonzero; opacity: 0.4;"  transform=" translate(-88.38, -389.05)" d="M 91.8 384 c 0.61 2.89 -1.56 1.7 -7.82 -7.92 C 81 371.62 75.21 362.29 81.5 361 c 6 -1.27 8.87 16.42 8.87 16.42 Z m 7.69 -3.22 s 3.06 -17.64 -3.06 -18.41 c -6.38 -0.79 -3.89 9.92 -2.58 15.14 c 2.8 11.13 4.47 13 4.83 10 Z m 8.65 8.16 s 4.89 -13.05 0.32 -14.52 c -4.75 -1.53 -4.41 7 -4.16 11.2 c 0.53 8.91 1.54 10.56 2.24 8.37 Z m 9 7.87 s 4.89 -13.05 0.32 -14.52 c -4.75 -1.53 -4.41 7 -4.16 11.2 c 0.53 8.91 1.54 10.56 2.24 8.37 Z m -29.44 -8.2 s -17.79 2 -16.8 8.11 c 1 6.34 10.61 0.95 15.25 -1.78 c 9.89 -5.81 11.18 -7.93 8.26 -7.45 Z m 7 6.3 s -17 5.52 -14.86 11.29 c 2.27 6 10.58 -1.18 14.59 -4.78 c 8.54 -7.66 9.38 -10 6.62 -8.95 Z m 8.81 6 s -14.28 5.06 -12.3 9.89 c 2 5 8.92 -1.25 12.22 -4.38 c 7 -6.68 7.71 -8.67 5.39 -7.72 Z m 6.48 5.51 S 95.22 410 96.67 415 c 1.51 5.22 9 -0.29 12.62 -3.06 c 7.72 -5.89 8.58 -7.8 6.18 -7.1 Z M 78.88 377.38 s -16.62 -13.07 -20.67 -5.93 c -4.22 7.43 8.18 10 14.28 11.15 c 13 2.41 15.79 1.32 13 -0.67 Z" stroke-linecap="round" />
</g>
		<g transform="matrix(1 0 0 1 -155.38 144.74)" id="freepik--Plants--inject-2"  >
<path style="stroke: rgb(23,148,172); stroke-width: 1.25197; stroke-dasharray: none; stroke-linecap: round; stroke-dashoffset: 0; stroke-linejoin: round; stroke-miterlimit: 4; fill: none; fill-rule: nonzero; opacity: 1;"  transform=" translate(-94.63, -394.74)" d="M 64.77 375.68 S 89.35 383 98.12 389.11 a 121.16 121.16 0 0 1 26.36 24.69" stroke-linecap="round" />
</g>
		<g transform="matrix(1 0 0 1 -162.53 127.06)" id="freepik--Plants--inject-2"  >
<line style="stroke: rgb(23,148,172); stroke-width: 1.25197; stroke-dasharray: none; stroke-linecap: round; stroke-dashoffset: 0; stroke-linejoin: round; stroke-miterlimit: 4; fill: none; fill-rule: nonzero; opacity: 1;"  x1="4.349999999999994" y1="8.480000000000018" x2="-4.349999999999994" y2="-8.480000000000018" />
</g>
		<g transform="matrix(1 0 0 1 -152.93 130.23)" id="freepik--Plants--inject-2"  >
<line style="stroke: rgb(23,148,172); stroke-width: 1.25197; stroke-dasharray: none; stroke-linecap: round; stroke-dashoffset: 0; stroke-linejoin: round; stroke-miterlimit: 4; fill: none; fill-rule: nonzero; opacity: 1;"  x1="1.0500000000000043" y1="8.88500000000002" x2="-1.0500000000000043" y2="-8.88500000000002" />
</g>
		<g transform="matrix(1 0 0 1 -162.26 141.16)" id="freepik--Plants--inject-2"  >
<line style="stroke: rgb(23,148,172); stroke-width: 1.25197; stroke-dasharray: none; stroke-linecap: round; stroke-dashoffset: 0; stroke-linejoin: round; stroke-miterlimit: 4; fill: none; fill-rule: nonzero; opacity: 1;"  x1="8.079999999999998" y1="-3.3400000000000034" x2="-8.079999999999998" y2="3.3400000000000034" />
</g>
		<g transform="matrix(1 0 0 1 -143.19 137.22)" id="freepik--Plants--inject-2"  >
<line style="stroke: rgb(23,148,172); stroke-width: 1.25197; stroke-dasharray: none; stroke-linecap: round; stroke-dashoffset: 0; stroke-linejoin: round; stroke-miterlimit: 4; fill: none; fill-rule: nonzero; opacity: 1;"  x1="-0.9699999999999989" y1="7.575000000000017" x2="0.9699999999999989" y2="-7.575000000000017" />
</g>
		<g transform="matrix(1 0 0 1 -152.84 146.01)" id="freepik--Plants--inject-2"  >
<line style="stroke: rgb(23,148,172); stroke-width: 1.25197; stroke-dasharray: none; stroke-linecap: round; stroke-dashoffset: 0; stroke-linejoin: round; stroke-miterlimit: 4; fill: none; fill-rule: nonzero; opacity: 1;"  x1="5.395000000000003" y1="-3.569999999999993" x2="-5.395000000000003" y2="3.569999999999993" />
</g>
		<g transform="matrix(1 0 0 1 -144.13 151.77)" id="freepik--Plants--inject-2"  >
<line style="stroke: rgb(23,148,172); stroke-width: 1.25197; stroke-dasharray: none; stroke-linecap: round; stroke-dashoffset: 0; stroke-linejoin: round; stroke-miterlimit: 4; fill: none; fill-rule: nonzero; opacity: 1;"  x1="4.005000000000003" y1="-2.9350000000000023" x2="-4.005000000000003" y2="2.9350000000000023" />
</g>
		<g transform="matrix(1 0 0 1 -134.87 148.25)" id="freepik--Plants--inject-2"  >
<line style="stroke: rgb(23,148,172); stroke-width: 1.25197; stroke-dasharray: none; stroke-linecap: round; stroke-dashoffset: 0; stroke-linejoin: round; stroke-miterlimit: 4; fill: none; fill-rule: nonzero; opacity: 1;"  x1="-0.22500000000000142" y1="4.420000000000016" x2="0.22500000000000142" y2="-4.420000000000016" />
</g>
		<g transform="matrix(1 0 0 1 -138.26 157.64)" id="freepik--Plants--inject-2"  >
<line style="stroke: rgb(23,148,172); stroke-width: 1.25197; stroke-dasharray: none; stroke-linecap: round; stroke-dashoffset: 0; stroke-linejoin: round; stroke-miterlimit: 4; fill: none; fill-rule: nonzero; opacity: 1;"  x1="4.974999999999994" y1="-3" x2="-4.974999999999994" y2="3" />
</g>
		<g transform="matrix(1 0 0 1 3.37 180.07)" id="freepik--Floor--inject-2"  >
<ellipse style="stroke: none; stroke-width: 1; stroke-dasharray: none; stroke-linecap: butt; stroke-dashoffset: 0; stroke-linejoin: miter; stroke-miterlimit: 4; fill: rgb(38,50,56); fill-rule: nonzero; opacity: 1;"  cx="0" cy="0" rx="135.28" ry="15.65" />
</g>
		<g transform="matrix(1 0 0 1 -85.75 -21.41)" id="freepik--Character--inject-2"  >
<path style="stroke: none; stroke-width: 1; stroke-dasharray: none; stroke-linecap: butt; stroke-dashoffset: 0; stroke-linejoin: miter; stroke-miterlimit: 4; fill: rgb(38,50,56); fill-rule: nonzero; opacity: 1;"  transform=" translate(-164.25, -228.59)" d="M 210 193.28 s -4.36 -11.2 -14.93 -16.34 s -37.49 9.78 -39.95 16.09 s 6.83 4.89 4.48 9.51 S 126 215 121.92 225.26 s 5.16 14.67 3.47 19.67 s -12.9 14.49 -7.84 25.4 s 27.69 4.23 34.63 2.31 s 3.2 3.28 5.66 7.19 s 20.33 -0.62 26.51 -6.34 s 3.61 6.42 9.64 4.81 c 2.2 -0.58 7.36 -11.59 12.34 -30 S 214.7 209.63 210 193.28 Z" stroke-linecap="round" />
</g>
		<g transform="matrix(1 0 0 1 -93.01 123.16)" id="freepik--Character--inject-2"  >
<path style="stroke: rgb(38,50,56); stroke-width: 1; stroke-dasharray: none; stroke-linecap: round; stroke-dashoffset: 0; stroke-linejoin: round; stroke-miterlimit: 4; fill: rgb(255,255,255); fill-rule: nonzero; opacity: 1;"  transform=" translate(-156.99, -373.16)" d="M 178.28 335.63 s -5.07 4.19 -11.63 10.93 s -16.35 29.76 -18.72 33.33 s -7.45 8 -7.45 8 s -9 -0.6 -9.41 1.51 s -0.67 6.07 -1.87 8.12 s -3.51 4.82 -2.42 8.35 s 2.46 7.08 4.38 6.14 s 2.54 -2.22 4.18 -6.9 s 15.08 -14.69 19.78 -21.29 s 22.35 -24.05 24.64 -26.55 s 6 -1.73 7.47 -12.27 S 183.29 332.24 178.28 335.63 Z" stroke-linecap="round" />
</g>
		<g transform="matrix(1 0 0 1 -81.73 108.47)" id="freepik--Character--inject-2"  >
<path style="stroke: rgb(38,50,56); stroke-width: 1; stroke-dasharray: none; stroke-linecap: butt; stroke-dashoffset: 0; stroke-linejoin: miter; stroke-miterlimit: 10; fill: rgb(23,148,172); fill-rule: nonzero; opacity: 1;"  transform=" translate(-168.27, -358.47)" d="M 179.76 357.28 c 2.3 -2.51 6 -1.73 7.47 -12.27 s -3.94 -12.77 -8.95 -9.38 c 0 0 -5.07 4.19 -11.63 10.93 c -5.79 5.94 -14.07 24.51 -17.58 31.29 a 14.19 14.19 0 0 0 6.84 4.92 C 161.52 375.53 177.58 359.66 179.76 357.28 Z" stroke-linecap="round" />
</g>
		<g transform="matrix(1 0 0 1 -115.35 149.99)" id="freepik--Character--inject-2"  >
<path style="stroke: rgb(38,50,56); stroke-width: 1; stroke-dasharray: none; stroke-linecap: round; stroke-dashoffset: 0; stroke-linejoin: round; stroke-miterlimit: 4; fill: rgb(178,178,178); fill-rule: nonzero; opacity: 1;"  transform=" translate(-134.65, -399.99)" d="M 136.35 394 l 2.36 -6.17 c -2.64 -0.06 -7.35 0.06 -7.64 1.57 c -0.4 2.1 -0.67 6.07 -1.87 8.12 s -3.51 4.82 -2.42 8.35 s 2.46 7.07 4.38 6.14 s 2.54 -2.22 4.18 -6.9 c 0.74 -2.1 3.84 -5.26 7.46 -8.71 C 140.4 393.87 136.35 394 136.35 394 Z" stroke-linecap="round" />
</g>
		<g transform="matrix(1 0 0 1 -58.25 77)" id="freepik--Character--inject-2"  >
<path style="stroke: rgb(38,50,56); stroke-width: 1; stroke-dasharray: none; stroke-linecap: round; stroke-dashoffset: 0; stroke-linejoin: round; stroke-miterlimit: 4; fill: rgb(255,255,255); fill-rule: nonzero; opacity: 1;"  transform=" translate(-191.75, -327)" d="M 192.19 224.37 s -10.9 -2.19 -14 3.86 s 6.75 33.17 7.17 36.12 s -13.33 12.45 -17.16 23 s -1.35 20.13 3.16 33.77 s 9.08 20.19 7.83 26.36 s -1.15 14.1 1 20.08 s 13.76 34.26 13.51 38 s -4.76 8.85 -4.66 10.52 s 8.7 7.05 11.81 10.38 s 9.23 5.41 9.77 3.57 s -4.95 -7 -5.88 -11.86 s -4.16 -15.7 -4.77 -22.2 s -5.12 -42 -5.7 -45.82 a 55.62 55.62 0 0 1 -0.19 -9.6 s 11 -18.64 12.86 -33.53 s 3.21 -35.63 4.58 -40.54 s 4.4 -16 4.4 -16 a 57.19 57.19 0 0 0 1 -17.44 c -1.11 -8.41 -13.5 -10.07 -17.49 -9.71 S 192.19 224.37 192.19 224.37 Z" stroke-linecap="round" />
</g>
		<g transform="matrix(1 0 0 1 -62.64 87.58)" id="freepik--Character--inject-2"  >
<path style="stroke: none; stroke-width: 1; stroke-dasharray: none; stroke-linecap: butt; stroke-dashoffset: 0; stroke-linejoin: miter; stroke-miterlimit: 4; fill: rgb(23,148,172); fill-rule: nonzero; opacity: 1;"  transform=" translate(-187.36, -337.58)" d="M 199.35 390.8 c -1.4 -12 -4.64 -37.44 -5.13 -40.62 a 55.62 55.62 0 0 1 -0.19 -9.6 s 11 -18.64 12.86 -33.53 c 0.55 -4.45 1.05 -9.42 1.53 -14.34 c -7.56 -0.31 -23.18 -2 -37.78 -10.22 a 25.7 25.7 0 0 0 -2.45 4.89 c -3.84 10.58 -1.35 20.13 3.16 33.77 s 9.08 20.19 7.83 26.36 s -1.15 14.1 1 20.08 c 1.27 3.62 6.05 15.43 9.57 25 A 17.29 17.29 0 0 0 199.35 390.8 Z" stroke-linecap="round" />
</g>
		<g transform="matrix(1 0 0 1 -54.61 90.34)" id="freepik--Character--inject-2" clip-path="url(#CLIPPATH_87)"  >
<clipPath id="CLIPPATH_87" >
	<path transform="matrix(1 0 0 1 -8.03 -2.75) translate(-187.36, -337.58)" id="freepik--clip-path-8--inject-2" d="M 199.35 390.8 c -1.4 -12 -4.64 -37.44 -5.13 -40.62 a 55.62 55.62 0 0 1 -0.19 -9.6 s 11 -18.64 12.86 -33.53 c 0.55 -4.45 1.05 -9.42 1.53 -14.34 c -7.56 -0.31 -23.18 -2 -37.78 -10.22 a 25.7 25.7 0 0 0 -2.45 4.89 c -3.84 10.58 -1.35 20.13 3.16 33.77 s 9.08 20.19 7.83 26.36 s -1.15 14.1 1 20.08 c 1.27 3.62 6.05 15.43 9.57 25 A 17.29 17.29 0 0 0 199.35 390.8 Z" stroke-linecap="round" />
</clipPath>
<path style="stroke: none; stroke-width: 1; stroke-dasharray: none; stroke-linecap: butt; stroke-dashoffset: 0; stroke-linejoin: miter; stroke-miterlimit: 4; fill: rgb(38,50,56); fill-rule: nonzero; opacity: 0.30000000000000004;"  transform=" translate(-195.39, -340.34)" d="M 194.79 295.57 c -1.2 8 -3.61 3.61 -4.42 2 s -8.43 -11.25 -8 -7.63 s 5.62 44.16 8 57 c 2.06 11 5.28 31.55 7.18 44.6 c 0.59 -0.22 1.18 -0.46 1.8 -0.76 c -1.4 -12 -4.64 -37.44 -5.13 -40.62 a 55.62 55.62 0 0 1 -0.19 -9.6 s 11 -18.64 12.86 -33.53 c 0.55 -4.45 1.05 -9.42 1.53 -14.34 a 94.74 94.74 0 0 1 -13 -1.48 C 195.21 292.76 195 294.22 194.79 295.57 Z" stroke-linecap="round" />
</g>
		<g transform="matrix(1 0 0 1 -58.04 70.05)" id="freepik--Character--inject-2" clip-path="url(#CLIPPATH_88)"  >
<clipPath id="CLIPPATH_88" >
	<path transform="matrix(1 0 0 1 -4.6 17.53) translate(-187.36, -337.58)" id="freepik--clip-path-8--inject-2" d="M 199.35 390.8 c -1.4 -12 -4.64 -37.44 -5.13 -40.62 a 55.62 55.62 0 0 1 -0.19 -9.6 s 11 -18.64 12.86 -33.53 c 0.55 -4.45 1.05 -9.42 1.53 -14.34 c -7.56 -0.31 -23.18 -2 -37.78 -10.22 a 25.7 25.7 0 0 0 -2.45 4.89 c -3.84 10.58 -1.35 20.13 3.16 33.77 s 9.08 20.19 7.83 26.36 s -1.15 14.1 1 20.08 c 1.27 3.62 6.05 15.43 9.57 25 A 17.29 17.29 0 0 0 199.35 390.8 Z" stroke-linecap="round" />
</clipPath>
<path style="stroke: rgb(38,50,56); stroke-width: 1; stroke-dasharray: none; stroke-linecap: round; stroke-dashoffset: 0; stroke-linejoin: round; stroke-miterlimit: 4; fill: none; fill-rule: nonzero; opacity: 1;"  transform=" translate(-191.96, -320.05)" d="M 190.55 303.2 s 2.35 24.63 2.81 33.7" stroke-linecap="round" />
</g>
		<g transform="matrix(1 0 0 1 -62.64 87.58)" id="freepik--Character--inject-2"  >
<path style="stroke: rgb(38,50,56); stroke-width: 1; stroke-dasharray: none; stroke-linecap: butt; stroke-dashoffset: 0; stroke-linejoin: miter; stroke-miterlimit: 10; fill: none; fill-rule: nonzero; opacity: 1;"  transform=" translate(-187.36, -337.58)" d="M 199.35 390.8 c -1.4 -12 -4.64 -37.44 -5.13 -40.62 a 55.62 55.62 0 0 1 -0.19 -9.6 s 11 -18.64 12.86 -33.53 c 0.55 -4.45 1.05 -9.42 1.53 -14.34 c -7.56 -0.31 -23.18 -2 -37.78 -10.22 a 25.7 25.7 0 0 0 -2.45 4.89 c -3.84 10.58 -1.35 20.13 3.16 33.77 s 9.08 20.19 7.83 26.36 s -1.15 14.1 1 20.08 c 1.27 3.62 6.05 15.43 9.57 25 A 17.29 17.29 0 0 0 199.35 390.8 Z" stroke-linecap="round" />
</g>
		<g transform="matrix(1 0 0 1 -57.76 12.76)" id="freepik--Character--inject-2"  >
<path style="stroke: none; stroke-width: 1; stroke-dasharray: none; stroke-linecap: butt; stroke-dashoffset: 0; stroke-linejoin: miter; stroke-miterlimit: 4; fill: rgb(128,128,128); fill-rule: nonzero; opacity: 1;"  transform=" translate(-192.24, -262.76)" d="M 167.35 290.08 c 5 5.35 17.48 15.1 40.2 11.26 c 1.51 -14 2.72 -30.52 3.92 -34.83 c 1.37 -4.91 4.4 -16 4.4 -16 a 57.19 57.19 0 0 0 1 -17.44 c -1.11 -8.41 -13.5 -10.07 -17.49 -9.71 s -7.15 1 -7.15 1 s -10.9 -2.19 -14 3.86 s 6.75 33.17 7.17 36.12 s -13.33 12.45 -17.16 23 C 167.86 288.29 167.59 289.19 167.35 290.08 Z" stroke-linecap="round" />
</g>
		<g transform="matrix(1 0 0 1 -50.24 12.79)" id="freepik--Character--inject-2" clip-path="url(#CLIPPATH_89)"  >
<clipPath id="CLIPPATH_89" >
	<path transform="matrix(1 0 0 1 -7.52 -0.03) translate(-192.24, -262.76)" id="freepik--clip-path-9--inject-2" d="M 167.35 290.08 c 5 5.35 17.48 15.1 40.2 11.26 c 1.51 -14 2.72 -30.52 3.92 -34.83 c 1.37 -4.91 4.4 -16 4.4 -16 a 57.19 57.19 0 0 0 1 -17.44 c -1.11 -8.41 -13.5 -10.07 -17.49 -9.71 s -7.15 1 -7.15 1 s -10.9 -2.19 -14 3.86 s 6.75 33.17 7.17 36.12 s -13.33 12.45 -17.16 23 C 167.86 288.29 167.59 289.19 167.35 290.08 Z" stroke-linecap="round" />
</clipPath>
<path style="stroke: none; stroke-width: 1; stroke-dasharray: none; stroke-linecap: butt; stroke-dashoffset: 0; stroke-linejoin: miter; stroke-miterlimit: 4; fill: rgb(38,50,56); fill-rule: nonzero; opacity: 0.30000000000000004;"  transform=" translate(-199.76, -262.79)" d="M 216.83 233.1 c -1.11 -8.41 -13.5 -10.07 -17.49 -9.71 s -7.15 1 -7.15 1 s -0.5 -0.1 -1.31 -0.2 l 1.1 5.55 s 12.45 12.05 12.85 18.87 s -4.82 12.45 -6 19.68 s -2.81 19.27 -4 27.3 s -3.61 3.61 -4.42 2 s -8.43 -11.25 -8 -7.63 c 0.12 1 0.6 4.88 1.3 10.21 c 6.21 2 14.11 2.84 23.91 1.18 c 1.51 -14 2.72 -30.52 3.92 -34.83 c 1.37 -4.91 4.4 -16 4.4 -16 A 57.19 57.19 0 0 0 216.83 233.1 Z" stroke-linecap="round" />
</g>
		<g transform="matrix(1 0 0 1 -57.76 12.76)" id="freepik--Character--inject-2"  >
<path style="stroke: rgb(38,50,56); stroke-width: 1; stroke-dasharray: none; stroke-linecap: round; stroke-dashoffset: 0; stroke-linejoin: round; stroke-miterlimit: 4; fill: none; fill-rule: nonzero; opacity: 1;"  transform=" translate(-192.24, -262.76)" d="M 167.35 290.08 c 5 5.35 17.48 15.1 40.2 11.26 c 1.51 -14 2.72 -30.52 3.92 -34.83 c 1.37 -4.91 4.4 -16 4.4 -16 a 57.19 57.19 0 0 0 1 -17.44 c -1.11 -8.41 -13.5 -10.07 -17.49 -9.71 s -7.15 1 -7.15 1 s -10.9 -2.19 -14 3.86 s 6.75 33.17 7.17 36.12 s -13.33 12.45 -17.16 23 C 167.86 288.29 167.59 289.19 167.35 290.08 Z" stroke-linecap="round" />
</g>
		<g transform="matrix(1 0 0 1 -57.01 -24.16)" id="freepik--Character--inject-2"  >
<path style="stroke: rgb(38,50,56); stroke-width: 1; stroke-dasharray: none; stroke-linecap: round; stroke-dashoffset: 0; stroke-linejoin: round; stroke-miterlimit: 4; fill: rgb(255,255,255); fill-rule: nonzero; opacity: 1;"  transform=" translate(-192.99, -225.84)" d="M 186.46 219.61 a 25.25 25.25 0 0 1 1.93 5.55 c 0.27 2.1 2.53 5.8 5.87 8.73 s 5.41 0.15 5.26 -3.82 s -2.23 -13.49 -2.23 -13.49 S 190.38 220.29 186.46 219.61 Z" stroke-linecap="round" />
</g>
		<g transform="matrix(1 0 0 1 -73.49 -43.14)" id="freepik--Character--inject-2"  >
<path style="stroke: rgb(38,50,56); stroke-width: 1; stroke-dasharray: none; stroke-linecap: round; stroke-dashoffset: 0; stroke-linejoin: round; stroke-miterlimit: 4; fill: rgb(255,255,255); fill-rule: nonzero; opacity: 1;"  transform=" translate(-176.51, -206.86)" d="M 176.88 204 a 2.09 2.09 0 0 0 -2.44 2.13 c -0.16 2.49 4.14 3.61 4.14 3.61 Z" stroke-linecap="round" />
</g>
		<g transform="matrix(1 0 0 1 -60.94 -45.12)" id="freepik--Character--inject-2"  >
<path style="stroke: none; stroke-width: 1; stroke-dasharray: none; stroke-linecap: butt; stroke-dashoffset: 0; stroke-linejoin: miter; stroke-miterlimit: 4; fill: rgb(255,255,255); fill-rule: nonzero; opacity: 1;"  transform=" translate(-189.06, -204.88)" d="M 191.9 188.09 s -7.19 11 -14.72 14.44 c 0 0 1 12.36 5.37 16.4 s 11.45 3.27 15.63 0 s 2.37 -23 2.37 -23 S 194.1 192.61 191.9 188.09 Z" stroke-linecap="round" />
</g>
		<g transform="matrix(1 0 0 1 -53.76 -45.17)" id="freepik--Character--inject-2" clip-path="url(#CLIPPATH_90)"  >
<clipPath id="CLIPPATH_90" >
	<path transform="matrix(1 0 0 1 -7.19 0.05) translate(-189.06, -204.88)" id="freepik--clip-path-10--inject-2" d="M 191.9 188.09 s -7.19 11 -14.72 14.44 c 0 0 1 12.36 5.37 16.4 s 11.45 3.27 15.63 0 s 2.37 -23 2.37 -23 S 194.1 192.61 191.9 188.09 Z" stroke-linecap="round" />
</clipPath>
<path style="stroke: none; stroke-width: 1; stroke-dasharray: none; stroke-linecap: butt; stroke-dashoffset: 0; stroke-linejoin: miter; stroke-miterlimit: 4; fill: rgb(38,50,56); fill-rule: nonzero; opacity: 0.30000000000000004;"  transform=" translate(-196.24, -204.83)" d="M 191.9 188.09 l -0.2 0.29 l 0.09 1.42 a 51.53 51.53 0 0 1 4.38 19.9 a 16.21 16.21 0 0 1 -4.62 11.88 a 13.44 13.44 0 0 0 6.63 -2.65 c 4.18 -3.26 2.37 -23 2.37 -23 S 194.1 192.61 191.9 188.09 Z" stroke-linecap="round" />
</g>
		<g transform="matrix(1 0 0 1 -60.94 -45.12)" id="freepik--Character--inject-2"  >
<path style="stroke: rgb(38,50,56); stroke-width: 1; stroke-dasharray: none; stroke-linecap: round; stroke-dashoffset: 0; stroke-linejoin: round; stroke-miterlimit: 4; fill: none; fill-rule: nonzero; opacity: 1;"  transform=" translate(-189.06, -204.88)" d="M 191.9 188.09 s -7.19 11 -14.72 14.44 c 0 0 1 12.36 5.37 16.4 s 11.45 3.27 15.63 0 s 2.37 -23 2.37 -23 S 194.1 192.61 191.9 188.09 Z" stroke-linecap="round" />
</g>
		<g transform="matrix(1 0 0 1 -63.41 -45.36)" id="freepik--Character--inject-2"  >
<path style="stroke: rgb(38,50,56); stroke-width: 1; stroke-dasharray: none; stroke-linecap: round; stroke-dashoffset: 0; stroke-linejoin: round; stroke-miterlimit: 4; fill: none; fill-rule: nonzero; opacity: 1;"  transform=" translate(-186.59, -204.64)" d="M 186.84 201.5 a 7.37 7.37 0 0 1 0 3.13 c -0.35 2.06 -2.06 2.78 0.41 3.15" stroke-linecap="round" />
</g>
		<g transform="matrix(1 0 0 1 -60.34 -40.51)" id="freepik--Character--inject-2"  >
<path style="stroke: rgb(38,50,56); stroke-width: 1; stroke-dasharray: none; stroke-linecap: round; stroke-dashoffset: 0; stroke-linejoin: round; stroke-miterlimit: 4; fill: none; fill-rule: nonzero; opacity: 1;"  transform=" translate(-189.66, -209.49)" d="M 185.16 211 s 4 1.94 9 -3.36" stroke-linecap="round" />
</g>
		<g transform="matrix(1 0 0 1 -67.91 -46.23)" id="freepik--Character--inject-2"  >
<path style="stroke: rgb(38,50,56); stroke-width: 1; stroke-dasharray: none; stroke-linecap: round; stroke-dashoffset: 0; stroke-linejoin: round; stroke-miterlimit: 4; fill: none; fill-rule: nonzero; opacity: 1;"  transform=" translate(-182.09, -203.77)" d="M 179.55 204.56 s 1.63 -2.6 5.07 -1.12" stroke-linecap="round" />
</g>
		<g transform="matrix(1 0 0 1 -55.51 -48.04)" id="freepik--Character--inject-2"  >
<path style="stroke: rgb(38,50,56); stroke-width: 1; stroke-dasharray: none; stroke-linecap: round; stroke-dashoffset: 0; stroke-linejoin: round; stroke-miterlimit: 4; fill: none; fill-rule: nonzero; opacity: 1;"  transform=" translate(-194.49, -201.96)" d="M 190.92 202.82 s 4 -3.28 7.14 -0.78" stroke-linecap="round" />
</g>
		<g transform="matrix(1 0 0 1 -56.84 -54.34)" id="freepik--Character--inject-2"  >
<path style="stroke: rgb(38,50,56); stroke-width: 1; stroke-dasharray: none; stroke-linecap: round; stroke-dashoffset: 0; stroke-linejoin: round; stroke-miterlimit: 4; fill: none; fill-rule: nonzero; opacity: 1;"  transform=" translate(-193.16, -195.66)" d="M 189.66 196.69 a 5.21 5.21 0 0 1 7 -1.2" stroke-linecap="round" />
</g>
		<g transform="matrix(0.95 -0.32 0.32 0.95 40.51 -58.19)" id="freepik--Character--inject-2"  >
<circle style="stroke: none; stroke-width: 1; stroke-dasharray: none; stroke-linecap: butt; stroke-dashoffset: 0; stroke-linejoin: miter; stroke-miterlimit: 4; fill: rgb(23,148,172); fill-rule: nonzero; opacity: 1;"  cx="0" cy="0" r="92.19" />
</g>
		<g transform="matrix(1 0 0 1 36.36 -92.17)" id="freepik--Character--inject-2" clip-path="url(#CLIPPATH_91)"  >
<clipPath id="CLIPPATH_91" >
	<circle transform="matrix(0.95 -0.32 0.32 0.95 4.16 33.98)" id="freepik--clip-path-11--inject-2" cx="0" cy="0" r="92.19" />
</clipPath>
<polygon style="stroke: none; stroke-width: 1; stroke-dasharray: none; stroke-linecap: butt; stroke-dashoffset: 0; stroke-linejoin: miter; stroke-miterlimit: 4; fill: rgb(143,143,143); fill-rule: nonzero; opacity: 1;"  points="-8.34,-6.93 1.06,-4.98 4.26,-1.66 8.44,-1.02 9.76,2.95 8.79,5.63 5.94,6.93 -1.04,5.79 -1.23,4.94 2.07,2.64 -0.19,-1.57 -6.44,-2.42 -9.77,-5.27 -8.34,-6.93 " />
</g>
		<g transform="matrix(1 0 0 1 47.9 -39.46)" id="freepik--Character--inject-2" clip-path="url(#CLIPPATH_92)"  >
<clipPath id="CLIPPATH_92" >
	<circle transform="matrix(0.95 -0.32 0.32 0.95 -7.39 -18.73)" id="freepik--clip-path-11--inject-2" cx="0" cy="0" r="92.19" />
</clipPath>
<path style="stroke: none; stroke-width: 1; stroke-dasharray: none; stroke-linecap: butt; stroke-dashoffset: 0; stroke-linejoin: miter; stroke-miterlimit: 4; fill: rgb(143,143,143); fill-rule: nonzero; opacity: 1;"  transform=" translate(-297.9, -210.54)" d="M 353.75 237.62 l -7.45 -1.25 l -9 -1.14 l -6.62 1.47 l -6.48 0.09 l -6.5 3 l -3.8 1.07 l -2.35 0.52 L 307.64 245 l -3.89 2.66 l -6.57 -2.35 l 0.17 -6.31 l -4 -0.69 l -4.27 1 L 288 237.43 l -0.42 -3.94 l -2 -1.81 l -2.9 1.09 l -0.38 2.33 l -3.58 1 L 274.73 233 l -2.42 -4.85 l 1.88 -6.69 l 6.29 -0.95 l 2 1.12 l 2.56 -0.57 l 2.78 -2.63 l 3 0.23 l 5.32 5.77 l 1.45 -0.54 l -1.52 -4.82 l -1.85 -2.28 l -0.48 -4.15 l 7.15 -5.18 l -0.69 -8.13 l 2.8 -3.54 l 1.69 -5.53 l 2 -0.9 l 4.2 -4.3 l -0.17 -1.75 l -3.37 1 l -1 -1.57 l -2.35 0.53 l -3.44 1.66 l 1.09 -3.16 l 7 -3.8 l 1.29 -2.3 l 4 4 l 2.35 1.49 l 2.8 -1.52 l -1.9 -2.49 L 312 175 l -6.4 -4.63 l -6.15 -2.45 l -5.31 0.29 l -3.14 -2 l -3.6 -0.09 l -0.24 1 l 0.95 6.28 l 1.33 1.95 l -0.41 7.26 L 284 180 l 0 -3.13 l -5 -1.14 l -2.45 -1.92 l -0.11 -5.58 l 5.19 -5.86 l -0.71 -5.22 l -2.3 0.74 l -1.92 -1.59 l -1.35 -3.07 l -1.55 0.12 l -0.09 3.61 l -2.26 0.95 l -2.72 -7.24 l -2 -0.69 l -3.27 -0.62 l -3 2.47 L 265.7 155 l 1.66 3.44 l -9 -4.06 l -6.62 -4.58 l -1.71 -5.67 l -5.93 -0.48 l -3.65 3.73 a 33.93 33.93 0 0 1 -2.83 2.42 a 36.92 36.92 0 0 1 -4.94 2 l 0 3.82 l -4.87 1.31 l 0.95 2.25 l 8.19 -0.47 l 5.05 3.58 l 1.66 7.48 l -0.88 7.14 l 2 7 l -3.66 11.8 l 2.18 15.87 l 3.91 8.55 l 4.3 6.22 l 3.3 -0.29 L 253 222.8 l -2.28 -2.18 l -2.11 -4.46 l 1.83 -0.86 l 4.7 7 l 3.65 6.36 l 1.23 5.55 l 5.15 4 l 8.45 3.73 l 11.77 0.52 l 4.13 2.45 l 3.32 2.85 l 4.37 1.49 l 5 0.24 l 4.65 -1.26 s 0.26 2.19 0.5 3.25 s -1.95 5.37 -1.95 5.37 l -1.4 4.79 l 2.76 4.32 l 5.12 0.88 l 8.14 5.36 l 3.27 0.62 l 0.72 3.2 l 0.7 1.41 a 91.78 91.78 0 0 0 40.11 -31 l -0.23 -1.58 L 368 233.12 l -3.2 -1.31 Z" stroke-linecap="round" />
</g>
		<g transform="matrix(1 0 0 1 45.45 -122.53)" id="freepik--Character--inject-2" clip-path="url(#CLIPPATH_93)"  >
<clipPath id="CLIPPATH_93" >
	<circle transform="matrix(0.95 -0.32 0.32 0.95 -4.94 64.34)" id="freepik--clip-path-11--inject-2" cx="0" cy="0" r="92.19" />
</clipPath>
<path style="stroke: none; stroke-width: 1; stroke-dasharray: none; stroke-linecap: butt; stroke-dashoffset: 0; stroke-linejoin: miter; stroke-miterlimit: 4; fill: rgb(143,143,143); fill-rule: nonzero; opacity: 1;"  transform=" translate(-295.45, -127.47)" d="M 357.23 148.33 L 354 144.79 l -4 -4 l -2.28 -6.21 l 4 -0.22 l -0.26 -2.18 l -2.83 0.4 l 2.11 -1.59 l 2.24 -2.06 l -0.48 -2.14 l -3.32 -2.84 l -1.57 -4.48 a 92.25 92.25 0 0 0 -111.3 -2.14 l 5.7 2.4 l -2.14 4.51 L 236 126 l 0.85 5.87 l -1.57 1 l -1.61 2.82 l 1.07 3.8 l 3.72 -0.38 l -0.69 4 l 3.63 -0.81 l 4.44 -9.27 l -0.11 -3.56 l 5.88 -1.76 l 0.93 -2.89 l 6.05 -2 l -0.17 -3.77 l 4.44 -1.21 a 23.13 23.13 0 0 1 3.47 -2.57 a 26.71 26.71 0 0 1 3.86 0.27 l 3.78 1.85 l 4.48 -1 l 3.32 -3.2 l 5 -0.67 a 5.46 5.46 0 0 0 2.54 0.34 c 1.07 -0.24 3.94 -2.45 3.94 -2.45 l 7.05 2.47 l 3 1.36 l 0.71 3.2 l 3.3 -0.29 l 0.64 -2.15 l 3.06 0.66 l 0.17 1.76 l -6 3.13 l 4.67 3.89 l 8.64 2.56 l 4.15 3.56 l 4.8 -0.61 l 0.59 -2.37 l 1.61 -0.81 l -6.5 -3 l -3.51 0.33 l 2.59 -1.47 l -3.37 -3.06 l 3.58 -1 l 5.27 1.52 l 2.21 4.89 l 3 2.25 l 3.3 5.77 l 5.46 2.37 l 1.56 7.05 l 5.63 2.12 l 0.3 2.39 l 0 2.92 l 2.14 3.56 l 0.85 1.83 l 3.77 -0.17 l 0.91 -4 Z" stroke-linecap="round" />
</g>
		<g transform="matrix(1 0 0 1 118.72 -92.63)" id="freepik--Character--inject-2" clip-path="url(#CLIPPATH_94)"  >
<clipPath id="CLIPPATH_94" >
	<circle transform="matrix(0.95 -0.32 0.32 0.95 -78.21 34.44)" id="freepik--clip-path-11--inject-2" cx="0" cy="0" r="92.19" />
</clipPath>
<path style="stroke: none; stroke-width: 1; stroke-dasharray: none; stroke-linecap: butt; stroke-dashoffset: 0; stroke-linejoin: miter; stroke-miterlimit: 4; fill: rgb(143,143,143); fill-rule: nonzero; opacity: 1;"  transform=" translate(-368.72, -157.37)" d="M 355.23 126.19 l 0.27 1.23 l -0.31 3.65 l 1.31 2.85 l 2.54 0.33 l 0.9 4.06 l -2.8 -0.5 l 1.92 11.68 l -1.52 5.27 l 3 5.6 l 3.34 1.94 l 2.56 11.54 l 4.77 8.35 l 4.51 6.17 l 5.2 0.19 l 0.76 -4.65 l 0.57 -0.7 a 93.36 93.36 0 0 0 -1.79 -11.34 A 91.78 91.78 0 0 0 355.23 126.19 Z" stroke-linecap="round" />
</g>
		<g transform="matrix(1 0 0 1 44.59 -102.86)" id="freepik--Character--inject-2" clip-path="url(#CLIPPATH_95)"  >
<clipPath id="CLIPPATH_95" >
	<circle transform="matrix(0.95 -0.32 0.32 0.95 -4.08 44.66)" id="freepik--clip-path-11--inject-2" cx="0" cy="0" r="92.19" />
</clipPath>
<polygon style="stroke: none; stroke-width: 1; stroke-dasharray: none; stroke-linecap: butt; stroke-dashoffset: 0; stroke-linejoin: miter; stroke-miterlimit: 4; fill: rgb(143,143,143); fill-rule: nonzero; opacity: 1;"  points="11,-11.33 -4.48,-14.39 -10.62,-12.8 -11.22,-8.41 -14.4,-10.62 -18.86,-8.51 -17.72,-1.36 -13.26,0.56 -11.38,-4.12 -7.47,-1.63 0.43,2.67 3.09,8.58 10.21,14.4 18.85,10.91 17.92,7.75 15.19,4.55 12.88,-3.9 14.2,-8.01 11,-11.33 " />
</g>
		<g transform="matrix(1 0 0 1 65.34 -107.78)" id="freepik--Character--inject-2" clip-path="url(#CLIPPATH_96)"  >
<clipPath id="CLIPPATH_96" >
	<circle transform="matrix(0.95 -0.32 0.32 0.95 -24.83 49.59)" id="freepik--clip-path-11--inject-2" cx="0" cy="0" r="92.19" />
</clipPath>
<polygon style="stroke: none; stroke-width: 1; stroke-dasharray: none; stroke-linecap: butt; stroke-dashoffset: 0; stroke-linejoin: miter; stroke-miterlimit: 4; fill: rgb(143,143,143); fill-rule: nonzero; opacity: 1;"  points="2.82,-4.27 -0.57,-4.41 -2.83,-1.45 0.04,4.41 2.82,3.8 2.82,-4.27 " />
</g>
		<g transform="matrix(1 0 0 1 83.34 -111.47)" id="freepik--Character--inject-2" clip-path="url(#CLIPPATH_97)"  >
<clipPath id="CLIPPATH_97" >
	<circle transform="matrix(0.95 -0.32 0.32 0.95 -42.82 53.28)" id="freepik--clip-path-11--inject-2" cx="0" cy="0" r="92.19" />
</clipPath>
<polygon style="stroke: none; stroke-width: 1; stroke-dasharray: none; stroke-linecap: butt; stroke-dashoffset: 0; stroke-linejoin: miter; stroke-miterlimit: 4; fill: rgb(143,143,143); fill-rule: nonzero; opacity: 1;"  points="5.6,-0.93 -2.52,-3.16 -4.58,-5.4 -6.15,-4.38 -3.71,-0.44 -1.19,4.83 2.3,5.4 2.75,4.41 0.11,1.63 6.14,2.53 5.6,-0.93 " />
</g>
		<g transform="matrix(1 0 0 1 50.63 -19.47)" id="freepik--Character--inject-2" clip-path="url(#CLIPPATH_98)"  >
<clipPath id="CLIPPATH_98" >
	<circle transform="matrix(0.95 -0.32 0.32 0.95 -10.11 -38.72)" id="freepik--clip-path-11--inject-2" cx="0" cy="0" r="92.19" />
</clipPath>
<polygon style="stroke: none; stroke-width: 1; stroke-dasharray: none; stroke-linecap: butt; stroke-dashoffset: 0; stroke-linejoin: miter; stroke-miterlimit: 4; fill: rgb(143,143,143); fill-rule: nonzero; opacity: 1;"  points="-6.94,-1.98 -7.6,-0.94 -0.76,-0.44 2.46,1.98 6.62,1.51 7.6,-1.17 2.49,-0.93 -6.94,-1.98 " />
</g>
		<g transform="matrix(1 0 0 1 63.03 -19.69)" id="freepik--Character--inject-2" clip-path="url(#CLIPPATH_99)"  >
<clipPath id="CLIPPATH_99" >
	<circle transform="matrix(0.95 -0.32 0.32 0.95 -22.52 -38.5)" id="freepik--clip-path-11--inject-2" cx="0" cy="0" r="92.19" />
</clipPath>
<polygon style="stroke: none; stroke-width: 1; stroke-dasharray: none; stroke-linecap: butt; stroke-dashoffset: 0; stroke-linejoin: miter; stroke-miterlimit: 4; fill: rgb(143,143,143); fill-rule: nonzero; opacity: 1;"  points="0.57,-1.92 -3.63,0.35 -2.61,1.92 2.95,0.69 3.63,-1.26 1.76,-0.62 0.57,-1.92 " />
</g>
		<g transform="matrix(1 0 0 1 36.36 -92.17)" id="freepik--Character--inject-2" clip-path="url(#CLIPPATH_100)"  >
<clipPath id="CLIPPATH_100" >
	<circle transform="matrix(0.95 -0.32 0.32 0.95 4.16 33.98)" id="freepik--clip-path-11--inject-2" cx="0" cy="0" r="92.19" />
</clipPath>
<polygon style="stroke: rgb(38,50,56); stroke-width: 1; stroke-dasharray: none; stroke-linecap: butt; stroke-dashoffset: 0; stroke-linejoin: miter; stroke-miterlimit: 10; fill: none; fill-rule: nonzero; opacity: 1;"  points="-8.34,-6.93 1.06,-4.98 4.26,-1.66 8.44,-1.02 9.76,2.95 8.79,5.63 5.94,6.93 -1.04,5.79 -1.23,4.94 2.07,2.64 -0.19,-1.57 -6.44,-2.42 -9.77,-5.27 -8.34,-6.93 " />
</g>
		<g transform="matrix(1 0 0 1 47.9 -39.46)" id="freepik--Character--inject-2" clip-path="url(#CLIPPATH_101)"  >
<clipPath id="CLIPPATH_101" >
	<circle transform="matrix(0.95 -0.32 0.32 0.95 -7.39 -18.73)" id="freepik--clip-path-11--inject-2" cx="0" cy="0" r="92.19" />
</clipPath>
<path style="stroke: rgb(38,50,56); stroke-width: 1; stroke-dasharray: none; stroke-linecap: butt; stroke-dashoffset: 0; stroke-linejoin: miter; stroke-miterlimit: 10; fill: none; fill-rule: nonzero; opacity: 1;"  transform=" translate(-297.9, -210.54)" d="M 353.75 237.62 l -7.45 -1.25 l -9 -1.14 l -6.62 1.47 l -6.48 0.09 l -6.5 3 l -3.8 1.07 l -2.35 0.52 L 307.64 245 l -3.89 2.66 l -6.57 -2.35 l 0.17 -6.31 l -4 -0.69 l -4.27 1 L 288 237.43 l -0.42 -3.94 l -2 -1.81 l -2.9 1.09 l -0.38 2.33 l -3.58 1 L 274.73 233 l -2.42 -4.85 l 1.88 -6.69 l 6.29 -0.95 l 2 1.12 l 2.56 -0.57 l 2.78 -2.63 l 3 0.23 l 5.32 5.77 l 1.45 -0.54 l -1.52 -4.82 l -1.85 -2.28 l -0.48 -4.15 l 7.15 -5.18 l -0.69 -8.13 l 2.8 -3.54 l 1.69 -5.53 l 2 -0.9 l 4.2 -4.3 l -0.17 -1.75 l -3.37 1 l -1 -1.57 l -2.35 0.53 l -3.44 1.66 l 1.09 -3.16 l 7 -3.8 l 1.29 -2.3 l 4 4 l 2.35 1.49 l 2.8 -1.52 l -1.9 -2.49 L 312 175 l -6.4 -4.63 l -6.15 -2.45 l -5.31 0.29 l -3.14 -2 l -3.6 -0.09 l -0.24 1 l 0.95 6.28 l 1.33 1.95 l -0.41 7.26 L 284 180 l 0 -3.13 l -5 -1.14 l -2.45 -1.92 l -0.11 -5.58 l 5.19 -5.86 l -0.71 -5.22 l -2.3 0.74 l -1.92 -1.59 l -1.35 -3.07 l -1.55 0.12 l -0.09 3.61 l -2.26 0.95 l -2.72 -7.24 l -2 -0.69 l -3.27 -0.62 l -3 2.47 L 265.7 155 l 1.66 3.44 l -9 -4.06 l -6.62 -4.58 l -1.71 -5.67 l -5.93 -0.48 l -3.65 3.73 a 33.93 33.93 0 0 1 -2.83 2.42 a 36.92 36.92 0 0 1 -4.94 2 l 0 3.82 l -4.87 1.31 l 0.95 2.25 l 8.19 -0.47 l 5.05 3.58 l 1.66 7.48 l -0.88 7.14 l 2 7 l -3.66 11.8 l 2.18 15.87 l 3.91 8.55 l 4.3 6.22 l 3.3 -0.29 L 253 222.8 l -2.28 -2.18 l -2.11 -4.46 l 1.83 -0.86 l 4.7 7 l 3.65 6.36 l 1.23 5.55 l 5.15 4 l 8.45 3.73 l 11.77 0.52 l 4.13 2.45 l 3.32 2.85 l 4.37 1.49 l 5 0.24 l 4.65 -1.26 s 0.26 2.19 0.5 3.25 s -1.95 5.37 -1.95 5.37 l -1.4 4.79 l 2.76 4.32 l 5.12 0.88 l 8.14 5.36 l 3.27 0.62 l 0.72 3.2 l 0.7 1.41 a 91.78 91.78 0 0 0 40.11 -31 l -0.23 -1.58 L 368 233.12 l -3.2 -1.31 Z" stroke-linecap="round" />
</g>
		<g transform="matrix(1 0 0 1 45.45 -122.53)" id="freepik--Character--inject-2" clip-path="url(#CLIPPATH_102)"  >
<clipPath id="CLIPPATH_102" >
	<circle transform="matrix(0.95 -0.32 0.32 0.95 -4.94 64.34)" id="freepik--clip-path-11--inject-2" cx="0" cy="0" r="92.19" />
</clipPath>
<path style="stroke: rgb(38,50,56); stroke-width: 1; stroke-dasharray: none; stroke-linecap: butt; stroke-dashoffset: 0; stroke-linejoin: miter; stroke-miterlimit: 10; fill: none; fill-rule: nonzero; opacity: 1;"  transform=" translate(-295.45, -127.47)" d="M 357.23 148.33 L 354 144.79 l -4 -4 l -2.28 -6.21 l 4 -0.22 l -0.26 -2.18 l -2.83 0.4 l 2.11 -1.59 l 2.24 -2.06 l -0.48 -2.14 l -3.32 -2.84 l -1.57 -4.48 a 92.25 92.25 0 0 0 -111.3 -2.14 l 5.7 2.4 l -2.14 4.51 L 236 126 l 0.85 5.87 l -1.57 1 l -1.61 2.82 l 1.07 3.8 l 3.72 -0.38 l -0.69 4 l 3.63 -0.81 l 4.44 -9.27 l -0.11 -3.56 l 5.88 -1.76 l 0.93 -2.89 l 6.05 -2 l -0.17 -3.77 l 4.44 -1.21 a 23.13 23.13 0 0 1 3.47 -2.57 a 26.71 26.71 0 0 1 3.86 0.27 l 3.78 1.85 l 4.48 -1 l 3.32 -3.2 l 5 -0.67 a 5.46 5.46 0 0 0 2.54 0.34 c 1.07 -0.24 3.94 -2.45 3.94 -2.45 l 7.05 2.47 l 3 1.36 l 0.71 3.2 l 3.3 -0.29 l 0.64 -2.15 l 3.06 0.66 l 0.17 1.76 l -6 3.13 l 4.67 3.89 l 8.64 2.56 l 4.15 3.56 l 4.8 -0.61 l 0.59 -2.37 l 1.61 -0.81 l -6.5 -3 l -3.51 0.33 l 2.59 -1.47 l -3.37 -3.06 l 3.58 -1 l 5.27 1.52 l 2.21 4.89 l 3 2.25 l 3.3 5.77 l 5.46 2.37 l 1.56 7.05 l 5.63 2.12 l 0.3 2.39 l 0 2.92 l 2.14 3.56 l 0.85 1.83 l 3.77 -0.17 l 0.91 -4 Z" stroke-linecap="round" />
</g>
		<g transform="matrix(1 0 0 1 118.72 -92.63)" id="freepik--Character--inject-2" clip-path="url(#CLIPPATH_103)"  >
<clipPath id="CLIPPATH_103" >
	<circle transform="matrix(0.95 -0.32 0.32 0.95 -78.21 34.44)" id="freepik--clip-path-11--inject-2" cx="0" cy="0" r="92.19" />
</clipPath>
<path style="stroke: rgb(38,50,56); stroke-width: 1; stroke-dasharray: none; stroke-linecap: butt; stroke-dashoffset: 0; stroke-linejoin: miter; stroke-miterlimit: 10; fill: none; fill-rule: nonzero; opacity: 1;"  transform=" translate(-368.72, -157.37)" d="M 355.23 126.19 l 0.27 1.23 l -0.31 3.65 l 1.31 2.85 l 2.54 0.33 l 0.9 4.06 l -2.8 -0.5 l 1.92 11.68 l -1.52 5.27 l 3 5.6 l 3.34 1.94 l 2.56 11.54 l 4.77 8.35 l 4.51 6.17 l 5.2 0.19 l 0.76 -4.65 l 0.57 -0.7 a 93.36 93.36 0 0 0 -1.79 -11.34 A 91.78 91.78 0 0 0 355.23 126.19 Z" stroke-linecap="round" />
</g>
		<g transform="matrix(1 0 0 1 44.59 -102.86)" id="freepik--Character--inject-2" clip-path="url(#CLIPPATH_104)"  >
<clipPath id="CLIPPATH_104" >
	<circle transform="matrix(0.95 -0.32 0.32 0.95 -4.08 44.66)" id="freepik--clip-path-11--inject-2" cx="0" cy="0" r="92.19" />
</clipPath>
<polygon style="stroke: rgb(38,50,56); stroke-width: 1; stroke-dasharray: none; stroke-linecap: butt; stroke-dashoffset: 0; stroke-linejoin: miter; stroke-miterlimit: 10; fill: none; fill-rule: nonzero; opacity: 1;"  points="11,-11.33 -4.48,-14.39 -10.62,-12.8 -11.22,-8.41 -14.4,-10.62 -18.86,-8.51 -17.72,-1.36 -13.26,0.56 -11.38,-4.12 -7.47,-1.63 0.43,2.67 3.09,8.58 10.21,14.4 18.85,10.91 17.92,7.75 15.19,4.55 12.88,-3.9 14.2,-8.01 11,-11.33 " />
</g>
		<g transform="matrix(1 0 0 1 65.34 -107.78)" id="freepik--Character--inject-2" clip-path="url(#CLIPPATH_105)"  >
<clipPath id="CLIPPATH_105" >
	<circle transform="matrix(0.95 -0.32 0.32 0.95 -24.83 49.59)" id="freepik--clip-path-11--inject-2" cx="0" cy="0" r="92.19" />
</clipPath>
<polygon style="stroke: rgb(38,50,56); stroke-width: 1; stroke-dasharray: none; stroke-linecap: butt; stroke-dashoffset: 0; stroke-linejoin: miter; stroke-miterlimit: 10; fill: none; fill-rule: nonzero; opacity: 1;"  points="2.82,-4.27 -0.57,-4.41 -2.83,-1.45 0.04,4.41 2.82,3.8 2.82,-4.27 " />
</g>
		<g transform="matrix(1 0 0 1 83.34 -111.47)" id="freepik--Character--inject-2" clip-path="url(#CLIPPATH_106)"  >
<clipPath id="CLIPPATH_106" >
	<circle transform="matrix(0.95 -0.32 0.32 0.95 -42.82 53.28)" id="freepik--clip-path-11--inject-2" cx="0" cy="0" r="92.19" />
</clipPath>
<polygon style="stroke: rgb(38,50,56); stroke-width: 1; stroke-dasharray: none; stroke-linecap: butt; stroke-dashoffset: 0; stroke-linejoin: miter; stroke-miterlimit: 10; fill: none; fill-rule: nonzero; opacity: 1;"  points="5.6,-0.93 -2.52,-3.16 -4.58,-5.4 -6.15,-4.38 -3.71,-0.44 -1.19,4.83 2.3,5.4 2.75,4.41 0.11,1.63 6.14,2.53 5.6,-0.93 " />
</g>
		<g transform="matrix(1 0 0 1 50.63 -19.47)" id="freepik--Character--inject-2" clip-path="url(#CLIPPATH_107)"  >
<clipPath id="CLIPPATH_107" >
	<circle transform="matrix(0.95 -0.32 0.32 0.95 -10.11 -38.72)" id="freepik--clip-path-11--inject-2" cx="0" cy="0" r="92.19" />
</clipPath>
<polygon style="stroke: rgb(38,50,56); stroke-width: 1; stroke-dasharray: none; stroke-linecap: butt; stroke-dashoffset: 0; stroke-linejoin: miter; stroke-miterlimit: 10; fill: none; fill-rule: nonzero; opacity: 1;"  points="-6.94,-1.98 -7.6,-0.94 -0.76,-0.44 2.46,1.98 6.62,1.51 7.6,-1.17 2.49,-0.93 -6.94,-1.98 " />
</g>
		<g transform="matrix(1 0 0 1 63.03 -19.69)" id="freepik--Character--inject-2" clip-path="url(#CLIPPATH_108)"  >
<clipPath id="CLIPPATH_108" >
	<circle transform="matrix(0.95 -0.32 0.32 0.95 -22.52 -38.5)" id="freepik--clip-path-11--inject-2" cx="0" cy="0" r="92.19" />
</clipPath>
<polygon style="stroke: rgb(38,50,56); stroke-width: 1; stroke-dasharray: none; stroke-linecap: butt; stroke-dashoffset: 0; stroke-linejoin: miter; stroke-miterlimit: 10; fill: none; fill-rule: nonzero; opacity: 1;"  points="0.57,-1.92 -3.63,0.35 -2.61,1.92 2.95,0.69 3.63,-1.26 1.76,-0.62 0.57,-1.92 " />
</g>
		<g transform="matrix(1 0 0 1 46.13 -56.74)" id="freepik--Character--inject-2" clip-path="url(#CLIPPATH_109)"  >
<clipPath id="CLIPPATH_109" >
	<circle transform="matrix(0.95 -0.32 0.32 0.95 -5.62 -1.45)" id="freepik--clip-path-11--inject-2" cx="0" cy="0" r="92.19" />
</clipPath>
<path style="stroke: rgb(38,50,56); stroke-width: 1; stroke-dasharray: none; stroke-linecap: round; stroke-dashoffset: 0; stroke-linejoin: round; stroke-miterlimit: 4; fill: rgb(0,0,0); fill-rule: nonzero; opacity: 0.2;"  transform=" translate(-296.13, -193.26)" d="M 318.86 102.54 a 92.9 92.9 0 0 1 -110.4 131.22 a 92.86 92.86 0 1 0 110.4 -131.22 Z" stroke-linecap="round" />
</g>
		<g transform="matrix(0.95 -0.32 0.32 0.95 40.51 -58.19)" id="freepik--Character--inject-2"  >
<circle style="stroke: rgb(38,50,56); stroke-width: 1; stroke-dasharray: none; stroke-linecap: butt; stroke-dashoffset: 0; stroke-linejoin: miter; stroke-miterlimit: 10; fill: none; fill-rule: nonzero; opacity: 1;"  cx="0" cy="0" r="92.19" />
</g>
		<g transform="matrix(0.95 -0.32 0.32 0.95 40.51 -58.19)" id="freepik--Character--inject-2"  >
<circle style="stroke: rgb(38,50,56); stroke-width: 1; stroke-dasharray: none; stroke-linecap: butt; stroke-dashoffset: 0; stroke-linejoin: miter; stroke-miterlimit: 10; fill: none; fill-rule: nonzero; opacity: 0.18;"  cx="0" cy="0" r="92.19" />
</g>
		<g transform="matrix(1 0 0 1 -29.93 -42.87)" id="freepik--Character--inject-2"  >
<path style="stroke: none; stroke-width: 1; stroke-dasharray: none; stroke-linecap: butt; stroke-dashoffset: 0; stroke-linejoin: miter; stroke-miterlimit: 4; fill: rgb(255,255,255); fill-rule: nonzero; opacity: 1;"  transform=" translate(-220.07, -207.13)" d="M 198.55 220.54 s -11.55 -0.21 -17.87 4 s -4.94 7.48 -3.11 10.91 s 6.85 4 15.74 1.83 s 19.94 -8.05 26.87 -12.36 s 29.21 -28.64 29.21 -28.64 l 5.69 -3.18 s 6.49 -1.44 8 -2.21 s -0.57 -1.58 -1.79 -1.31 s -5.14 0.62 -5.14 0.62 s 7.15 -3.32 7.69 -4.72 s 0.36 -2.21 -1.29 -1 s -7.32 2.91 -7.32 2.91 s 8.66 -6.26 8.84 -7.37 s -0.41 -1.83 -1.65 -0.7 s -9.19 5.6 -9.19 5.6 l 5.69 -7.58 s 0.18 -2.27 -2 -0.24 a 56.12 56.12 0 0 1 -5.42 4.86 a 35.37 35.37 0 0 1 -4.09 1.76 a 5.11 5.11 0 0 1 0.54 -3.32 c 0.81 -1.24 2.53 -2 0.93 -4.46 c -0.45 -0.7 -1 0.22 -1.35 1.57 s -4.13 5.4 -4.15 6.25 a 60.78 60.78 0 0 0 1.64 6.45 S 231 203.54 224.17 209.31 s -8.91 6.88 -8.91 6.88 Z" stroke-linecap="round" />
</g>
		<g transform="matrix(1 0 0 1 -37.41 -31.85)" id="freepik--Character--inject-2" clip-path="url(#CLIPPATH_110)"  >
<clipPath id="CLIPPATH_110" >
	<path transform="matrix(1 0 0 1 7.48 -11.02) translate(-220.07, -207.13)" id="freepik--clip-path-12--inject-2" d="M 198.55 220.54 s -11.55 -0.21 -17.87 4 s -4.94 7.48 -3.11 10.91 s 6.85 4 15.74 1.83 s 19.94 -8.05 26.87 -12.36 s 29.21 -28.64 29.21 -28.64 l 5.69 -3.18 s 6.49 -1.44 8 -2.21 s -0.57 -1.58 -1.79 -1.31 s -5.14 0.62 -5.14 0.62 s 7.15 -3.32 7.69 -4.72 s 0.36 -2.21 -1.29 -1 s -7.32 2.91 -7.32 2.91 s 8.66 -6.26 8.84 -7.37 s -0.41 -1.83 -1.65 -0.7 s -9.19 5.6 -9.19 5.6 l 5.69 -7.58 s 0.18 -2.27 -2 -0.24 a 56.12 56.12 0 0 1 -5.42 4.86 a 35.37 35.37 0 0 1 -4.09 1.76 a 5.11 5.11 0 0 1 0.54 -3.32 c 0.81 -1.24 2.53 -2 0.93 -4.46 c -0.45 -0.7 -1 0.22 -1.35 1.57 s -4.13 5.4 -4.15 6.25 a 60.78 60.78 0 0 0 1.64 6.45 S 231 203.54 224.17 209.31 s -8.91 6.88 -8.91 6.88 Z" stroke-linecap="round" />
</clipPath>
<path style="stroke: none; stroke-width: 1; stroke-dasharray: none; stroke-linecap: butt; stroke-dashoffset: 0; stroke-linejoin: miter; stroke-miterlimit: 4; fill: rgb(38,50,56); fill-rule: nonzero; opacity: 0.30000000000000004;"  transform=" translate(-212.59, -218.15)" d="M 193.31 237.25 c 8.89 -2.18 19.94 -8.05 26.87 -12.36 c 5.74 -3.57 22 -20.88 27.43 -26.71 l -0.1 -0.42 s -18.71 17.91 -26.67 23.08 s -25.47 12.34 -31.44 13.94 a 31.88 31.88 0 0 1 -11.83 0.64 C 179.39 238.85 184.42 239.44 193.31 237.25 Z" stroke-linecap="round" />
</g>
		<g transform="matrix(1 0 0 1 -29.93 -42.87)" id="freepik--Character--inject-2"  >
<path style="stroke: rgb(38,50,56); stroke-width: 1; stroke-dasharray: none; stroke-linecap: round; stroke-dashoffset: 0; stroke-linejoin: round; stroke-miterlimit: 4; fill: none; fill-rule: nonzero; opacity: 1;"  transform=" translate(-220.07, -207.13)" d="M 198.55 220.54 s -11.55 -0.21 -17.87 4 s -4.94 7.48 -3.11 10.91 s 6.85 4 15.74 1.83 s 19.94 -8.05 26.87 -12.36 s 29.21 -28.64 29.21 -28.64 l 5.69 -3.18 s 6.49 -1.44 8 -2.21 s -0.57 -1.58 -1.79 -1.31 s -5.14 0.62 -5.14 0.62 s 7.15 -3.32 7.69 -4.72 s 0.36 -2.21 -1.29 -1 s -7.32 2.91 -7.32 2.91 s 8.66 -6.26 8.84 -7.37 s -0.41 -1.83 -1.65 -0.7 s -9.19 5.6 -9.19 5.6 l 5.69 -7.58 s 0.18 -2.27 -2 -0.24 a 56.12 56.12 0 0 1 -5.42 4.86 a 35.37 35.37 0 0 1 -4.09 1.76 a 5.11 5.11 0 0 1 0.54 -3.32 c 0.81 -1.24 2.53 -2 0.93 -4.46 c -0.45 -0.7 -1 0.22 -1.35 1.57 s -4.13 5.4 -4.15 6.25 a 60.78 60.78 0 0 0 1.64 6.45 S 231 203.54 224.17 209.31 s -8.91 6.88 -8.91 6.88 Z" stroke-linecap="round" />
</g>
		<g transform="matrix(1 0 0 1 -50.17 169.26)" id="freepik--Character--inject-2"  >
<path style="stroke: rgb(38,50,56); stroke-width: 1; stroke-dasharray: none; stroke-linecap: round; stroke-dashoffset: 0; stroke-linejoin: round; stroke-miterlimit: 4; fill: rgb(178,178,178); fill-rule: nonzero; opacity: 1;"  transform=" translate(-199.83, -419.26)" d="M 203 410.9 l -5.15 2.64 l -4.69 -5.76 c -1.24 3.32 -4.22 7 -4.14 8.33 c 0.1 1.68 8.7 7.05 11.81 10.38 s 9.23 5.41 9.77 3.57 s -4.95 -7 -5.88 -11.86 C 204.35 416.41 203.69 413.8 203 410.9 Z" stroke-linecap="round" />
</g>
</g>
</g>
</svg>