<?xml version="1.0" encoding="UTF-8" standalone="no" ?>
<!DOCTYPE svg PUBLIC "-//W3C//DTD SVG 1.1//EN" "http://www.w3.org/Graphics/SVG/1.1/DTD/svg11.dtd">
<svg xmlns="http://www.w3.org/2000/svg" xmlns:xlink="http://www.w3.org/1999/xlink" version="1.1" width="640" height="480" viewBox="0 0 640 480" xml:space="preserve">
<desc>Created with Fabric.js 3.6.6</desc>
<defs>
</defs>
<g transform="matrix(1 0 0 1 320.12 240.12)"  >
<g style=""   >
		<g transform="matrix(5.72 0 0 5.72 -6.87 -0.88)"  >
<circle style="stroke: rgb(23,148,172); stroke-width: 3; stroke-dasharray: none; stroke-linecap: butt; stroke-dashoffset: 0; stroke-linejoin: miter; stroke-miterlimit: 4; fill: rgb(255,255,0); fill-opacity: 0; fill-rule: nonzero; opacity: 1;" vector-effect="non-scaling-stroke"  cx="0" cy="0" r="40" />
</g>
		<g transform="matrix(5.72 0 0 5.72 6.82 0.82)"  >
<circle style="stroke: rgb(161,212,226); stroke-width: 3; stroke-dasharray: none; stroke-linecap: butt; stroke-dashoffset: 0; stroke-linejoin: miter; stroke-miterlimit: 4; fill: rgb(255,255,0); fill-opacity: 0; fill-rule: nonzero; opacity: 1;" vector-effect="non-scaling-stroke"  cx="0" cy="0" r="40" />
</g>
</g>
</g>
<g transform="matrix(0.75 0 0 0.75 316.97 224.16)"  >
<g style=""   >
		<g transform="matrix(1 0 0 1 2.03 18.53)" id="freepik--background-simple--inject-5"  >
<path style="stroke: none; stroke-width: 1; stroke-dasharray: none; stroke-linecap: butt; stroke-dashoffset: 0; stroke-linejoin: miter; stroke-miterlimit: 4; fill: rgb(23,148,172); fill-rule: nonzero; opacity: 1;"  transform=" translate(-252.03, -268.53)" d="M 430.73 186.5 a 142.17 142.17 0 0 0 -10.32 -24.88 c -21.76 -40.44 -59.92 -70.95 -101.66 -89 c -33.14 -14.31 -74.12 -21.79 -109.28 -8.9 c -17.78 6.52 -34.52 19 -44.05 35.65 C 153 121.11 154.17 148 144.31 170.85 c -8 18.49 -27.88 29.6 -43.46 41 c -24.31 17.72 -48.26 38.67 -56.69 68.64 C 32.92 320.44 36.25 368 59 403.53 c 17 26.51 46.1 34.47 76.13 35 c 28.34 0.51 63 -6.65 89.45 6.28 c 45.06 22 104.52 46.7 154.94 29.29 c 52 -17.95 77.47 -52.91 85 -98.26 s -13.22 -83.13 -19.84 -119 C 440.56 234.15 437.83 209.1 430.73 186.5 Z" stroke-linecap="round" />
</g>
		<g transform="matrix(1 0 0 1 2.03 18.53)" id="freepik--background-simple--inject-5"  >
<path style="stroke: none; stroke-width: 1; stroke-dasharray: none; stroke-linecap: butt; stroke-dashoffset: 0; stroke-linejoin: miter; stroke-miterlimit: 4; fill: rgb(255,255,255); fill-rule: nonzero; opacity: 0.8;"  transform=" translate(-252.03, -268.53)" d="M 430.73 186.5 a 142.17 142.17 0 0 0 -10.32 -24.88 c -21.76 -40.44 -59.92 -70.95 -101.66 -89 c -33.14 -14.31 -74.12 -21.79 -109.28 -8.9 c -17.78 6.52 -34.52 19 -44.05 35.65 C 153 121.11 154.17 148 144.31 170.85 c -8 18.49 -27.88 29.6 -43.46 41 c -24.31 17.72 -48.26 38.67 -56.69 68.64 C 32.92 320.44 36.25 368 59 403.53 c 17 26.51 46.1 34.47 76.13 35 c 28.34 0.51 63 -6.65 89.45 6.28 c 45.06 22 104.52 46.7 154.94 29.29 c 52 -17.95 77.47 -52.91 85 -98.26 s -13.22 -83.13 -19.84 -119 C 440.56 234.15 437.83 209.1 430.73 186.5 Z" stroke-linecap="round" />
</g>
		<g transform="matrix(1 0 0 1 -196.16 59.43)" id="freepik--Plants--inject-5"  >
<path style="stroke: none; stroke-width: 1; stroke-dasharray: none; stroke-linecap: butt; stroke-dashoffset: 0; stroke-linejoin: miter; stroke-miterlimit: 4; fill: rgb(186,186,186); fill-rule: nonzero; opacity: 1;"  transform=" translate(-53.84, -309.43)" d="M 51.61 322.66 c -0.26 -2.89 -0.32 -5.55 -0.35 -7.91 c 0 -1.34 0 -2.55 0 -3.68 c 1 -0.85 5.17 -4.3 6.32 -6.63 s 1.93 -5.5 0.71 -7.94 a 4.58 4.58 0 0 0 -6.45 -2.09 c -3.23 2 -3.5 8.91 -2.63 12.24 c 0.07 0.29 1.76 4.65 1.81 4.61 l 0.07 -0.05 c -0.05 1.09 -0.1 2.26 -0.12 3.53 c 0 2.36 0 5 0.18 7.94 c 0 0.48 0.07 1 0.11 1.49 c 0.36 0.54 0.56 0.89 0.56 0.89 C 51.78 324.25 51.68 323.43 51.61 322.66 Z" stroke-linecap="round" />
</g>
		<g transform="matrix(1 0 0 1 -205.5 70.18)" id="freepik--Plants--inject-5"  >
<path style="stroke: none; stroke-width: 1; stroke-dasharray: none; stroke-linecap: butt; stroke-dashoffset: 0; stroke-linejoin: miter; stroke-miterlimit: 4; fill: rgb(186,186,186); fill-rule: nonzero; opacity: 1;"  transform=" translate(-44.5, -320.18)" d="M 41.22 315.33 c -4.34 0.71 -4.9 4.78 -0.85 7.38 c 3.43 2.2 9.29 2.35 11 2.35 c 0 -0.3 0 -0.6 -0.07 -0.89 C 49.66 321.66 44.78 314.74 41.22 315.33 Z" stroke-linecap="round" />
</g>
		<g transform="matrix(1 0 0 1 -140.19 88.98)" id="freepik--Plants--inject-5"  >
<path style="stroke: none; stroke-width: 1; stroke-dasharray: none; stroke-linecap: butt; stroke-dashoffset: 0; stroke-linejoin: miter; stroke-miterlimit: 4; fill: rgb(186,186,186); fill-rule: nonzero; opacity: 1;"  transform=" translate(-109.81, -338.98)" d="M 127.57 296.23 c -3.83 -0.12 -7.87 5.42 -9 8.64 c -0.1 0.28 -1.08 4.82 -1 4.81 h 0.08 c -0.65 0.87 -1.33 1.81 -2 2.86 c -1.32 1.94 -2.79 4.14 -4.22 6.64 l -0.5 0.87 c -0.07 0.7 -0.13 1.12 -0.13 1.12 l -0.34 -0.28 a 72.69 72.69 0 0 0 -3.29 6.61 a 58.43 58.43 0 0 0 -3.38 9.9 s 0 0.08 0 0.12 c -0.08 -1.12 -0.42 -4.25 -0.47 -4.48 c -0.75 -3.36 -4.15 -9.43 -8 -9.84 a 4.46 4.46 0 0 0 -4.83 4.64 c 0 2.71 2.22 5.26 4.27 6.81 c 2.32 1.76 8.43 3.17 8.91 3.28 a 81 81 0 0 0 -1.56 10.57 c -0.18 2.07 -0.29 4.16 -0.38 6.27 c -0.11 -1 -0.2 -1.84 -0.23 -2 c -0.75 -3.35 -4.15 -9.42 -8 -9.83 a 4.45 4.45 0 0 0 -4.82 4.64 c 0 2.71 2.22 5.25 4.27 6.81 s 7.27 2.89 8.65 3.21 c 0 0.81 -0.06 1.61 -0.08 2.42 c -0.11 3.87 -0.21 7.73 -0.41 11.52 c -0.07 1.33 -0.19 2.64 -0.31 3.95 c -0.09 -0.86 -0.17 -1.58 -0.2 -1.69 c -0.74 -3.35 -4.15 -9.42 -8 -9.83 a 4.44 4.44 0 0 0 -4.82 4.64 c 0 2.71 2.21 5.25 4.26 6.81 s 6.77 2.75 8.4 3.15 c -0.11 0.92 -0.22 1.84 -0.35 2.74 c 0.58 0.17 1.17 0.31 1.78 0.43 c 0.22 -1.74 0.39 -3.51 0.53 -5.3 c 1.42 0.4 6.5 1.75 9 1.38 s 5.62 -1.54 6.89 -3.92 a 4.59 4.59 0 0 0 -2.11 -6.44 c -3.56 -1.5 -9.34 2.19 -11.54 4.78 c -0.13 0.16 -1.5 2.2 -2.23 3.33 c 0.09 -1.31 0.18 -2.61 0.22 -3.93 c 0.13 -3.83 0.14 -7.71 0.16 -11.57 c 0 -1.19 0 -2.37 0 -3.55 c 0.51 0.15 6.51 1.88 9.35 1.46 c 2.53 -0.37 5.62 -1.54 6.89 -3.91 a 4.58 4.58 0 0 0 -2.12 -6.44 c -3.55 -1.5 -9.33 2.18 -11.53 4.77 c -0.16 0.2 -2.12 3.13 -2.58 3.9 c 0 -2.6 0.1 -5.19 0.26 -7.74 a 80.33 80.33 0 0 1 1.28 -10.26 c 0.24 0.07 6.5 1.9 9.4 1.48 c 2.53 -0.37 5.63 -1.55 6.89 -3.92 a 4.59 4.59 0 0 0 -2.11 -6.44 c -3.55 -1.5 -9.34 2.19 -11.54 4.78 c -0.17 0.2 -2.27 3.36 -2.62 4 c 0 -0.2 0.06 -0.41 0.1 -0.6 a 57.63 57.63 0 0 1 3.13 -9.85 c 0.71 -1.77 1.49 -3.41 2.29 -5 c 1.13 0.46 6.33 2.51 9 2.42 s 5.77 -0.91 7.29 -3.13 a 4.56 4.56 0 0 0 -1.4 -6.62 c -3.37 -1.88 -9.54 1.14 -12 3.47 c -0.13 0.12 -1.35 1.57 -2.23 2.63 c 0.37 -0.71 0.74 -1.45 1.11 -2.12 c 1.38 -2.53 2.8 -4.76 4.07 -6.72 c 0.73 -1.11 1.42 -2.1 2.07 -3 c 1.33 -0.12 6.72 -0.69 9 -2 s 4.65 -3.47 5 -6.15 A 4.62 4.62 0 0 0 127.57 296.23 Z" stroke-linecap="round" />
</g>
		<g transform="matrix(1 0 0 1 -187.47 96.42)" id="freepik--Plants--inject-5"  >
<path style="stroke: none; stroke-width: 1; stroke-dasharray: none; stroke-linecap: butt; stroke-dashoffset: 0; stroke-linejoin: miter; stroke-miterlimit: 4; fill: rgb(186,186,186); fill-rule: nonzero; opacity: 1;"  transform=" translate(-62.53, -346.42)" d="M 75 378.79 c 0.26 0.51 0.51 1 0.76 1.54 l 1.71 -0.56 c -0.65 -1.29 -1.32 -2.58 -2 -3.85 c 1.39 -0.45 6.33 -2.12 8.21 -3.83 s 3.79 -4.41 3.53 -7.1 a 4.63 4.63 0 0 0 -5.3 -4.27 c -3.76 0.7 -6.5 7 -6.88 10.39 c 0 0.22 0 2.69 0 4 c -0.66 -1.14 -1.3 -2.29 -2 -3.43 c -2 -3.3 -4.14 -6.57 -6.26 -9.84 l -1.92 -3 c 0.5 -0.15 6.41 -2 8.52 -3.93 c 1.88 -1.7 3.79 -4.4 3.53 -7.09 a 4.62 4.62 0 0 0 -5.3 -4.27 c -3.76 0.7 -6.5 7 -6.88 10.39 c 0 0.26 0 3.81 0 4.72 c -1.41 -2.22 -2.79 -4.44 -4.06 -6.68 a 82.44 82.44 0 0 1 -4.6 -9.35 c 0.23 -0.07 6.41 -2 8.57 -3.95 c 1.88 -1.7 3.79 -4.4 3.53 -7.1 a 4.62 4.62 0 0 0 -5.3 -4.26 c -3.76 0.7 -6.5 7 -6.88 10.39 c 0 0.27 0 4.09 0 4.79 c -0.07 -0.19 -0.17 -0.38 -0.24 -0.56 a 59.66 59.66 0 0 1 -2.86 -10 c -0.39 -1.88 -0.65 -3.7 -0.87 -5.48 c 1.19 -0.23 6.61 -1.38 8.76 -2.92 s 4.25 -4 4.29 -6.66 a 4.63 4.63 0 0 0 -4.81 -4.82 c -3.82 0.28 -7.24 6.23 -8 9.56 c 0 0.18 -0.26 2.07 -0.4 3.45 h -0.49 c 0.19 2.22 0.46 4.56 0.9 7 a 59.15 59.15 0 0 0 2.67 10.22 a 0.37 0.37 0 0 0 0.05 0.11 c -0.69 -0.9 -2.69 -3.35 -2.86 -3.52 c -2.47 -2.41 -8.62 -5.65 -12 -3.89 a 4.5 4.5 0 0 0 -1.42 6.57 c 1.52 2.27 4.73 3.21 7.28 3.38 c 2.88 0.21 8.7 -2 9.16 -2.15 a 80.9 80.9 0 0 0 4.54 9.77 c 1 1.85 2.05 3.68 3.14 5.5 c -0.62 -0.76 -1.18 -1.44 -1.27 -1.52 c -2.46 -2.42 -8.62 -5.66 -12 -3.9 a 4.5 4.5 0 0 0 -1.42 6.58 c 1.51 2.27 4.73 3.2 7.28 3.38 S 63 361 64.33 360.5 c 0.43 0.69 0.84 1.39 1.27 2.08 c 2 3.32 4.1 6.63 6 9.93 c 0.67 1.17 1.3 2.34 1.92 3.51 c -0.55 -0.68 -1 -1.24 -1.09 -1.32 c -2.47 -2.41 -8.63 -5.65 -12 -3.89 A 4.5 4.5 0 0 0 59 377.38 c 1.51 2.27 4.73 3.21 7.28 3.39 S 73.41 379.35 75 378.79 Z" stroke-linecap="round" />
</g>
		<g transform="matrix(1 0 0 1 -142.95 63.51)" id="freepik--Plants--inject-5"  >
<path style="stroke: none; stroke-width: 1; stroke-dasharray: none; stroke-linecap: butt; stroke-dashoffset: 0; stroke-linejoin: miter; stroke-miterlimit: 4; fill: rgb(186,186,186); fill-rule: nonzero; opacity: 1;"  transform=" translate(-107.05, -313.51)" d="M 108.66 306.89 c -3.81 -2.19 -6.82 0.62 -5.32 5.19 c 1.28 3.91 5.81 7.78 7.09 8.8 l 0.47 -0.84 C 111.22 317 111.77 308.67 108.66 306.89 Z" stroke-linecap="round" />
</g>
		<g transform="matrix(1 0 0 1 86.89 222.69)" id="freepik--Plants--inject-5"  >
<path style="stroke: none; stroke-width: 1; stroke-dasharray: none; stroke-linecap: butt; stroke-dashoffset: 0; stroke-linejoin: miter; stroke-miterlimit: 4; fill: rgb(186,186,186); fill-rule: nonzero; opacity: 1;"  transform=" translate(-336.89, -472.69)" d="M 339.31 465.56 c -4.22 0.11 -8.31 6.5 -9.32 10.14 c -0.05 0.19 -0.38 2.18 -0.6 3.69 q 3 0.27 6 0.42 a 15 15 0 0 0 3.9 -1.54 c 2.35 -1.53 4.9 -4.14 5.08 -7.13 A 5.09 5.09 0 0 0 339.31 465.56 Z" stroke-linecap="round" />
</g>
		<g transform="matrix(1 0 0 1 55.35 165.19)" id="freepik--Plants--inject-5"  >
<path style="stroke: none; stroke-width: 1; stroke-dasharray: none; stroke-linecap: butt; stroke-dashoffset: 0; stroke-linejoin: miter; stroke-miterlimit: 4; fill: rgb(186,186,186); fill-rule: nonzero; opacity: 1;"  transform=" translate(-305.35, -415.19)" d="M 302.89 409 c -4.86 0 -6.18 4.36 -2.21 7.9 c 3.35 3 9.72 4.19 11.58 4.49 l 0.09 -1 C 311 417.34 306.88 408.94 302.89 409 Z" stroke-linecap="round" />
</g>
		<g transform="matrix(1 0 0 1 126.69 191.03)" id="freepik--Plants--inject-5"  >
<path style="stroke: none; stroke-width: 1; stroke-dasharray: none; stroke-linecap: butt; stroke-dashoffset: 0; stroke-linejoin: miter; stroke-miterlimit: 4; fill: rgb(186,186,186); fill-rule: nonzero; opacity: 1;"  transform=" translate(-376.69, -441.03)" d="M 381.15 464.84 a 5.07 5.07 0 0 0 -1.18 -7.4 c -3.61 -2.25 -10.57 0.76 -13.41 3.2 c -0.22 0.18 -2.86 3.05 -3.5 3.81 c 0.49 -2.84 1 -5.65 1.64 -8.41 a 87.17 87.17 0 0 1 3.18 -11 c 0.25 0.12 6.75 3.21 10 3.26 c 2.82 0 6.4 -0.71 8.19 -3.07 a 5.07 5.07 0 0 0 -1.18 -7.4 c -3.61 -2.25 -10.57 0.76 -13.41 3.2 c -0.23 0.19 -3.07 3.27 -3.55 3.87 c 0.08 -0.21 0.13 -0.43 0.21 -0.64 a 64 64 0 0 1 5.13 -10.2 c 1.08 -1.8 2.22 -3.46 3.37 -5 c 1.15 0.7 6.47 3.84 9.39 4.2 s 6.45 0 8.49 -2.14 a 5.05 5.05 0 0 0 -0.37 -7.47 c -3.35 -2.64 -10.6 -0.41 -13.7 1.69 c -0.17 0.12 -1.75 1.48 -2.89 2.48 c 0.52 -0.71 1.06 -1.45 1.57 -2.12 c 1.95 -2.52 3.88 -4.7 5.61 -6.62 c 1 -1.08 1.91 -2 2.78 -2.93 c 1.48 0.1 7.46 0.42 10.15 -0.59 s 5.68 -3 6.49 -5.85 a 5.1 5.1 0 0 0 -3.75 -6.51 c -4.15 -0.81 -9.52 4.54 -11.29 7.86 c -0.15 0.29 -2 5.06 -1.94 5.07 h 0.09 c -0.85 0.83 -1.76 1.74 -2.73 2.75 c -1.77 1.89 -3.76 4 -5.77 6.52 l -0.69 0.86 c -0.2 0.75 -0.33 1.19 -0.33 1.19 s -0.13 -0.13 -0.33 -0.36 c -1.59 2 -3.21 4.22 -4.74 6.63 a 64.47 64.47 0 0 0 -5.41 10.22 s 0 0.09 0 0.13 c 0.11 -1.24 0.29 -4.71 0.27 -5 c -0.22 -3.79 -2.88 -11 -7 -12.12 a 4.93 4.93 0 0 0 -6.07 4.23 c -0.44 3 1.5 6.11 3.47 8.17 c 2.22 2.32 8.64 4.92 9.15 5.13 a 87.52 87.52 0 0 0 -3.55 11.26 c -0.55 2.22 -1 4.49 -1.51 6.76 c 0.06 -1.07 0.1 -2 0.09 -2.16 c -0.23 -3.79 -2.88 -11 -7 -12.12 a 4.91 4.91 0 0 0 -6.07 4.22 c -0.44 3 1.5 6.12 3.47 8.18 s 7.43 4.41 8.87 5 l -0.51 2.62 c -0.68 3.59 -1.35 7.17 -2.09 10.7 l 1.8 -0.25 c 0.62 -3.37 1.19 -6.77 1.75 -10.17 c 0.21 -1.29 0.44 -2.57 0.67 -3.86 c 0.52 0.25 6.77 3.18 9.94 3.23 C 375.78 467.94 379.36 467.2 381.15 464.84 Z" stroke-linecap="round" />
</g>
		<g transform="matrix(1 0 0 1 125.34 168.64)" id="freepik--Plants--inject-5"  >
<path style="stroke: none; stroke-width: 1; stroke-dasharray: none; stroke-linecap: butt; stroke-dashoffset: 0; stroke-linejoin: miter; stroke-miterlimit: 4; fill: rgb(186,186,186); fill-rule: nonzero; opacity: 1;"  transform=" translate(-375.34, -418.64)" d="M 377.93 411.51 c -3.78 -3.05 -7.54 -0.51 -6.71 4.73 c 0.72 4.5 5 9.5 6.2 10.84 l 0.66 -0.83 C 379 423 381 414 377.93 411.51 Z" stroke-linecap="round" />
</g>
		<g transform="matrix(1 0 0 1 68.79 154.56)" id="freepik--Plants--inject-5"  >
<path style="stroke: none; stroke-width: 1; stroke-dasharray: none; stroke-linecap: butt; stroke-dashoffset: 0; stroke-linejoin: miter; stroke-miterlimit: 4; fill: rgb(186,186,186); fill-rule: nonzero; opacity: 1;"  transform=" translate(-318.79, -404.56)" d="M 313 418.76 c 0.22 -3.19 0.62 -6.11 1 -8.68 c 0.22 -1.46 0.45 -2.78 0.68 -4 c 1.28 -0.74 6.39 -3.79 8.05 -6.13 s 3.06 -5.66 2.16 -8.53 a 5.07 5.07 0 0 0 -6.67 -3.41 c -3.88 1.63 -5.37 9.11 -5 12.89 c 0 0.33 1.11 5.38 1.18 5.35 l 0.08 -0.05 c -0.25 1.18 -0.5 2.45 -0.74 3.84 c -0.44 2.57 -0.9 5.48 -1.19 8.69 c -0.05 0.53 -0.1 1.09 -0.14 1.64 c 0.29 0.66 0.46 1.07 0.46 1.07 C 312.85 420.54 312.89 419.62 313 418.76 Z" stroke-linecap="round" />
</g>
		<g transform="matrix(1 0 0 1 68.8 225.85)" id="freepik--Plants--inject-5"  >
<path style="stroke: none; stroke-width: 1; stroke-dasharray: none; stroke-linecap: butt; stroke-dashoffset: 0; stroke-linejoin: miter; stroke-miterlimit: 4; fill: rgb(186,186,186); fill-rule: nonzero; opacity: 1;"  transform=" translate(-318.8, -475.85)" d="M 314.2 472.83 a 4.67 4.67 0 0 0 -3.15 3.89 c 5.17 1 10.34 1.83 15.5 2.38 C 324.25 476 318.16 471.51 314.2 472.83 Z" stroke-linecap="round" />
</g>
		<g transform="matrix(1 0 0 1 100.56 225.4)" id="freepik--Plants--inject-5"  >
<path style="stroke: none; stroke-width: 1; stroke-dasharray: none; stroke-linecap: butt; stroke-dashoffset: 0; stroke-linejoin: miter; stroke-miterlimit: 4; fill: rgb(186,186,186); fill-rule: nonzero; opacity: 1;"  transform=" translate(-350.56, -475.4)" d="M 350.52 471 a 4.91 4.91 0 0 0 -6.07 4.22 a 7.92 7.92 0 0 0 1 4.73 q 5.67 -0.12 11.26 -0.75 C 355.6 475.68 353.43 471.81 350.52 471 Z" stroke-linecap="round" />
</g>
		<g transform="matrix(1 0 0 1 65.61 194.04)" id="freepik--Plants--inject-5"  >
<path style="stroke: none; stroke-width: 1; stroke-dasharray: none; stroke-linecap: butt; stroke-dashoffset: 0; stroke-linejoin: miter; stroke-miterlimit: 4; fill: rgb(186,186,186); fill-rule: nonzero; opacity: 1;"  transform=" translate(-315.61, -444.04)" d="M 327.71 476 c -1.61 -3.94 -3.37 -7.89 -5.1 -11.83 c -0.53 -1.2 -1.05 -2.41 -1.57 -3.62 c 0.57 -0.08 7.34 -1.07 10 -2.8 c 2.35 -1.53 4.9 -4.14 5.08 -7.13 a 5.09 5.09 0 0 0 -5 -5.57 c -4.22 0.1 -8.31 6.5 -9.32 10.13 c -0.08 0.28 -0.7 4.16 -0.8 5.15 c -1.15 -2.66 -2.27 -5.32 -3.26 -8 a 89 89 0 0 1 -3.39 -11 c 0.26 0 7.33 -1 10 -2.8 c 2.34 -1.53 4.9 -4.15 5.08 -7.13 a 5.1 5.1 0 0 0 -5 -5.58 c -4.22 0.11 -8.31 6.5 -9.32 10.14 c -0.08 0.28 -0.74 4.46 -0.8 5.22 c -0.05 -0.21 -0.13 -0.43 -0.18 -0.65 a 65.7 65.7 0 0 1 -1.36 -11.44 c -0.1 -2.12 -0.07 -4.15 0 -6.12 c 1.33 -0.05 7.44 -0.36 10.06 -1.67 s 5.33 -3.57 5.83 -6.51 a 5.1 5.1 0 0 0 -4.4 -6.09 c -4.21 -0.37 -9 5.53 -10.39 9 c -0.07 0.19 -0.63 2.22 -1 3.7 l -0.55 -0.08 c -0.18 2.45 -0.29 5 -0.23 7.76 a 66 66 0 0 0 1.13 11.61 l 0 0.13 c -0.59 -1.1 -2.35 -4.12 -2.51 -4.34 c -2.27 -3.06 -8.42 -7.67 -12.41 -6.34 a 5 5 0 0 0 -2.69 6.93 c 1.25 2.73 4.6 4.32 7.35 5 c 3.1 0.72 9.83 -0.65 10.37 -0.76 a 90.67 90.67 0 0 0 3.24 11.45 c 0.77 2.19 1.61 4.37 2.47 6.54 c -0.54 -0.93 -1 -1.77 -1.11 -1.87 c -2.27 -3.07 -8.42 -7.67 -12.41 -6.34 a 5 5 0 0 0 -2.69 6.92 c 1.25 2.74 4.59 4.32 7.35 5 s 8.55 -0.4 10.07 -0.7 c 0.34 0.83 0.67 1.66 1 2.49 c 1.65 4 3.32 7.95 4.83 11.89 c 0.32 0.84 0.62 1.68 0.92 2.51 l 2 0.2 C 328.59 478.24 328.17 477.12 327.71 476 Z" stroke-linecap="round" />
</g>
		<g transform="matrix(1 0 0 1 79.93 -105.28)" id="freepik--Gears--inject-5"  >
<path style="stroke: rgb(0,0,0); stroke-width: 1; stroke-dasharray: none; stroke-linecap: butt; stroke-dashoffset: 0; stroke-linejoin: miter; stroke-miterlimit: 10; fill: none; fill-rule: nonzero; opacity: 1;"  transform=" translate(-329.93, -144.72)" d="M 325.14 161.62 l 0.66 3.95 l 4.4 0.39 l 1.32 -3.74 a 17.42 17.42 0 0 0 4.23 -0.92 l 2.78 2.82 l 3.82 -2.21 l -1.05 -3.8 a 17.47 17.47 0 0 0 2.93 -3.2 l 3.88 0.72 l 1.87 -4 l -3.05 -2.51 a 17.41 17.41 0 0 0 0.55 -4.3 l 3.62 -1.64 l -0.77 -4.35 l -4 -0.31 a 17.29 17.29 0 0 0 -2 -3.78 l 2.06 -3.48 l -3.12 -3.12 l -3.5 2.08 a 17.63 17.63 0 0 0 -6.69 -2.73 l -1 -4 h -4.42 l -1 4 a 17.18 17.18 0 0 0 -4 1.26 l -3.15 -2.73 l -3.62 2.53 l 1.49 3.9 a 17.25 17.25 0 0 0 -2.53 3.29 l -4.16 -0.43 l -1.51 4.15 l 3.44 2.33 a 17.64 17.64 0 0 0 -0.24 2.93 c 0 0.42 0 0.83 0 1.24 l -3.61 2 l 1.14 4.26 l 4.09 -0.05 a 18.06 18.06 0 0 0 2.25 3.57 l -1.77 3.68 l 3.38 2.83 L 321.2 160 m 18.34 -20.62 a 11 11 0 1 1 -9.6 -5.61 a 10.22 10.22 0 0 1 1.58 0.12 m 3.73 1.24 a 10.91 10.91 0 0 1 2.32 1.72" stroke-linecap="round" />
</g>
		<g transform="matrix(1 0 0 1 90.44 119.96)" id="freepik--Gears--inject-5"  >
<path style="stroke: rgb(0,0,0); stroke-width: 1; stroke-dasharray: none; stroke-linecap: butt; stroke-dashoffset: 0; stroke-linejoin: miter; stroke-miterlimit: 10; fill: none; fill-rule: nonzero; opacity: 1;"  transform=" translate(-340.44, -369.96)" d="M 335.56 386.86 l 0.66 3.95 l 4.4 0.39 l 1.32 -3.74 a 17.42 17.42 0 0 0 4.23 -0.92 l 2.78 2.82 l 3.82 -2.21 l -1 -3.8 a 17.47 17.47 0 0 0 2.93 -3.2 l 3.88 0.72 l 1.87 -4 l -3 -2.51 a 17.41 17.41 0 0 0 0.55 -4.3 l 3.62 -1.64 l -0.77 -4.35 l -4 -0.31 a 16.87 16.87 0 0 0 -2 -3.78 l 2.06 -3.48 l -3.12 -3.12 l -3.5 2.08 a 17.63 17.63 0 0 0 -6.69 -2.73 l -1 -4 h -4.42 l -1 4 a 17.18 17.18 0 0 0 -4 1.26 L 330 351.29 l -3.62 2.53 l 1.49 3.9 a 17.25 17.25 0 0 0 -2.53 3.29 l -4.16 -0.43 l -1.51 4.15 l 3.44 2.33 a 17.64 17.64 0 0 0 -0.24 2.93 c 0 0.42 0 0.83 0 1.24 l -3.61 2 l 1.14 4.26 l 4.09 -0.05 a 18.06 18.06 0 0 0 2.25 3.57 L 325 384.71 l 3.38 2.83 l 3.28 -2.34 M 350 364.58 a 11 11 0 1 1 -9.6 -5.61 a 10.22 10.22 0 0 1 1.58 0.12 m 3.73 1.24 a 10.91 10.91 0 0 1 2.32 1.72" stroke-linecap="round" />
</g>
		<g transform="matrix(1 0 0 1 120.11 -121.99)" id="freepik--Gears--inject-5"  >
<path style="stroke: rgb(0,0,0); stroke-width: 1; stroke-dasharray: none; stroke-linecap: butt; stroke-dashoffset: 0; stroke-linejoin: miter; stroke-miterlimit: 10; fill: none; fill-rule: nonzero; opacity: 1;"  transform=" translate(-370.11, -128.01)" d="M 357 114.24 l 0.58 1.52 c -0.29 0.29 -0.57 0.6 -0.84 0.91 m -1.47 2 c -0.08 0.12 -0.15 0.24 -0.22 0.36 l -4.16 -0.42 l -1.51 4.14 l 3.44 2.33 a 17.73 17.73 0 0 0 -0.25 2.93 c 0 0.42 0 0.83 0 1.24 l -3.62 2 l 1.15 4.26 l 4.09 0 a 17.41 17.41 0 0 0 2.25 3.58 l -1.77 3.67 l 3.38 2.84 l 3.28 -2.35 a 17.61 17.61 0 0 0 3.94 1.67 l 0.66 3.95 l 4.39 0.38 l 1.33 -3.74 a 17.41 17.41 0 0 0 4.23 -0.91 l 2.77 2.81 l 3.82 -2.2 l -1 -3.8 a 17.8 17.8 0 0 0 2.93 -3.2 l 3.88 0.71 l 1.87 -4 l -3.05 -2.52 a 17.82 17.82 0 0 0 0.55 -4.29 l 3.62 -1.65 l -0.77 -4.34 l -4 -0.31 a 17.59 17.59 0 0 0 -2 -3.79 l 2.06 -3.47 l -3.12 -3.12 l -3.5 2.08 a 17.31 17.31 0 0 0 -6.69 -2.73 l -1 -4 h -4.41 l -1 4 a 17.68 17.68 0 0 0 -4 1.26 l -3.16 -2.73 l -3.61 2.53 l 0.46 1.2 m 24.35 17.24 a 10.59 10.59 0 0 1 -0.67 2.11 m -0.83 1.55 A 11 11 0 1 1 381.1 128 q 0 0.4 0 0.81" stroke-linecap="round" />
</g>
		<g transform="matrix(1 0 0 1 -131.32 -20.4)" id="freepik--Gears--inject-5"  >
<path style="stroke: rgb(0,0,0); stroke-width: 1; stroke-dasharray: none; stroke-linecap: butt; stroke-dashoffset: 0; stroke-linejoin: miter; stroke-miterlimit: 10; fill: none; fill-rule: nonzero; opacity: 1;"  transform=" translate(-118.67, -229.6)" d="M 93.23 250.29 l -3.31 6.87 l 6.32 5.3 l 6.12 -4.39 a 32.34 32.34 0 0 0 7.38 3.12 l 1.22 7.38 l 8.22 0.72 l 2.47 -7 a 32.42 32.42 0 0 0 7.91 -1.72 l 5.18 5.27 l 7.14 -4.12 l -2 -7.1 a 33.14 33.14 0 0 0 5.49 -6 l 7.25 1.33 l 3.49 -7.47 l -5.69 -4.7 a 32.58 32.58 0 0 0 1 -8 l 6.76 -3.08 l -1.43 -8.12 l -7.46 -0.58 a 33.14 33.14 0 0 0 -3.73 -7.07 l 3.84 -6.5 l -5.83 -5.83 l -6.55 3.89 a 32.38 32.38 0 0 0 -12.5 -5.1 l -1.89 -7.48 h -8.25 l -1.9 7.52 a 32.68 32.68 0 0 0 -7.41 2.36 l -5.9 -5.1 l -6.75 4.73 l 2.78 7.29 a 32.83 32.83 0 0 0 -4.73 6.14 l -7.77 -0.8 l -2.82 7.75 l 6.43 4.36 a 33 33 0 0 0 -0.46 5.48 q 0 1.17 0.09 2.31 l -6.77 3.78 l 2.14 8 l 7.65 -0.09 a 33.65 33.65 0 0 0 3 5.15 m 19.74 -38.52 a 21.06 21.06 0 0 1 2.75 -0.76 m 5.08 -0.4 a 20.57 20.57 0 1 1 -9.3 1.75" stroke-linecap="round" />
</g>
		<g transform="matrix(1 0 0 1 -55.21 -24.55)" id="freepik--light-bulb--inject-5"  >
<line style="stroke: rgb(38,50,56); stroke-width: 3; stroke-dasharray: none; stroke-linecap: round; stroke-dashoffset: 0; stroke-linejoin: round; stroke-miterlimit: 4; fill: none; fill-rule: nonzero; opacity: 1;"  x1="4.090000000000003" y1="2.6400000000000006" x2="-4.090000000000003" y2="-2.6400000000000006" />
</g>
		<g transform="matrix(1 0 0 1 -37.97 -38.67)" id="freepik--light-bulb--inject-5"  >
<line style="stroke: rgb(38,50,56); stroke-width: 3; stroke-dasharray: none; stroke-linecap: round; stroke-dashoffset: 0; stroke-linejoin: round; stroke-miterlimit: 4; fill: none; fill-rule: nonzero; opacity: 1;"  x1="1.0600000000000023" y1="0.8850000000000051" x2="-1.0600000000000023" y2="-0.8850000000000051" />
</g>
		<g transform="matrix(1 0 0 1 -69.25 6.65)" id="freepik--light-bulb--inject-5"  >
<line style="stroke: rgb(38,50,56); stroke-width: 3; stroke-dasharray: none; stroke-linecap: round; stroke-dashoffset: 0; stroke-linejoin: round; stroke-miterlimit: 4; fill: none; fill-rule: nonzero; opacity: 1;"  x1="8.465000000000003" y1="2.1199999999999903" x2="-8.465000000000003" y2="-2.1199999999999903" />
</g>
		<g transform="matrix(1 0 0 1 7.84 31.67)" id="freepik--light-bulb--inject-5"  >
<path style="stroke: none; stroke-width: 1; stroke-dasharray: none; stroke-linecap: butt; stroke-dashoffset: 0; stroke-linejoin: miter; stroke-miterlimit: 4; fill: rgb(23,148,172); fill-rule: nonzero; opacity: 1;"  transform=" translate(-257.84, -281.67)" d="M 280.71 362.83 a 1.5 1.5 0 0 1 -0.37 -0.05 a 1.53 1.53 0 0 1 -0.93 -0.7 c -0.52 -0.91 -0.8 -1.4 3.42 -6.24 c -9.1 5.57 -10.07 5.34 -10.6 5.21 a 1.77 1.77 0 0 1 -1 -0.76 c -0.84 -1.45 -1 -1.74 15.84 -15.52 c -2.7 1.75 -5.51 3.63 -8 5.29 c -14.82 9.89 -19.43 12.7 -21.47 12.23 a 1.86 1.86 0 0 1 -1.19 -0.87 c -0.9 -1.56 -0.9 -1.56 19 -15.94 l 3.94 -2.84 c -2.3 1.53 -4.59 3.09 -6.69 4.52 c -15.66 10.65 -22.79 15.25 -25.46 14.65 a 2 2 0 0 1 -1.32 -1 c -1 -1.69 -1.2 -2.07 27.74 -21.73 l -38.06 22 a 1.48 1.48 0 0 1 -2 -0.55 c -0.67 -1.16 -0.15 -2.58 2.6 -5 c -4.38 2.52 -6.92 3.53 -8.17 3.24 a 2 2 0 0 1 -1.26 -0.91 c -0.83 -1.44 -0.51 -2.77 10.08 -9.89 c -10.92 6.83 -14.95 8.84 -16.52 8.47 a 1.76 1.76 0 0 1 -1.12 -0.83 c -0.73 -1.25 -0.05 -1.7 2.46 -3.36 l 5.53 -3.61 l 8.46 -5.47 c -9.32 4.84 -10.72 4.51 -11.5 4.32 a 2 2 0 0 1 -1.27 -0.92 a 1.5 1.5 0 0 1 0.54 -2 c 29.35 -17.4 74.66 -45.31 85.58 -54.54 c -10.89 4.95 -43.45 25.17 -62 36.72 c -23.89 14.85 -24 14.82 -25 14.56 a 1.57 1.57 0 0 1 -1 -0.72 c -0.81 -1.4 -0.77 -2.3 8.79 -8.22 c -4.4 2.07 -7.3 3 -8.58 2.7 a 2.09 2.09 0 0 1 -1.34 -1 a 1.49 1.49 0 0 1 0.49 -2 c 29.62 -18.87 71.29 -45.59 88.29 -56.88 c -4.73 2.41 -11.08 6 -18.14 10.23 c -5.71 3.67 -12.48 7.94 -20.49 12.92 c -10.58 6.59 -21.28 13.12 -30.19 18.52 c -21.52 13.58 -21.78 13.52 -22.83 13.26 a 1.61 1.61 0 0 1 -1 -0.73 a 1.5 1.5 0 0 1 0.54 -2 c 6.48 -3.85 13.63 -8.14 21.05 -12.64 l 3.9 -2.46 c -15.54 8.89 -24.13 12.78 -26.66 12.16 a 2.1 2.1 0 0 1 -1.41 -1 c -0.93 -1.6 0.39 -3.64 11.35 -10.8 c -7.07 4.31 -9.87 5.59 -11.06 5.3 a 1.69 1.69 0 0 1 -1.09 -0.8 c -0.63 -1.09 -1.14 -2 6.18 -7.31 c -3.94 2 -6.43 2.81 -7.62 2.52 a 2 2 0 0 1 -1.3 -0.94 a 1.49 1.49 0 0 1 -0.15 -1.15 a 1.52 1.52 0 0 1 0.7 -0.91 c 32.45 -18.45 81.59 -47.67 96.55 -59.46 c -16.41 9.06 -61.65 35.62 -93.22 54.34 a 1.5 1.5 0 0 1 -2.06 -0.54 a 2.32 2.32 0 0 1 -0.19 -1.82 a 9 9 0 0 1 2.46 -3.28 c -2.33 0.95 -3.89 1.3 -4.78 1.08 a 2.08 2.08 0 0 1 -1.32 -1 c -0.9 -1.55 0.82 -2.75 3.42 -4.56 c 2 -1.35 4.83 -3.22 8.79 -5.7 c 7.39 -4.62 17.53 -10.74 28.27 -17.21 c 12.07 -7.28 26.41 -15.93 37.8 -23.09 c -24.37 14 -62.75 36.42 -81.18 47.2 a 1.54 1.54 0 0 1 -1.15 0.15 a 1.48 1.48 0 0 1 -0.91 -0.7 c -0.77 -1.34 -1 -1.73 12.25 -10.07 c -5.19 2.85 -8.47 4.08 -10.14 3.69 a 2.31 2.31 0 0 1 -1.52 -1.09 c -1 -1.72 -1 -1.72 23.06 -15.69 c 11.13 -6.46 24.41 -14.18 36.63 -21.6 c 10.26 -6.82 18.29 -12 24.38 -15.6 a 77.26 77.26 0 0 0 9.07 -7.06 c -12.49 5.61 -61.81 35.43 -93 54.83 a 1.5 1.5 0 0 1 -1.6 -2.54 l 9.68 -6.16 c -8 4.11 -11 4.8 -12.23 4.49 a 2.06 2.06 0 0 1 -1.33 -1 a 1.48 1.48 0 0 1 0.49 -2 l 21.31 -13.66 c -17.42 9.84 -18.83 9.49 -19.69 9.27 a 1.73 1.73 0 0 1 -1.1 -0.81 a 1.5 1.5 0 0 1 0.51 -2 c 22.46 -13.89 54.37 -34 73 -46.61 c -15.05 8.67 -37 21.55 -52.44 30.63 L 203 261.79 c -3.82 2.23 -5.67 3.32 -6.66 3.82 l -0.26 0.16 l 0 0 c -0.69 0.33 -0.86 0.28 -1.15 0.2 a 1.5 1.5 0 0 1 -0.41 -2.72 c 23.82 -14.73 59 -36.93 74.76 -47.85 c -8.39 4.86 -20.92 12.85 -31 19.3 c -28.26 18 -36.85 23.18 -39.34 22.56 a 1.81 1.81 0 0 1 -1.14 -0.84 c -0.62 -1.09 -1.07 -1.86 8.32 -8.63 c -2.56 1.13 -4.29 1.56 -5.3 1.32 a 2.17 2.17 0 0 1 -1.38 -1 a 1.51 1.51 0 0 1 0.5 -2 c 18.45 -11.61 46.49 -29.81 56.13 -37.34 c -8.44 4.13 -26.86 16 -37.7 22.94 C 200.66 243 200 243.28 198.87 243 a 1.58 1.58 0 0 1 -1 -0.73 c -0.8 -1.37 -1.5 -2.59 15.84 -14.51 c -2.14 1.36 -4.33 2.77 -6.57 4.21 a 1.57 1.57 0 0 1 -1.34 0.31 a 1.47 1.47 0 0 1 -0.94 -0.71 c -1.07 -1.85 0.47 -3.44 12.64 -12.77 a 1.62 1.62 0 0 1 -1.07 -0.78 A 1.51 1.51 0 0 1 217 216 a 1.6 1.6 0 0 1 0.92 -0.19 a 51.88 51.88 0 0 0 4.59 -3 c 4.88 -3.43 6.26 -4.25 7.45 -4 a 1.73 1.73 0 0 1 1.12 0.81 c 0.86 1.5 0.19 2.4 -8 8.74 c 2.28 -1.41 4.63 -2.87 7 -4.31 c 23.12 -14.14 24.91 -13.72 26 -13.46 a 1.75 1.75 0 0 1 1.15 0.84 a 1.5 1.5 0 0 1 -0.5 2 c -11.28 7 -23 14.58 -32.83 21.13 c 22.82 -14.57 33.79 -21 36.88 -20.22 a 2 2 0 0 1 1.29 0.94 c 0.95 1.65 1.64 2.85 -29.93 23.63 l -4.54 3 c 6.36 -4 12.8 -8.2 18 -11.6 c 20.25 -13.14 23.53 -15.07 25.06 -14.71 a 1.62 1.62 0 0 1 1 0.77 a 1.49 1.49 0 0 1 -0.49 2 c -19.58 12.48 -48.18 31.11 -62.32 41.12 c 7.6 -4.48 18.37 -11.35 27.75 -17.33 c 29.73 -19 39.43 -24.75 42.17 -24.09 a 1.88 1.88 0 0 1 1.18 0.87 c 0.73 1.27 1.26 2.17 -16.13 13.78 c 24.37 -14.14 24.84 -14 25.61 -13.82 a 1.53 1.53 0 0 1 0.94 0.71 c 1 1.73 1.71 3 -44.27 32.38 c -3.34 2.14 -6.69 4.27 -10 6.35 c 18.2 -10.76 39.89 -24 56.32 -34.26 a 1.53 1.53 0 0 1 1.16 -0.18 a 1.54 1.54 0 0 1 0.94 0.7 c 0.71 1.24 -0.34 2 -1.45 2.76 c -0.68 0.47 -1.68 1.15 -3 2 c -2.42 1.61 -6 4 -10.62 7 c -7.78 5.07 -18.65 12.1 -32.31 20.9 c -13.16 8.47 -26.42 17 -35.51 22.81 C 223.64 263.72 247 250 292 221.25 c 6.48 -4.13 6.48 -4.13 7.14 -4 a 1.52 1.52 0 0 1 0.95 0.71 c 0.37 0.64 0.58 1 -0.62 2.07 h 0 l 0 0 c -1.6 1.4 -5.58 4 -14.66 9.9 c 12.86 -7.05 14.06 -6.76 14.84 -6.56 a 1.69 1.69 0 0 1 1.09 0.8 c 0.54 0.94 0.67 2.07 -1.33 4.31 a 5.39 5.39 0 0 1 2.44 -0.18 a 2.38 2.38 0 0 1 1.57 1.13 c 1 1.72 1.5 2.6 -28.21 21.34 c 31.46 -18.22 31.77 -18.14 32.52 -17.94 a 1.48 1.48 0 0 1 0.92 0.7 c 1 1.66 -0.8 3.33 -5.1 6.47 c -2.77 2 -6.68 4.64 -11.92 8 c 17.47 -10.91 21.85 -13.17 23.41 -12.79 a 1.69 1.69 0 0 1 1.06 0.79 a 1.47 1.47 0 0 1 0.15 1.14 a 1.49 1.49 0 0 1 -0.71 0.92 c -10.2 5.78 -20.57 11.76 -30.59 17.66 l -10.38 6.56 c -20.41 12.92 -35.3 22.21 -45.75 28.29 c -3.31 2.27 -6.14 4.29 -8.41 6 c 9.3 -5.5 25.14 -14.85 41 -24.1 c 50 -29.26 50.76 -29.05 51.71 -28.8 a 1.53 1.53 0 0 1 0.94 0.71 a 2.18 2.18 0 0 1 0.19 1.7 a 5.31 5.31 0 0 1 -1.63 2.49 c 3.43 -1.71 5.58 -2.41 6.64 -2.16 a 1.94 1.94 0 0 1 1.24 0.91 c 0.8 1.38 -0.32 2.13 -2.79 3.77 c -1.49 1 -3.69 2.39 -6.74 4.29 l -0.59 0.37 c 4.66 -2.23 7.93 -3.28 9.57 -2.88 a 2.47 2.47 0 0 1 1.62 1.15 c 1.38 2.39 0 3.91 -48.79 32.77 C 252.29 299 225.22 315 217.84 321 c 4.07 -1.43 14.21 -6.33 39.41 -21.58 c 20.54 -12.43 43.16 -26.94 54 -33.91 c 7.53 -4.83 7.52 -4.82 8.19 -4.66 a 1.55 1.55 0 0 1 0.95 0.71 c 0.61 1.06 1.23 2.13 -7 8.26 a 7.5 7.5 0 0 1 3.71 -0.64 a 2.1 2.1 0 0 1 1.34 1 c 0.88 1.53 0.88 1.53 -15.3 12.13 c -8 5.22 -19.1 12.43 -33.1 21.43 c -13.5 8.68 -27.11 17.39 -36.43 23.34 c 18.88 -10.12 54.26 -32.56 70 -42.54 c 14 -8.85 14 -8.85 14.76 -8.66 a 1.53 1.53 0 0 1 0.94 0.71 c 1.07 1.86 -0.63 4.5 -7.21 9.39 a 2.06 2.06 0 0 1 0.58 0 a 1.88 1.88 0 0 1 1.18 0.87 c 1.05 1.82 2.24 3.88 -42.14 31.67 c 12.76 -7.86 26 -16.22 36.69 -23.15 a 1.5 1.5 0 0 1 2.12 0.51 c 0.73 1.28 -0.28 2 -2 3.2 c -1 0.71 -2.51 1.75 -4.49 3.07 s -4.44 3 -7.41 4.92 c 4.14 -2.1 6.7 -2.95 8 -2.63 a 2.08 2.08 0 0 1 1.35 1 c 0.84 1.45 0.65 2 -9.47 8.54 c 2.13 -0.91 3.64 -1.24 4.61 -1 a 2.22 2.22 0 0 1 1.45 1.05 c 1.18 2 0.29 2.94 -26.81 19.35 c -7.76 4.7 -17.53 10.61 -25.44 15.71 l 53.21 -30.71 a 1.46 1.46 0 0 1 1.14 -0.15 a 1.51 1.51 0 0 1 0.91 0.69 c 0.74 1.29 -0.31 2.06 -2.05 3.34 c -1.05 0.77 -2.59 1.86 -4.71 3.32 c -3.95 2.74 -9.44 6.45 -15.25 10.39 c -6.77 4.58 -15.29 10.35 -22.27 15.2 c 3.21 -2.12 6.55 -4.39 9.52 -6.41 c 15.47 -10.52 22 -14.73 24.55 -14.17 a 2 2 0 0 1 1.29 0.93 c 0.87 1.52 0.91 1.59 -16.83 14.44 c 12.87 -8.56 17.08 -11 19 -10.57 a 1.86 1.86 0 0 1 1.19 0.87 c 0.7 1.22 0.7 1.22 -8.25 8.53 c -2.7 2.2 -6.45 5.26 -9.83 8.09 c 2.74 -1.69 5.76 -3.61 8.63 -5.47 a 1.5 1.5 0 0 1 2.12 0.51 c 0.56 1 0.35 1.2 -1.7 3.4 c -1.67 1.79 -3.1 3.36 -4.31 4.7 c 9.08 -5.41 9.41 -5.32 10.05 -5.16 a 1.51 1.51 0 0 1 0.93 0.71 a 1.49 1.49 0 0 1 -0.55 2.05 a 1.43 1.43 0 0 1 -0.47 0.18 c -1.33 0.6 -8.72 4.95 -15.23 8.89 A 1.56 1.56 0 0 1 280.71 362.83 Z M 295.14 353 a 1.52 1.52 0 0 0 0.68 0.61 A 1.59 1.59 0 0 1 295.14 353 Z m -36.92 -15.27 c -8.64 5.39 -17.14 10.79 -22.68 14.64 C 241.57 348.78 250.33 343 258.22 337.73 Z m 37.19 -26.63 c -9.81 5.44 -25.68 15.66 -37.74 23.45 c 4.44 -2.77 9.5 -5.9 15.25 -9.44 C 280.84 320.24 289.37 315 295.41 311.1 Z m -0.64 7 c -5.33 2.84 -13.42 8 -21.31 13.15 l 0.83 -0.5 C 281.66 326.27 289.66 321.42 294.77 318.08 Z M 245.6 295.64 C 239 299.77 233 303.66 228 307 C 233.18 303.69 239.32 299.72 245.6 295.64 Z m 71.19 -39.33 c -2.9 1 -9.05 3.8 -22.06 11.61 S 266 286 252 295.1 c -6.11 4 -11.25 7.3 -15.59 10.08 c 8.42 -5.18 19.73 -11.95 34.84 -20.89 C 289.64 273.38 310.2 261.22 316.79 256.31 Z m -9.39 29.34 L 305.28 287 q -10.5 6.67 -19.89 12.55 C 293.74 294.53 301.63 289.62 307.4 285.65 Z M 241.08 279 c -9.17 5.54 -18.08 11 -24 14.73 c 3 -1.53 6.61 -3.58 10.69 -6 C 231.78 285 236.27 282.05 241.08 279 Z m 23.48 -26.42 c -3.84 2.56 -7.62 5.1 -11.16 7.47 c -7 4.72 -13.22 8.84 -18.61 12.38 l 5.51 -3.4 c 20.25 -12.48 49.49 -30.52 58.09 -37.06 a 79.11 79.11 0 0 0 -9.23 4.88 c -3.42 2.39 -7.77 5.26 -13.28 8.74 C 272.29 247.84 268.48 250.18 264.56 252.56 Z m -45.51 -36 Z" stroke-linecap="round" />
</g>
		<g transform="matrix(1 0 0 1 7.84 31.67)" id="freepik--light-bulb--inject-5"  >
<path style="stroke: none; stroke-width: 1; stroke-dasharray: none; stroke-linecap: butt; stroke-dashoffset: 0; stroke-linejoin: miter; stroke-miterlimit: 4; fill: rgb(255,255,255); fill-rule: nonzero; opacity: 0.4;"  transform=" translate(-257.84, -281.67)" d="M 280.71 362.83 a 1.5 1.5 0 0 1 -0.37 -0.05 a 1.53 1.53 0 0 1 -0.93 -0.7 c -0.52 -0.91 -0.8 -1.4 3.42 -6.24 c -9.1 5.57 -10.07 5.34 -10.6 5.21 a 1.77 1.77 0 0 1 -1 -0.76 c -0.84 -1.45 -1 -1.74 15.84 -15.52 c -2.7 1.75 -5.51 3.63 -8 5.29 c -14.82 9.89 -19.43 12.7 -21.47 12.23 a 1.86 1.86 0 0 1 -1.19 -0.87 c -0.9 -1.56 -0.9 -1.56 19 -15.94 l 3.94 -2.84 c -2.3 1.53 -4.59 3.09 -6.69 4.52 c -15.66 10.65 -22.79 15.25 -25.46 14.65 a 2 2 0 0 1 -1.32 -1 c -1 -1.69 -1.2 -2.07 27.74 -21.73 l -38.06 22 a 1.48 1.48 0 0 1 -2 -0.55 c -0.67 -1.16 -0.15 -2.58 2.6 -5 c -4.38 2.52 -6.92 3.53 -8.17 3.24 a 2 2 0 0 1 -1.26 -0.91 c -0.83 -1.44 -0.51 -2.77 10.08 -9.89 c -10.92 6.83 -14.95 8.84 -16.52 8.47 a 1.76 1.76 0 0 1 -1.12 -0.83 c -0.73 -1.25 -0.05 -1.7 2.46 -3.36 l 5.53 -3.61 l 8.46 -5.47 c -9.32 4.84 -10.72 4.51 -11.5 4.32 a 2 2 0 0 1 -1.27 -0.92 a 1.5 1.5 0 0 1 0.54 -2 c 29.35 -17.4 74.66 -45.31 85.58 -54.54 c -10.89 4.95 -43.45 25.17 -62 36.72 c -23.89 14.85 -24 14.82 -25 14.56 a 1.57 1.57 0 0 1 -1 -0.72 c -0.81 -1.4 -0.77 -2.3 8.79 -8.22 c -4.4 2.07 -7.3 3 -8.58 2.7 a 2.09 2.09 0 0 1 -1.34 -1 a 1.49 1.49 0 0 1 0.49 -2 c 29.62 -18.87 71.29 -45.59 88.29 -56.88 c -4.73 2.41 -11.08 6 -18.14 10.23 c -5.71 3.67 -12.48 7.94 -20.49 12.92 c -10.58 6.59 -21.28 13.12 -30.19 18.52 c -21.52 13.58 -21.78 13.52 -22.83 13.26 a 1.61 1.61 0 0 1 -1 -0.73 a 1.5 1.5 0 0 1 0.54 -2 c 6.48 -3.85 13.63 -8.14 21.05 -12.64 l 3.9 -2.46 c -15.54 8.89 -24.13 12.78 -26.66 12.16 a 2.1 2.1 0 0 1 -1.41 -1 c -0.93 -1.6 0.39 -3.64 11.35 -10.8 c -7.07 4.31 -9.87 5.59 -11.06 5.3 a 1.69 1.69 0 0 1 -1.09 -0.8 c -0.63 -1.09 -1.14 -2 6.18 -7.31 c -3.94 2 -6.43 2.81 -7.62 2.52 a 2 2 0 0 1 -1.3 -0.94 a 1.49 1.49 0 0 1 -0.15 -1.15 a 1.52 1.52 0 0 1 0.7 -0.91 c 32.45 -18.45 81.59 -47.67 96.55 -59.46 c -16.41 9.06 -61.65 35.62 -93.22 54.34 a 1.5 1.5 0 0 1 -2.06 -0.54 a 2.32 2.32 0 0 1 -0.19 -1.82 a 9 9 0 0 1 2.46 -3.28 c -2.33 0.95 -3.89 1.3 -4.78 1.08 a 2.08 2.08 0 0 1 -1.32 -1 c -0.9 -1.55 0.82 -2.75 3.42 -4.56 c 2 -1.35 4.83 -3.22 8.79 -5.7 c 7.39 -4.62 17.53 -10.74 28.27 -17.21 c 12.07 -7.28 26.41 -15.93 37.8 -23.09 c -24.37 14 -62.75 36.42 -81.18 47.2 a 1.54 1.54 0 0 1 -1.15 0.15 a 1.48 1.48 0 0 1 -0.91 -0.7 c -0.77 -1.34 -1 -1.73 12.25 -10.07 c -5.19 2.85 -8.47 4.08 -10.14 3.69 a 2.31 2.31 0 0 1 -1.52 -1.09 c -1 -1.72 -1 -1.72 23.06 -15.69 c 11.13 -6.46 24.41 -14.18 36.63 -21.6 c 10.26 -6.82 18.29 -12 24.38 -15.6 a 77.26 77.26 0 0 0 9.07 -7.06 c -12.49 5.61 -61.81 35.43 -93 54.83 a 1.5 1.5 0 0 1 -1.6 -2.54 l 9.68 -6.16 c -8 4.11 -11 4.8 -12.23 4.49 a 2.06 2.06 0 0 1 -1.33 -1 a 1.48 1.48 0 0 1 0.49 -2 l 21.31 -13.66 c -17.42 9.84 -18.83 9.49 -19.69 9.27 a 1.73 1.73 0 0 1 -1.1 -0.81 a 1.5 1.5 0 0 1 0.51 -2 c 22.46 -13.89 54.37 -34 73 -46.61 c -15.05 8.67 -37 21.55 -52.44 30.63 L 203 261.79 c -3.82 2.23 -5.67 3.32 -6.66 3.82 l -0.26 0.16 l 0 0 c -0.69 0.33 -0.86 0.28 -1.15 0.2 a 1.5 1.5 0 0 1 -0.41 -2.72 c 23.82 -14.73 59 -36.93 74.76 -47.85 c -8.39 4.86 -20.92 12.85 -31 19.3 c -28.26 18 -36.85 23.18 -39.34 22.56 a 1.81 1.81 0 0 1 -1.14 -0.84 c -0.62 -1.09 -1.07 -1.86 8.32 -8.63 c -2.56 1.13 -4.29 1.56 -5.3 1.32 a 2.17 2.17 0 0 1 -1.38 -1 a 1.51 1.51 0 0 1 0.5 -2 c 18.45 -11.61 46.49 -29.81 56.13 -37.34 c -8.44 4.13 -26.86 16 -37.7 22.94 C 200.66 243 200 243.28 198.87 243 a 1.58 1.58 0 0 1 -1 -0.73 c -0.8 -1.37 -1.5 -2.59 15.84 -14.51 c -2.14 1.36 -4.33 2.77 -6.57 4.21 a 1.57 1.57 0 0 1 -1.34 0.31 a 1.47 1.47 0 0 1 -0.94 -0.71 c -1.07 -1.85 0.47 -3.44 12.64 -12.77 a 1.62 1.62 0 0 1 -1.07 -0.78 A 1.51 1.51 0 0 1 217 216 a 1.6 1.6 0 0 1 0.92 -0.19 a 51.88 51.88 0 0 0 4.59 -3 c 4.88 -3.43 6.26 -4.25 7.45 -4 a 1.73 1.73 0 0 1 1.12 0.81 c 0.86 1.5 0.19 2.4 -8 8.74 c 2.28 -1.41 4.63 -2.87 7 -4.31 c 23.12 -14.14 24.91 -13.72 26 -13.46 a 1.75 1.75 0 0 1 1.15 0.84 a 1.5 1.5 0 0 1 -0.5 2 c -11.28 7 -23 14.58 -32.83 21.13 c 22.82 -14.57 33.79 -21 36.88 -20.22 a 2 2 0 0 1 1.29 0.94 c 0.95 1.65 1.64 2.85 -29.93 23.63 l -4.54 3 c 6.36 -4 12.8 -8.2 18 -11.6 c 20.25 -13.14 23.53 -15.07 25.06 -14.71 a 1.62 1.62 0 0 1 1 0.77 a 1.49 1.49 0 0 1 -0.49 2 c -19.58 12.48 -48.18 31.11 -62.32 41.12 c 7.6 -4.48 18.37 -11.35 27.75 -17.33 c 29.73 -19 39.43 -24.75 42.17 -24.09 a 1.88 1.88 0 0 1 1.18 0.87 c 0.73 1.27 1.26 2.17 -16.13 13.78 c 24.37 -14.14 24.84 -14 25.61 -13.82 a 1.53 1.53 0 0 1 0.94 0.71 c 1 1.73 1.71 3 -44.27 32.38 c -3.34 2.14 -6.69 4.27 -10 6.35 c 18.2 -10.76 39.89 -24 56.32 -34.26 a 1.53 1.53 0 0 1 1.16 -0.18 a 1.54 1.54 0 0 1 0.94 0.7 c 0.71 1.24 -0.34 2 -1.45 2.76 c -0.68 0.47 -1.68 1.15 -3 2 c -2.42 1.61 -6 4 -10.62 7 c -7.78 5.07 -18.65 12.1 -32.31 20.9 c -13.16 8.47 -26.42 17 -35.51 22.81 C 223.64 263.72 247 250 292 221.25 c 6.48 -4.13 6.48 -4.13 7.14 -4 a 1.52 1.52 0 0 1 0.95 0.71 c 0.37 0.64 0.58 1 -0.62 2.07 h 0 l 0 0 c -1.6 1.4 -5.58 4 -14.66 9.9 c 12.86 -7.05 14.06 -6.76 14.84 -6.56 a 1.69 1.69 0 0 1 1.09 0.8 c 0.54 0.94 0.67 2.07 -1.33 4.31 a 5.39 5.39 0 0 1 2.44 -0.18 a 2.38 2.38 0 0 1 1.57 1.13 c 1 1.72 1.5 2.6 -28.21 21.34 c 31.46 -18.22 31.77 -18.14 32.52 -17.94 a 1.48 1.48 0 0 1 0.92 0.7 c 1 1.66 -0.8 3.33 -5.1 6.47 c -2.77 2 -6.68 4.64 -11.92 8 c 17.47 -10.91 21.85 -13.17 23.41 -12.79 a 1.69 1.69 0 0 1 1.06 0.79 a 1.47 1.47 0 0 1 0.15 1.14 a 1.49 1.49 0 0 1 -0.71 0.92 c -10.2 5.78 -20.57 11.76 -30.59 17.66 l -10.38 6.56 c -20.41 12.92 -35.3 22.21 -45.75 28.29 c -3.31 2.27 -6.14 4.29 -8.41 6 c 9.3 -5.5 25.14 -14.85 41 -24.1 c 50 -29.26 50.76 -29.05 51.71 -28.8 a 1.53 1.53 0 0 1 0.94 0.71 a 2.18 2.18 0 0 1 0.19 1.7 a 5.31 5.31 0 0 1 -1.63 2.49 c 3.43 -1.71 5.58 -2.41 6.64 -2.16 a 1.94 1.94 0 0 1 1.24 0.91 c 0.8 1.38 -0.32 2.13 -2.79 3.77 c -1.49 1 -3.69 2.39 -6.74 4.29 l -0.59 0.37 c 4.66 -2.23 7.93 -3.28 9.57 -2.88 a 2.47 2.47 0 0 1 1.62 1.15 c 1.38 2.39 0 3.91 -48.79 32.77 C 252.29 299 225.22 315 217.84 321 c 4.07 -1.43 14.21 -6.33 39.41 -21.58 c 20.54 -12.43 43.16 -26.94 54 -33.91 c 7.53 -4.83 7.52 -4.82 8.19 -4.66 a 1.55 1.55 0 0 1 0.95 0.71 c 0.61 1.06 1.23 2.13 -7 8.26 a 7.5 7.5 0 0 1 3.71 -0.64 a 2.1 2.1 0 0 1 1.34 1 c 0.88 1.53 0.88 1.53 -15.3 12.13 c -8 5.22 -19.1 12.43 -33.1 21.43 c -13.5 8.68 -27.11 17.39 -36.43 23.34 c 18.88 -10.12 54.26 -32.56 70 -42.54 c 14 -8.85 14 -8.85 14.76 -8.66 a 1.53 1.53 0 0 1 0.94 0.71 c 1.07 1.86 -0.63 4.5 -7.21 9.39 a 2.06 2.06 0 0 1 0.58 0 a 1.88 1.88 0 0 1 1.18 0.87 c 1.05 1.82 2.24 3.88 -42.14 31.67 c 12.76 -7.86 26 -16.22 36.69 -23.15 a 1.5 1.5 0 0 1 2.12 0.51 c 0.73 1.28 -0.28 2 -2 3.2 c -1 0.71 -2.51 1.75 -4.49 3.07 s -4.44 3 -7.41 4.92 c 4.14 -2.1 6.7 -2.95 8 -2.63 a 2.08 2.08 0 0 1 1.35 1 c 0.84 1.45 0.65 2 -9.47 8.54 c 2.13 -0.91 3.64 -1.24 4.61 -1 a 2.22 2.22 0 0 1 1.45 1.05 c 1.18 2 0.29 2.94 -26.81 19.35 c -7.76 4.7 -17.53 10.61 -25.44 15.71 l 53.21 -30.71 a 1.46 1.46 0 0 1 1.14 -0.15 a 1.51 1.51 0 0 1 0.91 0.69 c 0.74 1.29 -0.31 2.06 -2.05 3.34 c -1.05 0.77 -2.59 1.86 -4.71 3.32 c -3.95 2.74 -9.44 6.45 -15.25 10.39 c -6.77 4.58 -15.29 10.35 -22.27 15.2 c 3.21 -2.12 6.55 -4.39 9.52 -6.41 c 15.47 -10.52 22 -14.73 24.55 -14.17 a 2 2 0 0 1 1.29 0.93 c 0.87 1.52 0.91 1.59 -16.83 14.44 c 12.87 -8.56 17.08 -11 19 -10.57 a 1.86 1.86 0 0 1 1.19 0.87 c 0.7 1.22 0.7 1.22 -8.25 8.53 c -2.7 2.2 -6.45 5.26 -9.83 8.09 c 2.74 -1.69 5.76 -3.61 8.63 -5.47 a 1.5 1.5 0 0 1 2.12 0.51 c 0.56 1 0.35 1.2 -1.7 3.4 c -1.67 1.79 -3.1 3.36 -4.31 4.7 c 9.08 -5.41 9.41 -5.32 10.05 -5.16 a 1.51 1.51 0 0 1 0.93 0.71 a 1.49 1.49 0 0 1 -0.55 2.05 a 1.43 1.43 0 0 1 -0.47 0.18 c -1.33 0.6 -8.72 4.95 -15.23 8.89 A 1.56 1.56 0 0 1 280.71 362.83 Z M 295.14 353 a 1.52 1.52 0 0 0 0.68 0.61 A 1.59 1.59 0 0 1 295.14 353 Z m -36.92 -15.27 c -8.64 5.39 -17.14 10.79 -22.68 14.64 C 241.57 348.78 250.33 343 258.22 337.73 Z m 37.19 -26.63 c -9.81 5.44 -25.68 15.66 -37.74 23.45 c 4.44 -2.77 9.5 -5.9 15.25 -9.44 C 280.84 320.24 289.37 315 295.41 311.1 Z m -0.64 7 c -5.33 2.84 -13.42 8 -21.31 13.15 l 0.83 -0.5 C 281.66 326.27 289.66 321.42 294.77 318.08 Z M 245.6 295.64 C 239 299.77 233 303.66 228 307 C 233.18 303.69 239.32 299.72 245.6 295.64 Z m 71.19 -39.33 c -2.9 1 -9.05 3.8 -22.06 11.61 S 266 286 252 295.1 c -6.11 4 -11.25 7.3 -15.59 10.08 c 8.42 -5.18 19.73 -11.95 34.84 -20.89 C 289.64 273.38 310.2 261.22 316.79 256.31 Z m -9.39 29.34 L 305.28 287 q -10.5 6.67 -19.89 12.55 C 293.74 294.53 301.63 289.62 307.4 285.65 Z M 241.08 279 c -9.17 5.54 -18.08 11 -24 14.73 c 3 -1.53 6.61 -3.58 10.69 -6 C 231.78 285 236.27 282.05 241.08 279 Z m 23.48 -26.42 c -3.84 2.56 -7.62 5.1 -11.16 7.47 c -7 4.72 -13.22 8.84 -18.61 12.38 l 5.51 -3.4 c 20.25 -12.48 49.49 -30.52 58.09 -37.06 a 79.11 79.11 0 0 0 -9.23 4.88 c -3.42 2.39 -7.77 5.26 -13.28 8.74 C 272.29 247.84 268.48 250.18 264.56 252.56 Z m -45.51 -36 Z" stroke-linecap="round" />
</g>
		<g transform="matrix(1 0 0 1 7.99 31.89)" id="freepik--light-bulb--inject-5"  >
<path style="stroke: rgb(38,50,56); stroke-width: 2; stroke-dasharray: none; stroke-linecap: round; stroke-dashoffset: 0; stroke-linejoin: round; stroke-miterlimit: 4; fill: none; fill-rule: nonzero; opacity: 1;"  transform=" translate(-257.99, -281.89)" d="M 259.47 202.55 v 0 h -0.67 v 0 c -36.26 0.67 -63.59 28.41 -63.59 62.54 a 62.27 62.27 0 0 0 7.24 29.24 c 2 4.75 6.84 16.38 11.63 31.42 c 4.44 13.88 6.76 27.85 6.76 30 c 0 0.2 0 0.41 0 0.64 a 4.69 4.69 0 0 0 4.68 4.84 h 64.94 a 4.69 4.69 0 0 0 4.68 -4.84 c 0 -0.23 0 -0.44 0 -0.64 c 0 -2.11 2.32 -16.08 6.75 -30 c 4.8 -15 9.59 -26.67 11.63 -31.42 a 62.56 62.56 0 0 0 -54 -91.78 Z" stroke-linecap="round" />
</g>
		<g transform="matrix(1 0 0 1 28.6 -38.47)" id="freepik--light-bulb--inject-5"  >
<path style="stroke: rgb(38,50,56); stroke-width: 3; stroke-dasharray: none; stroke-linecap: round; stroke-dashoffset: 0; stroke-linejoin: round; stroke-miterlimit: 4; fill: none; fill-rule: nonzero; opacity: 1;"  transform=" translate(-278.6, -211.53)" d="M 281.38 212.59 a 51.44 51.44 0 0 0 -5.56 -2.12" stroke-linecap="round" />
</g>
		<g transform="matrix(1 0 0 1 44.07 -28.33)" id="freepik--light-bulb--inject-5"  >
<path style="stroke: rgb(38,50,56); stroke-width: 3; stroke-dasharray: none; stroke-linecap: round; stroke-dashoffset: 0; stroke-linejoin: round; stroke-miterlimit: 4; fill: none; fill-rule: nonzero; opacity: 1;"  transform=" translate(-294.07, -221.67)" d="M 302.22 228.47 s -5.1 -8.1 -16.31 -13.61" stroke-linecap="round" />
</g>
		<g transform="matrix(1 0 0 1 9.32 72.97)" id="freepik--light-bulb--inject-5"  >
<path style="stroke: rgb(38,50,56); stroke-width: 3; stroke-dasharray: none; stroke-linecap: round; stroke-dashoffset: 0; stroke-linejoin: round; stroke-miterlimit: 4; fill: none; fill-rule: nonzero; opacity: 1;"  transform=" translate(-259.32, -322.97)" d="M 253.84 332.87 V 300.75 s 2.47 -15.64 -5.66 -15.64 s -7.51 8.14 1.87 16.89 s 23.78 0.63 25.66 -6.25 s -3.13 -10 -6.26 -4.38 s 0 69.45 0 69.45" stroke-linecap="round" />
</g>
		<g transform="matrix(1 0 0 1 -11.82 -58.25)" id="freepik--light-bulb--inject-5"  >
<line style="stroke: rgb(38,50,56); stroke-width: 3; stroke-dasharray: none; stroke-linecap: round; stroke-dashoffset: 0; stroke-linejoin: round; stroke-miterlimit: 4; fill: none; fill-rule: nonzero; opacity: 1;"  x1="-1.730000000000004" y1="-5.444999999999993" x2="1.730000000000004" y2="5.444999999999993" />
</g>
		<g transform="matrix(1 0 0 1 65.53 -35.49)" id="freepik--light-bulb--inject-5"  >
<line style="stroke: rgb(38,50,56); stroke-width: 3; stroke-dasharray: none; stroke-linecap: round; stroke-dashoffset: 0; stroke-linejoin: round; stroke-miterlimit: 4; fill: none; fill-rule: nonzero; opacity: 1;"  x1="5.695000000000022" y1="-4.454999999999998" x2="-5.695000000000022" y2="4.454999999999998" />
</g>
		<g transform="matrix(1 0 0 1 26.86 -62.23)" id="freepik--light-bulb--inject-5"  >
<line style="stroke: rgb(38,50,56); stroke-width: 3; stroke-dasharray: none; stroke-linecap: round; stroke-dashoffset: 0; stroke-linejoin: round; stroke-miterlimit: 4; fill: none; fill-rule: nonzero; opacity: 1;"  x1="2.1450000000000102" y1="-9.420000000000002" x2="-2.1450000000000102" y2="9.420000000000002" />
</g>
		<g transform="matrix(1 0 0 1 7.98 117.9)" id="freepik--light-bulb--inject-5"  >
<rect style="stroke: rgb(38,50,56); stroke-width: 1; stroke-dasharray: none; stroke-linecap: round; stroke-dashoffset: 0; stroke-linejoin: round; stroke-miterlimit: 4; fill: rgb(38,50,56); fill-rule: nonzero; opacity: 1;"  x="-35.885" y="-1.985" rx="1.59" ry="1.59" width="71.77" height="3.97" />
</g>
		<g transform="matrix(1 0 0 1 7.98 126.84)" id="freepik--light-bulb--inject-5"  >
<rect style="stroke: rgb(38,50,56); stroke-width: 1; stroke-dasharray: none; stroke-linecap: round; stroke-dashoffset: 0; stroke-linejoin: round; stroke-miterlimit: 4; fill: rgb(38,50,56); fill-rule: nonzero; opacity: 1;"  x="-35.885" y="-1.985" rx="1.59" ry="1.59" width="71.77" height="3.97" />
</g>
		<g transform="matrix(1 0 0 1 7.98 135.78)" id="freepik--light-bulb--inject-5"  >
<rect style="stroke: rgb(38,50,56); stroke-width: 1; stroke-dasharray: none; stroke-linecap: round; stroke-dashoffset: 0; stroke-linejoin: round; stroke-miterlimit: 4; fill: rgb(38,50,56); fill-rule: nonzero; opacity: 1;"  x="-35.885" y="-1.985" rx="1.59" ry="1.59" width="71.77" height="3.97" />
</g>
		<g transform="matrix(1 0 0 1 8.07 151.46)" id="freepik--light-bulb--inject-5"  >
<path style="stroke: rgb(38,50,56); stroke-width: 1; stroke-dasharray: none; stroke-linecap: round; stroke-dashoffset: 0; stroke-linejoin: round; stroke-miterlimit: 4; fill: rgb(38,50,56); fill-rule: nonzero; opacity: 1;"  transform=" translate(-258.07, -401.46)" d="M 260.08 392.52 H 224.86 l 10.14 14 a 9.37 9.37 0 0 0 7.6 3.88 h 31 a 9.39 9.39 0 0 0 7.61 -3.9 l 10.06 -13.93 Z" stroke-linecap="round" />
</g>
		<g transform="matrix(1 0 0 1 98.05 13.53)" id="freepik--hand-3--inject-5"  >
<path style="stroke: rgb(38,50,56); stroke-width: 1; stroke-dasharray: none; stroke-linecap: round; stroke-dashoffset: 0; stroke-linejoin: miter; stroke-miterlimit: 10; fill: rgb(255,255,255); fill-rule: nonzero; opacity: 1;"  transform=" translate(-348.05, -263.53)" d="M 335.69 243 s -6.4 7 -11.64 10.48 s -8.89 8.11 -4.08 10.48 c 2.89 1.42 7 -0.58 7 -0.58 s -6.41 1.74 -7.57 7.57 S 331 274.42 331 274.42 s -9.31 6.4 -6.4 8.73 s 8.73 0.58 11.64 0.58 s 17.47 -9.31 21 -9.31 s 10.48 7.57 10.48 13.39 S 377 293.05 378.19 275 s -3.49 -33.18 -11.06 -37.84 S 335.69 243 335.69 243 Z" stroke-linecap="round" />
</g>
		<g transform="matrix(1 0 0 1 102.57 8.94)" id="freepik--hand-3--inject-5"  >
<path style="stroke: rgb(38,50,56); stroke-width: 1; stroke-dasharray: none; stroke-linecap: round; stroke-dashoffset: 0; stroke-linejoin: miter; stroke-miterlimit: 10; fill: none; fill-rule: nonzero; opacity: 1;"  transform=" translate(-352.57, -258.94)" d="M 332.2 262.77 l 23.23 -8.68 s 10.2 -2.21 17.52 9.85" stroke-linecap="round" />
</g>
		<g transform="matrix(1 0 0 1 104.34 21.51)" id="freepik--hand-3--inject-5"  >
<path style="stroke: rgb(38,50,56); stroke-width: 1; stroke-dasharray: none; stroke-linecap: round; stroke-dashoffset: 0; stroke-linejoin: miter; stroke-miterlimit: 10; fill: none; fill-rule: nonzero; opacity: 1;"  transform=" translate(-354.34, -271.51)" d="M 336.27 269.76 l 21 -3.49 s 9.32 -0.58 15.14 10.48" stroke-linecap="round" />
</g>
		<g transform="matrix(1 0 0 1 124.66 53.17)" id="freepik--hand-3--inject-5"  >
<path style="stroke: rgb(38,50,56); stroke-width: 1; stroke-dasharray: none; stroke-linecap: round; stroke-dashoffset: 0; stroke-linejoin: miter; stroke-miterlimit: 10; fill: rgb(255,255,255); fill-rule: nonzero; opacity: 1;"  transform=" translate(-374.66, -303.17)" d="M 361.89 283.73 l -15.72 3.5 l 9.31 37.25 s 8.16 16.3 10.48 23.29 S 392.16 378 392.16 378 l 27.94 -26.78 s -12.8 -15.13 -13.38 -18.63 s -2.92 -44.24 -2.92 -50.06 s -11.64 -19.8 -11.64 -19.8 s -4.78 -6.85 -7.11 -18.49 s -13 -16.43 -18.84 -15.85 s -21.79 2.33 -28.19 7 s -12.23 10.48 -6.4 12.23 c 9.67 2.9 25.49 -10 33.12 -1.08 c 3.5 4.07 7.63 22 8.21 24.37 c 0 0 -2.91 11.06 -11.06 12.8 h 0" stroke-linecap="round" />
</g>
		<g transform="matrix(1 0 0 1 55.25 -18.81)" id="freepik--hand-3--inject-5"  >
<path style="stroke: rgb(38,50,56); stroke-width: 1; stroke-dasharray: none; stroke-linecap: round; stroke-dashoffset: 0; stroke-linejoin: miter; stroke-miterlimit: 10; fill: rgb(38,50,56); fill-rule: nonzero; opacity: 1;"  transform=" translate(-305.25, -231.19)" d="M 303.27 229.62 a 1.08 1.08 0 0 1 1.4 -0.14 l 2.38 1.65 a 1.09 1.09 0 0 1 0.27 1.51 a 1.08 1.08 0 0 1 -1.5 0.27 l -2.38 -1.66 a 1.08 1.08 0 0 1 -0.27 -1.5 A 0.64 0.64 0 0 1 303.27 229.62 Z" stroke-linecap="round" />
</g>
		<g transform="matrix(1 0 0 1 98.86 12.27)" id="freepik--hand-3--inject-5"  >
<path style="stroke: rgb(38,50,56); stroke-width: 1; stroke-dasharray: none; stroke-linecap: round; stroke-dashoffset: 0; stroke-linejoin: miter; stroke-miterlimit: 10; fill: rgb(23,148,172); fill-rule: nonzero; opacity: 1;"  transform=" translate(-348.86, -262.27)" d="M 306 231.54 a 2.45 2.45 0 0 1 3.2 -0.33 l 7.46 3.84 l 73.24 48.18 a 5.79 5.79 0 0 1 -6.61 9.51 L 312.21 240.3 l -5.81 -5 a 2.47 2.47 0 0 1 -0.62 -3.44 A 2 2 0 0 1 306 231.54 Z" stroke-linecap="round" />
</g>
		<g transform="matrix(1 0 0 1 127.7 31.55)" id="freepik--hand-3--inject-5"  >
<path style="stroke: rgb(38,50,56); stroke-width: 1; stroke-dasharray: none; stroke-linecap: round; stroke-dashoffset: 0; stroke-linejoin: miter; stroke-miterlimit: 10; fill: rgb(38,50,56); fill-rule: nonzero; opacity: 1;"  transform=" translate(-377.7, -281.55)" d="M 389.91 283.23 l -21.14 -13.9 a 8 8 0 0 0 -5.77 7.48 a 6.66 6.66 0 0 0 0.08 1 l 20.22 14.92 a 5.79 5.79 0 0 0 6.61 -9.51 Z" stroke-linecap="round" />
</g>
		<g transform="matrix(1 0 0 1 95.94 48.73)" id="freepik--hand-3--inject-5"  >
<path style="stroke: rgb(38,50,56); stroke-width: 1; stroke-dasharray: none; stroke-linecap: round; stroke-dashoffset: 0; stroke-linejoin: miter; stroke-miterlimit: 10; fill: rgb(255,255,255); fill-rule: nonzero; opacity: 1;"  transform=" translate(-345.94, -298.73)" d="M 366 347.77 c -6.4 -9.31 -14.55 -33.18 -18 -37.84 s -12.86 -15 -16.35 -25.44 s -5.78 -18.8 -5.78 -27.54 s 7.51 -10.24 13.33 -0.92 S 352 279.66 352 279.66 s 4.66 5.82 14 4.07" stroke-linecap="round" />
</g>
		<g transform="matrix(1 0 0 1 80.33 7.21)" id="freepik--hand-3--inject-5"  >
<path style="stroke: rgb(38,50,56); stroke-width: 1; stroke-dasharray: none; stroke-linecap: round; stroke-dashoffset: 0; stroke-linejoin: miter; stroke-miterlimit: 10; fill: rgb(255,255,255); fill-rule: nonzero; opacity: 1;"  transform=" translate(-330.33, -257.21)" d="M 333.09 253.31 l 2 3.89 s -0.44 0 -3.55 1.77 a 12.67 12.67 0 0 0 -4.53 4.39 s -3 -8.38 -0.35 -11 a 4.22 4.22 0 0 1 2.42 -1.27 A 4 4 0 0 1 333.09 253.31 Z" stroke-linecap="round" />
</g>
		<g transform="matrix(1 0 0 1 151.44 112.49)" id="freepik--hand-3--inject-5"  >
<path style="stroke: rgb(38,50,56); stroke-width: 1; stroke-dasharray: none; stroke-linecap: round; stroke-dashoffset: 0; stroke-linejoin: miter; stroke-miterlimit: 10; fill: rgb(255,255,255); fill-rule: nonzero; opacity: 1;"  transform=" translate(-401.44, -362.49)" d="M 414 339.36 s -15.41 4.56 -23.41 12.56 a 183.76 183.76 0 0 0 -14.85 17.13 l 14.28 16.56 s 12 -13.71 20 -20 a 154 154 0 0 1 17.13 -11.42 Z" stroke-linecap="round" />
</g>
		<g transform="matrix(1 0 0 1 183.1 155.31)" id="freepik--hand-3--inject-5"  >
<path style="stroke: rgb(38,50,56); stroke-width: 1; stroke-dasharray: none; stroke-linecap: round; stroke-dashoffset: 0; stroke-linejoin: miter; stroke-miterlimit: 10; fill: rgb(38,50,56); fill-rule: nonzero; opacity: 1;"  transform=" translate(-433.1, -405.31)" d="M 428.31 459.84 L 383.2 387.32 s 11.42 -17.13 21.13 -25.69 s 22.27 -10.85 22.27 -10.85 L 483 404.91" stroke-linecap="round" />
</g>
		<g transform="matrix(1 0 0 1 91.9 24.44)" id="freepik--hand-3--inject-5"  >
<path style="stroke: rgb(38,50,56); stroke-width: 1; stroke-dasharray: none; stroke-linecap: round; stroke-dashoffset: 0; stroke-linejoin: miter; stroke-miterlimit: 10; fill: none; fill-rule: nonzero; opacity: 1;"  transform=" translate(-341.9, -274.44)" d="M 341.4 274.49 l 1 -0.1" stroke-linecap="round" />
</g>
		<g transform="matrix(1 0 0 1 86.16 27.06)" id="freepik--hand-3--inject-5"  >
<path style="stroke: rgb(38,50,56); stroke-width: 1; stroke-dasharray: none; stroke-linecap: round; stroke-dashoffset: 0; stroke-linejoin: miter; stroke-miterlimit: 10; fill: none; fill-rule: nonzero; opacity: 1;"  transform=" translate(-336.16, -277.06)" d="M 332.69 279.33 s 0.53 -3.19 6.94 -4.53" stroke-linecap="round" />
</g>
		<g transform="matrix(1 0 0 1 87.18 28.65)" id="freepik--hand-3--inject-5"  >
<path style="stroke: rgb(38,50,56); stroke-width: 1; stroke-dasharray: none; stroke-linecap: round; stroke-dashoffset: 0; stroke-linejoin: miter; stroke-miterlimit: 10; fill: none; fill-rule: nonzero; opacity: 1;"  transform=" translate(-337.18, -278.65)" d="M 339.65 277.08 s -0.45 1.35 -4.94 3.15" stroke-linecap="round" />
</g>
		<g transform="matrix(1 0 0 1 86.35 24.07)" id="freepik--hand-3--inject-5"  >
<path style="stroke: rgb(38,50,56); stroke-width: 1; stroke-dasharray: none; stroke-linecap: round; stroke-dashoffset: 0; stroke-linejoin: miter; stroke-miterlimit: 10; fill: none; fill-rule: nonzero; opacity: 1;"  transform=" translate(-336.35, -274.07)" d="M 339.47 272.81 a 14.8 14.8 0 0 0 -6.24 2.53" stroke-linecap="round" />
</g>
		<g transform="matrix(1 0 0 1 -43.95 -103.9)" id="freepik--hand-2--inject-5"  >
<path style="stroke: rgb(38,50,56); stroke-width: 1; stroke-dasharray: none; stroke-linecap: round; stroke-dashoffset: 0; stroke-linejoin: miter; stroke-miterlimit: 10; fill: rgb(255,255,255); fill-rule: nonzero; opacity: 1;"  transform=" translate(-206.05, -146.1)" d="M 198.76 173.35 s 9.44 0.77 15.42 2.76 s 11.86 2 10.77 -3.22 c -0.65 -3.15 -4.75 -5.16 -4.75 -5.16 s 5.31 4 10.62 1.33 s -4.39 -11.33 -4.39 -11.33 s 10.78 3.42 10.83 -0.31 s -4.9 -7.25 -6.69 -9.55 s -18.07 -8.07 -20.22 -10.82 s -0.46 -12.92 4.14 -16.5 S 212.91 110 198 120.14 s -24 23.13 -23.09 32 S 198.76 173.35 198.76 173.35 Z" stroke-linecap="round" />
</g>
		<g transform="matrix(1 0 0 1 -46.35 -102.44)" id="freepik--hand-2--inject-5"  >
<path style="stroke: rgb(38,50,56); stroke-width: 1; stroke-dasharray: none; stroke-linecap: round; stroke-dashoffset: 0; stroke-linejoin: miter; stroke-miterlimit: 10; fill: none; fill-rule: nonzero; opacity: 1;"  transform=" translate(-203.65, -147.56)" d="M 216.53 164 l -21.12 -13 s -8 -6.69 -3 -19.87" stroke-linecap="round" />
</g>
		<g transform="matrix(1 0 0 1 -39.8 -109.94)" id="freepik--hand-2--inject-5"  >
<path style="stroke: rgb(38,50,56); stroke-width: 1; stroke-dasharray: none; stroke-linecap: round; stroke-dashoffset: 0; stroke-linejoin: miter; stroke-miterlimit: 10; fill: none; fill-rule: nonzero; opacity: 1;"  transform=" translate(-210.2, -140.06)" d="M 219.54 156.45 l -15.62 -14.4 s -6.18 -7 -1 -18.38" stroke-linecap="round" />
</g>
		<g transform="matrix(1 0 0 1 -28.44 -135.8)" id="freepik--hand-2--inject-5"  >
<path style="stroke: rgb(38,50,56); stroke-width: 1; stroke-dasharray: none; stroke-linecap: round; stroke-dashoffset: 0; stroke-linejoin: miter; stroke-miterlimit: 10; fill: rgb(255,255,255); fill-rule: nonzero; opacity: 1;"  transform=" translate(-221.56, -114.2)" d="M 214.85 127.65 l 12.4 10.27 L 251 107.69 s 15.3 -6.87 19.33 -13 s 7.46 -39.33 7.46 -39.33 L 239.4 50 s -3.91 19.44 -6.29 22.07 S 192.79 91.7 188.2 95.28 s -8.48 21.34 -8.48 21.34 a 128.19 128.19 0 0 1 -8 21 c -8.75 17.72 -7.19 16.36 -3.16 20.6 s 13.84 12.86 21.45 15.06 s 17.07 10.06 14.95 0.45 c -2.18 -9.85 -23.54 -14 -21.19 -25.48 c 1.07 -5.26 12.72 -19.55 14.2 -21.44 c 0 0 10.51 -4.49 16.9 0.87 h 0" stroke-linecap="round" />
</g>
		<g transform="matrix(1 0 0 1 -41.88 -45.4)" id="freepik--hand-2--inject-5"  >
<path style="stroke: rgb(38,50,56); stroke-width: 1; stroke-dasharray: none; stroke-linecap: round; stroke-dashoffset: 0; stroke-linejoin: miter; stroke-miterlimit: 10; fill: rgb(38,50,56); fill-rule: nonzero; opacity: 1;"  transform=" translate(-208.12, -204.6)" d="M 208.12 207.15 a 1.08 1.08 0 0 1 -1 -1 l -0.15 -2.9 a 1.08 1.08 0 1 1 2.15 -0.12 l 0.16 2.9 a 1.08 1.08 0 0 1 -1 1.14 Z" stroke-linecap="round" />
</g>
		<g transform="matrix(1 0 0 1 -45.8 -98.23)" id="freepik--hand-2--inject-5"  >
<path style="stroke: rgb(38,50,56); stroke-width: 1; stroke-dasharray: none; stroke-linecap: round; stroke-dashoffset: 0; stroke-linejoin: miter; stroke-miterlimit: 10; fill: rgb(23,148,172); fill-rule: nonzero; opacity: 1;"  transform=" translate(-204.2, -151.77)" d="M 208 203.8 a 2.45 2.45 0 0 1 -2.23 -2.32 l -1.54 -8.25 l -6.93 -87.39 a 5.79 5.79 0 0 1 11.57 -0.62 l 2.24 88.31 l -0.42 7.69 a 2.46 2.46 0 0 1 -2.33 2.59 A 2.17 2.17 0 0 1 208 203.8 Z" stroke-linecap="round" />
</g>
		<g transform="matrix(1 0 0 1 -46.65 -133.81)" id="freepik--hand-2--inject-5"  >
<path style="stroke: rgb(38,50,56); stroke-width: 1; stroke-dasharray: none; stroke-linecap: round; stroke-dashoffset: 0; stroke-linejoin: miter; stroke-miterlimit: 10; fill: rgb(38,50,56); fill-rule: nonzero; opacity: 1;"  transform=" translate(-203.35, -116.19)" d="M 197.25 105.84 l 2 25.22 a 8 8 0 0 0 9.45 0 a 7 7 0 0 0 0.75 -0.68 l -0.63 -25.12 a 5.79 5.79 0 0 0 -11.57 0.62 Z" stroke-linecap="round" />
</g>
		<g transform="matrix(1 0 0 1 -11.97 -115.3)" id="freepik--hand-2--inject-5"  >
<path style="stroke: rgb(38,50,56); stroke-width: 1; stroke-dasharray: none; stroke-linecap: round; stroke-dashoffset: 0; stroke-linejoin: miter; stroke-miterlimit: 10; fill: rgb(255,255,255); fill-rule: nonzero; opacity: 1;"  transform=" translate(-238.03, -134.7)" d="M 270.28 94.65 C 267 105.46 252.52 120.32 250 125.56 a 261.37 261.37 0 0 1 -19.56 34.19 c -2.49 3.73 -5.18 4.26 -6.82 5.6 c -2.4 2 -3.63 4.05 -7.73 7.23 c -6.89 5.36 -12.69 0.37 -8.91 -9.94 S 217.7 138 217.7 138 s 1.74 -7.25 -5.35 -13.53" stroke-linecap="round" />
</g>
		<g transform="matrix(1 0 0 1 -35.86 -80.03)" id="freepik--hand-2--inject-5"  >
<path style="stroke: rgb(38,50,56); stroke-width: 1; stroke-dasharray: none; stroke-linecap: round; stroke-dashoffset: 0; stroke-linejoin: miter; stroke-miterlimit: 10; fill: rgb(255,255,255); fill-rule: nonzero; opacity: 1;"  transform=" translate(-214.14, -169.97)" d="M 208.5 169.06 l 1.88 -3.92 s 0.27 0.35 3.58 1.71 a 12.65 12.65 0 0 0 6.24 0.88 s -4.77 7.52 -8.5 7.05 a 4.17 4.17 0 0 1 -2.48 -1.13 A 4 4 0 0 1 208.5 169.06 Z" stroke-linecap="round" />
</g>
		<g transform="matrix(1 0 0 1 17.56 -197.32)" id="freepik--hand-2--inject-5"  >
<path style="stroke: rgb(38,50,56); stroke-width: 1; stroke-dasharray: none; stroke-linecap: round; stroke-dashoffset: 0; stroke-linejoin: miter; stroke-miterlimit: 10; fill: rgb(38,50,56); fill-rule: nonzero; opacity: 1;"  transform=" translate(-267.56, -52.68)" d="M 236.16 18.67 L 228.21 70.3 S 237.8 78.73 250.54 81 s 36 5.71 36 5.71 l 20.36 -68.06" stroke-linecap="round" />
</g>
		<g transform="matrix(1 0 0 1 28.51 -174.83)" id="freepik--hand-2--inject-5"  >
<path style="stroke: rgb(38,50,56); stroke-width: 2; stroke-dasharray: none; stroke-linecap: round; stroke-dashoffset: 0; stroke-linejoin: round; stroke-miterlimit: 4; fill: rgb(255,255,255); fill-rule: nonzero; opacity: 1;"  transform=" translate(-278.51, -75.17)" d="M 282.44 75.17 a 3.93 3.93 0 1 1 -3.93 -3.93 A 3.93 3.93 0 0 1 282.44 75.17 Z" stroke-linecap="round" />
</g>
		<g transform="matrix(1 0 0 1 -33.12 -94.03)" id="freepik--hand-2--inject-5"  >
<path style="stroke: rgb(38,50,56); stroke-width: 1; stroke-dasharray: none; stroke-linecap: round; stroke-dashoffset: 0; stroke-linejoin: miter; stroke-miterlimit: 10; fill: none; fill-rule: nonzero; opacity: 1;"  transform=" translate(-216.88, -155.97)" d="M 217.21 156.31 l -0.67 -0.68" stroke-linecap="round" />
</g>
		<g transform="matrix(1 0 0 1 -27.55 -90.99)" id="freepik--hand-2--inject-5"  >
<path style="stroke: rgb(38,50,56); stroke-width: 1; stroke-dasharray: none; stroke-linecap: round; stroke-dashoffset: 0; stroke-linejoin: miter; stroke-miterlimit: 10; fill: none; fill-rule: nonzero; opacity: 1;"  transform=" translate(-222.45, -159.01)" d="M 226.37 160.22 s -2.84 1.54 -7.83 -2.69" stroke-linecap="round" />
</g>
		<g transform="matrix(1 0 0 1 -26.92 -92.92)" id="freepik--hand-2--inject-5"  >
<path style="stroke: rgb(38,50,56); stroke-width: 1; stroke-dasharray: none; stroke-linecap: round; stroke-dashoffset: 0; stroke-linejoin: miter; stroke-miterlimit: 10; fill: none; fill-rule: nonzero; opacity: 1;"  transform=" translate(-223.08, -157.08)" d="M 220.32 156.1 s 1.34 -0.47 5.52 2" stroke-linecap="round" />
</g>
		<g transform="matrix(1 0 0 1 -30.02 -89.44)" id="freepik--hand-2--inject-5"  >
<path style="stroke: rgb(38,50,56); stroke-width: 1; stroke-dasharray: none; stroke-linecap: round; stroke-dashoffset: 0; stroke-linejoin: miter; stroke-miterlimit: 10; fill: none; fill-rule: nonzero; opacity: 1;"  transform=" translate(-219.98, -160.56)" d="M 217.07 158.88 a 14.83 14.83 0 0 0 5.82 3.36" stroke-linecap="round" />
</g>
		<g transform="matrix(1 0 0 1 -57.03 84.72)" id="freepik--hand-1--inject-5"  >
<path style="stroke: rgb(38,50,56); stroke-width: 1; stroke-dasharray: none; stroke-linecap: round; stroke-dashoffset: 0; stroke-linejoin: miter; stroke-miterlimit: 10; fill: rgb(255,255,255); fill-rule: nonzero; opacity: 1;"  transform=" translate(-192.97, -334.72)" d="M 219.94 327.17 s 0.91 9.43 3 15.38 s 2.21 11.83 -3.06 10.82 c -3.16 -0.61 -5.23 -4.67 -5.23 -4.67 s 4.07 5.25 1.49 10.59 s -11.4 -4.22 -11.4 -4.22 s 3.58 10.72 -0.14 10.83 s -7.33 -4.79 -9.65 -6.54 s -8.34 -18 -11.13 -20.06 s -12.92 -0.27 -16.42 4.38 s -10.6 -1.42 -0.66 -16.53 s 22.77 -24.4 31.61 -23.56 S 219.94 327.17 219.94 327.17 Z" stroke-linecap="round" />
</g>
		<g transform="matrix(1 0 0 1 -55.81 82.38)" id="freepik--hand-1--inject-5"  >
<path style="stroke: rgb(38,50,56); stroke-width: 1; stroke-dasharray: none; stroke-linecap: round; stroke-dashoffset: 0; stroke-linejoin: miter; stroke-miterlimit: 10; fill: none; fill-rule: nonzero; opacity: 1;"  transform=" translate(-194.19, -332.38)" d="M 210.81 345.08 l -13.32 -20.93 s -6.81 -7.91 -19.92 -2.68" stroke-linecap="round" />
</g>
		<g transform="matrix(1 0 0 1 -63.16 89.03)" id="freepik--hand-1--inject-5"  >
<path style="stroke: rgb(38,50,56); stroke-width: 1; stroke-dasharray: none; stroke-linecap: round; stroke-dashoffset: 0; stroke-linejoin: miter; stroke-miterlimit: 10; fill: none; fill-rule: nonzero; opacity: 1;"  transform=" translate(-186.84, -339.03)" d="M 203.35 348.2 l -14.63 -15.41 s -7.09 -6.07 -18.39 -0.74" stroke-linecap="round" />
</g>
		<g transform="matrix(1 0 0 1 -94.06 97.19)" id="freepik--hand-1--inject-5"  >
<path style="stroke: rgb(38,50,56); stroke-width: 1; stroke-dasharray: none; stroke-linecap: round; stroke-dashoffset: 0; stroke-linejoin: miter; stroke-miterlimit: 10; fill: rgb(255,255,255); fill-rule: nonzero; opacity: 1;"  transform=" translate(-155.94, -347.19)" d="M 174.49 343.93 l 10.44 12.26 l -29.87 24.14 s -16.32 8.1 -22.38 12.28 S 93.53 401 93.53 401 L 87.35 362.8 s 19.34 -4.37 21.9 -6.81 s 29 -33.57 32.47 -38.22 s 21.22 -8.8 21.22 -8.8 s 7.94 -2.59 16.81 -10.48 s 20.28 -5.28 24.58 -1.31 s 16 15 18.31 22.54 s 3.45 15.73 -2.25 13.62 c -9.47 -3.51 -14.34 -23.32 -25.8 -20.81 c -5.24 1.15 -19.36 13 -21.22 14.52 c 0 0 -4.34 10.58 1.12 16.88 h 0" stroke-linecap="round" />
</g>
		<g transform="matrix(1 0 0 1 1.38 86.02)" id="freepik--hand-1--inject-5"  >
<path style="stroke: rgb(38,50,56); stroke-width: 1; stroke-dasharray: none; stroke-linecap: round; stroke-dashoffset: 0; stroke-linejoin: miter; stroke-miterlimit: 10; fill: rgb(38,50,56); fill-rule: nonzero; opacity: 1;"  transform=" translate(-251.38, -336.02)" d="M 253.87 336 a 1.08 1.08 0 0 0 -1 -1 l -2.9 -0.11 a 1.08 1.08 0 1 0 -0.08 2.16 l 2.9 0.11 a 1.09 1.09 0 0 0 1.12 -1 A 0.76 0.76 0 0 0 253.87 336 Z" stroke-linecap="round" />
</g>
		<g transform="matrix(1 0 0 1 -51.53 82.91)" id="freepik--hand-1--inject-5"  >
<path style="stroke: rgb(38,50,56); stroke-width: 1; stroke-dasharray: none; stroke-linecap: round; stroke-dashoffset: 0; stroke-linejoin: miter; stroke-miterlimit: 10; fill: rgb(23,148,172); fill-rule: nonzero; opacity: 1;"  transform=" translate(-198.47, -332.91)" d="M 250.53 335.91 a 2.47 2.47 0 0 0 -2.36 -2.2 l -8.27 -1.42 l -87.48 -5.63 a 5.79 5.79 0 0 0 -0.45 11.58 l 88.33 0.92 l 7.68 -0.52 a 2.47 2.47 0 0 0 2.56 -2.37 A 2.17 2.17 0 0 0 250.53 335.91 Z" stroke-linecap="round" />
</g>
		<g transform="matrix(1 0 0 1 -87.15 82.58)" id="freepik--hand-1--inject-5"  >
<path style="stroke: rgb(38,50,56); stroke-width: 1; stroke-dasharray: none; stroke-linecap: round; stroke-dashoffset: 0; stroke-linejoin: miter; stroke-miterlimit: 10; fill: rgb(38,50,56); fill-rule: nonzero; opacity: 1;"  transform=" translate(-162.85, -332.58)" d="M 152.42 326.66 l 25.24 1.63 a 8 8 0 0 1 0.11 9.45 a 9.83 9.83 0 0 1 -0.67 0.76 L 152 338.24 a 5.79 5.79 0 0 1 0.45 -11.58 Z" stroke-linecap="round" />
</g>
		<g transform="matrix(1 0 0 1 -72.89 113.42)" id="freepik--hand-1--inject-5"  >
<path style="stroke: rgb(38,50,56); stroke-width: 1; stroke-dasharray: none; stroke-linecap: round; stroke-dashoffset: 0; stroke-linejoin: miter; stroke-miterlimit: 10; fill: rgb(255,255,255); fill-rule: nonzero; opacity: 1;"  transform=" translate(-177.11, -363.42)" d="M 132.68 392.61 c 10.72 -3.58 31.6 -17.73 37.19 -19.35 s 19.27 -4.2 28.37 -10.46 s 15.93 -11.54 21.19 -18.52 s 0.18 -12.69 -10.08 -8.76 s -24.51 11.12 -24.51 11.12 s -7.22 1.84 -13.61 -5.16" stroke-linecap="round" />
</g>
		<g transform="matrix(1 0 0 1 -33.24 92.63)" id="freepik--hand-1--inject-5"  >
<path style="stroke: rgb(38,50,56); stroke-width: 1; stroke-dasharray: none; stroke-linecap: round; stroke-dashoffset: 0; stroke-linejoin: miter; stroke-miterlimit: 10; fill: rgb(255,255,255); fill-rule: nonzero; opacity: 1;"  transform=" translate(-216.76, -342.63)" d="M 215.8 337 l -3.9 1.93 s 0.36 0.27 1.77 3.55 a 12.67 12.67 0 0 1 1 6.24 s 7.45 -4.88 6.92 -8.61 a 4.22 4.22 0 0 0 -1.16 -2.47 A 4 4 0 0 0 215.8 337 Z" stroke-linecap="round" />
</g>
		<g transform="matrix(1 0 0 1 -150.1 131.44)" id="freepik--hand-1--inject-5"  >
<path style="stroke: rgb(38,50,56); stroke-width: 1; stroke-dasharray: none; stroke-linecap: round; stroke-dashoffset: 0; stroke-linejoin: miter; stroke-miterlimit: 10; fill: rgb(255,255,255); fill-rule: nonzero; opacity: 1;"  transform=" translate(-99.9, -381.44)" d="M 107.18 354.57 s 9.56 12.93 11.13 24.13 a 183.06 183.06 0 0 1 1.54 22.61 l -29.19 7 s -1.32 -18.16 -3.92 -28 a 154 154 0 0 0 -6.8 -19.43 Z" stroke-linecap="round" />
</g>
		<g transform="matrix(1 0 0 1 -180.81 149.56)" id="freepik--hand-1--inject-5"  >
<path style="stroke: rgb(38,50,56); stroke-width: 1; stroke-dasharray: none; stroke-linecap: round; stroke-dashoffset: 0; stroke-linejoin: miter; stroke-miterlimit: 10; fill: rgb(38,50,56); fill-rule: nonzero; opacity: 1;"  transform=" translate(-69.19, -399.56)" d="M 108.51 377.13 c -2.6 -12.68 -11.25 -22.07 -11.25 -22.07 l -69.07 11 v 78 l 81.72 -33.71 S 111.1 389.81 108.51 377.13 Z" stroke-linecap="round" />
</g>
		<g transform="matrix(1 0 0 1 -163.06 161.06)" id="freepik--hand-1--inject-5"  >
<path style="stroke: none; stroke-width: 1; stroke-dasharray: none; stroke-linecap: butt; stroke-dashoffset: 0; stroke-linejoin: miter; stroke-miterlimit: 4; fill: rgb(255,255,255); fill-rule: nonzero; opacity: 1;"  transform=" translate(-86.94, -411.06)" d="M 90 411 A 3.06 3.06 0 1 1 87 408 A 3.06 3.06 0 0 1 90 411 Z" stroke-linecap="round" />
</g>
		<g transform="matrix(1 0 0 1 -154.48 157.35)" id="freepik--hand-1--inject-5"  >
<path style="stroke: none; stroke-width: 1; stroke-dasharray: none; stroke-linecap: butt; stroke-dashoffset: 0; stroke-linejoin: miter; stroke-miterlimit: 4; fill: rgb(255,255,255); fill-rule: nonzero; opacity: 1;"  transform=" translate(-95.52, -407.35)" d="M 98.58 407.36 a 3.06 3.06 0 1 1 -3.06 -3.07 A 3.06 3.06 0 0 1 98.58 407.36 Z" stroke-linecap="round" />
</g>
		<g transform="matrix(1 0 0 1 -53.94 98.56)" id="freepik--hand-1--inject-5"  >
<path style="stroke: rgb(38,50,56); stroke-width: 1; stroke-dasharray: none; stroke-linecap: round; stroke-dashoffset: 0; stroke-linejoin: miter; stroke-miterlimit: 10; fill: none; fill-rule: nonzero; opacity: 1;"  transform=" translate(-196.06, -348.56)" d="M 196.4 348.89 l -0.68 -0.66" stroke-linecap="round" />
</g>
		<g transform="matrix(1 0 0 1 -50.83 104.1)" id="freepik--hand-1--inject-5"  >
<path style="stroke: rgb(38,50,56); stroke-width: 1; stroke-dasharray: none; stroke-linecap: round; stroke-dashoffset: 0; stroke-linejoin: miter; stroke-miterlimit: 10; fill: none; fill-rule: nonzero; opacity: 1;"  transform=" translate(-199.17, -354.1)" d="M 200.45 358 s 1.5 -2.87 -2.81 -7.8" stroke-linecap="round" />
</g>
		<g transform="matrix(1 0 0 1 -52.74 104.75)" id="freepik--hand-1--inject-5"  >
<path style="stroke: rgb(38,50,56); stroke-width: 1; stroke-dasharray: none; stroke-linecap: round; stroke-dashoffset: 0; stroke-linejoin: miter; stroke-miterlimit: 10; fill: none; fill-rule: nonzero; opacity: 1;"  transform=" translate(-197.26, -354.75)" d="M 196.25 352 s -0.46 1.35 2.05 5.49" stroke-linecap="round" />
</g>
		<g transform="matrix(1 0 0 1 -49.28 101.6)" id="freepik--hand-1--inject-5"  >
<path style="stroke: rgb(38,50,56); stroke-width: 1; stroke-dasharray: none; stroke-linecap: round; stroke-dashoffset: 0; stroke-linejoin: miter; stroke-miterlimit: 10; fill: none; fill-rule: nonzero; opacity: 1;"  transform=" translate(-200.72, -351.6)" d="M 199 348.71 a 14.76 14.76 0 0 1 3.45 5.78" stroke-linecap="round" />
</g>
</g>
</g>
</svg>