<?xml version="1.0" encoding="UTF-8" standalone="no" ?>
<!DOCTYPE svg PUBLIC "-//W3C//DTD SVG 1.1//EN" "http://www.w3.org/Graphics/SVG/1.1/DTD/svg11.dtd">
<svg xmlns="http://www.w3.org/2000/svg" xmlns:xlink="http://www.w3.org/1999/xlink" version="1.1" width="640" height="480" viewBox="0 0 640 480" xml:space="preserve">
<desc>Created with Fabric.js 3.6.6</desc>
<defs>
</defs>
<g transform="matrix(1 0 0 1 320.12 240.12)"  >
<g style=""   >
		<g transform="matrix(5.72 0 0 5.72 -6.87 -0.88)"  >
<circle style="stroke: rgb(23,148,172); stroke-width: 3; stroke-dasharray: none; stroke-linecap: butt; stroke-dashoffset: 0; stroke-linejoin: miter; stroke-miterlimit: 4; fill: rgb(255,255,0); fill-opacity: 0; fill-rule: nonzero; opacity: 1;" vector-effect="non-scaling-stroke"  cx="0" cy="0" r="40" />
</g>
		<g transform="matrix(5.72 0 0 5.72 6.82 0.82)"  >
<circle style="stroke: rgb(161,212,226); stroke-width: 3; stroke-dasharray: none; stroke-linecap: butt; stroke-dashoffset: 0; stroke-linejoin: miter; stroke-miterlimit: 4; fill: rgb(255,255,0); fill-opacity: 0; fill-rule: nonzero; opacity: 1;" vector-effect="non-scaling-stroke"  cx="0" cy="0" r="40" />
</g>
</g>
</g>
<g transform="matrix(0.8 0 0 0.8 319.38 234.88)"  >
<g style=""   >
		<g transform="matrix(1 0 0 1 0.98 21.59)" id="freepik--background-simple--inject-2"  >
<path style="stroke: none; stroke-width: 1; stroke-dasharray: none; stroke-linecap: butt; stroke-dashoffset: 0; stroke-linejoin: miter; stroke-miterlimit: 4; fill: rgb(23,148,172); fill-rule: nonzero; opacity: 1;"  transform=" translate(-250.98, -271.59)" d="M 353.16 445.09 s -71.06 34.82 -147.73 0.9 S 83.73 332.57 45.56 269.13 s -27 -133.63 25.06 -171 s 94.34 4.21 172.09 -2.34 S 340.18 75.71 409 112.61 s 91.05 140 48.15 222.94 S 353.16 445.09 353.16 445.09 Z" stroke-linecap="round" />
</g>
		<g transform="matrix(1 0 0 1 0.98 21.59)" id="freepik--background-simple--inject-2"  >
<path style="stroke: none; stroke-width: 1; stroke-dasharray: none; stroke-linecap: butt; stroke-dashoffset: 0; stroke-linejoin: miter; stroke-miterlimit: 4; fill: rgb(255,255,255); fill-rule: nonzero; opacity: 0.7000000000000001;"  transform=" translate(-250.98, -271.59)" d="M 353.16 445.09 s -71.06 34.82 -147.73 0.9 S 83.73 332.57 45.56 269.13 s -27 -133.63 25.06 -171 s 94.34 4.21 172.09 -2.34 S 340.18 75.71 409 112.61 s 91.05 140 48.15 222.94 S 353.16 445.09 353.16 445.09 Z" stroke-linecap="round" />
</g>
		<g transform="matrix(1 0 0 1 77.11 -166.27)" id="freepik--Clouds--inject-2"  >
<path style="stroke: rgb(38,50,56); stroke-width: 1; stroke-dasharray: none; stroke-linecap: round; stroke-dashoffset: 0; stroke-linejoin: round; stroke-miterlimit: 4; fill: none; fill-rule: nonzero; opacity: 1;"  transform=" translate(-327.11, -83.73)" d="M 401.92 84.11 S 402.68 57 376 53 s -32.1 15.1 -39.44 20.43 s -8.67 -10.67 -25.34 -4.66 s -10 19.34 -18 24 s -10.86 -7.71 -23.34 -6 s -9.9 15.11 -15.34 18 s -11.52 -0.23 -22.1 -1.11 S 220.29 115 220.29 115 H 432.6 s 5.33 -18.89 -5.34 -25.56 S 404.59 88.11 401.92 84.11 Z" stroke-linecap="round" />
</g>
		<g transform="matrix(1 0 0 1 -126.04 -5.02)" id="freepik--Clouds--inject-2"  >
<path style="stroke: rgb(38,50,56); stroke-width: 1; stroke-dasharray: none; stroke-linecap: round; stroke-dashoffset: 0; stroke-linejoin: round; stroke-miterlimit: 4; fill: none; fill-rule: nonzero; opacity: 1;"  transform=" translate(-123.96, -244.98)" d="M 181.16 245.38 s -5.1 -20.91 -25.5 -24 s -18.87 11.73 -24.48 15.81 s -6.62 -8.16 -19.37 -3.57 S 104.16 248.44 98 252 s -8.3 -5.89 -17.85 -4.59 S 72.62 259 68.47 261.19 s -8.81 -0.18 -16.9 -0.86 S 42.29 269 42.29 269 H 204.61 s 4.08 -14.44 -4.08 -19.54 S 183.2 248.44 181.16 245.38 Z" stroke-linecap="round" />
</g>
		<g transform="matrix(1 0 0 1 178.36 -96.48)" id="freepik--Clouds--inject-2"  >
<path style="stroke: rgb(38,50,56); stroke-width: 1; stroke-dasharray: none; stroke-linecap: round; stroke-dashoffset: 0; stroke-linejoin: round; stroke-miterlimit: 4; fill: none; fill-rule: nonzero; opacity: 1;"  transform=" translate(-428.36, -153.52)" d="M 461.7 153.62 s 4.45 -12 -7.45 -13.74 s -18.43 6.6 -21.7 9 s -3.87 -4.76 -11.31 -2.08 s -4.46 8.63 -8 10.71 s -4.84 -3.44 -10.41 -2.68 s -4.41 6.74 -6.84 8 s -5.13 -0.1 -9.85 -0.5 s -5.42 5.06 -5.42 5.06 h 94.69 S 477.76 159 473 156 S 462.89 155.41 461.7 153.62 Z" stroke-linecap="round" />
</g>
		<g transform="matrix(1 0 0 1 108.35 109.38)" id="freepik--characters-2--inject-2"  >
<path style="stroke: rgb(38,50,56); stroke-width: 1; stroke-dasharray: none; stroke-linecap: round; stroke-dashoffset: 0; stroke-linejoin: round; stroke-miterlimit: 4; fill: rgb(255,255,255); fill-rule: nonzero; opacity: 1;"  transform=" translate(-358.35, -359.38)" d="M 336.93 286.76 s 7.82 38.2 9.84 44.86 a 55 55 0 0 1 2.32 10.13 s 1.45 13.89 3.18 25.47 s 10.13 42 10.42 44.86 s -1.73 8.68 -4.05 12.16 s -11.29 10.13 -11.29 12.15 s 9.55 2 14.76 2 s 13 -0.87 15.05 -1.74 s 2.61 -2.31 2.61 -5.21 s -4.63 -29.81 -4.92 -38.49 s 3.76 -22.87 1.74 -34.44 s -5.79 -24.31 -5.79 -34.44 s -0.29 -43.71 -0.29 -43.71 S 345.62 288.21 336.93 286.76 Z" stroke-linecap="round" />
</g>
		<g transform="matrix(1 0 0 1 113.56 176.36)" id="freepik--characters-2--inject-2"  >
<path style="stroke: rgb(38,50,56); stroke-width: 1; stroke-dasharray: none; stroke-linecap: round; stroke-dashoffset: 0; stroke-linejoin: round; stroke-miterlimit: 4; fill: rgb(255,255,255); fill-rule: nonzero; opacity: 1;"  transform=" translate(-363.56, -426.36)" d="M 369.06 415.55 c -3.47 -3.18 -6.95 0.87 -6.95 0.87 h 0 a 29.17 29.17 0 0 1 -3.47 7.82 c -2.31 3.47 -11.29 10.13 -11.29 12.15 s 9.55 2 14.76 2 s 13 -0.87 15.05 -1.74 s 2.61 -2.31 2.61 -5.21 c 0 -1.15 -0.73 -6.1 -1.63 -12.19 l -3.58 1.19 S 372.53 418.74 369.06 415.55 Z" stroke-linecap="round" />
</g>
		<g transform="matrix(1 0 0 1 53.5 97.5)" id="freepik--characters-2--inject-2"  >
<path style="stroke: rgb(38,50,56); stroke-width: 1; stroke-dasharray: none; stroke-linecap: round; stroke-dashoffset: 0; stroke-linejoin: round; stroke-miterlimit: 4; fill: rgb(255,255,255); fill-rule: nonzero; opacity: 1;"  transform=" translate(-303.5, -347.5)" d="M 300 260.67 s -4.33 16.66 -8.33 31 s -3 28 -3.67 35.33 s -3.67 22.33 -0.67 37.33 s 8.34 38.34 8.34 40.34 a 13 13 0 0 1 -4 9 C 288.33 417 280 424.33 280 428 a 6.06 6.06 0 0 0 8 6 c 5 -1.33 10.33 -6.67 12.33 -11.33 s 8 -6.34 8.34 -11 s -1.34 -9 -2 -13.67 s -2.67 -24.33 0 -37 S 308 330 308 330 s 6 -16.67 9.33 -24.33 S 327 280 327 280 Z" stroke-linecap="round" />
</g>
		<g transform="matrix(1 0 0 1 44.34 168.95)" id="freepik--characters-2--inject-2"  >
<path style="stroke: rgb(38,50,56); stroke-width: 1; stroke-dasharray: none; stroke-linecap: round; stroke-dashoffset: 0; stroke-linejoin: round; stroke-miterlimit: 4; fill: rgb(255,255,255); fill-rule: nonzero; opacity: 1;"  transform=" translate(-294.34, -418.95)" d="M 308.67 411.67 a 28.34 28.34 0 0 0 -0.9 -8.1 a 23.6 23.6 0 0 1 -6.44 9.43 a 15 15 0 0 0 -3.33 -4.67 c -1.38 -1.15 -2.61 -0.07 -3.23 0.71 a 13.9 13.9 0 0 1 -3.1 4.63 C 288.33 417 280 424.33 280 428 a 6.06 6.06 0 0 0 8 6 c 5 -1.33 10.33 -6.67 12.33 -11.33 S 308.33 416.33 308.67 411.67 Z" stroke-linecap="round" />
</g>
		<g transform="matrix(1 0 0 1 88.14 8.55)" id="freepik--characters-2--inject-2"  >
<path style="stroke: rgb(38,50,56); stroke-width: 1; stroke-dasharray: none; stroke-linecap: round; stroke-dashoffset: 0; stroke-linejoin: round; stroke-miterlimit: 4; fill: rgb(38,50,56); fill-rule: nonzero; opacity: 1;"  transform=" translate(-338.14, -258.55)" d="M 313.78 225.69 a 70.78 70.78 0 0 0 -9 15.05 c -3.19 7.81 -6.95 18.81 -6.08 20 s 8.68 12.45 13.89 15.92 s 14.47 6.66 14.47 6.66 l 3.19 -3.19 l 1.15 9.26 s 5.5 1.45 17.66 2 s 28.65 -6.66 28.65 -6.66 s -3.64 -24.38 -7.41 -33.06 s -10.82 -17.3 -10.82 -17.3 s -24.31 2.61 -34.73 -1.15 S 313.78 225.69 313.78 225.69 Z" stroke-linecap="round" />
</g>
		<g transform="matrix(1 0 0 1 104.3 35.97)" id="freepik--characters-2--inject-2"  >
<path style="stroke: rgb(38,50,56); stroke-width: 1; stroke-dasharray: none; stroke-linecap: round; stroke-dashoffset: 0; stroke-linejoin: round; stroke-miterlimit: 4; fill: rgb(153,153,153); fill-rule: nonzero; opacity: 1;"  transform=" translate(-354.3, -285.97)" d="M 376.66 280.55 c -4.05 2 -13.78 6.41 -23.52 7.08 a 56.11 56.11 0 0 1 -22.28 -2.9 l 0.57 4.63 s 5.5 1.45 17.66 2 s 28.65 -6.66 28.65 -6.66 S 377.33 283.12 376.66 280.55 Z" stroke-linecap="round" />
</g>
		<g transform="matrix(1 0 0 1 63.28 20.48)" id="freepik--characters-2--inject-2"  >
<path style="stroke: rgb(38,50,56); stroke-width: 1; stroke-dasharray: none; stroke-linecap: round; stroke-dashoffset: 0; stroke-linejoin: round; stroke-miterlimit: 4; fill: rgb(153,153,153); fill-rule: nonzero; opacity: 1;"  transform=" translate(-313.28, -270.48)" d="M 327.09 283.29 l 0.86 -0.86 a 97.82 97.82 0 0 1 -12.43 -7.83 c -6.28 -4.54 -13.36 -13 -16.54 -16.93 c -0.37 1.6 -0.5 2.71 -0.25 3 c 0.87 1.16 8.68 12.45 13.89 15.92 S 327.09 283.29 327.09 283.29 Z" stroke-linecap="round" />
</g>
		<g transform="matrix(1 0 0 1 90.99 14.19)" id="freepik--characters-2--inject-2"  >
<path style="stroke: rgb(107,107,107); stroke-width: 1; stroke-dasharray: none; stroke-linecap: round; stroke-dashoffset: 0; stroke-linejoin: round; stroke-miterlimit: 4; fill: none; fill-rule: nonzero; opacity: 1;"  transform=" translate(-340.99, -264.19)" d="M 332.3 272.87 s 10.13 -12.45 17.37 -17.37" stroke-linecap="round" />
</g>
		<g transform="matrix(1 0 0 1 24.88 42.87)" id="freepik--characters-2--inject-2"  >
<path style="stroke: rgb(38,50,56); stroke-width: 1; stroke-dasharray: none; stroke-linecap: round; stroke-dashoffset: 0; stroke-linejoin: round; stroke-miterlimit: 4; fill: rgb(255,255,255); fill-rule: nonzero; opacity: 1;"  transform=" translate(-274.88, -292.87)" d="M 270.33 146 s 0.67 9.33 -3.33 11.33 s -23.67 0 -30.67 0.67 s -45.66 26.33 -47.66 28 s 1.33 11.33 6.66 13.33 s 35 -12.66 35 -12.66 S 240 211 241.33 213 S 235 234 230 242 s -10.33 26.67 -10.67 38.33 s 6 36.34 9.67 43.67 s 3 10 1.67 19 s -2.53 23 -0.17 31.5 c 2.5 9 11.17 43.17 11.17 43.17 s -9.34 8.66 -14.34 12.66 s -10.66 5 -9.66 7.34 s 32.33 0 34.33 0 a 5 5 0 0 0 4.67 -4.67 c 0 -2.67 -0.67 -15 -0.67 -18 s 0.67 -40.67 0.67 -52.33 V 333.33 S 258 311 258 306 s 2.67 -18.33 2.67 -18.33 h 5 s 17.33 31.33 21 37.66 s 7.33 13 7.33 13 s -0.33 29 5.33 39.34 s 17 32.66 18.67 36 S 321 435 323 437 s 36.67 3 37.67 2.67 s 2 -4.67 -1 -7 s -16 -7.67 -19.34 -10.34 s -6.06 -3 -8 -10.33 c -0.46 -1.74 -5.33 -31.67 -6 -42.33 s -7.66 -36.34 -7.66 -36.34 s -5.34 -38 -8 -49.66 S 296 240 295.67 238 S 291 224.33 291 224.33 s 1.67 -5.66 3.67 -8.33 S 301 203 301 198.67 a 31.52 31.52 0 0 1 0.67 -7 s 2.33 -4.34 5 -6.34 s 15 -12.33 15 -12.33 s -1 -4.33 -7.67 -7.67 s -23.67 -4.33 -24.67 -4.66 s -1.66 -7 -1 -10.34 S 270.33 146 270.33 146 Z" stroke-linecap="round" />
</g>
		<g transform="matrix(1 0 0 1 81.94 159.25)" id="freepik--characters-2--inject-2"  >
<path style="stroke: rgb(38,50,56); stroke-width: 1; stroke-dasharray: none; stroke-linecap: round; stroke-dashoffset: 0; stroke-linejoin: round; stroke-miterlimit: 4; fill: rgb(153,153,153); fill-rule: nonzero; opacity: 1;"  transform=" translate(-331.94, -409.25)" d="M 359.67 432.67 c -3 -2.34 -16 -7.67 -19.34 -10.34 s -6.06 -3 -8 -10.33 c -0.36 -1.36 -3.43 -20.08 -5.07 -33.23 A 151 151 0 0 1 302.21 383 c 6 11.25 14.37 27.82 15.79 30.66 c 1.67 3.33 3 21.33 5 23.33 s 36.67 3 37.67 2.67 S 362.67 435 359.67 432.67 Z" stroke-linecap="round" />
</g>
		<g transform="matrix(1 0 0 1 -12.89 160.31)" id="freepik--characters-2--inject-2"  >
<path style="stroke: rgb(38,50,56); stroke-width: 1; stroke-dasharray: none; stroke-linecap: round; stroke-dashoffset: 0; stroke-linejoin: round; stroke-miterlimit: 4; fill: rgb(153,153,153); fill-rule: nonzero; opacity: 1;"  transform=" translate(-237.11, -410.31)" d="M 232.48 381.91 c 3.49 13.29 9.19 35.76 9.19 35.76 s -9.34 8.66 -14.34 12.66 s -10.66 5 -9.66 7.34 s 32.33 0 34.33 0 a 5 5 0 0 0 4.67 -4.67 c 0 -2.67 -0.67 -15 -0.67 -18 c 0 -1.87 0.26 -17.22 0.45 -31.34 C 246.66 383.2 238.24 382.48 232.48 381.91 Z" stroke-linecap="round" />
</g>
		<g transform="matrix(1 0 0 1 23.79 62.45)" id="freepik--characters-2--inject-2"  >
<path style="stroke: rgb(38,50,56); stroke-width: 1; stroke-dasharray: none; stroke-linecap: round; stroke-dashoffset: 0; stroke-linejoin: round; stroke-miterlimit: 4; fill: rgb(38,50,56); fill-rule: nonzero; opacity: 1;"  transform=" translate(-273.79, -312.45)" d="M 326.33 369.67 c -0.66 -10.67 -7.66 -36.34 -7.66 -36.34 s -5.34 -38 -8 -49.66 c -2.4 -10.48 -12.32 -37.35 -14.56 -44.17 c -12 2.19 -37.77 5 -62.18 -4.84 A 78.55 78.55 0 0 1 230 242 c -5 8 -10.33 26.67 -10.67 38.33 s 6 36.34 9.67 43.67 s 3 10 1.67 19 s -2.53 23 -0.17 31.5 c 0.8 2.89 2.24 8.37 3.82 14.48 a 84.29 84.29 0 0 0 22.05 0.91 c 0.15 -10.62 0.3 -21.77 0.3 -27.22 V 333.33 S 258 311 258 306 s 2.67 -18.33 2.67 -18.33 h 5 s 17.33 31.33 21 37.66 s 7.33 13 7.33 13 s -0.33 29 5.33 39.34 c 1.69 3.08 3.89 7.24 6.19 11.64 a 100.61 100.61 0 0 0 22.75 -2.61 C 327.35 380 326.58 373.55 326.33 369.67 Z" stroke-linecap="round" />
</g>
		<g transform="matrix(1 0 0 1 -12.89 178.02)" id="freepik--characters-2--inject-2"  >
<path style="stroke: rgb(38,50,56); stroke-width: 1; stroke-dasharray: none; stroke-linecap: round; stroke-dashoffset: 0; stroke-linejoin: round; stroke-miterlimit: 4; fill: rgb(255,255,255); fill-rule: nonzero; opacity: 1;"  transform=" translate(-237.11, -428.02)" d="M 248 420 c -1.5 -4 -6.33 -2.33 -6.33 -2.33 s -9.34 8.66 -14.34 12.66 s -10.66 5 -9.66 7.34 s 32.33 0 34.33 0 a 5 5 0 0 0 4.67 -4.67 c 0 -1.35 -0.17 -5.17 -0.34 -9 H 249.5 Z" stroke-linecap="round" />
</g>
		<g transform="matrix(1 0 0 1 90.9 179.59)" id="freepik--characters-2--inject-2"  >
<path style="stroke: rgb(38,50,56); stroke-width: 1; stroke-dasharray: none; stroke-linecap: round; stroke-dashoffset: 0; stroke-linejoin: round; stroke-miterlimit: 4; fill: rgb(255,255,255); fill-rule: nonzero; opacity: 1;"  transform=" translate(-340.9, -429.59)" d="M 359.67 432.67 c -3 -2.34 -16 -7.67 -19.34 -10.34 c -1.43 -1.14 -2.75 -1.86 -3.94 -2.89 a 4.27 4.27 0 0 0 -2.36 1.07 c -1.93 1.69 -2.18 6 -2.18 6 s -7.15 -1.3 -11.72 -2.3 C 321 429.93 321.9 435.9 323 437 c 2 2 36.67 3 37.67 2.67 S 362.67 435 359.67 432.67 Z" stroke-linecap="round" />
</g>
		<g transform="matrix(1 0 0 1 87.49 -40.87)" id="freepik--characters-2--inject-2"  >
<path style="stroke: rgb(38,50,56); stroke-width: 1; stroke-dasharray: none; stroke-linecap: round; stroke-dashoffset: 0; stroke-linejoin: round; stroke-miterlimit: 4; fill: rgb(23,148,172); fill-rule: nonzero; opacity: 1;"  transform=" translate(-337.49, -209.13)" d="M 311.46 171.86 s -6.65 9.55 -6.07 13.6 s 4.34 7.24 4.63 11.29 s -4.92 13 -4 17.36 s 7.52 10.42 7.52 10.42 s -2 6.66 0.87 11.87 s 15.05 13.31 27.2 11.29 s 17.95 -7.82 18.82 -9.84 s 6.37 -16.5 8.39 -25.76 s 0.29 -17.37 -5.21 -22.58 s -20.26 -11.86 -29.23 -15.63 S 312.33 169 311.46 171.86 Z" stroke-linecap="round" />
</g>
		<g transform="matrix(1 0 0 1 99.09 -20.21)" id="freepik--characters-2--inject-2"  >
<path style="stroke: rgb(38,50,56); stroke-width: 1; stroke-dasharray: none; stroke-linecap: round; stroke-dashoffset: 0; stroke-linejoin: round; stroke-miterlimit: 4; fill: none; fill-rule: nonzero; opacity: 1;"  transform=" translate(-349.09, -229.79)" d="M 335.2 231.48 s 5.21 4.34 14.18 2.6 a 22.38 22.38 0 0 0 13.6 -9" stroke-linecap="round" />
</g>
		<g transform="matrix(1 0 0 1 113.49 -41.25)" id="freepik--characters-2--inject-2"  >
<path style="stroke: rgb(38,50,56); stroke-width: 1; stroke-dasharray: none; stroke-linecap: round; stroke-dashoffset: 0; stroke-linejoin: round; stroke-miterlimit: 4; fill: rgb(255,255,255); fill-rule: nonzero; opacity: 1;"  transform=" translate(-363.49, -208.75)" d="M 357.48 208.9 c -0.45 8.12 1.21 15.53 7 17.73 a 145.26 145.26 0 0 0 4.27 -14.54 c 1.86 -8.5 0.54 -16 -3.94 -21.23 C 362.24 194.5 357.89 201.63 357.48 208.9 Z" stroke-linecap="round" />
</g>
		<g transform="matrix(1 0 0 1 84.44 -60.42)" id="freepik--characters-2--inject-2"  >
<path style="stroke: rgb(38,50,56); stroke-width: 1; stroke-dasharray: none; stroke-linecap: round; stroke-dashoffset: 0; stroke-linejoin: round; stroke-miterlimit: 4; fill: rgb(255,255,255); fill-rule: nonzero; opacity: 1;"  transform=" translate(-334.44, -189.58)" d="M 347.35 194.72 a 83.33 83.33 0 0 0 5.4 -12.26 c -6.14 -3.27 -13.24 -6.41 -18.42 -8.58 a 49.1 49.1 0 0 0 -18.19 -3.63 a 2.86 2.86 0 0 0 0.53 0.74 c 2.32 2.31 3.48 6.66 3.48 6.66 s 2.89 2.89 0.58 8.68 s -2.9 18.23 4.34 21.7 S 342.43 204.27 347.35 194.72 Z" stroke-linecap="round" />
</g>
		<g transform="matrix(1 0 0 1 135.4 4.9)" id="freepik--characters-2--inject-2"  >
<path style="stroke: rgb(38,50,56); stroke-width: 1; stroke-dasharray: none; stroke-linecap: round; stroke-dashoffset: 0; stroke-linejoin: round; stroke-miterlimit: 4; fill: rgb(255,255,255); fill-rule: nonzero; opacity: 1;"  transform=" translate(-385.4, -254.9)" d="M 362.42 214.49 l 31.18 27 a 77.59 77.59 0 0 0 -3.53 15.75 c -0.65 7.4 -6.11 29.9 -6.76 31.19 s -11.89 6.43 -15.11 8.36 s -6.43 9.32 -6.1 10.93 s 1.6 -0.65 2.57 -2.25 a 15.61 15.61 0 0 1 2.89 -3.22 l 2.57 -1.61 s -3.21 6.43 -3.21 8.36 s -1 6.43 0.32 6.43 s 1.61 -2.89 1.93 -3.86 s 2.89 -8.35 2.89 -8.35 l -2.25 13.18 s -0.64 2.57 1.29 1.28 s 2.57 -8.36 2.89 -9.32 s 4.5 -6.11 4.5 -6.11 s -1.93 6.43 -1.93 8.36 s -1 5.46 0.32 4.18 s 2.9 -6.43 2.9 -6.43 l 2.89 -7.07 a 22.87 22.87 0 0 0 5.15 -6.11 a 20 20 0 0 0 1.92 -5.79 s 14.47 -31.83 16.4 -37.93 a 84.93 84.93 0 0 0 3.21 -12.54 c 0 -1 -7.39 -10.29 -14.78 -19.94 s -17.36 -20.89 -22.51 -25.07 s -10.61 -1.29 -10.61 0.64" stroke-linecap="round" />
</g>
		<g transform="matrix(1 0 0 1 124.33 -54.4)" id="freepik--characters-2--inject-2"  >
<path style="stroke: rgb(38,50,56); stroke-width: 1; stroke-dasharray: none; stroke-linecap: round; stroke-dashoffset: 0; stroke-linejoin: round; stroke-miterlimit: 4; fill: rgb(153,153,153); fill-rule: nonzero; opacity: 1;"  transform=" translate(-374.33, -195.6)" d="M 371.83 193.31 s 3.61 -3.63 4.67 -2.31 s -0.66 8 -1.78 9.06 s -1.21 0.07 -1.2 -1.94 a 9.29 9.29 0 0 0 -0.63 -3.49 S 372.83 195.23 371.83 193.31 Z" stroke-linecap="round" />
</g>
		<g transform="matrix(1 0 0 1 128.24 -52.51)" id="freepik--characters-2--inject-2"  >
<path style="stroke: rgb(38,50,56); stroke-width: 1; stroke-dasharray: none; stroke-linecap: round; stroke-dashoffset: 0; stroke-linejoin: round; stroke-miterlimit: 4; fill: rgb(153,153,153); fill-rule: nonzero; opacity: 1;"  transform=" translate(-378.24, -197.49)" d="M 377.15 192.48 s 3.27 -0.46 3.41 2 s -3 7.32 -4.09 8 s -0.32 -4.46 0.14 -6.82 S 377.15 192.48 377.15 192.48 Z" stroke-linecap="round" />
</g>
		<g transform="matrix(1 0 0 1 131.5 -49.15)" id="freepik--characters-2--inject-2"  >
<path style="stroke: rgb(38,50,56); stroke-width: 1; stroke-dasharray: none; stroke-linecap: round; stroke-dashoffset: 0; stroke-linejoin: round; stroke-miterlimit: 4; fill: rgb(153,153,153); fill-rule: nonzero; opacity: 1;"  transform=" translate(-381.5, -200.85)" d="M 380.41 195.84 s 3.26 -0.45 3.4 2 s -3 7.32 -4.08 8 s -0.32 -4.46 0.13 -6.83 S 380.41 195.84 380.41 195.84 Z" stroke-linecap="round" />
</g>
		<g transform="matrix(1 0 0 1 134.47 -46.08)" id="freepik--characters-2--inject-2"  >
<path style="stroke: rgb(38,50,56); stroke-width: 1; stroke-dasharray: none; stroke-linecap: round; stroke-dashoffset: 0; stroke-linejoin: round; stroke-miterlimit: 4; fill: rgb(153,153,153); fill-rule: nonzero; opacity: 1;"  transform=" translate(-384.47, -203.92)" d="M 383.55 199.71 s 2.75 -0.38 2.86 1.66 s -2.52 6.15 -3.42 6.73 s -0.28 -3.75 0.11 -5.73 S 383.55 199.71 383.55 199.71 Z" stroke-linecap="round" />
</g>
		<g transform="matrix(1 0 0 1 26.01 -103.85)" id="freepik--characters-2--inject-2"  >
<path style="stroke: rgb(38,50,56); stroke-width: 1; stroke-dasharray: none; stroke-linecap: round; stroke-dashoffset: 0; stroke-linejoin: round; stroke-miterlimit: 4; fill: rgb(38,50,56); fill-rule: nonzero; opacity: 1;"  transform=" translate(-276.01, -146.15)" d="M 265.33 117 l -18.89 44.06 s 15.33 14.24 33.4 14.24 s 25.74 -6.3 25.74 -6.3 l -1.37 -40.25 Z" stroke-linecap="round" />
</g>
		<g transform="matrix(1 0 0 1 10.26 -107.7)" id="freepik--characters-2--inject-2"  >
<line style="stroke: rgb(107,107,107); stroke-width: 1; stroke-dasharray: none; stroke-linecap: round; stroke-dashoffset: 0; stroke-linejoin: round; stroke-miterlimit: 4; fill: none; fill-rule: nonzero; opacity: 1;"  x1="8.355000000000004" y1="-24.235" x2="-8.355000000000004" y2="24.235" />
</g>
		<g transform="matrix(1 0 0 1 16.56 -105.64)" id="freepik--characters-2--inject-2"  >
<line style="stroke: rgb(107,107,107); stroke-width: 1; stroke-dasharray: none; stroke-linecap: round; stroke-dashoffset: 0; stroke-linejoin: round; stroke-miterlimit: 4; fill: none; fill-rule: nonzero; opacity: 1;"  x1="7.2549999999999955" y1="-24.915000000000006" x2="-7.2549999999999955" y2="24.915000000000006" />
</g>
		<g transform="matrix(1 0 0 1 51.06 -100.99)" id="freepik--characters-2--inject-2"  >
<line style="stroke: rgb(107,107,107); stroke-width: 1; stroke-dasharray: none; stroke-linecap: round; stroke-dashoffset: 0; stroke-linejoin: round; stroke-miterlimit: 4; fill: none; fill-rule: nonzero; opacity: 1;"  x1="-0.41500000000002046" y1="-21.909999999999997" x2="0.41500000000002046" y2="21.909999999999997" />
</g>
		<g transform="matrix(1 0 0 1 45.59 -100.57)" id="freepik--characters-2--inject-2"  >
<line style="stroke: rgb(107,107,107); stroke-width: 1; stroke-dasharray: none; stroke-linecap: round; stroke-dashoffset: 0; stroke-linejoin: round; stroke-miterlimit: 4; fill: none; fill-rule: nonzero; opacity: 1;"  x1="-0.14000000000001478" y1="-23.68500000000001" x2="0.14000000000001478" y2="23.68500000000001" />
</g>
		<g transform="matrix(1 0 0 1 4.88 -50.99)" id="freepik--characters-2--inject-2"  >
<path style="stroke: rgb(38,50,56); stroke-width: 1; stroke-dasharray: none; stroke-linecap: round; stroke-dashoffset: 0; stroke-linejoin: round; stroke-miterlimit: 4; fill: rgb(255,255,255); fill-rule: nonzero; opacity: 1;"  transform=" translate(-254.88, -199.01)" d="M 298.5 246.39 c -1.61 -4.55 -2.73 -7.8 -2.83 -8.39 c -0.34 -2 -4.67 -13.67 -4.67 -13.67 s 1.67 -5.66 3.67 -8.33 S 301 203 301 198.67 a 31.52 31.52 0 0 1 0.67 -7 s 2.33 -4.34 5 -6.34 s 15 -12.33 15 -12.33 s -1 -4.33 -7.67 -7.67 s -23.67 -4.33 -24.67 -4.66 s -1.66 -7 -1 -10.34 s -18 -4.33 -18 -4.33 s 0.67 9.33 -3.33 11.33 s -23.67 0 -30.67 0.67 s -45.66 26.33 -47.66 28 s 1.33 11.33 6.66 13.33 s 35 -12.66 35 -12.66 S 240 211 241.33 213 s -5.44 18.79 -10.41 27.45 C 238.94 247.22 259.78 259.13 298.5 246.39 Z" stroke-linecap="round" />
</g>
		<g transform="matrix(1 0 0 1 -29.62 -71.28)" id="freepik--characters-2--inject-2"  >
<path style="stroke: none; stroke-width: 1; stroke-dasharray: none; stroke-linecap: butt; stroke-dashoffset: 0; stroke-linejoin: miter; stroke-miterlimit: 4; fill: rgb(38,50,56); fill-rule: nonzero; opacity: 1;"  transform=" translate(-220.38, -178.72)" d="M 217.54 167.41 c -0.9 0.53 -1.8 1.08 -2.71 1.63 c 1.61 6.29 4.31 14.71 8.37 21 l 2.73 -1.27 C 221.83 182.58 219.09 173.7 217.54 167.41 Z" stroke-linecap="round" />
</g>
		<g transform="matrix(1 0 0 1 -35.82 -67.8)" id="freepik--characters-2--inject-2"  >
<path style="stroke: none; stroke-width: 1; stroke-dasharray: none; stroke-linecap: butt; stroke-dashoffset: 0; stroke-linejoin: miter; stroke-miterlimit: 4; fill: rgb(38,50,56); fill-rule: nonzero; opacity: 1;"  transform=" translate(-214.18, -182.2)" d="M 218.36 192.23 l 2.82 -1.26 a 123.18 123.18 0 0 1 -11.44 -18.79 c -0.86 0.54 -1.72 1.07 -2.56 1.61 A 124.56 124.56 0 0 0 218.36 192.23 Z" stroke-linecap="round" />
</g>
		<g transform="matrix(1 0 0 1 -21.56 -73.48)" id="freepik--characters-2--inject-2"  >
<path style="stroke: none; stroke-width: 1; stroke-dasharray: none; stroke-linecap: butt; stroke-dashoffset: 0; stroke-linejoin: miter; stroke-miterlimit: 4; fill: rgb(38,50,56); fill-rule: nonzero; opacity: 1;"  transform=" translate(-228.44, -176.52)" d="M 232.2 191.34 a 216.88 216.88 0 0 1 -4.65 -29.63 c -0.92 0.48 -1.88 1 -2.87 1.56 a 220.21 220.21 0 0 0 3.64 24.37 l 2 -1 Z" stroke-linecap="round" />
</g>
		<g transform="matrix(1 0 0 1 14.81 -23.75)" id="freepik--characters-2--inject-2"  >
<path style="stroke: none; stroke-width: 1; stroke-dasharray: none; stroke-linecap: butt; stroke-dashoffset: 0; stroke-linejoin: miter; stroke-miterlimit: 4; fill: rgb(38,50,56); fill-rule: nonzero; opacity: 1;"  transform=" translate(-264.81, -226.25)" d="M 239.13 222.39 c -0.33 0.92 -0.7 1.87 -1.08 2.84 a 69.14 69.14 0 0 0 26.41 4.87 a 93.29 93.29 0 0 0 27.11 -4.21 l -0.57 -1.56 s 0.19 -0.63 0.51 -1.57 C 265.43 230.84 246.61 225.43 239.13 222.39 Z" stroke-linecap="round" />
</g>
		<g transform="matrix(1 0 0 1 17.73 -49.12)" id="freepik--characters-2--inject-2"  >
<path style="stroke: none; stroke-width: 1; stroke-dasharray: none; stroke-linecap: butt; stroke-dashoffset: 0; stroke-linejoin: miter; stroke-miterlimit: 4; fill: rgb(38,50,56); fill-rule: nonzero; opacity: 1;"  transform=" translate(-267.73, -200.88)" d="M 236 196.79 a 1.51 1.51 0 0 0 -1.45 0.43 c 0.35 0.84 0.7 1.7 1.05 2.56 A 201.71 201.71 0 0 0 278.94 205 a 110.8 110.8 0 0 0 21.27 -1.89 a 22.91 22.91 0 0 0 0.69 -3.19 C 273.06 205.86 236.4 196.89 236 196.79 Z" stroke-linecap="round" />
</g>
		<g transform="matrix(1 0 0 1 25.03 -83.43)" id="freepik--characters-2--inject-2"  >
<path style="stroke: none; stroke-width: 1; stroke-dasharray: none; stroke-linecap: butt; stroke-dashoffset: 0; stroke-linejoin: miter; stroke-miterlimit: 4; fill: rgb(38,50,56); fill-rule: nonzero; opacity: 1;"  transform=" translate(-275.03, -166.57)" d="M 229.49 163.79 a 1.5 1.5 0 0 0 1.41 1.58 l 89.67 5.4 a 14 14 0 0 0 -3 -3.19 l -86.49 -5.2 A 1.51 1.51 0 0 0 229.49 163.79 Z" stroke-linecap="round" />
</g>
		<g transform="matrix(1 0 0 1 18.63 -35.77)" id="freepik--characters-2--inject-2"  >
<path style="stroke: none; stroke-width: 1; stroke-dasharray: none; stroke-linecap: butt; stroke-dashoffset: 0; stroke-linejoin: miter; stroke-miterlimit: 4; fill: rgb(38,50,56); fill-rule: nonzero; opacity: 1;"  transform=" translate(-268.63, -214.23)" d="M 240.05 210.33 a 25.23 25.23 0 0 0 1.28 2.67 a 1.83 1.83 0 0 1 0.15 1 a 92.38 92.38 0 0 0 27.83 4.12 a 106.08 106.08 0 0 0 26.11 -3.32 a 40 40 0 0 0 1.8 -3.6 C 269.4 219 247.63 213 240.05 210.33 Z" stroke-linecap="round" />
</g>
		<g transform="matrix(1 0 0 1 22.38 -72.9)" id="freepik--characters-2--inject-2"  >
<path style="stroke: none; stroke-width: 1; stroke-dasharray: none; stroke-linecap: butt; stroke-dashoffset: 0; stroke-linejoin: miter; stroke-miterlimit: 4; fill: rgb(38,50,56); fill-rule: nonzero; opacity: 1;"  transform=" translate(-272.38, -177.1)" d="M 230.64 173.41 a 1.5 1.5 0 1 0 -0.16 3 l 81.81 4.39 L 315.7 178 Z" stroke-linecap="round" />
</g>
		<g transform="matrix(1 0 0 1 14.66 -12.37)" id="freepik--characters-2--inject-2"  >
<path style="stroke: none; stroke-width: 1; stroke-dasharray: none; stroke-linecap: butt; stroke-dashoffset: 0; stroke-linejoin: miter; stroke-miterlimit: 4; fill: rgb(38,50,56); fill-rule: nonzero; opacity: 1;"  transform=" translate(-264.66, -237.63)" d="M 295.68 238.09 s 0 -0.07 0 -0.09 a 24.89 24.89 0 0 0 -0.82 -2.81 a 86.06 86.06 0 0 1 -60 -2.41 c -0.42 0.93 -0.85 1.83 -1.28 2.71 a 89.06 89.06 0 0 0 62.15 2.6 Z" stroke-linecap="round" />
</g>
		<g transform="matrix(1 0 0 1 17.99 -62.13)" id="freepik--characters-2--inject-2"  >
<path style="stroke: none; stroke-width: 1; stroke-dasharray: none; stroke-linecap: butt; stroke-dashoffset: 0; stroke-linejoin: miter; stroke-miterlimit: 4; fill: rgb(38,50,56); fill-rule: nonzero; opacity: 1;"  transform=" translate(-267.99, -187.87)" d="M 274.7 188.26 c -17.5 0 -41.12 -3.76 -41.35 -3.8 a 1.5 1.5 0 0 0 -0.48 3 c 0.24 0 24.09 3.84 41.83 3.84 c 10.7 0 21 -0.31 27.53 -0.55 a 28.44 28.44 0 0 1 2.15 -3.09 C 298.23 187.87 286.7 188.26 274.7 188.26 Z" stroke-linecap="round" />
</g>
		<g transform="matrix(1 0 0 1 -48.15 -61.96)" id="freepik--characters-2--inject-2"  >
<path style="stroke: rgb(38,50,56); stroke-width: 1; stroke-dasharray: none; stroke-linecap: round; stroke-dashoffset: 0; stroke-linejoin: round; stroke-miterlimit: 4; fill: rgb(153,153,153); fill-rule: nonzero; opacity: 1;"  transform=" translate(-201.85, -188.04)" d="M 202.78 176.58 c -7.46 4.79 -13.36 8.8 -14.11 9.42 c -2 1.67 1.33 11.33 6.66 13.33 c 2.76 1 12 -2.37 20.29 -5.92 Z" stroke-linecap="round" />
</g>
		<g transform="matrix(1 0 0 1 -29.78 -6.18)" id="freepik--characters-2--inject-2"  >
<path style="stroke: rgb(38,50,56); stroke-width: 1; stroke-dasharray: none; stroke-linecap: round; stroke-dashoffset: 0; stroke-linejoin: round; stroke-miterlimit: 4; fill: rgb(153,153,153); fill-rule: nonzero; opacity: 1;"  transform=" translate(-220.22, -243.82)" d="M 218 243.85 s -1.19 -3.82 -0.24 -4.3 s 2.15 3.34 2.15 3.34 l 2.86 3.1 s 1.2 2.15 -1.43 2.15 S 218 243.85 218 243.85 Z" stroke-linecap="round" />
</g>
		<g transform="matrix(1 0 0 1 -31.91 -6.56)" id="freepik--characters-2--inject-2"  >
<path style="stroke: rgb(38,50,56); stroke-width: 1; stroke-dasharray: none; stroke-linecap: round; stroke-dashoffset: 0; stroke-linejoin: round; stroke-miterlimit: 4; fill: rgb(153,153,153); fill-rule: nonzero; opacity: 1;"  transform=" translate(-218.09, -243.44)" d="M 216.28 246 s -2.62 -5.48 -1.67 -6 s 3.34 3.82 3.34 3.82 l 3.82 3.1 Z" stroke-linecap="round" />
</g>
		<g transform="matrix(1 0 0 1 -41.67 -32.11)" id="freepik--characters-2--inject-2"  >
<path style="stroke: rgb(38,50,56); stroke-width: 1; stroke-dasharray: none; stroke-linecap: round; stroke-dashoffset: 0; stroke-linejoin: round; stroke-miterlimit: 4; fill: rgb(153,153,153); fill-rule: nonzero; opacity: 1;"  transform=" translate(-208.33, -217.89)" d="M 188.67 186 s -5 4.33 -5 7.67 S 224 234.91 224 234.91 a 7 7 0 0 0 -2.34 4.66 c 0 2.67 -0.33 6 -0.33 6 l -4.33 -0.66 s -2.67 -2.67 -4 -2.67 s 3.33 6 4 7 s 8.33 0.33 8.33 0.33 s 7.67 -10 7.67 -14.66 s -27.19 -42.75 -28.19 -44.75" stroke-linecap="round" />
</g>
		<g transform="matrix(1 0 0 1 28.52 -86.05)" id="freepik--characters-2--inject-2"  >
<path style="stroke: rgb(38,50,56); stroke-width: 1; stroke-dasharray: none; stroke-linecap: round; stroke-dashoffset: 0; stroke-linejoin: round; stroke-miterlimit: 4; fill: rgb(153,153,153); fill-rule: nonzero; opacity: 1;"  transform=" translate(-278.52, -163.95)" d="M 299.82 161.91 c -5.32 -0.73 -10 -1.07 -10.49 -1.24 c -1 -0.34 -1.66 -7 -1 -10.34 s -18 -4.33 -18 -4.33 s 0.67 9.33 -3.33 11.33 c -1.52 0.76 -5.3 0.94 -9.78 0.92 c 1.27 7.8 2.8 21.69 16.45 23.42 C 291 183.87 298.49 169.88 299.82 161.91 Z" stroke-linecap="round" />
</g>
		<g transform="matrix(1 0 0 1 13.48 -129.08)" id="freepik--characters-2--inject-2"  >
<path style="stroke: rgb(38,50,56); stroke-width: 1; stroke-dasharray: none; stroke-linecap: round; stroke-dashoffset: 0; stroke-linejoin: round; stroke-miterlimit: 4; fill: rgb(153,153,153); fill-rule: nonzero; opacity: 1;"  transform=" translate(-263.48, -120.92)" d="M 266.4 117.29 s -4.09 -6 -5.67 -1.57 s 2.21 11.35 4.41 12 S 266.4 117.29 266.4 117.29 Z" stroke-linecap="round" />
</g>
		<g transform="matrix(1 0 0 1 55.34 -121.67)" id="freepik--characters-2--inject-2"  >
<path style="stroke: rgb(38,50,56); stroke-width: 1; stroke-dasharray: none; stroke-linecap: round; stroke-dashoffset: 0; stroke-linejoin: round; stroke-miterlimit: 4; fill: rgb(153,153,153); fill-rule: nonzero; opacity: 1;"  transform=" translate(-305.34, -128.33)" d="M 303.7 124.15 s 5.71 -4.48 5.89 0.2 s -5.53 10.16 -7.82 10.09 S 303.7 124.15 303.7 124.15 Z" stroke-linecap="round" />
</g>
		<g transform="matrix(1 0 0 1 35.94 -127.59)" id="freepik--characters-2--inject-2"  >
<path style="stroke: rgb(38,50,56); stroke-width: 1; stroke-dasharray: none; stroke-linecap: round; stroke-dashoffset: 0; stroke-linejoin: round; stroke-miterlimit: 4; fill: rgb(153,153,153); fill-rule: nonzero; opacity: 1;"  transform=" translate(-285.94, -122.41)" d="M 266.4 112.25 s -1.57 16.08 -1.57 21.12 s 6.93 16.39 10.4 19.54 s 8.51 3.47 16.7 -2.21 c 2.93 -2 9.14 -10.71 10.4 -15.76 s 4.73 -16.7 4.73 -26.79 s -4.73 -17 -15.76 -18.27 S 269.24 92.71 266.4 112.25 Z" stroke-linecap="round" />
</g>
		<g transform="matrix(1 0 0 1 36.63 -143.2)" id="freepik--characters-2--inject-2"  >
<path style="stroke: rgb(38,50,56); stroke-width: 1; stroke-dasharray: none; stroke-linecap: round; stroke-dashoffset: 0; stroke-linejoin: round; stroke-miterlimit: 4; fill: rgb(38,50,56); fill-rule: nonzero; opacity: 1;"  transform=" translate(-286.63, -106.8)" d="M 291.3 89.88 c -11 -1.27 -22.06 2.83 -24.9 22.37 c 0 0 -0.08 0.85 -0.21 2.2 c 6.79 -0.13 23 -1 36.77 -6.61 c 0 0 -0.23 12.07 2.1 16.09 a 77 77 0 0 0 2 -15.78 C 307.06 98.07 302.33 91.14 291.3 89.88 Z m -18.91 22.69 s 6 -5.68 25.53 -5.68 A 78.29 78.29 0 0 1 272.39 112.57 Z" stroke-linecap="round" />
</g>
		<g transform="matrix(1 0 0 1 36.39 -144.17)" id="freepik--characters-2--inject-2"  >
<path style="stroke: rgb(107,107,107); stroke-width: 1; stroke-dasharray: none; stroke-linecap: round; stroke-dashoffset: 0; stroke-linejoin: round; stroke-miterlimit: 4; fill: none; fill-rule: nonzero; opacity: 1;"  transform=" translate(-286.38, -105.83)" d="M 269.84 109.71 s 12.31 -10.78 33.09 -6.93" stroke-linecap="round" />
</g>
		<g transform="matrix(1 0 0 1 37.92 -151.67)" id="freepik--characters-2--inject-2"  >
<path style="stroke: rgb(107,107,107); stroke-width: 1; stroke-dasharray: none; stroke-linecap: round; stroke-dashoffset: 0; stroke-linejoin: round; stroke-miterlimit: 4; fill: none; fill-rule: nonzero; opacity: 1;"  transform=" translate(-287.92, -98.33)" d="M 272.92 100.47 s 18.08 -9.61 30 0" stroke-linecap="round" />
</g>
		<g transform="matrix(1 0 0 1 26.01 -125.3)" id="freepik--characters-2--inject-2"  >
<path style="stroke: rgb(38,50,56); stroke-width: 2; stroke-dasharray: none; stroke-linecap: round; stroke-dashoffset: 0; stroke-linejoin: round; stroke-miterlimit: 4; fill: none; fill-rule: nonzero; opacity: 1;"  transform=" translate(-276.01, -124.7)" d="M 272.39 124.23 s 5.36 -1.26 7.25 1.26" stroke-linecap="round" />
</g>
		<g transform="matrix(1 0 0 1 43.83 -121.35)" id="freepik--characters-2--inject-2"  >
<path style="stroke: rgb(38,50,56); stroke-width: 2; stroke-dasharray: none; stroke-linecap: round; stroke-dashoffset: 0; stroke-linejoin: round; stroke-miterlimit: 4; fill: none; fill-rule: nonzero; opacity: 1;"  transform=" translate(-293.83, -128.65)" d="M 290.36 128 s 4.72 -1.26 6.93 1.58" stroke-linecap="round" />
</g>
		<g transform="matrix(1 0 0 1 26.49 -131.82)" id="freepik--characters-2--inject-2"  >
<path style="stroke: rgb(38,50,56); stroke-width: 1; stroke-dasharray: none; stroke-linecap: round; stroke-dashoffset: 0; stroke-linejoin: round; stroke-miterlimit: 4; fill: none; fill-rule: nonzero; opacity: 1;"  transform=" translate(-276.49, -118.18)" d="M 272.39 119.19 s 3.78 -3.79 8.2 -1" stroke-linecap="round" />
</g>
		<g transform="matrix(1 0 0 1 46.19 -127.11)" id="freepik--characters-2--inject-2"  >
<path style="stroke: rgb(38,50,56); stroke-width: 1; stroke-dasharray: none; stroke-linecap: round; stroke-dashoffset: 0; stroke-linejoin: round; stroke-miterlimit: 4; fill: none; fill-rule: nonzero; opacity: 1;"  transform=" translate(-296.19, -122.89)" d="M 292.56 121.71 s 5.05 -3.15 7.25 3.15" stroke-linecap="round" />
</g>
		<g transform="matrix(1 0 0 1 33.42 -118.25)" id="freepik--characters-2--inject-2"  >
<path style="stroke: rgb(38,50,56); stroke-width: 1; stroke-dasharray: none; stroke-linecap: round; stroke-dashoffset: 0; stroke-linejoin: round; stroke-miterlimit: 4; fill: none; fill-rule: nonzero; opacity: 1;"  transform=" translate(-283.42, -131.75)" d="M 279.64 130.22 s 1.89 5 7.56 2.2" stroke-linecap="round" />
</g>
		<g transform="matrix(1 0 0 1 31.57 -108.32)" id="freepik--characters-2--inject-2"  >
<path style="stroke: rgb(38,50,56); stroke-width: 1; stroke-dasharray: none; stroke-linecap: round; stroke-dashoffset: 0; stroke-linejoin: round; stroke-miterlimit: 4; fill: rgb(120,120,120); fill-rule: nonzero; opacity: 1;"  transform=" translate(-281.57, -141.68)" d="M 276.16 138.48 s 0.15 5.05 3.61 6.12 c 4.55 1.41 7.21 -3.14 7.21 -3.14 S 283.06 141.78 276.16 138.48 Z" stroke-linecap="round" />
</g>
		<g transform="matrix(1 0 0 1 31.88 -110.44)" id="freepik--characters-2--inject-2"  >
<path style="stroke: rgb(38,50,56); stroke-width: 1; stroke-dasharray: none; stroke-linecap: round; stroke-dashoffset: 0; stroke-linejoin: round; stroke-miterlimit: 4; fill: rgb(89,89,89); fill-rule: nonzero; opacity: 1;"  transform=" translate(-281.88, -139.56)" d="M 275.07 137.54 a 24.37 24.37 0 0 0 6.11 3.45 c 3.14 1.1 7.52 0.32 7.52 0.32 a 13.1 13.1 0 0 1 -4.07 -1.1 a 4.28 4.28 0 0 0 -2.82 -0.47 s -1.41 -1.57 -2.67 -1.57 A 28.11 28.11 0 0 1 275.07 137.54 Z" stroke-linecap="round" />
</g>
		<g transform="matrix(1 0 0 1 57.77 -66.13)" id="freepik--characters-2--inject-2"  >
<path style="stroke: rgb(38,50,56); stroke-width: 1; stroke-dasharray: none; stroke-linecap: round; stroke-dashoffset: 0; stroke-linejoin: round; stroke-miterlimit: 4; fill: rgb(23,148,172); fill-rule: nonzero; opacity: 1;"  transform=" translate(-307.77, -183.87)" d="M 310.44 168.77 s 0 2.34 -7.51 9.64 s -3.91 16.45 -2.35 18.08 a 11.63 11.63 0 0 0 3.8 2.47 l 0.42 -3.74 s 0.86 2.72 5.43 3.53 s 5.63 -0.81 3.14 -4.59 S 311.32 184 313.12 181 A 24.92 24.92 0 0 1 317.2 176 Z" stroke-linecap="round" />
</g>
		<g transform="matrix(1 0 0 1 73.95 -94.52)" id="freepik--characters-2--inject-2"  >
<path style="stroke: rgb(38,50,56); stroke-width: 1; stroke-dasharray: none; stroke-linecap: round; stroke-dashoffset: 0; stroke-linejoin: round; stroke-miterlimit: 4; fill: rgb(255,255,255); fill-rule: nonzero; opacity: 1;"  transform=" translate(-323.95, -155.48)" d="M 314.65 135.06 s -3.68 6.1 -3.95 8.4 s 1.27 4.22 1.11 5.66 s -1.8 3 -3.44 4.56 s -4.13 3 -2.82 4.34 a 25.82 25.82 0 0 0 3.47 2.73 s 0.33 3.28 0.83 6.63 c 0.54 3.58 2.67 11.24 4.4 11.44 s 10.58 -0.83 14.65 -3.28 S 338 170.16 340.4 164 s 5 -13.12 -3.74 -23.44 S 317.84 130.65 314.65 135.06 Z" stroke-linecap="round" />
</g>
		<g transform="matrix(1 0 0 1 65.03 -85.13)" id="freepik--characters-2--inject-2"  >
<path style="stroke: rgb(38,50,56); stroke-width: 1; stroke-dasharray: none; stroke-linecap: round; stroke-dashoffset: 0; stroke-linejoin: round; stroke-miterlimit: 4; fill: rgb(255,255,255); fill-rule: nonzero; opacity: 1;"  transform=" translate(-315.03, -164.87)" d="M 311.18 164 a 10.83 10.83 0 0 0 7.71 -1.16 s -2.92 4.05 -4.74 4.05 S 311.18 164 311.18 164 Z" stroke-linecap="round" />
</g>
		<g transform="matrix(1 0 0 1 68.24 -99.85)" id="freepik--characters-2--inject-2"  >
<path style="stroke: none; stroke-width: 1; stroke-dasharray: none; stroke-linecap: butt; stroke-dashoffset: 0; stroke-linejoin: miter; stroke-miterlimit: 4; fill: rgb(38,50,56); fill-rule: nonzero; opacity: 1;"  transform=" translate(-318.24, -150.15)" d="M 319.54 150.29 c -0.13 1.12 -0.81 2 -1.53 1.87 s -1.19 -1 -1.06 -2.16 s 0.81 -1.95 1.52 -1.87 S 319.66 149.18 319.54 150.29 Z" stroke-linecap="round" />
</g>
		<g transform="matrix(1 0 0 1 69 -105.65)" id="freepik--characters-2--inject-2"  >
<path style="stroke: rgb(38,50,56); stroke-width: 1; stroke-dasharray: none; stroke-linecap: round; stroke-dashoffset: 0; stroke-linejoin: round; stroke-miterlimit: 4; fill: none; fill-rule: nonzero; opacity: 1;"  transform=" translate(-319, -144.35)" d="M 315.46 145.17 s 2.41 -3.22 7.07 -0.65" stroke-linecap="round" />
</g>
		<g transform="matrix(1 0 0 1 97.55 -76.57)" id="freepik--characters-2--inject-2"  >
<path style="stroke: rgb(38,50,56); stroke-width: 1; stroke-dasharray: none; stroke-linecap: round; stroke-dashoffset: 0; stroke-linejoin: round; stroke-miterlimit: 4; fill: rgb(23,148,172); fill-rule: nonzero; opacity: 1;"  transform=" translate(-347.55, -173.43)" d="M 332.15 141.83 s -1.62 21.95 -5.42 32.3 s -5.17 17.18 -2.39 18.37 s 4.39 -2.71 4.39 -2.71 s 2.56 10.78 11.21 14.1 s 8.63 -1.64 8.63 -1.64 s 3.16 3 11.6 0.45 S 371.52 190 372 186.27 a 60.26 60.26 0 0 0 0.12 -8.73 s -1.44 2.46 -5.76 2 s -11.17 -6.81 -11.17 -6.81 s 4.67 0 5.47 0.63 s -5.49 -7.09 -5.49 -7.09 S 337 142.38 332.15 141.83 Z" stroke-linecap="round" />
</g>
		<g transform="matrix(1 0 0 1 85.48 -84.08)" id="freepik--characters-2--inject-2"  >
<path style="stroke: rgb(38,50,56); stroke-width: 1; stroke-dasharray: none; stroke-linecap: round; stroke-dashoffset: 0; stroke-linejoin: round; stroke-miterlimit: 4; fill: none; fill-rule: nonzero; opacity: 1;"  transform=" translate(-335.48, -165.92)" d="M 336.92 151 s -5.29 20 -1.51 29.84" stroke-linecap="round" />
</g>
		<g transform="matrix(1 0 0 1 101.77 -73.92)" id="freepik--characters-2--inject-2"  >
<path style="stroke: rgb(38,50,56); stroke-width: 1; stroke-dasharray: none; stroke-linecap: round; stroke-dashoffset: 0; stroke-linejoin: round; stroke-miterlimit: 4; fill: none; fill-rule: nonzero; opacity: 1;"  transform=" translate(-351.77, -176.08)" d="M 341.83 154.81 s -4.53 21.92 1.51 34 s 18.89 7.93 20 7.55" stroke-linecap="round" />
</g>
		<g transform="matrix(1 0 0 1 102.44 -78.32)" id="freepik--characters-2--inject-2"  >
<path style="stroke: rgb(38,50,56); stroke-width: 1; stroke-dasharray: none; stroke-linecap: round; stroke-dashoffset: 0; stroke-linejoin: round; stroke-miterlimit: 4; fill: none; fill-rule: nonzero; opacity: 1;"  transform=" translate(-352.44, -171.68)" d="M 349.55 162.48 a 15.57 15.57 0 0 0 6.64 18.4" stroke-linecap="round" />
</g>
		<g transform="matrix(1 0 0 1 91.34 -109.84)" id="freepik--characters-2--inject-2"  >
<path style="stroke: rgb(38,50,56); stroke-width: 1; stroke-dasharray: none; stroke-linecap: round; stroke-dashoffset: 0; stroke-linejoin: round; stroke-miterlimit: 4; fill: rgb(38,50,56); fill-rule: nonzero; opacity: 1;"  transform=" translate(-341.34, -140.16)" d="M 321 127.7 s 7.13 -5.44 10.36 -6.37 s 16.46 -0.47 18.61 -1 s 8.66 -0.57 10.85 3.06 s 0.19 14.35 0.41 17 s 0.14 10.18 -1.29 13.66 s -2.79 6.2 -2.79 6.2 s -6.75 -11.71 -16.84 -19.12 a 134.36 134.36 0 0 0 -19.49 -11.85 Z" stroke-linecap="round" />
</g>
		<g transform="matrix(1 0 0 1 86.52 -103.58)" id="freepik--characters-2--inject-2"  >
<path style="stroke: rgb(38,50,56); stroke-width: 1; stroke-dasharray: none; stroke-linecap: round; stroke-dashoffset: 0; stroke-linejoin: round; stroke-miterlimit: 4; fill: rgb(38,50,56); fill-rule: nonzero; opacity: 1;"  transform=" translate(-336.52, -146.42)" d="M 314.65 135.06 s 5.32 -1 10.5 3.8 s 21.1 20.64 24.4 23.62 a 18.65 18.65 0 0 0 5.57 3.76 s 3.15 -4.85 3.36 -6.65 s -10.07 -16.78 -17.83 -24.17 s -17.72 -9.06 -20.09 -8.8 S 313.88 132.63 314.65 135.06 Z" stroke-linecap="round" />
</g>
		<g transform="matrix(1 0 0 1 -47.32 -26.79)" id="freepik--character-1--inject-2"  >
<path style="stroke: rgb(38,50,56); stroke-width: 1; stroke-dasharray: none; stroke-linecap: butt; stroke-dashoffset: 0; stroke-linejoin: miter; stroke-miterlimit: 10; fill: rgb(153,153,153); fill-rule: nonzero; opacity: 1;"  transform=" translate(-202.68, -223.21)" d="M 200.87 220.76 S 205 220.44 205 223 s -3.8 3.48 -4.43 1.9 S 200.87 220.76 200.87 220.76 Z" stroke-linecap="round" />
</g>
		<g transform="matrix(1 0 0 1 -47 -30.26)" id="freepik--character-1--inject-2"  >
<path style="stroke: rgb(38,50,56); stroke-width: 1; stroke-dasharray: none; stroke-linecap: butt; stroke-dashoffset: 0; stroke-linejoin: miter; stroke-miterlimit: 10; fill: rgb(255,255,255); fill-rule: nonzero; opacity: 1;"  transform=" translate(-203, -219.74)" d="M 201.21 217.3 s 4.11 -0.31 4.11 2.22 s -3.8 3.48 -4.43 1.9 S 201.21 217.3 201.21 217.3 Z" stroke-linecap="round" />
</g>
		<g transform="matrix(1 0 0 1 -46.21 -33.82)" id="freepik--character-1--inject-2"  >
<path style="stroke: rgb(38,50,56); stroke-width: 1; stroke-dasharray: none; stroke-linecap: butt; stroke-dashoffset: 0; stroke-linejoin: miter; stroke-miterlimit: 10; fill: rgb(153,153,153); fill-rule: nonzero; opacity: 1;"  transform=" translate(-203.79, -216.18)" d="M 202 213.74 s 4.11 -0.32 4.11 2.22 s -3.8 3.48 -4.43 1.9 S 202 213.74 202 213.74 Z" stroke-linecap="round" />
</g>
		<g transform="matrix(1 0 0 1 -46.9 -36.05)" id="freepik--character-1--inject-2"  >
<path style="stroke: rgb(38,50,56); stroke-width: 1; stroke-dasharray: none; stroke-linecap: butt; stroke-dashoffset: 0; stroke-linejoin: miter; stroke-miterlimit: 10; fill: rgb(153,153,153); fill-rule: nonzero; opacity: 1;"  transform=" translate(-203.1, -213.95)" d="M 201.32 211.51 s 4.11 -0.31 4.11 2.22 s -3.79 3.48 -4.43 1.9 S 201.32 211.51 201.32 211.51 Z" stroke-linecap="round" />
</g>
		<g transform="matrix(1 0 0 1 -104.79 178.65)" id="freepik--character-1--inject-2"  >
<path style="stroke: rgb(38,50,56); stroke-width: 1; stroke-dasharray: none; stroke-linecap: round; stroke-dashoffset: 0; stroke-linejoin: round; stroke-miterlimit: 4; fill: rgb(23,148,172); fill-rule: nonzero; opacity: 1;"  transform=" translate(-145.21, -428.65)" d="M 116.09 429.14 s -0.31 4.05 -0.31 5.92 a 22.17 22.17 0 0 0 0.62 4.36 h 58.23 s 0.31 -3.43 -3.12 -6.85 s -14.32 -6.23 -17.12 -6.23 s -11.83 -7.47 -13.39 -8.4 S 116.09 429.14 116.09 429.14 Z" stroke-linecap="round" />
</g>
		<g transform="matrix(1 0 0 1 -104.68 183.68)" id="freepik--character-1--inject-2"  >
<path style="stroke: rgb(38,50,56); stroke-width: 1; stroke-dasharray: none; stroke-linecap: round; stroke-dashoffset: 0; stroke-linejoin: round; stroke-miterlimit: 4; fill: rgb(255,255,255); fill-rule: nonzero; opacity: 1;"  transform=" translate(-145.32, -433.68)" d="M 116 437.33 c 0.18 1.16 0.41 2.09 0.41 2.09 h 58.23 s 0.31 -3.43 -3.12 -6.85 c -1.83 -1.83 -5.8 -3.48 -9.53 -4.63 a 28 28 0 0 1 -1.65 9.39 Z" stroke-linecap="round" />
</g>
		<g transform="matrix(1 0 0 1 -111.36 93.41)" id="freepik--character-1--inject-2"  >
<path style="stroke: rgb(38,50,56); stroke-width: 1; stroke-dasharray: none; stroke-linecap: round; stroke-dashoffset: 0; stroke-linejoin: round; stroke-miterlimit: 4; fill: rgb(38,50,56); fill-rule: nonzero; opacity: 1;"  transform=" translate(-138.64, -343.41)" d="M 136.33 279.39 s -6.85 42.34 -9 48.88 s -10 19.92 -11.52 28.64 s -2.49 14 -0.93 18.06 s 0.62 36.74 0.62 36.74 s -1.25 9.34 -0.93 12.14 s 0.93 6.54 0.93 6.54 a 8.33 8.33 0 0 0 5.6 0.93 c 3.12 -0.62 8.72 -4.67 8.72 -4.67 s 9 -4.67 10.59 -6.85 s -0.31 -18.37 -0.31 -25.84 s 3.11 -40.78 5.29 -45.45 s 8.72 -22.42 13.08 -43.9 s 7.55 -31.37 0.93 -44.53 S 137.26 263.82 136.33 279.39 Z" stroke-linecap="round" />
</g>
		<g transform="matrix(1 0 0 1 -95.51 179.76)" id="freepik--character-1--inject-2"  >
<path style="stroke: rgb(38,50,56); stroke-width: 1; stroke-dasharray: none; stroke-linecap: round; stroke-dashoffset: 0; stroke-linejoin: round; stroke-miterlimit: 4; fill: rgb(23,148,172); fill-rule: nonzero; opacity: 1;"  transform=" translate(-154.49, -429.76)" d="M 151.27 419.8 S 164 426 167.78 427.28 s 11.2 2.49 13.38 5.29 s 1.25 7.16 1.25 7.16 h -54.8 a 18.62 18.62 0 0 1 -0.93 -10 C 127.61 423.85 151.27 419.8 151.27 419.8 Z" stroke-linecap="round" />
</g>
		<g transform="matrix(1 0 0 1 -95.24 183.78)" id="freepik--character-1--inject-2"  >
<path style="stroke: rgb(38,50,56); stroke-width: 1; stroke-dasharray: none; stroke-linecap: round; stroke-dashoffset: 0; stroke-linejoin: round; stroke-miterlimit: 4; fill: rgb(255,255,255); fill-rule: nonzero; opacity: 1;"  transform=" translate(-154.76, -433.78)" d="M 127.61 439.73 h 54.8 s 0.93 -4.36 -1.25 -7.16 c -1.86 -2.39 -7.56 -3.65 -11.52 -4.74 v 9.72 H 126.92 A 13 13 0 0 0 127.61 439.73 Z" stroke-linecap="round" />
</g>
		<g transform="matrix(1 0 0 1 -102.35 85.34)" id="freepik--character-1--inject-2"  >
<path style="stroke: rgb(38,50,56); stroke-width: 1; stroke-dasharray: none; stroke-linecap: round; stroke-dashoffset: 0; stroke-linejoin: round; stroke-miterlimit: 4; fill: rgb(38,50,56); fill-rule: nonzero; opacity: 1;"  transform=" translate(-147.65, -335.34)" d="M 126.6 239.69 s -3 12.84 -1.17 19.85 S 131 275 132.67 277.28 s 1.4 29.89 1.17 39 s -7 24.52 -10.74 34.56 s 0 25.69 0 34.79 s -0.24 14.71 0 20.09 s 0.7 11 0.7 11 a 31.78 31.78 0 0 0 -0.7 4.44 c -0.24 2.57 2.33 3.73 2.33 3.73 a 24.46 24.46 0 0 1 0.24 3.74 a 6.65 6.65 0 0 0 1.4 4 s 14 -5.61 17.74 -7.71 s 8.18 -4.43 8.18 -4.43 a 41.4 41.4 0 0 1 0.23 -7.24 c 0.47 -2.1 -3 -6.07 -3 -6.07 s 0.24 -12.61 0.47 -17.52 S 160.23 352 163 333.33 s 8.64 -42.27 10 -56.28 s 0.7 -35 0.7 -35.73 s -33.39 -0.93 -36.43 -1.4 s -9.81 -1.87 -9.81 -1.87 Z" stroke-linecap="round" />
</g>
		<g transform="matrix(1 0 0 1 -67.59 -32.38)" id="freepik--character-1--inject-2"  >
<polygon style="stroke: rgb(38,50,56); stroke-width: 1; stroke-dasharray: none; stroke-linecap: butt; stroke-dashoffset: 0; stroke-linejoin: miter; stroke-miterlimit: 10; fill: rgb(153,153,153); fill-rule: nonzero; opacity: 1;"  points="-8.88,-6.42 8.65,-4.32 8.88,5.72 -7.47,6.42 -8.88,-6.42 " />
</g>
		<g transform="matrix(1 0 0 1 -99.69 -58.53)" id="freepik--character-1--inject-2"  >
<path style="stroke: rgb(38,50,56); stroke-width: 1; stroke-dasharray: none; stroke-linecap: round; stroke-dashoffset: 0; stroke-linejoin: round; stroke-miterlimit: 4; fill: rgb(23,148,172); fill-rule: nonzero; opacity: 1;"  transform=" translate(-150.31, -191.47)" d="M 143.41 137.88 s -4.2 2.1 -4.9 5.14 s -11.68 14.71 -14 22.88 s -1.4 24.29 -0.24 31.29 s 3 21 2.57 26.62 s -2.8 13.78 -1.4 16.58 s 16.82 4.67 27.79 4.44 s 21 1.63 23.12 -2.34 s 0.93 -14.24 0.23 -22.18 S 170 179.68 168.4 171 s -5.37 -14.71 -8.64 -19.85 S 147.62 138.35 143.41 137.88 Z" stroke-linecap="round" />
</g>
		<g transform="matrix(1 0 0 1 -91.97 -132.54)" id="freepik--character-1--inject-2"  >
<path style="stroke: rgb(38,50,56); stroke-width: 1; stroke-dasharray: none; stroke-linecap: round; stroke-dashoffset: 0; stroke-linejoin: round; stroke-miterlimit: 4; fill: rgb(153,153,153); fill-rule: nonzero; opacity: 1;"  transform=" translate(-158.03, -117.46)" d="M 172.36 87.43 s 5.25 4.59 7 9.39 s 0.22 9.18 1.75 11.37 s 4.15 3.71 4.59 6.12 s -3.06 3.49 -3.06 3.49 v 2.84 s 1.31 0.44 1.31 1.32 a 4.88 4.88 0 0 1 -1.09 2.18 a 3.49 3.49 0 0 1 0.22 2.62 a 3 3 0 0 1 -1.75 2 a 12.29 12.29 0 0 1 -1.53 5 c -1.31 2 -5.24 3.06 -8.3 3.06 s -8.09 -2 -8.09 -2 s -2.84 6.34 -2.84 10.27 s 0.22 11.8 0.22 11.8 s -9.84 -8.52 -12.24 -11.14 a 39.63 39.63 0 0 0 -5.46 -4.81 s 2 -7.21 0.87 -12.68 s -9.61 -9.18 -12.46 -17.7 s -0.65 -20.32 8.09 -26.22 s 19.89 -6.78 25.35 -6.12 S 177.82 84.37 172.36 87.43 Z" stroke-linecap="round" />
</g>
		<g transform="matrix(1 0 0 1 -97.71 -147.76)" id="freepik--character-1--inject-2"  >
<path style="stroke: rgb(38,50,56); stroke-width: 1; stroke-dasharray: none; stroke-linecap: round; stroke-dashoffset: 0; stroke-linejoin: round; stroke-miterlimit: 4; fill: rgb(38,50,56); fill-rule: nonzero; opacity: 1;"  transform=" translate(-152.29, -102.24)" d="M 172.36 87.43 c 5.46 -3.06 -2 -8.53 -7.43 -9.18 s -16.61 0.22 -25.35 6.12 s -10.93 17.7 -8.09 26.22 c 2.51 7.52 9.42 11.29 11.78 15.83 c 3.54 -0.71 3.71 -3.38 3.3 -6.43 c -0.43 -3.28 1.53 -6.78 3.72 -7.21 s 4.81 -2 4.37 -3.94 s -1.31 -4.59 0.87 -6.55 s 4.59 -4.16 3.94 -7.87 s -3.94 -4.37 0.43 -6.34 S 172.36 87.43 172.36 87.43 Z" stroke-linecap="round" />
</g>
		<g transform="matrix(1 0 0 1 -76.98 -141.35)" id="freepik--character-1--inject-2"  >
<path style="stroke: rgb(38,50,56); stroke-width: 1; stroke-dasharray: none; stroke-linecap: round; stroke-dashoffset: 0; stroke-linejoin: round; stroke-miterlimit: 4; fill: none; fill-rule: nonzero; opacity: 1;"  transform=" translate(-173.02, -108.65)" d="M 179.79 104 s -5.9 -2.19 -13.77 0.87 c 0 0 -0.22 9 5.25 9.18 S 181.1 113 179.79 104 Z" stroke-linecap="round" />
</g>
		<g transform="matrix(1 0 0 1 -67.81 -143.05)" id="freepik--character-1--inject-2"  >
<path style="stroke: rgb(38,50,56); stroke-width: 1; stroke-dasharray: none; stroke-linecap: round; stroke-dashoffset: 0; stroke-linejoin: round; stroke-miterlimit: 4; fill: none; fill-rule: nonzero; opacity: 1;"  transform=" translate(-182.19, -106.95)" d="M 179.79 104 s 3.93 0 4.37 0.65 s 0.88 3.93 -0.44 5.25" stroke-linecap="round" />
</g>
		<g transform="matrix(1 0 0 1 -93.36 -141.38)" id="freepik--character-1--inject-2"  >
<polygon style="stroke: rgb(38,50,56); stroke-width: 1; stroke-dasharray: none; stroke-linecap: round; stroke-dashoffset: 0; stroke-linejoin: round; stroke-miterlimit: 4; fill: rgb(38,50,56); fill-rule: nonzero; opacity: 1;"  points="9.38,-3.72 -9.41,2.84 -9.19,3.72 1.08,0.22 2.83,0.66 9.42,-0.81 9.38,-3.72 " />
</g>
		<g transform="matrix(1 0 0 1 -102.86 -132.81)" id="freepik--character-1--inject-2"  >
<path style="stroke: rgb(38,50,56); stroke-width: 1; stroke-dasharray: none; stroke-linecap: round; stroke-dashoffset: 0; stroke-linejoin: round; stroke-miterlimit: 4; fill: rgb(153,153,153); fill-rule: nonzero; opacity: 1;"  transform=" translate(-147.14, -117.19)" d="M 152 114.74 a 6.22 6.22 0 0 0 -6.12 -4.59 c -5 0 -3.72 6.78 -2.41 9.62 s 4.81 6.12 8.31 3.5" stroke-linecap="round" />
</g>
		<g transform="matrix(1 0 0 1 -77.4 -148.33)" id="freepik--character-1--inject-2"  >
<path style="stroke: rgb(38,50,56); stroke-width: 1; stroke-dasharray: none; stroke-linecap: round; stroke-dashoffset: 0; stroke-linejoin: round; stroke-miterlimit: 4; fill: none; fill-rule: nonzero; opacity: 1;"  transform=" translate(-172.6, -101.67)" d="M 169.33 102.62 a 9.86 9.86 0 0 1 6.54 -1.87" stroke-linecap="round" />
</g>
		<g transform="matrix(1 0 0 1 -69.92 -132.78)" id="freepik--character-1--inject-2"  >
<path style="stroke: rgb(38,50,56); stroke-width: 1; stroke-dasharray: none; stroke-linecap: round; stroke-dashoffset: 0; stroke-linejoin: round; stroke-miterlimit: 4; fill: none; fill-rule: nonzero; opacity: 1;"  transform=" translate(-180.08, -117.22)" d="M 182.63 117.8 s -2.32 2.33 -4 0.46 s -0.93 -2.8 -0.93 -2.8" stroke-linecap="round" />
</g>
		<g transform="matrix(1 0 0 1 -71.69 -123.25)" id="freepik--character-1--inject-2"  >
<path style="stroke: rgb(38,50,56); stroke-width: 1; stroke-dasharray: none; stroke-linecap: round; stroke-dashoffset: 0; stroke-linejoin: round; stroke-miterlimit: 4; fill: rgb(120,120,120); fill-rule: nonzero; opacity: 1;"  transform=" translate(-178.31, -126.75)" d="M 173.54 124.57 a 5.81 5.81 0 0 0 3.26 4.2 c 3 1.64 6.23 -0.51 6.27 -2 a 11.55 11.55 0 0 0 -0.22 -2.62 A 17.54 17.54 0 0 1 173.54 124.57 Z" stroke-linecap="round" />
</g>
		<g transform="matrix(1 0 0 1 -71.97 -126.94)" id="freepik--character-1--inject-2"  >
<path style="stroke: rgb(38,50,56); stroke-width: 1; stroke-dasharray: none; stroke-linecap: round; stroke-dashoffset: 0; stroke-linejoin: round; stroke-miterlimit: 4; fill: rgb(89,89,89); fill-rule: nonzero; opacity: 1;"  transform=" translate(-178.03, -123.06)" d="M 183.94 122 c 0 -0.88 -1.31 -1.32 -1.31 -1.32 a 46 46 0 0 1 -4.42 2.29 a 13 13 0 0 1 -6.08 0.7 a 31.16 31.16 0 0 0 5.14 1.64 a 7.52 7.52 0 0 0 5.58 -1.13 A 4.88 4.88 0 0 0 183.94 122 Z" stroke-linecap="round" />
</g>
		<g transform="matrix(1 0 0 1 -76.46 -142.59)" id="freepik--character-1--inject-2"  >
<path style="stroke: rgb(38,50,56); stroke-width: 2; stroke-dasharray: none; stroke-linecap: round; stroke-dashoffset: 0; stroke-linejoin: round; stroke-miterlimit: 4; fill: none; fill-rule: nonzero; opacity: 1;"  transform=" translate(-173.54, -107.41)" d="M 171.43 107.76 a 13.32 13.32 0 0 1 4.21 -0.7" stroke-linecap="round" />
</g>
		<g transform="matrix(1 0 0 1 -108.69 -5.76)" id="freepik--character-1--inject-2"  >
<path style="stroke: rgb(38,50,56); stroke-width: 1; stroke-dasharray: none; stroke-linecap: round; stroke-dashoffset: 0; stroke-linejoin: round; stroke-miterlimit: 4; fill: rgb(153,153,153); fill-rule: nonzero; opacity: 1;"  transform=" translate(-141.31, -244.24)" d="M 126.83 234.09 s 14 16.81 16.82 20.08 a 50 50 0 0 1 4.9 7 l 2.34 3.5 l 4.9 -9.8 a 61 61 0 0 1 -3 -7.94 c -1.63 -5.14 -8.4 -23.12 -8.4 -23.12 S 137.34 234.09 126.83 234.09 Z" stroke-linecap="round" />
</g>
		<g transform="matrix(1 0 0 1 -111.88 -52.52)" id="freepik--character-1--inject-2"  >
<path style="stroke: rgb(38,50,56); stroke-width: 1; stroke-dasharray: none; stroke-linecap: round; stroke-dashoffset: 0; stroke-linejoin: round; stroke-miterlimit: 4; fill: rgb(23,148,172); fill-rule: nonzero; opacity: 1;"  transform=" translate(-138.12, -197.48)" d="M 147.38 160.3 a 9.57 9.57 0 0 0 -10.51 3 c -4.67 5.37 -6.3 9.81 -7 14.95 s -9.81 32.22 -10.28 37.82 s 1.64 8.88 1.64 8.88 a 3.7 3.7 0 0 0 0.47 4.67 c 2.1 2.57 3 2.8 3 2.8 A 4.34 4.34 0 0 0 126.6 235 c 1.4 0.7 8.64 -0.7 13.78 -3.5 s 6.07 -5.61 6.07 -7.94 a 9 9 0 0 0 -0.7 -3.74 a 7.14 7.14 0 0 1 0 -2.57 c 0.23 -1.63 -1.64 -5.13 -1.64 -5.13 s 12.85 -25.92 12.61 -34.8" stroke-linecap="round" />
</g>
		<g transform="matrix(1 0 0 1 -58.81 -51.77)" id="freepik--character-1--inject-2"  >
<path style="stroke: rgb(38,50,56); stroke-width: 1; stroke-dasharray: none; stroke-linecap: butt; stroke-dashoffset: 0; stroke-linejoin: miter; stroke-miterlimit: 10; fill: rgb(255,255,255); fill-rule: nonzero; opacity: 1;"  transform=" translate(-191.19, -198.23)" d="M 195.14 206.29 a 0.93 0.93 0 0 1 -0.93 -0.86 l -0.61 -7.23 l -7 -6.4 a 0.93 0.93 0 0 1 1.26 -1.38 l 7.28 6.65 a 0.92 0.92 0 0 1 0.3 0.61 l 0.64 7.6 a 1 1 0 0 1 -0.86 1 Z" stroke-linecap="round" />
</g>
		<g transform="matrix(1 0 0 1 -54.94 -31.36)" id="freepik--character-1--inject-2"  >
<polygon style="stroke: rgb(38,50,56); stroke-width: 1; stroke-dasharray: none; stroke-linecap: round; stroke-dashoffset: 0; stroke-linejoin: round; stroke-miterlimit: 4; fill: rgb(23,148,172); fill-rule: nonzero; opacity: 1;"  points="6.2,12.98 -6.21,12.98 -8.53,-12.97 8.53,-12.97 6.2,12.98 " />
</g>
		<g transform="matrix(1 0 0 1 -54.95 -43.53)" id="freepik--character-1--inject-2"  >
<rect style="stroke: rgb(38,50,56); stroke-width: 1; stroke-dasharray: none; stroke-linecap: round; stroke-dashoffset: 0; stroke-linejoin: round; stroke-miterlimit: 4; fill: rgb(255,255,255); fill-rule: nonzero; opacity: 1;"  x="-9.495" y="-2.375" rx="0" ry="0" width="18.99" height="4.75" />
</g>
		<g transform="matrix(1 0 0 1 -64.5 -33.57)" id="freepik--character-1--inject-2"  >
<path style="stroke: rgb(38,50,56); stroke-width: 1; stroke-dasharray: none; stroke-linecap: butt; stroke-dashoffset: 0; stroke-linejoin: miter; stroke-miterlimit: 10; fill: rgb(153,153,153); fill-rule: nonzero; opacity: 1;"  transform=" translate(-185.5, -216.43)" d="M 186.91 211.37 s -3.8 -0.32 -3.8 1.9 s 0.63 7.91 3.16 8.23 S 187.86 215.8 186.91 211.37 Z" stroke-linecap="round" />
</g>
		<g transform="matrix(1 0 0 1 1.5 189.73)" id="freepik--Floor--inject-2"  >
<line style="stroke: rgb(38,50,56); stroke-width: 1; stroke-dasharray: none; stroke-linecap: round; stroke-dashoffset: 0; stroke-linejoin: round; stroke-miterlimit: 4; fill: none; fill-rule: nonzero; opacity: 1;"  x1="-198.5" y1="0" x2="198.5" y2="0" />
</g>
</g>
</g>
</svg>