<?xml version="1.0" encoding="UTF-8" standalone="no" ?>
<!DOCTYPE svg PUBLIC "-//W3C//DTD SVG 1.1//EN" "http://www.w3.org/Graphics/SVG/1.1/DTD/svg11.dtd">
<svg xmlns="http://www.w3.org/2000/svg" xmlns:xlink="http://www.w3.org/1999/xlink" version="1.1" width="640" height="480" viewBox="0 0 640 480" xml:space="preserve">
<desc>Created with Fabric.js 3.6.6</desc>
<defs>
</defs>
<g transform="matrix(1 0 0 1 320.12 240.12)"  >
<g style=""   >
		<g transform="matrix(5.72 0 0 5.72 -6.87 -0.88)"  >
<circle style="stroke: rgb(23,148,172); stroke-width: 3; stroke-dasharray: none; stroke-linecap: butt; stroke-dashoffset: 0; stroke-linejoin: miter; stroke-miterlimit: 4; fill: rgb(255,255,0); fill-opacity: 0; fill-rule: nonzero; opacity: 1;" vector-effect="non-scaling-stroke"  cx="0" cy="0" r="40" />
</g>
		<g transform="matrix(5.72 0 0 5.72 6.82 0.82)"  >
<circle style="stroke: rgb(161,212,226); stroke-width: 3; stroke-dasharray: none; stroke-linecap: butt; stroke-dashoffset: 0; stroke-linejoin: miter; stroke-miterlimit: 4; fill: rgb(255,255,0); fill-opacity: 0; fill-rule: nonzero; opacity: 1;" vector-effect="non-scaling-stroke"  cx="0" cy="0" r="40" />
</g>
</g>
</g>
<g transform="matrix(0.8 0 0 0.8 317.13 233.63)"  >
<g style=""   >
		<g transform="matrix(1 0 0 1 -4.24 7.77)" id="freepik--background-simple--inject-2"  >
<path style="stroke: none; stroke-width: 1; stroke-dasharray: none; stroke-linecap: butt; stroke-dashoffset: 0; stroke-linejoin: miter; stroke-miterlimit: 4; fill: rgb(23,148,172); fill-rule: nonzero; opacity: 1;"  transform=" translate(-245.76, -257.77)" d="M 467.6 251.91 c -4.93 41.8 -24 90.41 -62.14 112.73 c -57.59 33.75 -52.77 85.64 -165.19 108.2 a 231.26 231.26 0 0 1 -49.84 4.71 a 194.66 194.66 0 0 1 -24.47 -2 C 94.51 465.12 46.43 415.46 28.79 355.5 C 5.58 276.66 51.93 225 82.65 193.94 s 53.23 -128 163.57 -151 A 223.75 223.75 0 0 1 297.45 38 c 39.26 1 82.08 13.86 111.71 40.76 q 3.33 3 6.5 6.28 C 456.84 127.33 474.34 194.92 467.6 251.91 Z" stroke-linecap="round" />
</g>
		<g transform="matrix(1 0 0 1 -4.24 7.77)" id="freepik--background-simple--inject-2"  >
<path style="stroke: none; stroke-width: 1; stroke-dasharray: none; stroke-linecap: butt; stroke-dashoffset: 0; stroke-linejoin: miter; stroke-miterlimit: 4; fill: rgb(255,255,255); fill-rule: nonzero; opacity: 0.7000000000000001;"  transform=" translate(-245.76, -257.77)" d="M 467.6 251.91 c -4.93 41.8 -24 90.41 -62.14 112.73 c -57.59 33.75 -52.77 85.64 -165.19 108.2 a 231.26 231.26 0 0 1 -49.84 4.71 a 194.66 194.66 0 0 1 -24.47 -2 C 94.51 465.12 46.43 415.46 28.79 355.5 C 5.58 276.66 51.93 225 82.65 193.94 s 53.23 -128 163.57 -151 A 223.75 223.75 0 0 1 297.45 38 c 39.26 1 82.08 13.86 111.71 40.76 q 3.33 3 6.5 6.28 C 456.84 127.33 474.34 194.92 467.6 251.91 Z" stroke-linecap="round" />
</g>
		<g transform="matrix(1 0 0 1 -225.65 9.98)" id="freepik--Plant--inject-2"  >
<path style="stroke: none; stroke-width: 1; stroke-dasharray: none; stroke-linecap: butt; stroke-dashoffset: 0; stroke-linejoin: miter; stroke-miterlimit: 4; fill: rgb(38,50,56); fill-rule: nonzero; opacity: 1;"  transform=" translate(-24.35, -259.98)" d="M 22.26 265.78 C 25.37 267.14 33 267 33 267 s -1.64 -5 -1.78 -5.28 C 29.53 258.2 24.25 252.44 20 253 a 5.13 5.13 0 0 0 -4.12 6.42 C 16.56 262.42 19.61 264.63 22.26 265.78 Z" stroke-linecap="round" />
</g>
		<g transform="matrix(1 0 0 1 -178.67 48.11)" id="freepik--Plant--inject-2"  >
<path style="stroke: none; stroke-width: 1; stroke-dasharray: none; stroke-linecap: butt; stroke-dashoffset: 0; stroke-linejoin: miter; stroke-miterlimit: 4; fill: rgb(38,50,56); fill-rule: nonzero; opacity: 1;"  transform=" translate(-71.33, -298.11)" d="M 24.88 287.81 c 3.23 0.47 10 -1.5 10.55 -1.65 a 91.77 91.77 0 0 0 4.12 11.39 c 0.93 2.16 1.94 4.31 3 6.45 c -0.62 -0.91 -1.18 -1.72 -1.27 -1.82 c -2.53 -2.93 -9.14 -7.09 -13.13 -5.4 a 5.12 5.12 0 0 0 -2.27 7.29 c 1.47 2.68 5 4 7.86 4.42 s 8.72 -1.14 10.25 -1.57 c 0.41 0.81 0.81 1.63 1.22 2.45 c 2 3.91 3.94 7.81 5.76 11.69 c 0.65 1.37 1.23 2.74 1.82 4.11 c -0.55 -0.81 -1 -1.48 -1.11 -1.58 c -2.53 -2.92 -9.14 -7.09 -13.13 -5.39 a 5.13 5.13 0 0 0 -2.27 7.28 c 1.47 2.68 5 4 7.86 4.42 s 8.15 -1 10 -1.49 c 0.56 1.42 1.13 2.84 1.6 4.24 c 0.31 1 0.67 1.87 0.92 2.86 s 0.54 1.93 0.81 2.88 c 0.44 1.85 0.91 3.76 1.3 5.57 c 0.28 1.27 0.52 2.47 0.77 3.69 c -0.62 -1.37 -1.9 -4 -2 -4.23 c -2.05 -3.28 -8 -8.4 -12.16 -7.33 A 5.14 5.14 0 0 0 42 343 c 1 2.87 4.34 4.72 7.1 5.56 c 3.05 0.93 9.78 0.08 10.62 0 c 0.41 2 0.78 4 1.1 5.83 c 0.73 4.1 1.27 7.77 1.68 10.88 h 2.84 c -0.49 -3.22 -1.14 -7.05 -2 -11.35 c -0.41 -2 -0.88 -4.22 -1.38 -6.46 a 55.55 55.55 0 0 0 5.93 -2.78 c 2.21 2.4 7.9 5.21 8.63 5.57 c -0.77 1.9 -1.54 3.74 -2.3 5.47 c -1.57 3.61 -3.06 6.82 -4.38 9.55 h 3.07 c 1.13 -2.52 2.38 -5.38 3.68 -8.55 c 0.79 -1.93 1.6 -4 2.41 -6.15 c 0.82 0.17 7.48 1.53 10.59 0.83 c 2.82 -0.64 6.24 -2.23 7.5 -5 a 5.14 5.14 0 0 0 -2.83 -7.09 c -4.11 -1.38 -10.38 3.29 -12.68 6.4 c -0.13 0.18 -1.38 2.34 -2.14 3.71 c 0.32 -0.87 0.65 -1.72 1 -2.62 c 0.65 -1.79 1.25 -3.59 1.91 -5.53 c 0.28 -0.95 0.57 -1.9 0.85 -2.87 s 0.51 -2 0.78 -3 c 0.56 -2.34 1 -4.75 1.41 -7.18 c 1.56 0.57 7.15 2.52 10 2.31 s 6.5 -1.26 8.17 -3.82 a 5.14 5.14 0 0 0 -1.73 -7.44 c -3.85 -2 -10.75 1.68 -13.49 4.41 c -0.17 0.17 -1.92 2.35 -2.86 3.56 c 0.23 -1.46 0.47 -2.92 0.65 -4.41 c 0.54 -4.29 0.94 -8.66 1.37 -13 c 0.13 -1.34 0.27 -2.66 0.41 -4 c 0.56 0.21 7.15 2.66 10.39 2.44 c 2.89 -0.21 6.5 -1.27 8.17 -3.83 a 5.12 5.12 0 0 0 -1.72 -7.43 c -3.85 -2 -10.76 1.67 -13.5 4.4 c -0.2 0.21 -2.71 3.35 -3.31 4.18 c 0.31 -2.93 0.64 -5.84 1.09 -8.7 a 89.63 89.63 0 0 1 2.5 -11.45 c 0.25 0.1 7.12 2.7 10.45 2.46 c 2.88 -0.2 6.5 -1.26 8.16 -3.82 a 5.13 5.13 0 0 0 -1.72 -7.44 c -3.85 -2 -10.75 1.68 -13.5 4.41 c -0.21 0.21 -2.91 3.59 -3.36 4.24 c 0.07 -0.22 0.11 -0.45 0.18 -0.67 a 66.15 66.15 0 0 1 4.53 -10.82 c 1 -1.93 2 -3.72 3.1 -5.44 c 1.23 0.62 6.88 3.36 9.89 3.48 s 6.6 -0.54 8.54 -2.9 a 5.13 5.13 0 0 0 -0.89 -7.58 c -3.62 -2.4 -10.88 0.49 -13.9 2.9 c -0.17 0.13 -1.69 1.65 -2.79 2.77 c 0.49 -0.77 1 -1.57 1.47 -2.3 c 1.81 -2.73 3.64 -5.11 5.27 -7.22 c 0.94 -1.18 1.82 -2.24 2.65 -3.22 c 1.52 0 7.65 -0.21 10.33 -1.47 s 5.61 -3.52 6.24 -6.51 a 5.13 5.13 0 0 0 -4.29 -6.31 c -4.31 -0.47 -9.43 5.44 -11 9 c -0.14 0.31 -1.71 5.33 -1.64 5.33 h 0.1 c -0.82 0.92 -1.68 1.92 -2.6 3 c -1.69 2.07 -3.57 4.42 -5.45 7.12 a 90.82 90.82 0 0 0 -5.65 9 a 67.42 67.42 0 0 0 -4.83 10.87 a 1 1 0 0 1 0 0.14 c 0 -1.27 0 -4.82 -0.07 -5.1 c -0.49 -3.83 -3.71 -10.95 -8 -11.74 a 5.12 5.12 0 0 0 -5.91 4.82 c -0.25 3 2 6.1 4.11 8 c 2.43 2.18 9.18 4.28 9.72 4.44 a 89.87 89.87 0 0 0 -2.85 11.77 c -0.42 2.32 -0.76 4.67 -1.08 7 c 0 -1.1 0 -2.08 0 -2.22 c -0.5 -3.84 -3.72 -11 -8 -11.74 a 5.12 5.12 0 0 0 -5.91 4.82 c -0.25 3 2 6.1 4.11 8 s 7.91 3.86 9.43 4.35 c -0.12 0.9 -0.24 1.81 -0.35 2.71 c -0.52 4.35 -1 8.69 -1.64 12.94 c -0.21 1.49 -0.48 3 -0.75 4.42 c 0 -1 0 -1.79 0 -1.92 c -0.5 -3.83 -3.71 -11 -8 -11.74 a 5.13 5.13 0 0 0 -5.92 4.82 c -0.25 3.05 2 6.1 4.12 8 s 7.35 3.68 9.15 4.26 c -0.32 1.49 -0.63 3 -1 4.42 c -0.27 1 -0.47 1.93 -0.81 2.9 s -0.61 1.9 -0.91 2.84 c -0.66 1.79 -1.32 3.64 -2 5.37 c -0.47 1.21 -0.93 2.35 -1.39 3.5 c 0.23 -1.49 0.63 -4.41 0.63 -4.65 A 19.89 19.89 0 0 0 74.76 335 a 6.07 6.07 0 0 0 -0.07 -1.13 a 5.12 5.12 0 0 0 -6.27 -4.35 c -4.18 1.11 -6.84 8.46 -7 12.33 c 0 0.22 0.14 2.71 0.26 4.28 c -0.21 -0.91 -0.41 -1.8 -0.63 -2.73 c -0.44 -1.86 -0.94 -3.69 -1.46 -5.67 c -0.28 -0.94 -0.57 -1.9 -0.87 -2.86 s -0.67 -2 -1 -2.93 c -0.83 -2.26 -1.77 -4.52 -2.78 -6.77 c 1.62 -0.39 7.35 -1.85 9.66 -3.62 s 4.72 -4.63 4.7 -7.69 a 5.12 5.12 0 0 0 -5.54 -5.25 c -4.31 0.47 -8 7.33 -8.83 11.12 c 0 0.23 -0.3 3 -0.41 4.55 c -0.62 -1.35 -1.22 -2.7 -1.89 -4 c -1.93 -3.88 -4 -7.74 -6 -11.61 c -0.63 -1.18 -1.24 -2.37 -1.86 -3.55 c 0.58 -0.14 7.43 -1.73 10 -3.71 c 2.3 -1.75 4.73 -4.63 4.71 -7.69 a 5.13 5.13 0 0 0 -5.54 -5.25 c -4.31 0.47 -8 7.33 -8.83 11.12 c -0.06 0.28 -0.42 4.29 -0.46 5.31 c -1.36 -2.61 -2.69 -5.23 -3.89 -7.86 a 90.22 90.22 0 0 1 -4.23 -10.92 c 0.27 -0.06 7.43 -1.69 10.07 -3.72 c 2.3 -1.76 4.73 -4.63 4.71 -7.69 a 5.13 5.13 0 0 0 -5.54 -5.25 c -4.31 0.47 -8 7.33 -8.83 11.12 c -0.06 0.3 -0.45 4.6 -0.46 5.39 c -0.07 -0.22 -0.16 -0.44 -0.22 -0.65 A 66 66 0 0 1 34 273.79 c -0.24 -2.16 -0.35 -4.23 -0.41 -6.24 c 1.36 -0.17 7.59 -1 10.17 -2.56 s 5.21 -4.09 5.52 -7.13 A 5.13 5.13 0 0 0 44.33 252 c -4.33 0 -8.8 6.4 -10 10.08 c -0.07 0.2 -0.5 2.31 -0.8 3.85 c 0 -0.91 0 -1.85 0 -2.72 c 0 -3.28 0.22 -6.28 0.42 -8.93 c 0.13 -1.51 0.28 -2.88 0.43 -4.15 c 1.25 -0.86 6.26 -4.4 7.8 -6.93 s 2.74 -6 1.61 -8.87 a 5.13 5.13 0 0 0 -7 -2.9 c -3.85 2 -4.87 9.74 -4.23 13.56 c 0.06 0.32 1.51 5.38 1.58 5.34 l 0.07 -0.05 c -0.17 1.22 -0.33 2.53 -0.49 4 c -0.26 2.66 -0.54 5.66 -0.61 9 a 89.84 89.84 0 0 0 0.25 10.62 a 67.16 67.16 0 0 0 2 11.73 l 0 0.13 c -0.68 -1.07 -2.69 -4 -2.87 -4.21 c -2.53 -2.92 -9.14 -7.09 -13.13 -5.39 A 5.13 5.13 0 0 0 17 283.39 C 18.5 286.07 22 287.4 24.88 287.81 Z" stroke-linecap="round" />
</g>
		<g transform="matrix(1 0 0 1 -155.3 7.82)" id="freepik--Plant--inject-2"  >
<path style="stroke: none; stroke-width: 1; stroke-dasharray: none; stroke-linecap: butt; stroke-dashoffset: 0; stroke-linejoin: miter; stroke-miterlimit: 4; fill: rgb(38,50,56); fill-rule: nonzero; opacity: 1;"  transform=" translate(-94.7, -257.82)" d="M 99.18 267.46 c 0.07 0 1.38 -5.06 1.43 -5.39 c 0.53 -3.83 -0.69 -11.55 -4.59 -13.43 a 5.13 5.13 0 0 0 -7 3.09 c -1 2.87 0.28 6.4 1.85 8.82 C 92.74 263.4 99.18 267.45 99.18 267.46 Z" stroke-linecap="round" />
</g>
		<g transform="matrix(1 0 0 1 -181.45 133.22)" id="freepik--Plant--inject-2"  >
<polygon style="stroke: rgb(38,50,56); stroke-width: 1; stroke-dasharray: none; stroke-linecap: round; stroke-dashoffset: 0; stroke-linejoin: round; stroke-miterlimit: 4; fill: rgb(255,255,255); fill-rule: nonzero; opacity: 1;"  points="20.78,23.08 -20.79,23.08 -25.98,-23.08 25.98,-23.08 20.78,23.08 " />
</g>
		<g transform="matrix(1 0 0 1 -181.45 120.84)" id="freepik--Plant--inject-2"  >
<polygon style="stroke: none; stroke-width: 1; stroke-dasharray: none; stroke-linecap: butt; stroke-dashoffset: 0; stroke-linejoin: miter; stroke-miterlimit: 4; fill: rgb(38,50,56); fill-rule: nonzero; opacity: 1;"  points="-25.03,-2.24 -24.53,2.23 24.52,2.23 25.03,-2.24 -25.03,-2.24 " />
</g>
		<g transform="matrix(1 0 0 1 -181.45 130.68)" id="freepik--Plant--inject-2"  >
<polygon style="stroke: none; stroke-width: 1; stroke-dasharray: none; stroke-linecap: butt; stroke-dashoffset: 0; stroke-linejoin: miter; stroke-miterlimit: 4; fill: rgb(38,50,56); fill-rule: nonzero; opacity: 1;"  points="23.42,2.24 23.92,-2.24 -23.92,-2.24 -23.42,2.24 23.42,2.24 " />
</g>
		<g transform="matrix(1 0 0 1 -157.73 -141.65)" id="freepik--Tools--inject-2"  >
<path style="stroke: rgb(0,0,0); stroke-width: 1; stroke-dasharray: none; stroke-linecap: round; stroke-dashoffset: 0; stroke-linejoin: round; stroke-miterlimit: 4; fill: none; fill-rule: nonzero; opacity: 0.30000000000000004;"  transform=" translate(-92.27, -108.35)" d="M 78.8 131 L 114.93 94.9 a 18.45 18.45 0 0 0 25.61 -20.83 L 126.16 88.44 a 1.1 1.1 0 0 1 -1.56 0 L 112.14 76 a 1.1 1.1 0 0 1 0 -1.56 l 14.38 -14.37 a 18.45 18.45 0 0 0 -20.83 25.61 L 69.56 121.78 A 18.45 18.45 0 0 0 44 142.61 l 14.38 -14.37 a 1.09 1.09 0 0 1 1.55 0 L 72.35 140.7 a 1.1 1.1 0 0 1 0 1.56 L 58 156.63 A 18.44 18.44 0 0 0 78.8 131 Z" stroke-linecap="round" />
</g>
		<g transform="matrix(1 0 0 1 -108.03 -192)" id="freepik--Tools--inject-2"  >
<path style="stroke: rgb(0,0,0); stroke-width: 1; stroke-dasharray: none; stroke-linecap: round; stroke-dashoffset: 0; stroke-linejoin: round; stroke-miterlimit: 4; fill: none; fill-rule: nonzero; opacity: 0.30000000000000004;"  transform=" translate(-141.97, -58)" d="M 150.57 50.28 l -11 -3.61 l -8.63 7.72 l 2.38 11.34 l 11 3.6 L 153 61.61 Z m -7.68 12.21 l -4.36 -1.43 l -0.94 -4.49 l 3.42 -3 l 4.35 1.42 l 0.94 4.49 Z" stroke-linecap="round" />
</g>
		<g transform="matrix(1 0 0 1 134.3 67.09)" id="freepik--Tools--inject-2"  >
<path style="stroke: rgb(0,0,0); stroke-width: 1; stroke-dasharray: none; stroke-linecap: round; stroke-dashoffset: 0; stroke-linejoin: round; stroke-miterlimit: 4; fill: none; fill-rule: nonzero; opacity: 0.30000000000000004;"  transform=" translate(-384.3, -317.09)" d="M 397.78 294.38 l -36.13 36.13 A 18.45 18.45 0 0 0 336 351.34 L 350.42 337 a 1.1 1.1 0 0 1 1.56 0 l 12.46 12.47 a 1.09 1.09 0 0 1 0 1.55 l -14.38 14.38 a 18.45 18.45 0 0 0 20.83 -25.61 L 407 303.62 a 18.45 18.45 0 0 0 25.61 -20.83 l -14.38 14.38 a 1.1 1.1 0 0 1 -1.56 0 l -12.46 -12.46 a 1.1 1.1 0 0 1 0 -1.56 l 14.38 -14.38 a 18.45 18.45 0 0 0 -20.83 25.61 Z" stroke-linecap="round" />
</g>
		<g transform="matrix(1 0 0 1 84.62 117.4)" id="freepik--Tools--inject-2"  >
<path style="stroke: rgb(0,0,0); stroke-width: 1; stroke-dasharray: none; stroke-linecap: round; stroke-dashoffset: 0; stroke-linejoin: round; stroke-miterlimit: 4; fill: none; fill-rule: nonzero; opacity: 0.30000000000000004;"  transform=" translate(-334.62, -367.4)" d="M 326 375.13 l 11 3.61 l 8.62 -7.73 l -2.37 -11.33 l -11 -3.61 l -8.63 7.73 Z m 7.68 -12.21 l 4.36 1.43 l 0.94 4.48 l -3.42 3.06 l -4.35 -1.43 l -0.94 -4.48 Z" stroke-linecap="round" />
</g>
		<g transform="matrix(1 0 0 1 141.7 -141.66)" id="freepik--Tools--inject-2"  >
<path style="stroke: rgb(0,0,0); stroke-width: 1; stroke-dasharray: none; stroke-linecap: round; stroke-dashoffset: 0; stroke-linejoin: round; stroke-miterlimit: 4; fill: none; fill-rule: nonzero; opacity: 0.30000000000000004;"  transform=" translate(-391.7, -108.34)" d="M 378.25 131 L 414.38 94.9 A 18.45 18.45 0 0 0 440 74.07 L 425.61 88.44 a 1.09 1.09 0 0 1 -1.55 0 L 411.59 76 a 1.1 1.1 0 0 1 0 -1.56 L 426 60.05 a 18.45 18.45 0 0 0 -20.83 25.61 L 369 121.78 a 18.45 18.45 0 0 0 -25.61 20.83 l 14.38 -14.37 a 1.1 1.1 0 0 1 1.56 0 L 371.8 140.7 a 1.1 1.1 0 0 1 0 1.56 l -14.38 14.37 A 18.44 18.44 0 0 0 378.25 131 Z" stroke-linecap="round" />
</g>
		<g transform="matrix(1 0 0 1 191.38 -192)" id="freepik--Tools--inject-2"  >
<path style="stroke: rgb(0,0,0); stroke-width: 1; stroke-dasharray: none; stroke-linecap: round; stroke-dashoffset: 0; stroke-linejoin: round; stroke-miterlimit: 4; fill: none; fill-rule: nonzero; opacity: 0.30000000000000004;"  transform=" translate(-441.38, -58)" d="M 450 50.28 l -11 -3.61 l -8.62 7.72 l 2.37 11.34 l 11 3.6 l 8.62 -7.72 Z m -7.68 12.21 L 438 61.06 L 437 56.57 l 3.42 -3 l 4.35 1.42 l 0.94 4.49 Z" stroke-linecap="round" />
</g>
		<g transform="matrix(1 0 0 1 211.25 -108.59)" id="freepik--Tools--inject-2"  >
<path style="stroke: rgb(0,0,0); stroke-width: 1; stroke-dasharray: none; stroke-linecap: round; stroke-dashoffset: 0; stroke-linejoin: round; stroke-miterlimit: 4; fill: none; fill-rule: nonzero; opacity: 0.30000000000000004;"  transform=" translate(-461.25, -141.41)" d="M 469.88 133.68 l -11 -3.6 l -8.63 7.72 l 2.38 11.33 l 11 3.61 l 8.63 -7.73 Z m -7.68 12.21 l -4.36 -1.42 L 456.9 140 l 3.42 -3.06 l 4.35 1.43 l 0.94 4.49 Z" stroke-linecap="round" />
</g>
		<g transform="matrix(1 0 0 1 -38.96 -159.68)" id="freepik--Tools--inject-2"  >
<path style="stroke: rgb(0,0,0); stroke-width: 1; stroke-dasharray: none; stroke-linecap: round; stroke-dashoffset: 0; stroke-linejoin: round; stroke-miterlimit: 4; fill: none; fill-rule: nonzero; opacity: 0.30000000000000004;"  transform=" translate(-211.04, -90.32)" d="M 219.67 82.6 l -11 -3.61 l -8.62 7.73 l 2.37 11.33 l 11 3.61 l 8.62 -7.73 Z M 212 94.81 l -4.36 -1.43 l -0.94 -4.48 l 3.42 -3.06 l 4.35 1.43 l 0.94 4.48 Z" stroke-linecap="round" />
</g>
		<g transform="matrix(1 0 0 1 -58.8 100.47)" id="freepik--Tools--inject-2"  >
<path style="stroke: rgb(0,0,0); stroke-width: 1; stroke-dasharray: none; stroke-linecap: round; stroke-dashoffset: 0; stroke-linejoin: round; stroke-miterlimit: 4; fill: none; fill-rule: nonzero; opacity: 0.30000000000000004;"  transform=" translate(-191.2, -350.47)" d="M 199.82 342.75 l -11 -3.61 l -8.62 7.72 l 2.38 11.33 l 11 3.61 l 8.62 -7.72 Z M 192.13 355 l -4.35 -1.43 l -0.94 -4.49 l 3.41 -3.06 l 4.35 1.43 l 1 4.49 Z" stroke-linecap="round" />
</g>
		<g transform="matrix(1 0 0 1 -198.47 -39.86)" id="freepik--Tools--inject-2"  >
<path style="stroke: rgb(0,0,0); stroke-width: 1; stroke-dasharray: none; stroke-linecap: round; stroke-dashoffset: 0; stroke-linejoin: round; stroke-miterlimit: 4; fill: none; fill-rule: nonzero; opacity: 0.30000000000000004;"  transform=" translate(-51.52, -210.14)" d="M 60.15 202.41 l -11 -3.6 l -8.62 7.72 l 2.37 11.33 l 11 3.61 l 8.62 -7.73 Z m -7.69 12.21 l -4.35 -1.42 l -1 -4.49 l 3.42 -3.06 l 4.35 1.43 l 1 4.49 Z" stroke-linecap="round" />
</g>
		<g transform="matrix(1 0 0 1 -97.91 80)" id="freepik--Tools--inject-2"  >
<path style="stroke: rgb(0,0,0); stroke-width: 1; stroke-dasharray: none; stroke-linecap: round; stroke-dashoffset: 0; stroke-linejoin: round; stroke-miterlimit: 4; fill: none; fill-rule: nonzero; opacity: 0.30000000000000004;"  transform=" translate(-152.09, -330)" d="M 138.63 352.69 l 36.12 -36.13 a 18.44 18.44 0 0 0 25.61 -20.83 L 186 310.11 a 1.1 1.1 0 0 1 -1.56 0 L 172 297.65 a 1.1 1.1 0 0 1 0 -1.56 l 14.37 -14.38 a 18.45 18.45 0 0 0 -20.83 25.61 l -36.12 36.13 a 18.45 18.45 0 0 0 -25.61 20.83 l 14.37 -14.38 a 1.1 1.1 0 0 1 1.56 0 l 12.46 12.46 a 1.1 1.1 0 0 1 0 1.56 L 117.8 378.3 a 18.45 18.45 0 0 0 20.83 -25.61 Z" stroke-linecap="round" />
</g>
		<g transform="matrix(1 0 0 1 -48.22 29.66)" id="freepik--Tools--inject-2"  >
<path style="stroke: rgb(0,0,0); stroke-width: 1; stroke-dasharray: none; stroke-linecap: round; stroke-dashoffset: 0; stroke-linejoin: round; stroke-miterlimit: 4; fill: none; fill-rule: nonzero; opacity: 0.30000000000000004;"  transform=" translate(-201.78, -279.66)" d="M 210.4 271.94 l -11 -3.61 l -8.63 7.73 l 2.38 11.33 l 11 3.61 l 8.63 -7.73 Z m -7.68 12.21 l -4.36 -1.43 l -0.94 -4.48 l 3.41 -3.06 l 4.36 1.43 l 0.94 4.48 Z" stroke-linecap="round" />
</g>
		<g transform="matrix(1 0 0 1 -4.19 101.62)" id="freepik--Device--inject-2"  >
<rect style="stroke: rgb(38,50,56); stroke-width: 1; stroke-dasharray: none; stroke-linecap: round; stroke-dashoffset: 0; stroke-linejoin: round; stroke-miterlimit: 4; fill: rgb(38,50,56); fill-rule: nonzero; opacity: 1;"  x="-13.815" y="-55.73" rx="0" ry="0" width="27.63" height="111.46" />
</g>
		<g transform="matrix(1 0 0 1 2.84 -32.23)" id="freepik--Device--inject-2"  >
<rect style="stroke: rgb(38,50,56); stroke-width: 1; stroke-dasharray: none; stroke-linecap: round; stroke-dashoffset: 0; stroke-linejoin: round; stroke-miterlimit: 4; fill: rgb(38,50,56); fill-rule: nonzero; opacity: 1;"  x="-174.33" y="-105.74" rx="0" ry="0" width="348.66" height="211.48" />
</g>
		<g transform="matrix(1 0 0 1 -4.18 -32.23)" id="freepik--Device--inject-2"  >
<rect style="stroke: rgb(38,50,56); stroke-width: 1; stroke-dasharray: none; stroke-linecap: round; stroke-dashoffset: 0; stroke-linejoin: round; stroke-miterlimit: 4; fill: rgb(23,148,172); fill-rule: nonzero; opacity: 1;"  x="-174.33" y="-105.74" rx="0" ry="0" width="348.66" height="211.48" />
</g>
		<g transform="matrix(1 0 0 1 -4.19 -32.23)" id="freepik--Device--inject-2"  >
<rect style="stroke: rgb(38,50,56); stroke-width: 1; stroke-dasharray: none; stroke-linecap: round; stroke-dashoffset: 0; stroke-linejoin: round; stroke-miterlimit: 4; fill: rgb(255,255,255); fill-rule: nonzero; opacity: 1;"  x="-161.765" y="-98.12" rx="0" ry="0" width="323.53" height="196.24" />
</g>
		<g transform="matrix(1 0 0 1 -4.19 59.98)" id="freepik--Device--inject-2"  >
<rect style="stroke: rgb(38,50,56); stroke-width: 1; stroke-dasharray: none; stroke-linecap: round; stroke-dashoffset: 0; stroke-linejoin: round; stroke-miterlimit: 4; fill: rgb(255,255,255); fill-rule: nonzero; opacity: 1;"  x="-161.765" y="-5.91" rx="0" ry="0" width="323.53" height="11.82" />
</g>
		<g transform="matrix(1 0 0 1 -4.18 151.49)" id="freepik--Device--inject-2"  >
<polygon style="stroke: rgb(38,50,56); stroke-width: 1; stroke-dasharray: none; stroke-linecap: round; stroke-dashoffset: 0; stroke-linejoin: round; stroke-miterlimit: 4; fill: rgb(38,50,56); fill-rule: nonzero; opacity: 1;"  points="1.51,-6.65 -100.92,-0.03 -100.92,6.64 100.92,6.64 100.92,-0.03 1.51,-6.65 " />
</g>
		<g transform="matrix(1 0 0 1 -4.19 -32.23)" id="freepik--Device--inject-2"  >
<rect style="stroke: rgb(38,50,56); stroke-width: 1; stroke-dasharray: none; stroke-linecap: round; stroke-dashoffset: 0; stroke-linejoin: round; stroke-miterlimit: 4; fill: rgb(255,255,255); fill-rule: nonzero; opacity: 1;"  x="-161.765" y="-98.12" rx="0" ry="0" width="323.53" height="196.24" />
</g>
		<g transform="matrix(1 0 0 1 -7.59 156.3)" id="freepik--Floor--inject-2"  >
<line style="stroke: rgb(38,50,56); stroke-width: 1; stroke-dasharray: none; stroke-linecap: round; stroke-dashoffset: 0; stroke-linejoin: round; stroke-miterlimit: 4; fill: none; fill-rule: nonzero; opacity: 1;"  x1="220.465" y1="0" x2="-220.465" y2="0" />
</g>
		<g transform="matrix(1 0 0 1 229.83 156.3)" id="freepik--Floor--inject-2"  >
<line style="stroke: rgb(38,50,56); stroke-width: 1; stroke-dasharray: none; stroke-linecap: round; stroke-dashoffset: 0; stroke-linejoin: round; stroke-miterlimit: 4; fill: none; fill-rule: nonzero; opacity: 1;"  x1="5.935000000000002" y1="0" x2="-5.935000000000002" y2="0" />
</g>
		<g transform="matrix(1 0 0 1 171.46 112.3)" id="freepik--Character--inject-2"  >
<path style="stroke: rgb(38,50,56); stroke-width: 1; stroke-dasharray: none; stroke-linecap: round; stroke-dashoffset: 0; stroke-linejoin: round; stroke-miterlimit: 4; fill: rgb(38,50,56); fill-rule: nonzero; opacity: 1;"  transform=" translate(-421.46, -362.3)" d="M 398.33 282.83 s 1.66 59 2.5 69.27 s 3.34 37.3 3.9 42.31 s -0.56 19.21 -0.56 19.21 L 402.78 415 l 1.11 7 s -8.91 5.57 -13.36 7.24 s 1.11 3.89 5 4.45 A 26.61 26.61 0 0 0 407 433.1 c 4.46 -1.11 10 -3.06 12 -3.34 S 422 427 422 423.92 s -0.28 -3.34 0 -4.74 s -1.4 -7.23 -1.68 -8.62 s 3.9 -32.85 3.07 -42.87 s -1.12 -23.66 -1.12 -25.05 s -0.55 -15.87 -0.55 -15.87 s 4.73 32 5.29 33.13 s 9.74 47.59 10 49.82 s -0.84 4.73 -0.56 6.4 s 1.67 6.68 1.67 6.68 s -0.84 7.52 -3.34 10.86 s -3.06 6.12 -1.67 7.24 s 4.45 1.11 8.07 0.28 s 3.62 -0.28 7 -3.07 s 4.45 -10.85 4.45 -11.69 s 1.4 -3.62 1.4 -6.68 s 0 -1.67 -1.12 -6.12 s -0.83 -21.71 -1.11 -31.73 s -3.62 -30.07 -3.62 -34 s -1.67 -62.08 -1.67 -62.08 S 419.77 294 398.33 282.83 Z" stroke-linecap="round" />
</g>
		<g transform="matrix(1 0 0 1 155.44 177.64)" id="freepik--Character--inject-2"  >
<path style="stroke: rgb(38,50,56); stroke-width: 1; stroke-dasharray: none; stroke-linecap: round; stroke-dashoffset: 0; stroke-linejoin: round; stroke-miterlimit: 4; fill: rgb(255,255,255); fill-rule: nonzero; opacity: 1;"  transform=" translate(-405.44, -427.64)" d="M 410.73 424.35 a 11.4 11.4 0 0 1 -6.84 -2.38 s -8.91 5.57 -13.36 7.24 s 1.11 3.89 5 4.45 A 26.61 26.61 0 0 0 407 433.1 c 4.46 -1.11 10 -3.06 12 -3.34 S 422 427 422 423.92 c 0 -1.29 -0.05 -2.08 -0.09 -2.67 C 418.82 422.55 413.69 424.48 410.73 424.35 Z" stroke-linecap="round" />
</g>
		<g transform="matrix(1 0 0 1 155.35 180.16)" id="freepik--Character--inject-2"  >
<path style="stroke: rgb(38,50,56); stroke-width: 1; stroke-dasharray: none; stroke-linecap: round; stroke-dashoffset: 0; stroke-linejoin: round; stroke-miterlimit: 4; fill: rgb(255,255,255); fill-rule: nonzero; opacity: 1;"  transform=" translate(-405.35, -430.16)" d="M 417.8 426.57 c -5.05 0.4 -10.85 6.53 -18.59 5.66 a 31.78 31.78 0 0 1 -9.81 -2.45 c -2.09 1.57 2.68 3.39 6.14 3.88 A 26.61 26.61 0 0 0 407 433.1 c 4.46 -1.11 10 -3.06 12 -3.34 c 1.41 -0.2 2.38 -1.58 2.81 -3.48 C 420.82 426.34 419.56 426.43 417.8 426.57 Z" stroke-linecap="round" />
</g>
		<g transform="matrix(1 0 0 1 192.66 182.29)" id="freepik--Character--inject-2"  >
<path style="stroke: rgb(38,50,56); stroke-width: 1; stroke-dasharray: none; stroke-linecap: round; stroke-dashoffset: 0; stroke-linejoin: round; stroke-miterlimit: 4; fill: rgb(255,255,255); fill-rule: nonzero; opacity: 1;"  transform=" translate(-442.66, -432.29)" d="M 446.89 426.37 a 12.2 12.2 0 0 1 -8.76 -3.57 s -0.84 7.52 -3.34 10.86 s -3.06 6.12 -1.67 7.24 s 4.45 1.11 8.07 0.28 s 3.62 -0.28 7 -3.07 s 4.45 -10.85 4.45 -11.69 a 5.16 5.16 0 0 1 0.31 -1.24 A 14.9 14.9 0 0 1 446.89 426.37 Z" stroke-linecap="round" />
</g>
		<g transform="matrix(1 0 0 1 191.86 187.07)" id="freepik--Character--inject-2"  >
<path style="stroke: rgb(38,50,56); stroke-width: 1; stroke-dasharray: none; stroke-linecap: round; stroke-dashoffset: 0; stroke-linejoin: round; stroke-miterlimit: 4; fill: rgb(255,255,255); fill-rule: nonzero; opacity: 1;"  transform=" translate(-441.86, -437.07)" d="M 448.15 438.11 c 1.48 -1.23 2.53 -3.51 3.23 -5.74 l 0 0.06 A 15.54 15.54 0 0 1 441 439.5 a 13.35 13.35 0 0 1 -8.65 -0.55 a 2.25 2.25 0 0 0 0.74 1.95 c 1.39 1.11 4.45 1.11 8.07 0.28 S 444.81 440.9 448.15 438.11 Z" stroke-linecap="round" />
</g>
		<g transform="matrix(1 0 0 1 172.49 36.89)" id="freepik--Character--inject-2"  >
<path style="stroke: rgb(38,50,56); stroke-width: 1; stroke-dasharray: none; stroke-linecap: round; stroke-dashoffset: 0; stroke-linejoin: round; stroke-miterlimit: 4; fill: rgb(23,148,172); fill-rule: nonzero; opacity: 1;"  transform=" translate(-422.49, -286.89)" d="M 397.69 281.06 s -0.8 3.88 0.81 5.82 s 8.08 6.14 23.44 6.31 S 443.77 290 446 288.5 s 1.29 -7.92 1.29 -7.92 a 68.85 68.85 0 0 1 -22.95 5.33 C 412.08 286.4 397.69 281.06 397.69 281.06 Z" stroke-linecap="round" />
</g>
		<g transform="matrix(1 0 0 1 172.41 -15.72)" id="freepik--Character--inject-2"  >
<path style="stroke: rgb(38,50,56); stroke-width: 1; stroke-dasharray: none; stroke-linecap: round; stroke-dashoffset: 0; stroke-linejoin: round; stroke-miterlimit: 4; fill: rgb(23,148,172); fill-rule: nonzero; opacity: 1;"  transform=" translate(-422.41, -234.28)" d="M 411 210.14 l -14.11 -7.34 s -17.27 -15.12 -25.76 -20.73 s -15.69 -3.74 -16.27 3.17 s 28.64 29.79 34 34.11 s 6.48 6.48 6.48 6.48 s 0.72 38.57 1 44.76 s 0 10.36 2 12.24 s 11.37 7.62 24.47 6.9 s 19 -2 21.45 -4 s 3.88 -3.74 3.88 -7.19 S 451.87 229 451.87 229 s 25.91 -17.7 32.53 -23.6 s 7.06 -14.25 2.74 -15.12 s -15.26 4.47 -19.58 7.2 s -18.13 7.05 -22.88 8.35 s -9.5 2.73 -9.5 2.73 S 423.23 211.86 411 210.14 Z" stroke-linecap="round" />
</g>
		<g transform="matrix(1 0 0 1 143.12 -32.09)" id="freepik--Character--inject-2"  >
<line style="stroke: rgb(38,50,56); stroke-width: 1; stroke-dasharray: none; stroke-linecap: round; stroke-dashoffset: 0; stroke-linejoin: round; stroke-miterlimit: 4; fill: none; fill-rule: nonzero; opacity: 1;"  x1="2.1899999999999977" y1="7.925000000000011" x2="-2.1899999999999977" y2="-7.925000000000011" />
</g>
		<g transform="matrix(1 0 0 1 140.1 -37.02)" id="freepik--Character--inject-2"  >
<line style="stroke: rgb(38,50,56); stroke-width: 1; stroke-dasharray: none; stroke-linecap: round; stroke-dashoffset: 0; stroke-linejoin: round; stroke-miterlimit: 4; fill: none; fill-rule: nonzero; opacity: 1;"  x1="3.325000000000017" y1="7.165000000000006" x2="-3.325000000000017" y2="-7.165000000000006" />
</g>
		<g transform="matrix(1 0 0 1 203.7 -27.81)" id="freepik--Character--inject-2"  >
<line style="stroke: rgb(38,50,56); stroke-width: 1; stroke-dasharray: none; stroke-linecap: round; stroke-dashoffset: 0; stroke-linejoin: round; stroke-miterlimit: 4; fill: none; fill-rule: nonzero; opacity: 1;"  x1="-1.829999999999984" y1="6.805000000000007" x2="1.829999999999984" y2="-6.805000000000007" />
</g>
		<g transform="matrix(1 0 0 1 205.53 -28.91)" id="freepik--Character--inject-2"  >
<line style="stroke: rgb(38,50,56); stroke-width: 1; stroke-dasharray: none; stroke-linecap: round; stroke-dashoffset: 0; stroke-linejoin: round; stroke-miterlimit: 4; fill: none; fill-rule: nonzero; opacity: 1;"  x1="-2.494999999999976" y1="4.469999999999999" x2="2.494999999999976" y2="-4.469999999999999" />
</g>
		<g transform="matrix(1 0 0 1 122.24 -56.64)" id="freepik--Character--inject-2"  >
<line style="stroke: rgb(38,50,56); stroke-width: 1; stroke-dasharray: none; stroke-linecap: round; stroke-dashoffset: 0; stroke-linejoin: round; stroke-miterlimit: 4; fill: none; fill-rule: nonzero; opacity: 1;"  x1="4.569999999999993" y1="-2.489999999999995" x2="-4.569999999999993" y2="2.489999999999995" />
</g>
		<g transform="matrix(1 0 0 1 221.22 -45.52)" id="freepik--Character--inject-2"  >
<line style="stroke: rgb(38,50,56); stroke-width: 1; stroke-dasharray: none; stroke-linecap: round; stroke-dashoffset: 0; stroke-linejoin: round; stroke-miterlimit: 4; fill: none; fill-rule: nonzero; opacity: 1;"  x1="-2.1799999999999784" y1="-1.7650000000000006" x2="2.1799999999999784" y2="1.7650000000000006" />
</g>
		<g transform="matrix(1 0 0 1 160.7 -10.83)" id="freepik--Character--inject-2"  >
<path style="stroke: rgb(38,50,56); stroke-width: 1; stroke-dasharray: none; stroke-linecap: round; stroke-dashoffset: 0; stroke-linejoin: round; stroke-miterlimit: 4; fill: rgb(255,255,255); fill-rule: nonzero; opacity: 1;"  transform=" translate(-410.7, -239.17)" d="M 411.72 227 l -3.6 23.25 a 0.94 0.94 0 0 0 0.79 1.07 h 0 a 0.93 0.93 0 0 0 1.07 -0.79 L 413.3 228 Z" stroke-linecap="round" />
</g>
		<g transform="matrix(1 0 0 1 175.59 -10.4)" id="freepik--Character--inject-2"  >
<path style="stroke: rgb(38,50,56); stroke-width: 1; stroke-dasharray: none; stroke-linecap: round; stroke-dashoffset: 0; stroke-linejoin: round; stroke-miterlimit: 4; fill: rgb(255,255,255); fill-rule: nonzero; opacity: 1;"  transform=" translate(-425.59, -239.6)" d="M 425.68 227.84 l -1.91 22.81 a 1.06 1.06 0 0 0 1.12 1.15 h 0 a 1.06 1.06 0 0 0 1 -1 l 1.53 -23.4 Z" stroke-linecap="round" />
</g>
		<g transform="matrix(1 0 0 1 174.77 -31.73)" id="freepik--Character--inject-2"  >
<path style="stroke: rgb(38,50,56); stroke-width: 1; stroke-dasharray: none; stroke-linecap: round; stroke-dashoffset: 0; stroke-linejoin: round; stroke-miterlimit: 4; fill: rgb(23,148,172); fill-rule: nonzero; opacity: 1;"  transform=" translate(-424.77, -218.27)" d="M 410.13 209.13 s -5.18 5.76 -5.61 8.06 s 3.6 5.18 3.6 5.18 s -2 0.58 -0.58 1.87 s 9.79 7.78 12.24 7.78 s 5.47 -3.89 13 -5.62 s 12.81 -9.5 12.24 -13.1 a 3.09 3.09 0 0 0 -3.75 -2.88 s 1.44 -3.16 -0.86 -4.6 s -7.63 -1.44 -10.22 -1.15 S 416.61 205.53 410.13 209.13 Z" stroke-linecap="round" />
</g>
		<g transform="matrix(1 0 0 1 180.42 -25.95)" id="freepik--Character--inject-2"  >
<path style="stroke: rgb(38,50,56); stroke-width: 1; stroke-dasharray: none; stroke-linecap: round; stroke-dashoffset: 0; stroke-linejoin: round; stroke-miterlimit: 4; fill: none; fill-rule: nonzero; opacity: 1;"  transform=" translate(-430.42, -224.05)" d="M 431.85 223 a 35.46 35.46 0 0 1 -2.86 2.1" stroke-linecap="round" />
</g>
		<g transform="matrix(1 0 0 1 188.22 -34.83)" id="freepik--Character--inject-2"  >
<path style="stroke: rgb(38,50,56); stroke-width: 1; stroke-dasharray: none; stroke-linecap: round; stroke-dashoffset: 0; stroke-linejoin: round; stroke-miterlimit: 4; fill: none; fill-rule: nonzero; opacity: 1;"  transform=" translate(-438.22, -215.17)" d="M 441.22 210.42 s -3.45 6.63 -6 9.5" stroke-linecap="round" />
</g>
		<g transform="matrix(1 0 0 1 159.92 -26.62)" id="freepik--Character--inject-2"  >
<line style="stroke: rgb(38,50,56); stroke-width: 1; stroke-dasharray: none; stroke-linecap: round; stroke-dashoffset: 0; stroke-linejoin: round; stroke-miterlimit: 4; fill: none; fill-rule: nonzero; opacity: 1;"  x1="-1.8000000000000114" y1="-1.009999999999991" x2="1.8000000000000114" y2="1.009999999999991" />
</g>
		<g transform="matrix(1 0 0 1 134.72 -67.86)" id="freepik--Character--inject-2"  >
<path style="stroke: rgb(38,50,56); stroke-width: 1; stroke-dasharray: none; stroke-linecap: round; stroke-dashoffset: 0; stroke-linejoin: round; stroke-miterlimit: 4; fill: rgb(189,189,189); fill-rule: nonzero; opacity: 1;"  transform=" translate(-384.72, -182.14)" d="M 357.88 191.28 c -1.58 -1.44 -5.61 -5.47 -2.44 -10.36 s 8.06 -3.17 12.09 -3.17 s 33.1 7.05 33.1 7.05 s 6.19 -10.65 7.49 -12.52 s 6.33 -2 6.33 -2 s 1.15 0.43 0.58 1.87 s -1.59 0.72 -1.87 4 s -1.88 15.11 -4.61 16.55 s -9.93 -0.29 -9.93 -0.29 L 365.94 194" stroke-linecap="round" />
</g>
		<g transform="matrix(1 0 0 1 117.12 -64.29)" id="freepik--Character--inject-2"  >
<path style="stroke: rgb(38,50,56); stroke-width: 1; stroke-dasharray: none; stroke-linecap: round; stroke-dashoffset: 0; stroke-linejoin: round; stroke-miterlimit: 4; fill: rgb(23,148,172); fill-rule: nonzero; opacity: 1;"  transform=" translate(-367.12, -185.71)" d="M 365.94 194 l 14.06 -0.69 a 7.27 7.27 0 0 1 -2.54 -5.5 A 14.14 14.14 0 0 1 380 180 c -5.8 -1.27 -11 -2.29 -12.49 -2.29 c -4 0 -8.93 -1.73 -12.09 3.17 s 0.86 8.92 2.44 10.36" stroke-linecap="round" />
</g>
		<g transform="matrix(1 0 0 1 173.49 -50.18)" id="freepik--Character--inject-2"  >
<path style="stroke: rgb(38,50,56); stroke-width: 1; stroke-dasharray: none; stroke-linecap: round; stroke-dashoffset: 0; stroke-linejoin: round; stroke-miterlimit: 4; fill: rgb(189,189,189); fill-rule: nonzero; opacity: 1;"  transform=" translate(-423.49, -199.82)" d="M 412.72 171.27 s -6 11.95 -5.75 13.39 s 1 3.17 1 3.74 s -3.16 7.92 -2.59 9.93 s 3 11.38 5.33 14.69 s 3.88 3.31 3.88 3.31 s -1.15 7.91 -0.28 10.22 s 3.74 6 5.47 5.47 s 11.22 -11.66 12.09 -15 s 1.87 -14.69 1.87 -14.69 s 1.73 -3.16 2.73 -4.6 a 22.78 22.78 0 0 0 5.19 -13.39 c 0.28 -7.48 -6.91 -14.39 -13.39 -16.26 S 415 170 412.72 171.27 Z" stroke-linecap="round" />
</g>
		<g transform="matrix(1 0 0 1 162.81 -55.9)" id="freepik--Character--inject-2"  >
<path style="stroke: rgb(38,50,56); stroke-width: 1; stroke-dasharray: none; stroke-linecap: round; stroke-dashoffset: 0; stroke-linejoin: round; stroke-miterlimit: 4; fill: none; fill-rule: nonzero; opacity: 1;"  transform=" translate(-412.81, -194.1)" d="M 411.57 189.84 s -3.16 7 -2.59 7.34 a 6 6 0 0 0 5 1 c 2.73 -0.72 2.73 -2.16 2.73 -2.16" stroke-linecap="round" />
</g>
		<g transform="matrix(1 0 0 1 163.22 -44.76)" id="freepik--Character--inject-2"  >
<path style="stroke: none; stroke-width: 1; stroke-dasharray: none; stroke-linecap: butt; stroke-dashoffset: 0; stroke-linejoin: miter; stroke-miterlimit: 4; fill: rgb(38,50,56); fill-rule: nonzero; opacity: 1;"  transform=" translate(-413.22, -205.25)" d="M 414.37 204.81 c 0.4 1 0.2 2.08 -0.43 2.32 s -1.46 -0.41 -1.86 -1.45 s -0.2 -2.08 0.43 -2.32 S 414 203.77 414.37 204.81 Z" stroke-linecap="round" />
</g>
		<g transform="matrix(1 0 0 1 170.56 -33.02)" id="freepik--Character--inject-2"  >
<path style="stroke: rgb(38,50,56); stroke-width: 1; stroke-dasharray: none; stroke-linecap: round; stroke-dashoffset: 0; stroke-linejoin: round; stroke-miterlimit: 4; fill: rgb(38,50,56); fill-rule: nonzero; opacity: 1;"  transform=" translate(-420.56, -216.98)" d="M 414.59 216.33 s 2.16 -0.29 3.89 -0.72 s 8.64 -6.19 8.64 -6.19 L 414 224.53 Z" stroke-linecap="round" />
</g>
		<g transform="matrix(1 0 0 1 171.79 -65.57)" id="freepik--Character--inject-2"  >
<path style="stroke: rgb(38,50,56); stroke-width: 1; stroke-dasharray: none; stroke-linecap: round; stroke-dashoffset: 0; stroke-linejoin: round; stroke-miterlimit: 4; fill: none; fill-rule: nonzero; opacity: 1;"  transform=" translate(-421.79, -184.43)" d="M 418.91 183.65 s 3.75 -2.3 5.76 2.16" stroke-linecap="round" />
</g>
		<g transform="matrix(1 0 0 1 160.87 -66.19)" id="freepik--Character--inject-2"  >
<path style="stroke: rgb(38,50,56); stroke-width: 1; stroke-dasharray: none; stroke-linecap: round; stroke-dashoffset: 0; stroke-linejoin: round; stroke-miterlimit: 4; fill: none; fill-rule: nonzero; opacity: 1;"  transform=" translate(-410.87, -183.81)" d="M 412.87 183.8 a 2.94 2.94 0 0 0 -4 0.57" stroke-linecap="round" />
</g>
		<g transform="matrix(1 0 0 1 170.28 -59.66)" id="freepik--Character--inject-2"  >
<path style="stroke: none; stroke-width: 1; stroke-dasharray: none; stroke-linecap: butt; stroke-dashoffset: 0; stroke-linejoin: miter; stroke-miterlimit: 4; fill: rgb(38,50,56); fill-rule: nonzero; opacity: 1;"  transform=" translate(-420.28, -190.34)" d="M 421.22 190.35 c 0 0.83 -0.42 1.51 -0.94 1.51 s -0.94 -0.68 -0.94 -1.51 s 0.42 -1.52 0.94 -1.52 S 421.22 189.51 421.22 190.35 Z" stroke-linecap="round" />
</g>
		<g transform="matrix(1 0 0 1 160.05 -60.43)" id="freepik--Character--inject-2"  >
<ellipse style="stroke: none; stroke-width: 1; stroke-dasharray: none; stroke-linecap: butt; stroke-dashoffset: 0; stroke-linejoin: miter; stroke-miterlimit: 4; fill: rgb(38,50,56); fill-rule: nonzero; opacity: 1;"  cx="0" cy="0" rx="0.86" ry="1.38" />
</g>
		<g transform="matrix(1 0 0 1 179.69 -65.17)" id="freepik--Character--inject-2"  >
<path style="stroke: rgb(38,50,56); stroke-width: 1; stroke-dasharray: none; stroke-linecap: round; stroke-dashoffset: 0; stroke-linejoin: round; stroke-miterlimit: 4; fill: rgb(38,50,56); fill-rule: nonzero; opacity: 1;"  transform=" translate(-429.69, -184.83)" d="M 432.16 200.92 a 15 15 0 0 0 1.76 1.12 c 0.47 -0.85 1.74 -3.12 2.55 -4.28 a 22.78 22.78 0 0 0 5.19 -13.39 c 0.28 -7.48 -6.91 -14.39 -13.39 -16.26 a 17.1 17.1 0 0 0 -10.56 0.81 c 0.19 0.37 0.85 0.79 2.64 1.06 c 3.89 0.57 8.49 -1.3 10.94 0.43 s 3.46 6.91 1.3 8.78 s -6.62 4.89 -4.75 7.34 a 15 15 0 0 1 2.88 5.47 c 0 0.58 -0.87 1.15 0 1.3 s 2 0.43 2.44 -0.87 s 2.74 -3.31 3.89 -1 s -0.29 5 -1.58 6.76 A 10.58 10.58 0 0 1 432.16 200.92 Z" stroke-linecap="round" />
</g>
		<g transform="matrix(1 0 0 1 209.89 -61.55)" id="freepik--Character--inject-2"  >
<path style="stroke: rgb(38,50,56); stroke-width: 1; stroke-dasharray: none; stroke-linecap: round; stroke-dashoffset: 0; stroke-linejoin: round; stroke-miterlimit: 4; fill: rgb(189,189,189); fill-rule: nonzero; opacity: 1;"  transform=" translate(-459.89, -188.45)" d="M 479.08 204.67 l -11.37 -0.43 s -33.4 -8.21 -35.84 -9.5 s -1.87 -5 -2.16 -5.91 s -1 -4.75 -0.29 -5.75 s 6.77 -5.62 7.2 -6.19 s -0.72 -3.31 -0.43 -4 s 1 -0.87 1.72 -0.43 a 1.92 1.92 0 0 1 0.87 1.15 s 1.44 0.28 2.73 2.59 s 1.58 4.17 1.3 5 s 1.29 2.59 1 3.88 a 28.16 28.16 0 0 1 -2.15 4.61 s 27.2 -1.15 31.81 -1.15 s 15.4 -0.58 16.69 2 s 0 7.05 -2.16 10.08" stroke-linecap="round" />
</g>
		<g transform="matrix(1 0 0 1 189.67 -60.55)" id="freepik--Character--inject-2"  >
<line style="stroke: rgb(38,50,56); stroke-width: 1; stroke-dasharray: none; stroke-linecap: round; stroke-dashoffset: 0; stroke-linejoin: round; stroke-miterlimit: 4; fill: none; fill-rule: nonzero; opacity: 1;"  x1="1.9950000000000045" y1="0.25" x2="-1.9950000000000045" y2="-0.25" />
</g>
		<g transform="matrix(1 0 0 1 189.5 -73.61)" id="freepik--Character--inject-2"  >
<path style="stroke: rgb(38,50,56); stroke-width: 1; stroke-dasharray: none; stroke-linecap: round; stroke-dashoffset: 0; stroke-linejoin: round; stroke-miterlimit: 4; fill: none; fill-rule: nonzero; opacity: 1;"  transform=" translate(-439.5, -176.39)" d="M 438.78 173.58 s 1.8 3.58 1.38 4.62 l -0.41 1" stroke-linecap="round" />
</g>
		<g transform="matrix(1 0 0 1 191.49 -67.7)" id="freepik--Character--inject-2"  >
<path style="stroke: rgb(38,50,56); stroke-width: 1; stroke-dasharray: none; stroke-linecap: round; stroke-dashoffset: 0; stroke-linejoin: round; stroke-miterlimit: 4; fill: none; fill-rule: nonzero; opacity: 1;"  transform=" translate(-441.49, -182.3)" d="M 442.81 181.21 a 20.14 20.14 0 0 1 -2.65 2.18" stroke-linecap="round" />
</g>
		<g transform="matrix(1 0 0 1 228.54 -53.41)" id="freepik--Character--inject-2"  >
<path style="stroke: rgb(38,50,56); stroke-width: 1; stroke-dasharray: none; stroke-linecap: round; stroke-dashoffset: 0; stroke-linejoin: round; stroke-miterlimit: 4; fill: rgb(23,148,172); fill-rule: nonzero; opacity: 1;"  transform=" translate(-478.54, -196.59)" d="M 488 200.64 c 2.16 -3 3.46 -7.49 2.16 -10.08 s -11.94 -2 -16.6 -2 a 10.11 10.11 0 0 1 0.19 7.77 c -1.28 3.67 -4.89 6.22 -7.35 7.59 l 1.31 0.33 l 11.37 0.43" stroke-linecap="round" />
</g>
		<g transform="matrix(1 0 0 1 -14.67 -70.17)" id="freepik--Smoke--inject-2"  >
<path style="stroke: none; stroke-width: 1; stroke-dasharray: none; stroke-linecap: butt; stroke-dashoffset: 0; stroke-linejoin: miter; stroke-miterlimit: 4; fill: rgb(0,0,0); fill-rule: nonzero; opacity: 0.30000000000000004;"  transform=" translate(-235.33, -179.83)" d="M 244 166.67 a 12.31 12.31 0 0 0 1.42 -5.73 a 12.82 12.82 0 0 0 -25.64 0 a 12.48 12.48 0 0 0 5.43 10.27 a 9.61 9.61 0 0 0 -5.66 15.62 a 13.08 13.08 0 0 0 -7.17 11.37 c 0 7.36 6.71 13.34 15 13.34 s 15 -6 15 -13.34 a 12 12 0 0 0 -1.11 -5 q 0.73 0.06 1.47 0.06 c 8.58 0 15.54 -6 15.54 -13.31 C 258.22 173 252 167.24 244 166.67 Z" stroke-linecap="round" />
</g>
		<g transform="matrix(1 0 0 1 -33.45 -107.79)" id="freepik--Smoke--inject-2"  >
<circle style="stroke: none; stroke-width: 1; stroke-dasharray: none; stroke-linecap: butt; stroke-dashoffset: 0; stroke-linejoin: miter; stroke-miterlimit: 4; fill: rgb(0,0,0); fill-rule: nonzero; opacity: 0.30000000000000004;"  cx="0" cy="0" r="8.14" />
</g>
		<g transform="matrix(1 0 0 1 -55.4 -115.93)" id="freepik--Smoke--inject-2"  >
<path style="stroke: none; stroke-width: 1; stroke-dasharray: none; stroke-linecap: butt; stroke-dashoffset: 0; stroke-linejoin: miter; stroke-miterlimit: 4; fill: rgb(0,0,0); fill-rule: nonzero; opacity: 0.30000000000000004;"  transform=" translate(-194.6, -134.07)" d="M 194.61 131.6 a 2.47 2.47 0 1 0 2.46 2.47 A 2.48 2.48 0 0 0 194.61 131.6 Z" stroke-linecap="round" />
</g>
		<g transform="matrix(1 0 0 1 -5.58 -119.91)" id="freepik--Smoke--inject-2"  >
<path style="stroke: none; stroke-width: 1; stroke-dasharray: none; stroke-linecap: butt; stroke-dashoffset: 0; stroke-linejoin: miter; stroke-miterlimit: 4; fill: rgb(0,0,0); fill-rule: nonzero; opacity: 0.30000000000000004;"  transform=" translate(-244.42, -130.09)" d="M 244.41 137 a 6.91 6.91 0 1 0 -6.9 -6.91 A 6.9 6.9 0 0 0 244.41 137 Z" stroke-linecap="round" />
</g>
		<g transform="matrix(1 0 0 1 17.58 -164.53)" id="freepik--Smoke--inject-2"  >
<path style="stroke: none; stroke-width: 1; stroke-dasharray: none; stroke-linecap: butt; stroke-dashoffset: 0; stroke-linejoin: miter; stroke-miterlimit: 4; fill: rgb(0,0,0); fill-rule: nonzero; opacity: 0.30000000000000004;"  transform=" translate(-267.58, -85.47)" d="M 267.58 83 a 2.47 2.47 0 1 0 2.47 2.46 A 2.46 2.46 0 0 0 267.58 83 Z" stroke-linecap="round" />
</g>
		<g transform="matrix(1 0 0 1 16.08 -180.59)" id="freepik--Smoke--inject-2"  >
<path style="stroke: none; stroke-width: 1; stroke-dasharray: none; stroke-linecap: butt; stroke-dashoffset: 0; stroke-linejoin: miter; stroke-miterlimit: 4; fill: rgb(0,0,0); fill-rule: nonzero; opacity: 0.30000000000000004;"  transform=" translate(-266.08, -69.41)" d="M 262.3 62.2 a 8.14 8.14 0 1 0 11 3.44 A 8.13 8.13 0 0 0 262.3 62.2 Z" stroke-linecap="round" />
</g>
		<g transform="matrix(1 0 0 1 49.75 -135.66)" id="freepik--Smoke--inject-2"  >
<path style="stroke: none; stroke-width: 1; stroke-dasharray: none; stroke-linecap: butt; stroke-dashoffset: 0; stroke-linejoin: miter; stroke-miterlimit: 4; fill: rgb(0,0,0); fill-rule: nonzero; opacity: 0.30000000000000004;"  transform=" translate(-299.75, -114.34)" d="M 317 118 a 12.31 12.31 0 0 0 1.42 -5.73 a 12.46 12.46 0 0 0 -5.09 -10 c 6.07 -3.37 9.31 -9.65 8.33 -15.35 a 6.9 6.9 0 1 0 -9.69 -9.66 a 16.77 16.77 0 0 0 -10.21 1.1 a 12.27 12.27 0 0 0 -1.4 -5.73 a 12.82 12.82 0 0 0 -22.72 11.89 a 12.35 12.35 0 0 0 4.87 5 a 8.08 8.08 0 0 0 -1.07 4 a 8 8 0 0 0 0.42 2.55 a 11.17 11.17 0 1 0 -2 22.07 a 11.18 11.18 0 0 0 -1.95 12.53 A 11.17 11.17 0 0 0 285.42 151 c 0.8 6.7 7.16 11.92 14.89 11.92 c 8.28 0 15 -6 15 -13.34 a 12.15 12.15 0 0 0 -1.1 -5 q 0.72 0.06 1.47 0.06 c 8.58 0 15.53 -6 15.53 -13.31 C 331.19 124.3 324.92 118.59 317 118 Z" stroke-linecap="round" />
</g>
		<g transform="matrix(1 0 0 1 -7.13 -177.63)" id="freepik--Smoke--inject-2"  >
<path style="stroke: none; stroke-width: 1; stroke-dasharray: none; stroke-linecap: butt; stroke-dashoffset: 0; stroke-linejoin: miter; stroke-miterlimit: 4; fill: rgb(0,0,0); fill-rule: nonzero; opacity: 0.30000000000000004;"  transform=" translate(-242.87, -72.37)" d="M 241.71 70.19 a 2.47 2.47 0 1 0 3.33 1 A 2.46 2.46 0 0 0 241.71 70.19 Z" stroke-linecap="round" />
</g>
		<g transform="matrix(1 0 0 1 35.12 -204.19)" id="freepik--Smoke--inject-2"  >
<path style="stroke: none; stroke-width: 1; stroke-dasharray: none; stroke-linecap: butt; stroke-dashoffset: 0; stroke-linejoin: miter; stroke-miterlimit: 4; fill: rgb(0,0,0); fill-rule: nonzero; opacity: 0.30000000000000004;"  transform=" translate(-285.12, -45.81)" d="M 288.35 51.91 A 6.9 6.9 0 1 0 279 49 A 6.9 6.9 0 0 0 288.35 51.91 Z" stroke-linecap="round" />
</g>
		<g transform="matrix(1 0 0 1 -41.4 -75.17)" id="freepik--Screws--inject-2"  >
<path style="stroke: rgb(38,50,56); stroke-width: 1; stroke-dasharray: none; stroke-linecap: round; stroke-dashoffset: 0; stroke-linejoin: round; stroke-miterlimit: 4; fill: rgb(255,255,255); fill-rule: nonzero; opacity: 1;"  transform=" translate(-208.6, -174.83)" d="M 215.48 174.83 a 6.88 6.88 0 1 0 -6.88 6.88 A 6.88 6.88 0 0 0 215.48 174.83 Z" stroke-linecap="round" />
</g>
		<g transform="matrix(1 0 0 1 -41.14 -75.4)" id="freepik--Screws--inject-2"  >
<line style="stroke: rgb(38,50,56); stroke-width: 1; stroke-dasharray: none; stroke-linecap: round; stroke-dashoffset: 0; stroke-linejoin: round; stroke-miterlimit: 4; fill: rgb(255,255,255); fill-rule: nonzero; opacity: 1;"  x1="4.700000000000003" y1="-4.700000000000003" x2="-4.700000000000003" y2="4.700000000000003" />
</g>
		<g transform="matrix(1 0 0 1 22.45 -2.63)" id="freepik--Screws--inject-2"  >
<path style="stroke: rgb(38,50,56); stroke-width: 1; stroke-dasharray: none; stroke-linecap: round; stroke-dashoffset: 0; stroke-linejoin: round; stroke-miterlimit: 4; fill: rgb(38,50,56); fill-rule: nonzero; opacity: 1;"  transform=" translate(-272.45, -247.37)" d="M 279.33 247.37 a 6.88 6.88 0 1 0 -6.88 6.88 A 6.88 6.88 0 0 0 279.33 247.37 Z" stroke-linecap="round" />
</g>
		<g transform="matrix(1 0 0 1 80 -75.17)" id="freepik--Screws--inject-2"  >
<path style="stroke: rgb(38,50,56); stroke-width: 1; stroke-dasharray: none; stroke-linecap: round; stroke-dashoffset: 0; stroke-linejoin: round; stroke-miterlimit: 4; fill: rgb(255,255,255); fill-rule: nonzero; opacity: 1;"  transform=" translate(-330, -174.83)" d="M 336.88 174.83 a 6.88 6.88 0 1 0 -6.88 6.88 A 6.88 6.88 0 0 0 336.88 174.83 Z" stroke-linecap="round" />
</g>
		<g transform="matrix(1 0 0 1 80.26 -75.4)" id="freepik--Screws--inject-2"  >
<line style="stroke: rgb(38,50,56); stroke-width: 1; stroke-dasharray: none; stroke-linecap: round; stroke-dashoffset: 0; stroke-linejoin: round; stroke-miterlimit: 4; fill: rgb(255,255,255); fill-rule: nonzero; opacity: 1;"  x1="4.699999999999989" y1="-4.700000000000003" x2="-4.699999999999989" y2="4.700000000000003" />
</g>
		<g transform="matrix(1 0 0 1 -18.3 165.76)" id="freepik--Screws--inject-2"  >
<path style="stroke: rgb(38,50,56); stroke-width: 1; stroke-dasharray: none; stroke-linecap: round; stroke-dashoffset: 0; stroke-linejoin: round; stroke-miterlimit: 4; fill: rgb(255,255,255); fill-rule: nonzero; opacity: 1;"  transform=" translate(-231.7, -415.76)" d="M 243.63 409.82 l -24 8.34 a 1.82 1.82 0 0 0 -1.21 1.94 h 0 a 1.83 1.83 0 0 0 1.93 1.6 L 245 420.23 Z" stroke-linecap="round" />
</g>
		<g transform="matrix(1 0 0 1 -27.64 169.28)" id="freepik--Screws--inject-2"  >
<line style="stroke: rgb(38,50,56); stroke-width: 1; stroke-dasharray: none; stroke-linecap: round; stroke-dashoffset: 0; stroke-linejoin: round; stroke-miterlimit: 4; fill: none; fill-rule: nonzero; opacity: 1;"  x1="-1.9750000000000085" y1="2.424999999999983" x2="1.9750000000000085" y2="-2.424999999999983" />
</g>
		<g transform="matrix(1 0 0 1 -22.53 168.19)" id="freepik--Screws--inject-2"  >
<line style="stroke: rgb(38,50,56); stroke-width: 1; stroke-dasharray: none; stroke-linecap: round; stroke-dashoffset: 0; stroke-linejoin: round; stroke-miterlimit: 4; fill: none; fill-rule: nonzero; opacity: 1;"  x1="-2.594999999999999" y1="3.160000000000025" x2="2.594999999999999" y2="-3.160000000000025" />
</g>
		<g transform="matrix(1 0 0 1 -17.05 166.86)" id="freepik--Screws--inject-2"  >
<line style="stroke: rgb(38,50,56); stroke-width: 1; stroke-dasharray: none; stroke-linecap: round; stroke-dashoffset: 0; stroke-linejoin: round; stroke-miterlimit: 4; fill: none; fill-rule: nonzero; opacity: 1;"  x1="-3.565000000000012" y1="4.375" x2="3.565000000000012" y2="-4.375" />
</g>
		<g transform="matrix(1 0 0 1 -11.66 165.8)" id="freepik--Screws--inject-2"  >
<line style="stroke: rgb(38,50,56); stroke-width: 1; stroke-dasharray: none; stroke-linecap: round; stroke-dashoffset: 0; stroke-linejoin: round; stroke-miterlimit: 4; fill: none; fill-rule: nonzero; opacity: 1;"  x1="-4.224999999999994" y1="5.175000000000011" x2="4.224999999999994" y2="-5.175000000000011" />
</g>
		<g transform="matrix(1 0 0 1 -5 165.29)" id="freepik--Screws--inject-2"  >
<path style="stroke: rgb(38,50,56); stroke-width: 1; stroke-dasharray: none; stroke-linecap: round; stroke-dashoffset: 0; stroke-linejoin: round; stroke-miterlimit: 4; fill: rgb(255,255,255); fill-rule: nonzero; opacity: 1;"  transform=" translate(-245, -415.29)" d="M 251.83 414.46 a 6.88 6.88 0 1 0 -6 7.66 A 6.88 6.88 0 0 0 251.83 414.46 Z" stroke-linecap="round" />
</g>
		<g transform="matrix(1 0 0 1 -4.77 165.02)" id="freepik--Screws--inject-2"  >
<line style="stroke: rgb(38,50,56); stroke-width: 1; stroke-dasharray: none; stroke-linecap: round; stroke-dashoffset: 0; stroke-linejoin: round; stroke-miterlimit: 4; fill: rgb(255,255,255); fill-rule: nonzero; opacity: 1;"  x1="4.1000000000000085" y1="-5.22999999999999" x2="-4.1000000000000085" y2="5.22999999999999" />
</g>
		<g transform="matrix(1 0 0 1 76.63 164.84)" id="freepik--gear-2--inject-2"  >
<path style="stroke: rgb(38,50,56); stroke-width: 1; stroke-dasharray: none; stroke-linecap: round; stroke-dashoffset: 0; stroke-linejoin: round; stroke-miterlimit: 4; fill: rgb(38,50,56); fill-rule: nonzero; opacity: 1;"  transform=" translate(-326.63, -414.84)" d="M 368.47 408.46 l -2.39 3 c -0.28 -0.18 -0.56 -0.36 -0.88 -0.53 a 28.75 28.75 0 0 0 -3.42 -1.62 l 6 -1.78 l 2.32 -0.54 v -0.15 h 0.05 l -0.05 0 v -6.59 l -11.44 2.19 l 2 1.69 l -0.9 -0.26 l -8.38 2.49 c -3.52 -0.72 -2.27 -3.53 -6.31 -3.92 l -3.38 -1.21 l -14.39 -0.64 l -2.41 0.06 c -5 -2.88 -9.6 -3.22 -11.83 4 l -5.56 -3.11 l -6.78 1 l 3.83 -2.9 l -9.92 -2.94 v 6.77 L 287 404.72 H 274.16 v 6.77 l 10.77 1.58 a 7.24 7.24 0 0 0 -1 1.17 l -10.18 0.49 l -2.46 -4.2 v 6.77 l 2.46 4.19 l 9.41 -0.45 v 5.67 l 10.4 3 L 302 427.2 a 110.36 110.36 0 0 0 11.39 1.66 l -1.7 3.47 l 14.39 0.64 l 1.72 -3.47 c 4.19 0 8.41 -0.21 12.53 -0.6 l 5.56 3.11 l 12.86 -1.95 l -1 -4.3 c 1.54 -0.46 3 -0.94 4.23 -1.46 l 10.72 1.58 l 6.44 -3.8 V 416.4 l 2.84 -0.13 V 409.5 Z m -70.54 -3.1 l 2.25 1.26 c -1.41 0.31 -2.73 0.65 -4 1 Z m 45.61 18 v -3.43 l -3.87 0.11 v -0.5 l -4.09 0.63 c -7.56 0.22 -17.84 0.53 -18.2 0.53 l -0.85 1.73 c -6.07 0.32 -11.36 -0.06 -14.62 -1.89 c -7.19 -4 -1.94 -8.94 11.74 -11 s 30.58 -0.48 37.77 3.53 C 357.88 416.65 354.27 421 343.54 423.34 Z M 376 417.21 l -4 -0.46 l 5.23 -0.25 Z" stroke-linecap="round" />
</g>
		<g transform="matrix(1 0 0 1 90.02 146.99)" id="freepik--gear-2--inject-2"  >
<polygon style="stroke: rgb(38,50,56); stroke-width: 1; stroke-dasharray: none; stroke-linecap: round; stroke-dashoffset: 0; stroke-linejoin: round; stroke-miterlimit: 4; fill: rgb(38,50,56); fill-rule: nonzero; opacity: 1;"  points="1.65,-2.52 -1.64,2.52 1.65,1.71 1.65,-2.52 " />
</g>
		<g transform="matrix(1 0 0 1 76.66 160.06)" id="freepik--gear-2--inject-2"  >
<path style="stroke: rgb(38,50,56); stroke-width: 1; stroke-dasharray: none; stroke-linecap: round; stroke-dashoffset: 0; stroke-linejoin: round; stroke-miterlimit: 4; fill: rgb(189,189,189); fill-rule: nonzero; opacity: 1;"  transform=" translate(-326.66, -410.06)" d="M 339.67 417.28 c -13.67 2.07 -30.58 0.49 -37.76 -3.52 s -1.94 -8.95 11.74 -11 s 30.58 -0.49 37.77 3.52 s 1.93 8.94 -11.75 11 m -32.2 -22.5 l -12.87 2 l 5.58 3.12 a 56.76 56.76 0 0 0 -8.86 2.64 l -10.72 -1.57 l -6.44 3.79 l 10.77 1.58 a 5.12 5.12 0 0 0 -1.81 3.67 l -11.8 0.56 l 2.46 4.2 l 11.83 -0.57 a 16.55 16.55 0 0 0 2.51 1.69 a 28.76 28.76 0 0 0 3.42 1.61 l -8.35 2.48 l 10.4 3 l 8.38 -2.49 a 113.15 113.15 0 0 0 11.41 1.66 l -1.72 3.46 l 14.39 0.64 l 1.72 -3.46 c 4.19 0 8.41 -0.22 12.53 -0.61 l 5.56 3.11 l 12.86 -1.94 l -5.58 -3.12 a 57.86 57.86 0 0 0 8.86 -2.64 l 10.72 1.57 l 6.44 -3.79 l -10.77 -1.58 a 5.13 5.13 0 0 0 1.81 -3.67 l 11.8 -0.57 l -2.46 -4.19 l -11.83 0.56 a 16.55 16.55 0 0 0 -2.51 -1.68 a 30.4 30.4 0 0 0 -3.42 -1.62 l 8.36 -2.48 l -10.41 -3 l -8.38 2.49 a 110.37 110.37 0 0 0 -11.41 -1.66 l 1.72 -3.46 l -14.39 -0.65 l -1.72 3.47 c -4.19 0 -8.41 0.22 -12.52 0.6 l -5.56 -3.11" stroke-linecap="round" />
</g>
		<g transform="matrix(1 0 0 1 -37.92 -7.34)" id="freepik--gears-1--inject-2"  >
<path style="stroke: rgb(38,50,56); stroke-width: 1; stroke-dasharray: none; stroke-linecap: round; stroke-dashoffset: 0; stroke-linejoin: round; stroke-miterlimit: 4; fill: rgb(38,50,56); fill-rule: nonzero; opacity: 1;"  transform=" translate(-212.08, -242.66)" d="M 246.75 244.13 a 36.07 36.07 0 0 0 -0.39 -5.23 l 9.22 -3 l 1.26 -3 l -2 0.59 l -2.85 -8.78 l -9.25 3 a 35.57 35.57 0 0 0 -6.07 -8.31 l 5.7 -7.85 l 1.26 -3 l -2 2.46 l -8.77 -6.37 l -5.72 7.87 a 35 35 0 0 0 -9.8 -3.16 v -9.7 H 207.5 l -0.76 -3 l -1.25 3 v 9.73 a 35 35 0 0 0 -9.79 3.2 L 190 204.7 l -6.41 4.66 l -1.87 -0.75 l -0.2 0.49 l -1.06 2.53 l 5.73 7.87 a 35.33 35.33 0 0 0 -6 8.34 l -6.19 -2 l -1.78 -4 l -1.26 3 l -3.64 11.2 l 9.25 3 a 35.28 35.28 0 0 0 -0.37 5.07 a 36.07 36.07 0 0 0 0.39 5.23 l -5 1.63 l -2.94 -1.65 l -1.25 3 L 171 263.56 l 9.25 -3 a 35.46 35.46 0 0 0 6.08 8.32 l -3.55 4.87 l -0.9 0 l -1.26 3 l 9.53 6.93 l 5.72 -7.87 a 35.37 35.37 0 0 0 9.8 3.16 v 9.7 h 11.78 l 1.26 -3 h -1.26 v -6.72 a 34.94 34.94 0 0 0 9.79 -3.2 l 5.7 7.84 l 9.54 -6.92 l 1.25 -3 l -2.55 1.23 l -4.42 -6.09 a 35.37 35.37 0 0 0 6 -8.34 l 9.23 3 l 3.64 -11.2 l -9.25 -3 A 35.39 35.39 0 0 0 246.75 244.13 Z M 211.46 266.8 a 22.67 22.67 0 1 1 22.66 -22.67 A 22.67 22.67 0 0 1 211.46 266.8 Z" stroke-linecap="round" />
</g>
		<g transform="matrix(1 0 0 1 -37.29 -8.9)" id="freepik--gears-1--inject-2"  >
<path style="stroke: rgb(38,50,56); stroke-width: 1; stroke-dasharray: none; stroke-linecap: round; stroke-dashoffset: 0; stroke-linejoin: round; stroke-miterlimit: 4; fill: rgb(189,189,189); fill-rule: nonzero; opacity: 1;"  transform=" translate(-212.71, -241.1)" d="M 253.25 260.4 l 3.64 -11.21 l -9.25 -3 a 36.93 36.93 0 0 0 0.36 -5.08 a 35.93 35.93 0 0 0 -0.38 -5.22 l 9.22 -3 l -3.64 -11.21 l -9.25 3 a 35.46 35.46 0 0 0 -6.08 -8.32 l 5.71 -7.85 L 234 201.6 l -5.71 7.86 a 35.09 35.09 0 0 0 -9.81 -3.15 v -9.7 H 206.74 v 9.73 a 35 35 0 0 0 -9.79 3.2 l -5.7 -7.85 l -9.53 6.92 l 5.72 7.88 a 35.62 35.62 0 0 0 -6 8.34 l -9.22 -3 L 168.54 233 l 9.25 3 a 35.39 35.39 0 0 0 -0.37 5.07 a 34.61 34.61 0 0 0 0.39 5.23 l -9.23 3 l 3.65 11.21 l 9.25 -3 a 34.88 34.88 0 0 0 6.07 8.31 l -5.7 7.86 l 9.53 6.92 l 5.72 -7.87 a 34.62 34.62 0 0 0 9.8 3.16 v 9.7 h 11.78 v -9.73 a 35 35 0 0 0 9.79 -3.2 l 5.7 7.85 l 9.53 -6.93 L 238 265.74 a 35.33 35.33 0 0 0 6 -8.34 Z m -63.2 -19.29 a 22.67 22.67 0 1 1 22.66 22.67 A 22.66 22.66 0 0 1 190.05 241.11 Z" stroke-linecap="round" />
</g>
		<g transform="matrix(1 0 0 1 23.5 -70.03)" id="freepik--gears-1--inject-2"  >
<path style="stroke: rgb(38,50,56); stroke-width: 1; stroke-dasharray: none; stroke-linecap: round; stroke-dashoffset: 0; stroke-linejoin: round; stroke-miterlimit: 4; fill: rgb(38,50,56); fill-rule: nonzero; opacity: 1;"  transform=" translate(-273.5, -179.97)" d="M 308.17 181.45 a 34.71 34.71 0 0 0 -0.39 -5.23 l 9.23 -3 l 1.25 -3 l -2 0.59 L 313.37 162 l -9.25 3 a 35.61 35.61 0 0 0 -6.08 -8.31 l 5.71 -7.85 l 1.25 -3 l -2 2.46 l -8.77 -6.37 l -5.71 7.87 a 35.11 35.11 0 0 0 -9.81 -3.16 v -9.7 h -9.77 l -0.75 -3 l -1.26 3 v 9.73 a 35 35 0 0 0 -9.79 3.2 l -5.7 -7.85 L 245 146.68 l -1.86 -0.74 l -0.21 0.48 L 241.89 149 l 5.72 7.87 a 35.19 35.19 0 0 0 -6 8.35 l -6.19 -2 l -1.78 -4 l -1.25 3 l -3.64 11.2 l 9.25 3 a 35.39 35.39 0 0 0 -0.37 5.07 a 34.71 34.71 0 0 0 0.39 5.23 l -5 1.63 L 230 186.66 l -1.26 3 l 3.64 11.2 l 9.26 -3 a 35.28 35.28 0 0 0 6.07 8.31 l -3.54 4.88 l -0.91 0 L 242 214 l 9.53 6.93 l 5.71 -7.87 a 35.11 35.11 0 0 0 9.81 3.16 V 226 h 11.78 l 1.26 -3 h -1.26 v -6.72 a 35 35 0 0 0 9.79 -3.2 l 5.7 7.85 l 9.53 -6.93 l 1.26 -3 l -2.56 1.22 l -4.42 -6.08 a 35.19 35.19 0 0 0 6 -8.35 l 9.23 3 l 3.64 -11.2 l -9.26 -3 A 35.39 35.39 0 0 0 308.17 181.45 Z m -35.29 22.67 a 22.67 22.67 0 1 1 22.67 -22.67 A 22.67 22.67 0 0 1 272.88 204.12 Z" stroke-linecap="round" />
</g>
		<g transform="matrix(1 0 0 1 24.15 -71.55)" id="freepik--gears-1--inject-2"  >
<path style="stroke: rgb(38,50,56); stroke-width: 1; stroke-dasharray: none; stroke-linecap: round; stroke-dashoffset: 0; stroke-linejoin: round; stroke-miterlimit: 4; fill: rgb(189,189,189); fill-rule: nonzero; opacity: 1;"  transform=" translate(-274.15, -178.45)" d="M 314.67 197.72 l 3.64 -11.21 l -9.25 -3 a 35.39 35.39 0 0 0 0.37 -5.07 a 36 36 0 0 0 -0.39 -5.23 l 9.22 -3 L 314.62 159 l -9.25 3 a 34.88 34.88 0 0 0 -6.07 -8.31 l 5.7 -7.86 l -9.53 -6.92 l -5.72 7.87 a 34.72 34.72 0 0 0 -9.8 -3.16 v -9.7 H 268.17 v 9.73 a 35 35 0 0 0 -9.79 3.2 l -5.7 -7.85 l -9.53 6.93 l 5.72 7.87 a 35.33 35.33 0 0 0 -6 8.34 l -9.23 -3 L 230 170.36 l 9.25 3 a 35.42 35.42 0 0 0 -0.37 5.08 a 35.93 35.93 0 0 0 0.39 5.22 l -9.22 3 l 3.64 11.21 l 9.25 -3 a 35.46 35.46 0 0 0 6.08 8.32 L 243.27 211 L 252.8 218 l 5.72 -7.86 a 35.13 35.13 0 0 0 9.8 3.15 v 9.7 h 11.79 v -9.72 a 34.89 34.89 0 0 0 9.78 -3.21 l 5.71 7.85 l 9.53 -6.92 l -5.72 -7.88 a 35.58 35.58 0 0 0 6 -8.34 Z m -63.2 -19.28 a 22.67 22.67 0 1 1 22.67 22.66 A 22.67 22.67 0 0 1 251.47 178.44 Z" stroke-linecap="round" />
</g>
		<g transform="matrix(1 0 0 1 47.03 5.61)" id="freepik--gears-1--inject-2"  >
<polygon style="stroke: none; stroke-width: 1; stroke-dasharray: none; stroke-linecap: butt; stroke-dashoffset: 0; stroke-linejoin: miter; stroke-miterlimit: 4; fill: rgb(0,0,0); fill-rule: nonzero; opacity: 0.2;"  points="-0.8,0.69 -0.71,0.69 0.8,-0.69 -0.8,0.69 " />
</g>
		<g transform="matrix(1 0 0 1 44.28 11.17)" id="freepik--gears-1--inject-2"  >
<path style="stroke: none; stroke-width: 1; stroke-dasharray: none; stroke-linecap: butt; stroke-dashoffset: 0; stroke-linejoin: miter; stroke-miterlimit: 4; fill: rgb(0,0,0); fill-rule: nonzero; opacity: 0.2;"  transform=" translate(-294.28, -261.17)" d="M 294.52 261 l -0.48 0.25 C 294.06 261.38 294.15 261.39 294.52 261 Z" stroke-linecap="round" />
</g>
		<g transform="matrix(1 0 0 1 44.67 10)" id="freepik--gears-1--inject-2"  >
<path style="stroke: none; stroke-width: 1; stroke-dasharray: none; stroke-linecap: butt; stroke-dashoffset: 0; stroke-linejoin: miter; stroke-miterlimit: 4; fill: rgb(0,0,0); fill-rule: nonzero; opacity: 0.2;"  transform=" translate(-294.67, -260)" d="M 295.35 259.27 c 0.14 -0.18 -1 1 -1.38 1.48 C 294.35 260.57 295.43 259.56 295.35 259.27 Z" stroke-linecap="round" />
</g>
		<g transform="matrix(1 0 0 1 51.86 4.25)" id="freepik--gears-1--inject-2"  >
<path style="stroke: none; stroke-width: 1; stroke-dasharray: none; stroke-linecap: butt; stroke-dashoffset: 0; stroke-linejoin: miter; stroke-miterlimit: 4; fill: rgb(0,0,0); fill-rule: nonzero; opacity: 0.2;"  transform=" translate(-301.86, -254.25)" d="M 292.75 263.56 l 4.23 -1.37 c 0.32 -0.32 0.49 -0.6 0.26 -0.76 c -0.72 1 -0.63 0.36 -1.15 0.73 v 0.09 c -0.13 0.09 -0.52 0.36 -0.37 0.09 a 24.15 24.15 0 0 0 2.94 -2 c -0.42 0.22 0.12 -0.61 0.14 -0.76 c 0.8 -0.65 0.21 0.19 0.3 0.38 c 0.4 -0.37 1.28 -0.73 1.35 -1.29 c 0.34 -0.74 -0.88 0.45 -1.23 0.45 l 2.48 -1.83 h -0.12 a 1.77 1.77 0 0 0 0.8 -0.65 c 0.05 -0.37 -0.49 0.09 -0.77 0.46 c 0.89 -1.38 2.52 -1.45 3 -2.91 l -0.38 0.24 c 0.14 -0.19 0.27 -0.27 0.39 -0.27 s 0 0 0 0 l 0.77 -0.48 c 0 -0.1 0 -0.29 -0.09 -0.2 l 0.77 -0.45 c 1.31 -1 0 -0.66 0.28 -1.12 l -0.06 0.06 c 0.3 -0.41 0.42 -0.83 0.13 -0.62 l 1.43 -1 h 0 c -0.16 0 -0.29 0 -0.32 -0.1 l 0.32 0.1 c 0.77 -0.18 2.62 -1.89 3.13 -1.34 a 2.43 2.43 0 0 0 0.14 -0.2 c 0 -0.1 -0.05 -0.21 -0.07 -0.32 a 2.12 2.12 0 0 1 -0.4 0.33 l 0.4 -0.33 a 22.83 22.83 0 0 1 -0.4 -3.54 c -0.33 0.27 -0.57 0.51 -0.58 0.69 l 0.14 -0.08 l -0.05 0.28 a 0.2 0.2 0 0 1 -0.09 -0.2 c -0.95 0.57 -1.64 1.51 -2.39 2 l 0.2 0.28 a 5.41 5.41 0 0 0 -1.18 0.92 s 0.11 0 0.21 0 l 0.55 -0.43 a 1.26 1.26 0 0 1 -0.55 0.43 A 40.83 40.83 0 0 0 303.4 252 c 0.22 0.1 0.32 0.2 1 -0.35 c -0.75 1.2 -2.89 2.28 -4.28 3.85 h 0.22 l -1 0.63 c 0.25 -0.09 0.22 0.1 0.33 0.2 c -1.38 1.47 -3.15 3.22 -4.36 3.48 c 0.51 -0.28 -0.36 0.93 0.66 0.29 a 24.23 24.23 0 0 0 -3.37 2.82 Z m 7.83 -5.91 l 0.93 -0.73 l -0.95 0.92 Z m -2.41 2.21 l -0.82 0.82 l -0.51 0.27 Z" stroke-linecap="round" />
</g>
		<g transform="matrix(1 0 0 1 43.83 11.23)" id="freepik--gears-1--inject-2"  >
<path style="stroke: none; stroke-width: 1; stroke-dasharray: none; stroke-linecap: butt; stroke-dashoffset: 0; stroke-linejoin: miter; stroke-miterlimit: 4; fill: rgb(0,0,0); fill-rule: nonzero; opacity: 0.2;"  transform=" translate(-293.83, -261.23)" d="M 294 261.29 c 0 -0.19 0.26 -0.71 -0.4 0.2 Z" stroke-linecap="round" />
</g>
		<g transform="matrix(1 0 0 1 45.11 7.48)" id="freepik--gears-1--inject-2"  >
<path style="stroke: none; stroke-width: 1; stroke-dasharray: none; stroke-linecap: butt; stroke-dashoffset: 0; stroke-linejoin: miter; stroke-miterlimit: 4; fill: rgb(0,0,0); fill-rule: nonzero; opacity: 0.2;"  transform=" translate(-295.11, -257.48)" d="M 294.09 258.22 l 1.66 -1 l -0.62 0.27 l 1 -0.73 C 295.83 256.66 294.69 257.29 294.09 258.22 Z" stroke-linecap="round" />
</g>
		<g transform="matrix(1 0 0 1 44.75 8.32)" id="freepik--gears-1--inject-2"  >
<path style="stroke: none; stroke-width: 1; stroke-dasharray: none; stroke-linecap: butt; stroke-dashoffset: 0; stroke-linejoin: miter; stroke-miterlimit: 4; fill: rgb(0,0,0); fill-rule: nonzero; opacity: 0.2;"  transform=" translate(-294.75, -258.32)" d="M 295 258.14 a 2.12 2.12 0 0 0 -0.51 0.37 A 3.17 3.17 0 0 1 295 258.14 Z" stroke-linecap="round" />
</g>
		<g transform="matrix(1 0 0 1 45.3 8.13)" id="freepik--gears-1--inject-2"  >
<path style="stroke: none; stroke-width: 1; stroke-dasharray: none; stroke-linecap: butt; stroke-dashoffset: 0; stroke-linejoin: miter; stroke-miterlimit: 4; fill: rgb(0,0,0); fill-rule: nonzero; opacity: 0.2;"  transform=" translate(-295.3, -258.13)" d="M 295 258.14 c 0.21 -0.06 -0.06 0.39 0.6 -0.07 C 295.59 257.88 295.32 258 295 258.14 Z" stroke-linecap="round" />
</g>
		<g transform="matrix(1 0 0 1 78.86 33.05)" id="freepik--gears-1--inject-2"  >
<path style="stroke: none; stroke-width: 1; stroke-dasharray: none; stroke-linecap: butt; stroke-dashoffset: 0; stroke-linejoin: miter; stroke-miterlimit: 4; fill: rgb(0,0,0); fill-rule: nonzero; opacity: 0.2;"  transform=" translate(-328.86, -283.05)" d="M 328.6 283.44 l 0.51 -0.78 C 328.37 282.62 328.71 283.05 328.6 283.44 Z" stroke-linecap="round" />
</g>
		<g transform="matrix(1 0 0 1 46.46 6.34)" id="freepik--gears-1--inject-2"  >
<polygon style="stroke: none; stroke-width: 1; stroke-dasharray: none; stroke-linecap: butt; stroke-dashoffset: 0; stroke-linejoin: miter; stroke-miterlimit: 4; fill: rgb(0,0,0); fill-rule: nonzero; opacity: 0.2;"  points="0.23,-0.03 -0.14,-0.05 -0.24,0.04 0.23,-0.03 " />
</g>
		<g transform="matrix(1 0 0 1 87.82 -32.04)" id="freepik--gears-1--inject-2"  >
<path style="stroke: none; stroke-width: 1; stroke-dasharray: none; stroke-linecap: butt; stroke-dashoffset: 0; stroke-linejoin: miter; stroke-miterlimit: 4; fill: rgb(0,0,0); fill-rule: nonzero; opacity: 0.2;"  transform=" translate(-337.82, -217.96)" d="M 337.19 218.46 c 0.41 -0.17 1.05 -0.19 1.27 -1 C 337.69 217.52 337.85 218.09 337.19 218.46 Z" stroke-linecap="round" />
</g>
		<g transform="matrix(1 0 0 1 78.52 33.57)" id="freepik--gears-1--inject-2"  >
<path style="stroke: none; stroke-width: 1; stroke-dasharray: none; stroke-linecap: butt; stroke-dashoffset: 0; stroke-linejoin: miter; stroke-miterlimit: 4; fill: rgb(0,0,0); fill-rule: nonzero; opacity: 0.2;"  transform=" translate(-328.52, -283.57)" d="M 328.44 283.7 a 0.49 0.49 0 0 0 0.16 -0.26 Z" stroke-linecap="round" />
</g>
		<g transform="matrix(1 0 0 1 92.36 -39.64)" id="freepik--gears-1--inject-2"  >
<path style="stroke: none; stroke-width: 1; stroke-dasharray: none; stroke-linecap: butt; stroke-dashoffset: 0; stroke-linejoin: miter; stroke-miterlimit: 4; fill: rgb(0,0,0); fill-rule: nonzero; opacity: 0.2;"  transform=" translate(-342.36, -210.36)" d="M 342.53 210.1 l -0.16 0 c -0.15 0.27 -0.22 0.49 -0.14 0.52 A 1.24 1.24 0 0 1 342.53 210.1 Z" stroke-linecap="round" />
</g>
		<g transform="matrix(1 0 0 1 91.31 -33.42)" id="freepik--gears-1--inject-2"  >
<path style="stroke: none; stroke-width: 1; stroke-dasharray: none; stroke-linecap: butt; stroke-dashoffset: 0; stroke-linejoin: miter; stroke-miterlimit: 4; fill: rgb(0,0,0); fill-rule: nonzero; opacity: 0.2;"  transform=" translate(-341.31, -216.58)" d="M 338.29 221 h -0.24 c 1.43 -1 2.54 -3.05 3.78 -4.42 c 0 0.18 -1.08 1.09 -0.64 1.29 l 1.74 -1.56 c 0 -0.18 0.71 -0.92 0.09 -0.65 a 2.67 2.67 0 0 0 -0.56 0.64 l 0.05 -0.37 c 1.72 -1.37 0.39 0.57 0.71 0.85 c 0.71 -0.92 1.3 -0.91 1.85 -1.46 c -0.05 -0.56 -1.4 0.73 -1 -0.3 a 7.57 7.57 0 0 1 3 -2.28 a 2 2 0 0 1 0.33 -0.89 c -0.45 -0.2 -0.91 -0.39 -1.37 -0.57 c -2.54 2.34 -5.47 3.94 -7.44 7.05 h 0.11 l -2.19 1.46 c -0.29 0.37 -0.1 0.75 -0.55 1.39 c 0 -0.3 -0.34 0 -0.73 0.4 c 0.74 0.07 1.46 0.17 2.17 0.3 A 2.94 2.94 0 0 1 338.29 221 Z" stroke-linecap="round" />
</g>
		<g transform="matrix(1 0 0 1 50.75 3.57)" id="freepik--gears-1--inject-2"  >
<path style="stroke: none; stroke-width: 1; stroke-dasharray: none; stroke-linecap: butt; stroke-dashoffset: 0; stroke-linejoin: miter; stroke-miterlimit: 4; fill: rgb(0,0,0); fill-rule: nonzero; opacity: 0.2;"  transform=" translate(-300.75, -253.57)" d="M 299.68 254.3 c 0.28 -0.37 -0.06 -0.47 0.71 -0.93 c 0.08 0.29 0.75 0.49 1.49 -0.53 a 6.15 6.15 0 0 0 -2.26 1 Z" stroke-linecap="round" />
</g>
		<g transform="matrix(1 0 0 1 52.31 2.82)" id="freepik--gears-1--inject-2"  >
<path style="stroke: none; stroke-width: 1; stroke-dasharray: none; stroke-linecap: butt; stroke-dashoffset: 0; stroke-linejoin: miter; stroke-miterlimit: 4; fill: rgb(0,0,0); fill-rule: nonzero; opacity: 0.2;"  transform=" translate(-302.31, -252.82)" d="M 301.81 253.45 l 1 -1.25 C 301.8 252.41 302.1 252.89 301.81 253.45 Z" stroke-linecap="round" />
</g>
		<g transform="matrix(1 0 0 1 51.66 3.65)" id="freepik--gears-1--inject-2"  >
<path style="stroke: none; stroke-width: 1; stroke-dasharray: none; stroke-linecap: butt; stroke-dashoffset: 0; stroke-linejoin: miter; stroke-miterlimit: 4; fill: rgb(0,0,0); fill-rule: nonzero; opacity: 0.2;"  transform=" translate(-301.65, -253.65)" d="M 301.81 253.45 l -0.31 0.41 A 1.34 1.34 0 0 0 301.81 253.45 Z" stroke-linecap="round" />
</g>
		<g transform="matrix(1 0 0 1 60.82 -9.28)" id="freepik--gears-1--inject-2"  >
<polygon style="stroke: none; stroke-width: 1; stroke-dasharray: none; stroke-linecap: butt; stroke-dashoffset: 0; stroke-linejoin: miter; stroke-miterlimit: 4; fill: rgb(0,0,0); fill-rule: nonzero; opacity: 0.2;"  points="0,0 0,0 0,0 0,0 " />
</g>
		<g transform="matrix(1 0 0 1 110.9 -27.32)" id="freepik--gears-1--inject-2"  >
<path style="stroke: none; stroke-width: 1; stroke-dasharray: none; stroke-linecap: butt; stroke-dashoffset: 0; stroke-linejoin: miter; stroke-miterlimit: 4; fill: rgb(0,0,0); fill-rule: nonzero; opacity: 0.2;"  transform=" translate(-360.9, -222.68)" d="M 361.23 222.67 l -0.21 -0.26 c -0.15 0.13 -0.3 0.27 -0.46 0.43 C 360.58 223.08 360.93 222.88 361.23 222.67 Z" stroke-linecap="round" />
</g>
		<g transform="matrix(1 0 0 1 100.95 8.66)" id="freepik--gears-1--inject-2"  >
<path style="stroke: none; stroke-width: 1; stroke-dasharray: none; stroke-linecap: butt; stroke-dashoffset: 0; stroke-linejoin: miter; stroke-miterlimit: 4; fill: rgb(0,0,0); fill-rule: nonzero; opacity: 0.2;"  transform=" translate(-350.95, -258.66)" d="M 350.41 259.13 c 0.37 -0.58 0.83 -0.45 1.15 -0.77 c -0.09 -0.26 -0.37 -0.14 -0.59 -0.12 c -0.21 0.26 -0.41 0.51 -0.63 0.76 A 0.24 0.24 0 0 0 350.41 259.13 Z" stroke-linecap="round" />
</g>
		<g transform="matrix(1 0 0 1 101.83 7.57)" id="freepik--gears-1--inject-2"  >
<path style="stroke: none; stroke-width: 1; stroke-dasharray: none; stroke-linecap: butt; stroke-dashoffset: 0; stroke-linejoin: miter; stroke-miterlimit: 4; fill: rgb(0,0,0); fill-rule: nonzero; opacity: 0.2;"  transform=" translate(-351.83, -257.57)" d="M 351.52 258.07 c 0 -0.21 0.37 -0.57 0.67 -1 C 351.73 257 351.32 258 351.52 258.07 Z" stroke-linecap="round" />
</g>
		<g transform="matrix(1 0 0 1 94.97 16.35)" id="freepik--gears-1--inject-2"  >
<path style="stroke: none; stroke-width: 1; stroke-dasharray: none; stroke-linecap: butt; stroke-dashoffset: 0; stroke-linejoin: miter; stroke-miterlimit: 4; fill: rgb(0,0,0); fill-rule: nonzero; opacity: 0.2;"  transform=" translate(-344.97, -266.35)" d="M 345.67 265.93 c -0.33 0.18 -1.15 0.08 -1.41 0.83 l 0.5 -0.26 l -0.07 0.11 l 0.28 0.08 C 344.38 266.32 345.43 266.14 345.67 265.93 Z" stroke-linecap="round" />
</g>
		<g transform="matrix(1 0 0 1 103.9 -18.51)" id="freepik--gears-1--inject-2"  >
<polygon style="stroke: none; stroke-width: 1; stroke-dasharray: none; stroke-linecap: butt; stroke-dashoffset: 0; stroke-linejoin: miter; stroke-miterlimit: 4; fill: rgb(0,0,0); fill-rule: nonzero; opacity: 0.2;"  points="0.23,-0.33 -0.22,0.32 0.18,-0.05 0.23,-0.33 " />
</g>
		<g transform="matrix(1 0 0 1 74.59 17.31)" id="freepik--gears-1--inject-2"  >
<path style="stroke: none; stroke-width: 1; stroke-dasharray: none; stroke-linecap: butt; stroke-dashoffset: 0; stroke-linejoin: miter; stroke-miterlimit: 4; fill: rgb(0,0,0); fill-rule: nonzero; opacity: 0.2;"  transform=" translate(-324.59, -267.31)" d="M 311.65 251 a 10 10 0 0 1 -1.13 1 l 0.19 0.29 a 5.54 5.54 0 0 0 -1.18 0.91 a 0.26 0.26 0 0 0 0.21 0 l 0.56 -0.44 a 1.33 1.33 0 0 1 -0.56 0.44 a 42.25 42.25 0 0 0 -3.46 3.13 c 0.22 0.1 0.33 0.2 1 -0.35 c -0.75 1.2 -2.9 2.28 -4.29 3.85 h 0.23 l -1 0.63 c 0.25 -0.08 0.22 0.11 0.32 0.2 l -0.27 0.28 a 35.45 35.45 0 0 0 5.84 7.9 l -5.7 7.85 l 9.53 6.93 l 5.71 -7.87 a 35.44 35.44 0 0 0 9.81 3.16 v 2.29 a 0.79 0.79 0 0 0 0.32 -0.64 l -0.25 0.11 c 0.08 -0.12 0.16 -0.16 0.25 -0.14 s 0 0 0 0 l 0.51 -0.22 c 0 -0.08 0 -0.22 -0.11 -0.18 l 0.51 -0.19 c 0.83 -0.52 -0.16 -0.53 0 -0.83 l 0 0 c 0.15 -0.26 0.16 -0.56 0 -0.46 l 0.92 -0.49 h 0 a 0.31 0.31 0 0 1 -0.27 -0.15 l 0.27 0.15 c 0.57 0 1.68 -0.95 2.2 -0.41 c 0.14 -0.23 0.2 -0.47 0 -0.47 l 0 0 a 0.83 0.83 0 0 1 -0.3 0.22 l 0.3 -0.22 l 0 0 h 0 c 0.56 -0.49 -0.53 -0.29 0.39 -1.05 c -0.1 -0.1 -0.17 0 -0.34 0.11 c 0.21 -0.23 0.33 -0.29 0.43 -0.27 a 0.49 0.49 0 0 1 -0.14 -0.27 c 0.2 0.2 0.51 -0.2 0.65 -0.43 l -0.63 0 a 1 1 0 0 0 0.83 -0.52 h -0.45 c 0.65 -0.5 0.5 0.42 1 -0.46 l -0.42 0.84 c 0.8 -0.66 1 0 1.5 -0.13 c 1.11 -0.43 1.44 -2 2.7 -1.9 c -0.13 -0.31 -0.3 -0.29 -0.27 -0.69 a 1.85 1.85 0 0 1 -1.46 0.47 c -1.26 0.61 0.59 1.06 -0.95 1.58 c -0.22 -0.33 0.09 -0.66 0.52 -0.81 c -0.22 -0.27 -0.73 -0.07 -1.07 0 c 0.72 -0.46 1.27 -1.61 1.67 -2 h -0.05 l 0.09 0 l 0 0 a 1.9 1.9 0 0 0 1.09 -0.62 s 0 -0.09 0 -0.2 a 0.18 0.18 0 0 1 0 0.2 c 0.15 0.22 1.21 -0.57 1.3 0.09 c 0.73 -0.54 -0.13 -0.92 0.92 -1.1 c -0.55 -0.09 0.19 -0.64 -0.35 -0.65 c 0.06 0.49 -1.07 0.72 -1.59 0.85 l 0.75 -1.09 c -0.14 0.31 0.38 0.18 0.55 0.09 l -0.14 -0.38 c 0.78 0.49 1.16 -2.07 2.36 -1.8 c -0.33 0.25 -0.36 0.72 -0.83 0.52 c -0.35 0.72 0.59 0.37 0.56 0.84 c 1.09 -0.58 1.94 -2.26 3.31 -2.69 c -0.36 0 -0.75 0.41 -1.05 0.18 c 0.52 -0.81 1.92 -1 2.92 -1.56 l -0.47 -0.2 c 0.94 -0.36 0.13 -0.38 0.94 -1 c 0 0.07 0 0.29 0.2 0.12 c 0.55 -0.59 -0.22 -0.33 0.07 -0.79 c 0.59 -0.1 0.61 -0.26 0.61 -0.48 A 22.66 22.66 0 0 1 311.65 251 Z m 33.11 12.8 c 0.4 0.24 -0.5 0.88 -0.64 1.18 C 343.87 264.46 344.86 264.54 344.76 263.83 Z" stroke-linecap="round" />
</g>
		<g transform="matrix(1 0 0 1 111.31 -26.16)" id="freepik--gears-1--inject-2"  >
<path style="stroke: none; stroke-width: 1; stroke-dasharray: none; stroke-linecap: butt; stroke-dashoffset: 0; stroke-linejoin: miter; stroke-miterlimit: 4; fill: rgb(0,0,0); fill-rule: nonzero; opacity: 0.2;"  transform=" translate(-361.31, -223.84)" d="M 361.24 224 a 1.25 1.25 0 0 0 0.14 -0.31 C 361.26 223.84 361.23 223.93 361.24 224 Z" stroke-linecap="round" />
</g>
		<g transform="matrix(1 0 0 1 111.63 -25.93)" id="freepik--gears-1--inject-2"  >
<path style="stroke: none; stroke-width: 1; stroke-dasharray: none; stroke-linecap: butt; stroke-dashoffset: 0; stroke-linejoin: miter; stroke-miterlimit: 4; fill: rgb(0,0,0); fill-rule: nonzero; opacity: 0.2;"  transform=" translate(-361.63, -224.06)" d="M 361.46 224.14 a 0.52 0.52 0 0 0 0.35 -0.15 A 0.68 0.68 0 0 0 361.46 224.14 Z" stroke-linecap="round" />
</g>
		<g transform="matrix(1 0 0 1 110.09 -24.45)" id="freepik--gears-1--inject-2"  >
<path style="stroke: none; stroke-width: 1; stroke-dasharray: none; stroke-linecap: butt; stroke-dashoffset: 0; stroke-linejoin: miter; stroke-miterlimit: 4; fill: rgb(0,0,0); fill-rule: nonzero; opacity: 0.2;"  transform=" translate(-360.09, -225.55)" d="M 361.46 224.14 c -0.12 0 -0.2 0 -0.22 -0.13 a 16.67 16.67 0 0 1 -2.54 2.92 c -0.18 0.47 1 -0.26 1.35 -0.44 c -1.23 -0.4 1.08 -1 1.45 -1.94 c -0.25 0.09 -0.67 0.55 -0.9 0.54 A 3 3 0 0 1 361.46 224.14 Z" stroke-linecap="round" />
</g>
		<g transform="matrix(1 0 0 1 77.98 33.21)" id="freepik--gears-1--inject-2"  >
<path style="stroke: none; stroke-width: 1; stroke-dasharray: none; stroke-linecap: butt; stroke-dashoffset: 0; stroke-linejoin: miter; stroke-miterlimit: 4; fill: rgb(0,0,0); fill-rule: nonzero; opacity: 0.2;"  transform=" translate(-327.98, -283.21)" d="M 328.52 283 a 6 6 0 0 0 -1.09 0.11 v 0 l 0 0 A 0.59 0.59 0 0 0 328.52 283 Z" stroke-linecap="round" />
</g>
		<g transform="matrix(1 0 0 1 102.61 -30.7)" id="freepik--gears-1--inject-2"  >
<path style="stroke: none; stroke-width: 1; stroke-dasharray: none; stroke-linecap: butt; stroke-dashoffset: 0; stroke-linejoin: miter; stroke-miterlimit: 4; fill: rgb(0,0,0); fill-rule: nonzero; opacity: 0.2;"  transform=" translate(-352.61, -219.3)" d="M 359.26 224.6 l 1.62 -1.56 c -0.41 -0.39 -0.67 0.64 -1.15 0.73 c 0.07 -0.53 0.7 -1 1.23 -1.44 a 37.68 37.68 0 0 0 -2.56 -2.94 l 5.7 -7.85 l -6.86 -5 c -0.59 0.56 -1.27 1.33 -2 1.91 l 0.21 0.19 l -0.78 0.55 l 0.36 -0.09 c -0.67 0.64 -1.79 1.09 -2.38 2 c 0.42 -0.55 0.86 -0.35 0.95 -0.16 l -2.34 1.64 c 0.09 0.19 -0.74 1.11 0 0.66 l -1 0.54 l 0.22 0.1 c -2.82 3.41 -6.67 4.93 -9.07 8.73 h 0.11 l -0.4 0.27 a 22.74 22.74 0 0 1 11.26 9.18 a 16.57 16.57 0 0 0 3 -2.49 c -0.23 0 -0.64 0.36 -0.75 0.36 c 1.19 -1 3.29 -1.72 3.57 -2.93 c -0.68 0.34 -1.48 0.76 -2.21 1.16 a 0.71 0.71 0 0 1 -0.39 0.22 c -0.46 0.26 -0.89 0.5 -1.21 0.7 c 0.59 -0.81 0.88 -0.64 1.21 -0.7 l 0.39 -0.22 a 2.72 2.72 0 0 0 0.51 -0.73 l -0.61 0.18 c 1.25 -1.39 1.48 -0.53 2.48 -1 l 0.51 -1.11 a 12.27 12.27 0 0 1 2.61 -2.51 l -0.23 -0.28 C 360.66 223.36 359.9 224.37 359.26 224.6 Z" stroke-linecap="round" />
</g>
		<g transform="matrix(1 0 0 1 89.47 21.26)" id="freepik--gears-1--inject-2"  >
<path style="stroke: none; stroke-width: 1; stroke-dasharray: none; stroke-linecap: butt; stroke-dashoffset: 0; stroke-linejoin: miter; stroke-miterlimit: 4; fill: rgb(0,0,0); fill-rule: nonzero; opacity: 0.2;"  transform=" translate(-339.47, -271.26)" d="M 339.57 271.18 l -0.2 0.17 A 0.5 0.5 0 0 0 339.57 271.18 Z" stroke-linecap="round" />
</g>
		<g transform="matrix(1 0 0 1 88.99 21.54)" id="freepik--gears-1--inject-2"  >
<path style="stroke: none; stroke-width: 1; stroke-dasharray: none; stroke-linecap: butt; stroke-dashoffset: 0; stroke-linejoin: miter; stroke-miterlimit: 4; fill: rgb(0,0,0); fill-rule: nonzero; opacity: 0.2;"  transform=" translate(-338.99, -271.54)" d="M 339 271.42 c 0.17 0.22 0.19 0.12 0.39 -0.07 c -0.3 0.14 -0.58 -0.19 -0.8 0.37 C 338.74 271.7 338.8 271.44 339 271.42 Z" stroke-linecap="round" />
</g>
		<g transform="matrix(1 0 0 1 89.86 20.19)" id="freepik--gears-1--inject-2"  >
<path style="stroke: none; stroke-width: 1; stroke-dasharray: none; stroke-linecap: butt; stroke-dashoffset: 0; stroke-linejoin: miter; stroke-miterlimit: 4; fill: rgb(0,0,0); fill-rule: nonzero; opacity: 0.2;"  transform=" translate(-339.86, -270.19)" d="M 340.48 269.93 c -0.18 -0.66 -1 0.28 -1.25 0.74 C 339.49 270.61 340 269.66 340.48 269.93 Z" stroke-linecap="round" />
</g>
		<g transform="matrix(1 0 0 1 89.52 19.63)" id="freepik--gears-1--inject-2"  >
<polygon style="stroke: none; stroke-width: 1; stroke-dasharray: none; stroke-linecap: butt; stroke-dashoffset: 0; stroke-linejoin: miter; stroke-miterlimit: 4; fill: rgb(0,0,0); fill-rule: nonzero; opacity: 0.2;"  points="-0.18,-0.15 -0.13,0.19 0.18,-0.19 -0.18,-0.15 " />
</g>
		<g transform="matrix(1 0 0 1 93 16.03)" id="freepik--gears-1--inject-2"  >
<polygon style="stroke: none; stroke-width: 1; stroke-dasharray: none; stroke-linecap: butt; stroke-dashoffset: 0; stroke-linejoin: miter; stroke-miterlimit: 4; fill: rgb(0,0,0); fill-rule: nonzero; opacity: 0.2;"  points="-0.25,0.17 0.25,-0.1 0.25,-0.17 -0.25,0.1 -0.25,0.17 " />
</g>
		<g transform="matrix(1 0 0 1 92.06 20.38)" id="freepik--gears-1--inject-2"  >
<path style="stroke: none; stroke-width: 1; stroke-dasharray: none; stroke-linecap: butt; stroke-dashoffset: 0; stroke-linejoin: miter; stroke-miterlimit: 4; fill: rgb(0,0,0); fill-rule: nonzero; opacity: 0.2;"  transform=" translate(-342.06, -270.38)" d="M 342.37 270.06 c -0.49 -0.34 -0.2 0.49 -0.8 0.66 c 0.2 0.2 0.68 -0.21 0.95 -0.21 c 0.15 -0.23 -0.28 -0.15 -0.47 -0.2 A 0.78 0.78 0 0 1 342.37 270.06 Z" stroke-linecap="round" />
</g>
		<g transform="matrix(1 0 0 1 90.96 22.08)" id="freepik--gears-1--inject-2"  >
<path style="stroke: none; stroke-width: 1; stroke-dasharray: none; stroke-linecap: butt; stroke-dashoffset: 0; stroke-linejoin: miter; stroke-miterlimit: 4; fill: rgb(0,0,0); fill-rule: nonzero; opacity: 0.2;"  transform=" translate(-340.96, -272.08)" d="M 341.05 272 l -0.18 0.16 A 0.32 0.32 0 0 0 341.05 272 Z" stroke-linecap="round" />
</g>
		<g transform="matrix(1 0 0 1 91.2 21.85)" id="freepik--gears-1--inject-2"  >
<path style="stroke: none; stroke-width: 1; stroke-dasharray: none; stroke-linecap: butt; stroke-dashoffset: 0; stroke-linejoin: miter; stroke-miterlimit: 4; fill: rgb(0,0,0); fill-rule: nonzero; opacity: 0.2;"  transform=" translate(-341.2, -271.85)" d="M 341.05 272 l 0.3 -0.25 C 341.13 271.59 341.15 271.82 341.05 272 Z" stroke-linecap="round" />
</g>
		<g transform="matrix(1 0 0 1 88.73 -33.61)" id="freepik--gears-1--inject-2"  >
<path style="stroke: none; stroke-width: 1; stroke-dasharray: none; stroke-linecap: butt; stroke-dashoffset: 0; stroke-linejoin: miter; stroke-miterlimit: 4; fill: rgb(0,0,0); fill-rule: nonzero; opacity: 0.2;"  transform=" translate(-338.73, -216.39)" d="M 337.86 216.69 l 0.41 -0.46 c -0.44 0.65 1 -0.36 0.28 0.57 c -0.29 0.37 0.75 -0.36 1.05 -0.83 c -0.22 -0.1 -0.92 0.73 -0.86 0.27 l 0.29 -0.37 C 338.6 216.43 338.34 215.76 337.86 216.69 Z" stroke-linecap="round" />
</g>
		<g transform="matrix(1 0 0 1 110.35 1.82)" id="freepik--gears-1--inject-2"  >
<path style="stroke: none; stroke-width: 1; stroke-dasharray: none; stroke-linecap: butt; stroke-dashoffset: 0; stroke-linejoin: miter; stroke-miterlimit: 4; fill: rgb(0,0,0); fill-rule: nonzero; opacity: 0.2;"  transform=" translate(-360.35, -251.82)" d="M 360.58 251.54 c -0.25 0.14 -0.34 0.11 -0.46 0.56 C 360.37 252 360.6 251.68 360.58 251.54 Z" stroke-linecap="round" />
</g>
		<g transform="matrix(1 0 0 1 103.41 6.45)" id="freepik--gears-1--inject-2"  >
<path style="stroke: none; stroke-width: 1; stroke-dasharray: none; stroke-linecap: butt; stroke-dashoffset: 0; stroke-linejoin: miter; stroke-miterlimit: 4; fill: rgb(0,0,0); fill-rule: nonzero; opacity: 0.2;"  transform=" translate(-353.41, -256.45)" d="M 353.74 256 c -0.08 0 -0.63 0.64 -0.83 0.45 l 0.15 0.45 c 0.22 -0.35 0.75 -0.4 0.68 -0.22 C 353.78 256.25 354.12 256.15 353.74 256 Z" stroke-linecap="round" />
</g>
		<g transform="matrix(1 0 0 1 106.98 2.44)" id="freepik--gears-1--inject-2"  >
<path style="stroke: none; stroke-width: 1; stroke-dasharray: none; stroke-linecap: butt; stroke-dashoffset: 0; stroke-linejoin: miter; stroke-miterlimit: 4; fill: rgb(0,0,0); fill-rule: nonzero; opacity: 0.2;"  transform=" translate(-356.98, -252.44)" d="M 357.33 252 c -0.22 0.34 -1 0.39 -0.78 0.87 l 0.74 -0.47 C 357.27 252.17 357.61 252.07 357.33 252 Z" stroke-linecap="round" />
</g>
		<g transform="matrix(1 0 0 1 102.45 6.57)" id="freepik--gears-1--inject-2"  >
<path style="stroke: none; stroke-width: 1; stroke-dasharray: none; stroke-linecap: butt; stroke-dashoffset: 0; stroke-linejoin: miter; stroke-miterlimit: 4; fill: rgb(0,0,0); fill-rule: nonzero; opacity: 0.2;"  transform=" translate(-352.45, -256.57)" d="M 368.53 244.13 a 34.71 34.71 0 0 0 -0.39 -5.23 l 9.23 -3 l -3.64 -11.2 l -9.25 3 c -0.53 -1 -1.11 -1.94 -1.72 -2.88 a 3.24 3.24 0 0 1 -1.07 0.86 c 0 0.18 0.4 -0.28 0.23 0.1 c -2 1.93 -5.32 4.48 -7.44 7.07 c -0.3 -0.15 -0.76 0.08 -1.31 0.48 A 22.65 22.65 0 0 1 352 256.91 a 1.7 1.7 0 0 1 0.63 -0.17 c -0.24 -1.17 1.71 -2 1.18 -2.54 c 0 0.07 0.38 0.1 0.52 -0.2 H 354 c 0.41 -0.91 1.14 -0.16 1.43 -0.69 c -0.11 -0.09 -0.27 0 -0.46 -0.06 c 0.76 -1 2.05 -0.72 2.61 -1.93 c -0.1 0 -0.19 -0.05 -0.26 0.06 s 0.06 -0.18 0.49 -0.34 l -0.11 0.52 c 1.1 0.17 1 -1.51 1.87 -2.07 c -0.19 0 -0.74 0.48 -0.62 0 c 0.47 -0.48 1.1 0.25 1.34 -0.65 c -0.33 0.18 -0.57 -0.21 -0.88 0 a 1.52 1.52 0 0 1 -0.25 0.26 a 0.78 0.78 0 0 1 0.25 -0.26 c 0.33 -0.41 0.4 -0.86 0.78 -0.75 a 0.28 0.28 0 0 0 0 -0.34 a 0.37 0.37 0 0 1 -0.18 0 c 0 -0.08 0.11 -0.06 0.18 0 c 0.43 0 0.67 -0.56 0.86 -0.86 l -0.18 -0.06 c 1.1 0.18 0.79 -0.73 1.44 -1.3 l -0.28 -0.08 c 0.33 -0.18 0.94 -0.35 1.11 -1.05 h -0.45 c 0.51 -0.2 0.83 -1.2 1.46 -1.16 c 0.07 -0.19 -0.73 -0.07 -0.18 -0.67 c 0.27 0 0.86 -0.3 0.81 -0.66 c -0.1 -0.1 -0.29 -0.15 -0.34 0.11 c -0.08 0.11 0 0.07 0.1 0.1 l -0.36 0 c 0.28 -0.6 0.52 -0.2 0.88 -0.77 c 0 -0.22 -0.36 0 -0.54 -0.09 l 2.14 -1.38 c 0.2 0.12 0.06 0.43 0.42 0.46 l -0.54 0.67 c 0 0.55 0.63 0 1 -0.21 l -0.39 0.44 a 0.07 0.07 0 0 0 0.1 0 l -0.32 0.3 c 1.19 -0.49 -0.36 1.34 0.81 0.71 a 1.62 1.62 0 0 1 -0.95 0.28 c -0.49 0.34 -0.21 0.41 -0.27 0.67 l 0.85 -0.37 c -1.05 0.86 0.38 0.18 -0.13 1.06 c -1 0.61 -0.65 1.87 -1 2.31 c -0.88 0.77 0 -0.62 -0.65 -0.26 c -0.49 0.41 0 0.4 -0.27 0.75 l -0.55 -0.16 c -0.57 0.46 0.31 0.36 -0.11 0.52 c -0.19 0.63 0.27 0 0.65 0.18 c -0.18 0 -0.76 0.33 -0.81 0.66 c 0.1 0.1 0.66 -0.43 0.35 0 c -1.46 1.09 -1.37 1.81 -2.56 2.9 l 0.28 0.08 c -0.17 0.09 -0.35 0.11 -0.41 0.3 l 0.18 0 a 16.75 16.75 0 0 0 -2.25 1.89 l 0.6 -0.17 l -0.93 0.43 l 0.4 0.24 c -0.55 -0.08 -1.14 0.91 -1.87 1.46 l 0.21 0.19 l -0.51 0.27 h 0.27 c -0.39 0.37 -1.18 0.48 -1.46 1.09 c 0.22 -0.35 0.61 -0.1 0.72 0.07 l -1.5 0.81 c 0.11 0.16 -0.35 0.72 0.16 0.52 l -0.69 0.21 l 0.2 0.13 c -1.51 2.1 -4.23 2.49 -5.33 5 l 0.09 0 l -1.43 0.68 c -0.15 0.24 0.08 0.57 -0.14 1 c -0.15 -0.45 -0.64 0.57 -1.09 0.51 c -0.13 0.38 0.2 0.2 0.39 0.25 c -0.72 1.31 -2 1.62 -2.92 2.94 a 11.36 11.36 0 0 1 1.39 -2.35 c -1.07 0.73 -0.92 1.18 -2 2.05 l 0.59 -0.32 c -0.06 0.95 -1.72 1.23 -1.37 1.88 c -0.64 0.5 -1.63 0.49 -2.24 1.28 l 0.73 0.14 l -0.63 0.64 l -0.31 -0.29 c -0.22 0.19 -0.27 0.35 -0.22 0.45 a 1.52 1.52 0 0 1 0.47 0 c -0.22 0.12 -0.41 0.09 -0.47 0 c -0.77 0.09 -1.19 0.89 -2.06 1.23 l 0.09 0.21 c 0.1 0 0.18 0 0 0.17 l 0 -0.17 a 1.15 1.15 0 0 1 -0.24 0 c 0.15 0.38 -0.43 0.76 -0.21 1 c 0.25 -0.14 0.83 -0.45 0.63 -0.57 c 0.79 -0.19 -0.43 0.76 -0.74 1.08 c 0.2 -0.48 -0.28 -0.07 -0.53 0.06 c 0 0.07 0.09 0 0.18 0.06 c -0.43 0.76 -1.4 0.21 -1.28 1.14 l -0.38 -0.18 l -0.27 0.68 c -0.6 -0.52 -0.72 0.61 -1.32 0.17 c -0.55 0.53 0.39 0.25 0.14 0.38 c -0.39 0.62 -1.78 1 -1.69 1.43 l 0.09 0 l 0 0.22 a 0.32 0.32 0 0 1 -0.12 -0.18 c -0.63 0.25 -1 0.84 -1.46 1.1 l 0.21 0.27 a 1.88 1.88 0 0 0 -0.74 0.47 a 0.23 0.23 0 0 0 0.17 0 l 0.34 -0.23 a 0.46 0.46 0 0 1 -0.34 0.23 a 15.08 15.08 0 0 0 -2.08 1.75 c 0.2 0.13 0.3 0.23 0.71 -0.07 c -0.34 0.8 -1.81 1.2 -2.58 2.15 l 0.18 0 l -0.43 0.18 v 0.26 a 0.19 0.19 0 0 0 0.06 0.07 l -0.06 0.06 v 3.3 h 11.78 v -9.73 a 35 35 0 0 0 9.79 -3.2 l 5.7 7.84 l 9.53 -6.92 l -5.72 -7.88 a 35.13 35.13 0 0 0 6 -8.34 l 9.22 3 l 3.65 -11.2 l -9.26 -3 A 35.39 35.39 0 0 0 368.53 244.13 Z m -10.67 6.43 c 0.44 -0.69 0.15 -0.16 0.8 -0.66 Z" stroke-linecap="round" />
</g>
		<g transform="matrix(1 0 0 1 65.63 -19.63)" id="freepik--gears-1--inject-2"  >
<path style="stroke: none; stroke-width: 1; stroke-dasharray: none; stroke-linecap: butt; stroke-dashoffset: 0; stroke-linejoin: miter; stroke-miterlimit: 4; fill: rgb(0,0,0); fill-rule: nonzero; opacity: 0.2;"  transform=" translate(-315.63, -230.37)" d="M 298 244.13 a 34.71 34.71 0 0 0 0.39 5.23 l -9.23 3 l 2.83 8.7 a 10.84 10.84 0 0 0 2.12 -2.64 l -1.54 0.91 c 0.71 -0.83 2.37 -1.83 1.84 -2.22 c -0.73 1 -0.64 0.36 -1.16 0.73 v 0.09 c -0.13 0.09 -0.52 0.36 -0.37 0.09 a 24.24 24.24 0 0 0 2.95 -2 c -0.43 0.22 0.11 -0.61 0.13 -0.76 c 0.8 -0.65 0.21 0.19 0.3 0.38 c 0.4 -0.37 1.28 -0.73 1.36 -1.29 c 0.33 -0.74 -0.89 0.45 -1.24 0.44 L 298.8 253 h -0.12 a 1.84 1.84 0 0 0 0.8 -0.65 c 0 -0.37 -0.48 0.09 -0.77 0.46 c 0.89 -1.38 2.52 -1.45 3 -2.91 l -0.38 0.24 c 0.15 -0.19 0.27 -0.27 0.39 -0.28 v 0 l 0.77 -0.49 c 0 -0.09 0 -0.28 -0.08 -0.19 l 0.76 -0.45 c 1.32 -1 0 -0.66 0.28 -1.13 l -0.06 0.06 c 0.3 -0.41 0.42 -0.82 0.13 -0.61 l 1.43 -1 h 0 c -0.16 0 -0.28 0 -0.32 -0.1 l 0.32 0.1 c 0.77 -0.18 2.62 -1.9 3.13 -1.34 c 0.29 -0.37 0.44 -0.72 0.22 -0.66 l -0.06 0.06 a 2.7 2.7 0 0 1 -0.48 0.41 l 0.48 -0.41 s 0 0 0.05 -0.06 h 0 c 0.94 -0.86 -0.62 -0.19 0.91 -1.57 c -0.1 -0.1 -0.24 0.09 -0.5 0.27 c 0.37 -0.39 0.56 -0.51 0.68 -0.52 a 0.39 0.39 0 0 1 -0.1 -0.31 c 0.21 0.19 0.77 -0.46 1.06 -0.83 l -0.85 0.18 a 2.77 2.77 0 0 0 1.31 -1 l -0.61 0.17 c 0.51 -0.43 0.65 -0.36 0.78 -0.32 a 22.67 22.67 0 0 1 19.55 -18.48 a 1.24 1.24 0 0 0 0.45 -0.76 c 0.21 0.09 0 0.4 -0.31 0.75 q 0.3 0 0.6 -0.06 l -0.15 0 c 1.41 -0.82 0.32 -0.56 1.64 -1.66 c 0 0.09 -0.05 0.38 0.23 0.1 c 1 -1 -0.19 -0.38 0.38 -1.12 c 1.75 -0.72 0.25 -0.93 2.07 -2.21 h -0.23 c 1.43 -1 2.53 -3 3.77 -4.42 c 0 0.18 -1.08 1.09 -0.64 1.29 L 340 212 c 0 -0.18 0.71 -0.92 0.09 -0.65 a 2.67 2.67 0 0 0 -0.56 0.64 l 0.06 -0.38 c 1.71 -1.36 0.39 0.58 0.7 0.86 c 0.71 -0.92 1.3 -0.91 1.85 -1.46 c 0 -0.57 -1.4 0.73 -1 -0.3 a 3.18 3.18 0 0 1 0.67 -0.76 c -0.92 -0.22 -1.84 -0.42 -2.78 -0.58 v -9.7 H 327.27 v 9.73 a 35 35 0 0 0 -9.79 3.2 l -5.7 -7.85 l -9.53 6.93 L 308 219.5 a 35.33 35.33 0 0 0 -6 8.34 l -9.22 -3 l -3.65 11.2 l 9.26 3 A 35.28 35.28 0 0 0 298 244.13 Z m -5.75 15 l -0.83 0.08 C 292 258.74 292.33 259 292.2 259.12 Z m 2.26 -2.77 l -0.51 0.27 l 1.33 -1.09 Z m 3.21 -2.84 l 0 -0.19 l 0.92 -0.73 Z" stroke-linecap="round" />
</g>
		<g transform="matrix(1 0 0 1 99.96 11.91)" id="freepik--gears-1--inject-2"  >
<path style="stroke: none; stroke-width: 1; stroke-dasharray: none; stroke-linecap: butt; stroke-dashoffset: 0; stroke-linejoin: miter; stroke-miterlimit: 4; fill: rgb(0,0,0); fill-rule: nonzero; opacity: 0.2;"  transform=" translate(-349.96, -261.91)" d="M 350.58 261.78 c -0.2 -0.13 -0.58 0.38 -0.63 0 l 0.15 -0.23 c -0.22 0.34 -0.56 -0.23 -0.75 0.4 l 0.23 -0.28 c -0.21 0.42 0.71 -0.07 0.34 0.51 C 349.77 262.44 350.44 262.08 350.58 261.78 Z" stroke-linecap="round" />
</g>
		<g transform="matrix(1 0 0 1 111.77 -2.38)" id="freepik--gears-1--inject-2"  >
<path style="stroke: none; stroke-width: 1; stroke-dasharray: none; stroke-linecap: butt; stroke-dashoffset: 0; stroke-linejoin: miter; stroke-miterlimit: 4; fill: rgb(0,0,0); fill-rule: nonzero; opacity: 0.2;"  transform=" translate(-361.77, -247.62)" d="M 361.69 247.75 l 0.09 0 a 0.63 0.63 0 0 1 0.07 -0.27 C 361.75 247.52 361.66 247.57 361.69 247.75 Z" stroke-linecap="round" />
</g>
		<g transform="matrix(1 0 0 1 114.84 -4.89)" id="freepik--gears-1--inject-2"  >
<path style="stroke: none; stroke-width: 1; stroke-dasharray: none; stroke-linecap: butt; stroke-dashoffset: 0; stroke-linejoin: miter; stroke-miterlimit: 4; fill: rgb(0,0,0); fill-rule: nonzero; opacity: 0.2;"  transform=" translate(-364.84, -245.11)" d="M 364.85 245.29 l 0.25 -0.13 c 0.13 -0.38 -0.3 -0.22 -0.54 0 C 364.66 245.17 364.67 245.31 364.85 245.29 Z" stroke-linecap="round" />
</g>
		<g transform="matrix(1 0 0 1 111.16 1.57)" id="freepik--gears-1--inject-2"  >
<path style="stroke: none; stroke-width: 1; stroke-dasharray: none; stroke-linecap: butt; stroke-dashoffset: 0; stroke-linejoin: miter; stroke-miterlimit: 4; fill: rgb(0,0,0); fill-rule: nonzero; opacity: 0.2;"  transform=" translate(-361.16, -251.57)" d="M 360.7 251.78 c 0.41 -0.29 0.74 0.14 0.93 -0.42 C 361.31 251.61 361 251.11 360.7 251.78 Z" stroke-linecap="round" />
</g>
		<g transform="matrix(1 0 0 1 111.76 -3.3)" id="freepik--gears-1--inject-2"  >
<path style="stroke: none; stroke-width: 1; stroke-dasharray: none; stroke-linecap: butt; stroke-dashoffset: 0; stroke-linejoin: miter; stroke-miterlimit: 4; fill: rgb(0,0,0); fill-rule: nonzero; opacity: 0.2;"  transform=" translate(-361.76, -246.7)" d="M 361.16 247.12 c 0.22 0 0.75 -0.26 0.89 0 c 0.28 -0.46 0.57 -0.93 -0.11 -0.82 l -0.3 0.4 c 0.16 -0.17 0.17 -0.09 0.26 -0.07 C 361.77 247 361.41 247 361.16 247.12 Z" stroke-linecap="round" />
</g>
		<g transform="matrix(1 0 0 1 111.99 -2.69)" id="freepik--gears-1--inject-2"  >
<path style="stroke: none; stroke-width: 1; stroke-dasharray: none; stroke-linecap: butt; stroke-dashoffset: 0; stroke-linejoin: miter; stroke-miterlimit: 4; fill: rgb(0,0,0); fill-rule: nonzero; opacity: 0.2;"  transform=" translate(-361.99, -247.31)" d="M 362.08 247.38 a 0.32 0.32 0 0 0 0 -0.25 l -0.2 0.37 C 362 247.48 362.05 247.47 362.08 247.38 Z" stroke-linecap="round" />
</g>
		<g transform="matrix(1 0 0 1 99.6 12.96)" id="freepik--gears-1--inject-2"  >
<path style="stroke: none; stroke-width: 1; stroke-dasharray: none; stroke-linecap: butt; stroke-dashoffset: 0; stroke-linejoin: miter; stroke-miterlimit: 4; fill: rgb(0,0,0); fill-rule: nonzero; opacity: 0.2;"  transform=" translate(-349.6, -262.96)" d="M 350 262.71 c -0.6 -0.11 -0.36 0.37 -0.8 0.52 C 349.48 263.19 350 263.3 350 262.71 Z" stroke-linecap="round" />
</g>
		<g transform="matrix(1 0 0 1 104.39 -44.58)" id="freepik--gears-1--inject-2"  >
<path style="stroke: none; stroke-width: 1; stroke-dasharray: none; stroke-linecap: butt; stroke-dashoffset: 0; stroke-linejoin: miter; stroke-miterlimit: 4; fill: rgb(0,0,0); fill-rule: nonzero; opacity: 0.2;"  transform=" translate(-354.39, -205.42)" d="M 355 205.08 a 0.3 0.3 0 0 1 0 -0.1 l -0.19 -0.14 c -0.49 0.39 -1.15 0.71 -1 1.15 Z" stroke-linecap="round" />
</g>
		<g transform="matrix(1 0 0 1 49.92 9.94)" id="freepik--gears-1--inject-2"  >
<polygon style="stroke: none; stroke-width: 1; stroke-dasharray: none; stroke-linecap: butt; stroke-dashoffset: 0; stroke-linejoin: miter; stroke-miterlimit: 4; fill: rgb(0,0,0); fill-rule: nonzero; opacity: 0.2;"  points="-0.8,0.69 -0.72,0.69 0.8,-0.69 -0.8,0.69 " />
</g>
		<g transform="matrix(1 0 0 1 48.16 11.59)" id="freepik--gears-1--inject-2"  >
<path style="stroke: none; stroke-width: 1; stroke-dasharray: none; stroke-linecap: butt; stroke-dashoffset: 0; stroke-linejoin: miter; stroke-miterlimit: 4; fill: rgb(0,0,0); fill-rule: nonzero; opacity: 0.2;"  transform=" translate(-298.16, -261.59)" d="M 298 261.82 l 1 -0.73 a 2.64 2.64 0 0 0 -1.68 1 l 0.92 -0.3 l 0.35 -0.21 Z" stroke-linecap="round" />
</g>
		<g transform="matrix(1 0 0 1 90.84 -27.78)" id="freepik--gears-1--inject-2"  >
<path style="stroke: none; stroke-width: 1; stroke-dasharray: none; stroke-linecap: butt; stroke-dashoffset: 0; stroke-linejoin: miter; stroke-miterlimit: 4; fill: rgb(0,0,0); fill-rule: nonzero; opacity: 0.2;"  transform=" translate(-340.84, -222.22)" d="M 340.33 222.6 l 0.16 0.05 a 1.16 1.16 0 0 0 0.86 -0.86 C 340.7 221.84 340.7 222.25 340.33 222.6 Z" stroke-linecap="round" />
</g>
		<g transform="matrix(1 0 0 1 91.62 -29.28)" id="freepik--gears-1--inject-2"  >
<path style="stroke: none; stroke-width: 1; stroke-dasharray: none; stroke-linecap: butt; stroke-dashoffset: 0; stroke-linejoin: miter; stroke-miterlimit: 4; fill: rgb(0,0,0); fill-rule: nonzero; opacity: 0.2;"  transform=" translate(-341.62, -220.72)" d="M 342.49 220.3 c -0.22 -0.09 -0.92 0.73 -0.86 0.27 l 0.29 -0.37 c -0.43 0.56 -0.69 -0.1 -1.17 0.82 l 0.41 -0.45 c -0.44 0.64 1 -0.37 0.28 0.56 C 341.15 221.5 342.19 220.77 342.49 220.3 Z" stroke-linecap="round" />
</g>
		<g transform="matrix(1 0 0 1 54.54 7.99)" id="freepik--gears-1--inject-2"  >
<path style="stroke: none; stroke-width: 1; stroke-dasharray: none; stroke-linecap: butt; stroke-dashoffset: 0; stroke-linejoin: miter; stroke-miterlimit: 4; fill: rgb(0,0,0); fill-rule: nonzero; opacity: 0.2;"  transform=" translate(-304.54, -257.99)" d="M 304.39 258.19 a 1.44 1.44 0 0 0 0.31 -0.4 Z" stroke-linecap="round" />
</g>
		<g transform="matrix(1 0 0 1 53.63 7.91)" id="freepik--gears-1--inject-2"  >
<path style="stroke: none; stroke-width: 1; stroke-dasharray: none; stroke-linecap: butt; stroke-dashoffset: 0; stroke-linejoin: miter; stroke-miterlimit: 4; fill: rgb(0,0,0); fill-rule: nonzero; opacity: 0.2;"  transform=" translate(-303.63, -257.91)" d="M 304.76 257.17 a 6.36 6.36 0 0 0 -2.25 1 l 0.05 0.47 c 0.29 -0.37 -0.05 -0.47 0.72 -0.93 C 303.35 258 304 258.19 304.76 257.17 Z" stroke-linecap="round" />
</g>
		<g transform="matrix(1 0 0 1 104.48 -45.15)" id="freepik--gears-1--inject-2"  >
<path style="stroke: none; stroke-width: 1; stroke-dasharray: none; stroke-linecap: butt; stroke-dashoffset: 0; stroke-linejoin: miter; stroke-miterlimit: 4; fill: rgb(0,0,0); fill-rule: nonzero; opacity: 0.2;"  transform=" translate(-354.48, -204.85)" d="M 354.57 204.61 l -0.34 0.47 a 5.6 5.6 0 0 0 0.49 -0.36 Z" stroke-linecap="round" />
</g>
		<g transform="matrix(1 0 0 1 55.2 7.16)" id="freepik--gears-1--inject-2"  >
<path style="stroke: none; stroke-width: 1; stroke-dasharray: none; stroke-linecap: butt; stroke-dashoffset: 0; stroke-linejoin: miter; stroke-miterlimit: 4; fill: rgb(0,0,0); fill-rule: nonzero; opacity: 0.2;"  transform=" translate(-305.2, -257.16)" d="M 304.7 257.79 l 1 -1.26 C 304.69 256.74 305 257.22 304.7 257.79 Z" stroke-linecap="round" />
</g>
		<g transform="matrix(1 0 0 1 97.91 -37.61)" id="freepik--gears-1--inject-2"  >
<path style="stroke: none; stroke-width: 1; stroke-dasharray: none; stroke-linecap: butt; stroke-dashoffset: 0; stroke-linejoin: miter; stroke-miterlimit: 4; fill: rgb(0,0,0); fill-rule: nonzero; opacity: 0.2;"  transform=" translate(-347.9, -212.39)" d="M 347.94 212.07 c -0.15 0.09 -0.27 0.14 -0.33 0.08 l 0 0.57 a 2.16 2.16 0 0 1 0.59 -0.52 Z" stroke-linecap="round" />
</g>
		<g transform="matrix(1 0 0 1 95.74 -35.87)" id="freepik--gears-1--inject-2"  >
<path style="stroke: none; stroke-width: 1; stroke-dasharray: none; stroke-linecap: butt; stroke-dashoffset: 0; stroke-linejoin: miter; stroke-miterlimit: 4; fill: rgb(0,0,0); fill-rule: nonzero; opacity: 0.2;"  transform=" translate(-345.74, -214.13)" d="M 345.12 214.92 c 0 -0.28 0.71 -0.92 1.27 -1.57 C 345.8 213.34 344.89 214.82 345.12 214.92 Z" stroke-linecap="round" />
</g>
		<g transform="matrix(1 0 0 1 49.34 10.67)" id="freepik--gears-1--inject-2"  >
<polygon style="stroke: none; stroke-width: 1; stroke-dasharray: none; stroke-linecap: butt; stroke-dashoffset: 0; stroke-linejoin: miter; stroke-miterlimit: 4; fill: rgb(0,0,0); fill-rule: nonzero; opacity: 0.2;"  points="0.24,-0.03 -0.14,-0.05 -0.24,0.05 0.24,-0.03 " />
</g>
</g>
</g>
</svg>