<?xml version="1.0" encoding="UTF-8" standalone="no" ?>
<!DOCTYPE svg PUBLIC "-//W3C//DTD SVG 1.1//EN" "http://www.w3.org/Graphics/SVG/1.1/DTD/svg11.dtd">
<svg xmlns="http://www.w3.org/2000/svg" xmlns:xlink="http://www.w3.org/1999/xlink" version="1.1" width="640" height="480" viewBox="0 0 640 480" xml:space="preserve">
<desc>Created with Fabric.js 3.6.6</desc>
<defs>
</defs>
<g transform="matrix(1 0 0 1 320.12 240.12)"  >
<g style=""   >
		<g transform="matrix(5.72 0 0 5.72 -6.87 -0.88)"  >
<circle style="stroke: rgb(23,148,172); stroke-width: 3; stroke-dasharray: none; stroke-linecap: butt; stroke-dashoffset: 0; stroke-linejoin: miter; stroke-miterlimit: 4; fill: rgb(255,255,0); fill-opacity: 0; fill-rule: nonzero; opacity: 1;" vector-effect="non-scaling-stroke"  cx="0" cy="0" r="40" />
</g>
		<g transform="matrix(5.72 0 0 5.72 6.82 0.82)"  >
<circle style="stroke: rgb(161,212,226); stroke-width: 3; stroke-dasharray: none; stroke-linecap: butt; stroke-dashoffset: 0; stroke-linejoin: miter; stroke-miterlimit: 4; fill: rgb(255,255,0); fill-opacity: 0; fill-rule: nonzero; opacity: 1;" vector-effect="non-scaling-stroke"  cx="0" cy="0" r="40" />
</g>
</g>
</g>
<g transform="matrix(0.57 0 0 0.57 321.9 227.4)"  >
<g style=""   >
		<g transform="matrix(1 0 0 1 -13.52 -8.06)" id="freepik--background-simple--inject-5"  >
<path style="stroke: none; stroke-width: 1; stroke-dasharray: none; stroke-linecap: butt; stroke-dashoffset: 0; stroke-linejoin: miter; stroke-miterlimit: 4; fill: rgb(23,148,172); fill-rule: nonzero; opacity: 1;"  transform=" translate(-361.48, -241.94)" d="M 699.46 265.47 s 10 -178 -141 -227 s -227 -13 -275 33 s -64 76 -119 82 s -106 16 -132 83 s 7 120 57 153 s 108 -2 154 19 s 75 56 169 60 s 97 -23 145 -65 S 690.46 405.47 699.46 265.47 Z" stroke-linecap="round" />
</g>
		<g transform="matrix(1 0 0 1 -13.52 -8.06)" id="freepik--background-simple--inject-5"  >
<path style="stroke: none; stroke-width: 1; stroke-dasharray: none; stroke-linecap: butt; stroke-dashoffset: 0; stroke-linejoin: miter; stroke-miterlimit: 4; fill: rgb(255,255,255); fill-rule: nonzero; opacity: 0.7000000000000001;"  transform=" translate(-361.48, -241.94)" d="M 699.46 265.47 s 10 -178 -141 -227 s -227 -13 -275 33 s -64 76 -119 82 s -106 16 -132 83 s 7 120 57 153 s 108 -2 154 19 s 75 56 169 60 s 97 -23 145 -65 S 690.46 405.47 699.46 265.47 Z" stroke-linecap="round" />
</g>
		<g transform="matrix(1 0 0 1 218.66 -29.5)" id="freepik--Plant--inject-5"  >
<path style="stroke: none; stroke-width: 1; stroke-dasharray: none; stroke-linecap: butt; stroke-dashoffset: 0; stroke-linejoin: miter; stroke-miterlimit: 4; fill: rgb(38,50,56); fill-rule: nonzero; opacity: 1;"  transform=" translate(-593.66, -220.5)" d="M 591 228.1 c 4.07 1.78 14 1.56 14 1.56 s -2.14 -6.52 -2.33 -6.92 c -2.18 -4.57 -9.1 -12.12 -14.72 -11.36 a 6.72 6.72 0 0 0 -5.39 8.42 C 583.52 223.69 587.52 226.59 591 228.1 Z" stroke-linecap="round" />
</g>
		<g transform="matrix(1 0 0 1 280.16 20.41)" id="freepik--Plant--inject-5"  >
<path style="stroke: none; stroke-width: 1; stroke-dasharray: none; stroke-linecap: butt; stroke-dashoffset: 0; stroke-linejoin: miter; stroke-miterlimit: 4; fill: rgb(38,50,56); fill-rule: nonzero; opacity: 1;"  transform=" translate(-655.16, -270.41)" d="M 594.43 257 c 4.22 0.61 13.11 -2 13.82 -2.17 a 119.48 119.48 0 0 0 5.39 14.92 c 1.22 2.83 2.54 5.64 3.9 8.44 c -0.81 -1.18 -1.54 -2.24 -1.66 -2.38 c -3.32 -3.83 -12 -9.28 -17.2 -7.07 a 6.71 6.71 0 0 0 -3 9.54 c 1.93 3.52 6.55 5.25 10.3 5.8 s 11.42 -1.49 13.43 -2.06 c 0.53 1.07 1.05 2.14 1.59 3.21 c 2.58 5.13 5.17 10.23 7.55 15.31 c 0.85 1.8 1.61 3.59 2.38 5.38 c -0.72 -1.05 -1.34 -1.93 -1.44 -2.06 c -3.32 -3.83 -12 -9.29 -17.2 -7.07 a 6.71 6.71 0 0 0 -3 9.54 c 1.93 3.51 6.55 5.25 10.3 5.8 s 10.68 -1.3 13.07 -2 c 0.73 1.86 1.47 3.72 2.1 5.55 c 0.4 1.27 0.87 2.46 1.2 3.75 s 0.71 2.53 1 3.77 c 0.59 2.43 1.2 4.93 1.71 7.3 c 0.37 1.66 0.68 3.24 1 4.83 c -0.82 -1.79 -2.49 -5.27 -2.67 -5.54 c -2.69 -4.29 -10.43 -11 -15.93 -9.6 a 6.71 6.71 0 0 0 -4.38 9 c 1.37 3.77 5.68 6.18 9.3 7.29 c 4 1.22 12.8 0.1 13.91 0 c 0.52 2.63 1 5.2 1.44 7.64 c 0.94 5.36 1.66 10.17 2.2 14.24 h 3.72 c -0.65 -4.21 -1.5 -9.23 -2.62 -14.86 c -0.52 -2.68 -1.14 -5.53 -1.8 -8.46 a 70.94 70.94 0 0 0 7.76 -3.65 c 2.91 3.15 10.35 6.83 11.31 7.3 c -1 2.49 -2 4.9 -3 7.16 c -2.06 4.74 -4 8.94 -5.74 12.51 h 4 c 1.49 -3.29 3.12 -7 4.82 -11.2 c 1 -2.52 2.1 -5.24 3.16 -8 c 1.07 0.22 9.8 2 13.87 1.07 c 3.69 -0.83 8.17 -2.92 9.82 -6.57 a 6.71 6.71 0 0 0 -3.71 -9.28 c -5.38 -1.81 -13.59 4.3 -16.6 8.38 c -0.17 0.24 -1.81 3.07 -2.81 4.87 c 0.43 -1.15 0.86 -2.26 1.28 -3.45 c 0.86 -2.34 1.65 -4.7 2.5 -7.23 c 0.38 -1.24 0.75 -2.5 1.13 -3.76 s 0.67 -2.61 1 -3.93 c 0.73 -3.07 1.32 -6.22 1.85 -9.41 c 2 0.75 9.37 3.3 13.16 3 s 8.52 -1.65 10.7 -5 a 6.72 6.72 0 0 0 -2.25 -9.74 c -5.05 -2.6 -14.09 2.2 -17.68 5.77 c -0.23 0.23 -2.51 3.08 -3.74 4.67 c 0.3 -1.91 0.61 -3.83 0.85 -5.78 c 0.7 -5.62 1.23 -11.34 1.79 -17 c 0.17 -1.75 0.36 -3.49 0.54 -5.23 c 0.73 0.28 9.36 3.49 13.61 3.19 c 3.78 -0.26 8.51 -1.65 10.7 -5 a 6.71 6.71 0 0 0 -2.26 -9.73 c -5 -2.6 -14.08 2.19 -17.67 5.77 c -0.27 0.27 -3.56 4.38 -4.35 5.47 c 0.41 -3.84 0.85 -7.65 1.43 -11.4 a 119.84 119.84 0 0 1 3.27 -15 c 0.34 0.13 9.34 3.53 13.69 3.22 c 3.78 -0.26 8.51 -1.65 10.7 -5 a 6.71 6.71 0 0 0 -2.26 -9.73 c -5 -2.6 -14.08 2.19 -17.67 5.77 c -0.29 0.28 -3.82 4.7 -4.4 5.55 c 0.08 -0.28 0.13 -0.59 0.22 -0.87 a 86.56 86.56 0 0 1 5.94 -14.18 c 1.29 -2.53 2.67 -4.87 4.05 -7.12 c 1.62 0.81 9 4.4 13 4.56 c 3.78 0.15 8.64 -0.71 11.18 -3.8 a 6.72 6.72 0 0 0 -1.17 -9.93 c -4.73 -3.14 -14.25 0.63 -18.21 3.79 c -0.21 0.17 -2.21 2.16 -3.65 3.63 c 0.65 -1 1.29 -2 1.93 -3 c 2.37 -3.58 4.76 -6.71 6.91 -9.46 c 1.23 -1.55 2.37 -2.94 3.46 -4.22 c 2 0 10 -0.28 13.53 -1.93 s 7.34 -4.61 8.17 -8.52 a 6.71 6.71 0 0 0 -5.61 -8.27 c -5.65 -0.61 -12.35 7.12 -14.41 11.75 c -0.18 0.4 -2.25 7 -2.14 7 h 0.12 c -1.07 1.21 -2.2 2.52 -3.41 4 c -2.21 2.71 -4.68 5.8 -7.14 9.33 A 120.11 120.11 0 0 0 687.1 238 a 88 88 0 0 0 -6.32 14.23 c 0 0.06 0 0.12 0 0.18 c 0 -1.66 0 -6.31 -0.09 -6.67 c -0.65 -5 -4.86 -14.35 -10.44 -15.38 a 6.71 6.71 0 0 0 -7.75 6.31 c -0.33 4 2.57 8 5.39 10.51 c 3.18 2.85 12 5.6 12.73 5.82 a 117.67 117.67 0 0 0 -3.74 15.42 c -0.54 3 -1 6.11 -1.4 9.2 c 0 -1.44 0 -2.73 -0.08 -2.91 c -0.65 -5 -4.86 -14.35 -10.44 -15.38 a 6.71 6.71 0 0 0 -7.75 6.31 c -0.33 4 2.57 8 5.39 10.51 s 10.35 5.06 12.34 5.7 c -0.14 1.18 -0.3 2.37 -0.44 3.55 c -0.68 5.7 -1.34 11.39 -2.15 16.94 c -0.29 2 -0.64 3.88 -1 5.8 c 0 -1.28 0 -2.35 -0.07 -2.51 c -0.65 -5 -4.86 -14.36 -10.44 -15.39 a 6.72 6.72 0 0 0 -7.75 6.32 c -0.32 4 2.57 8 5.4 10.51 s 9.62 4.81 12 5.57 c -0.41 2 -0.83 3.92 -1.32 5.8 c -0.36 1.27 -0.62 2.52 -1.06 3.78 s -0.8 2.5 -1.2 3.73 c -0.85 2.35 -1.72 4.77 -2.61 7 c -0.6 1.58 -1.21 3.07 -1.82 4.58 c 0.31 -2 0.83 -5.77 0.84 -6.1 a 26 26 0 0 0 -3.5 -12.68 a 7.41 7.41 0 0 0 -0.09 -1.49 a 6.72 6.72 0 0 0 -8.21 -5.7 c -5.49 1.46 -9 11.09 -9.22 16.15 c 0 0.3 0.17 3.56 0.33 5.61 c -0.27 -1.19 -0.53 -2.35 -0.83 -3.58 c -0.57 -2.42 -1.22 -4.83 -1.9 -7.42 q -0.57 -1.84 -1.14 -3.75 c -0.35 -1.26 -0.88 -2.55 -1.32 -3.83 c -1.09 -3 -2.33 -5.92 -3.65 -8.87 c 2.12 -0.51 9.63 -2.42 12.65 -4.74 s 6.19 -6.07 6.16 -10.08 a 6.71 6.71 0 0 0 -7.25 -6.87 c -5.64 0.61 -10.54 9.6 -11.57 14.56 c -0.06 0.31 -0.39 3.95 -0.54 6 c -0.8 -1.77 -1.6 -3.53 -2.48 -5.29 c -2.52 -5.08 -5.23 -10.14 -7.91 -15.2 c -0.82 -1.55 -1.62 -3.11 -2.43 -4.66 c 0.76 -0.17 9.74 -2.26 13.12 -4.85 c 3 -2.3 6.18 -6.07 6.16 -10.08 a 6.71 6.71 0 0 0 -7.26 -6.87 c -5.64 0.61 -10.54 9.6 -11.56 14.56 c -0.08 0.37 -0.55 5.62 -0.61 7 c -1.77 -3.42 -3.51 -6.85 -5.09 -10.3 a 118.9 118.9 0 0 1 -5.54 -14.3 c 0.35 -0.08 9.73 -2.21 13.19 -4.87 c 3 -2.3 6.19 -6.07 6.16 -10.08 a 6.7 6.7 0 0 0 -7.25 -6.87 c -5.64 0.61 -10.54 9.6 -11.56 14.56 c -0.08 0.39 -0.59 6 -0.61 7.06 c -0.08 -0.28 -0.21 -0.57 -0.29 -0.85 a 86.2 86.2 0 0 1 -2.87 -15.11 c -0.32 -2.81 -0.46 -5.53 -0.54 -8.17 c 1.78 -0.21 9.94 -1.3 13.32 -3.35 s 6.82 -5.35 7.23 -9.34 a 6.72 6.72 0 0 0 -6.45 -7.63 c -5.68 0 -11.53 8.39 -13.1 13.21 c -0.08 0.26 -0.65 3 -1 5 c 0 -1.2 -0.06 -2.43 0 -3.57 c 0 -4.29 0.28 -8.22 0.55 -11.7 c 0.16 -2 0.36 -3.76 0.55 -5.43 c 1.65 -1.13 8.21 -5.76 10.23 -9.07 s 3.58 -7.9 2.11 -11.62 a 6.72 6.72 0 0 0 -9.25 -3.8 c -5 2.6 -6.36 12.75 -5.53 17.75 c 0.07 0.43 2 7.06 2.06 7 l 0.1 -0.07 c -0.22 1.6 -0.44 3.32 -0.64 5.2 c -0.35 3.48 -0.7 7.42 -0.8 11.73 a 116.26 116.26 0 0 0 0.33 13.91 A 87.4 87.4 0 0 0 608 254 c 0 0.06 0 0.12 0 0.18 c -0.89 -1.41 -3.52 -5.24 -3.75 -5.52 c -3.32 -3.83 -12 -9.29 -17.2 -7.07 a 6.72 6.72 0 0 0 -3 9.54 C 586.06 254.68 590.68 256.41 594.43 257 Z" stroke-linecap="round" />
</g>
		<g transform="matrix(1 0 0 1 310.89 -32.3)" id="freepik--Plant--inject-5"  >
<path style="stroke: none; stroke-width: 1; stroke-dasharray: none; stroke-linecap: butt; stroke-dashoffset: 0; stroke-linejoin: miter; stroke-miterlimit: 4; fill: rgb(38,50,56); fill-rule: nonzero; opacity: 1;"  transform=" translate(-685.89, -217.7)" d="M 691.74 230.29 c 0.09 0.06 1.82 -6.62 1.88 -7 c 0.69 -5 -0.91 -15.13 -6 -17.6 a 6.71 6.71 0 0 0 -9.13 4.05 c -1.37 3.77 0.36 8.38 2.42 11.56 C 683.31 225 691.74 230.29 691.74 230.29 Z" stroke-linecap="round" />
</g>
		<g transform="matrix(1 0 0 1 276.62 131.93)" id="freepik--Plant--inject-5"  >
<polygon style="stroke: rgb(38,50,56); stroke-width: 1; stroke-dasharray: none; stroke-linecap: round; stroke-dashoffset: 0; stroke-linejoin: round; stroke-miterlimit: 4; fill: rgb(255,255,255); fill-rule: nonzero; opacity: 1;"  points="27.22,30.24 -27.23,30.24 -34.03,-30.24 34.03,-30.24 27.22,30.24 " />
</g>
		<g transform="matrix(1 0 0 1 276.62 115.69)" id="freepik--Plant--inject-5"  >
<polygon style="stroke: none; stroke-width: 1; stroke-dasharray: none; stroke-linecap: butt; stroke-dashoffset: 0; stroke-linejoin: miter; stroke-miterlimit: 4; fill: rgb(38,50,56); fill-rule: nonzero; opacity: 1;"  points="-32.78,-2.93 -32.12,2.93 32.12,2.93 32.78,-2.93 -32.78,-2.93 " />
</g>
		<g transform="matrix(1 0 0 1 276.62 128.58)" id="freepik--Plant--inject-5"  >
<polygon style="stroke: none; stroke-width: 1; stroke-dasharray: none; stroke-linecap: butt; stroke-dashoffset: 0; stroke-linejoin: miter; stroke-miterlimit: 4; fill: rgb(38,50,56); fill-rule: nonzero; opacity: 1;"  points="30.67,2.93 31.33,-2.93 -31.33,-2.93 -30.67,2.93 30.67,2.93 " />
</g>
		<g transform="matrix(1 0 0 1 -264.06 -153.39)" id="freepik--Gears--inject-5"  >
<path style="stroke: rgb(0,0,0); stroke-width: 1; stroke-dasharray: none; stroke-linecap: butt; stroke-dashoffset: 0; stroke-linejoin: miter; stroke-miterlimit: 10; fill: none; fill-rule: nonzero; opacity: 0.30000000000000004;"  transform=" translate(-110.94, -96.61)" d="M 168.89 105.48 V 88 l -17.45 -1.94 a 41.48 41.48 0 0 0 -4.27 -10.4 l 11 -13.77 L 145.83 49.56 l -13.71 11 a 41.85 41.85 0 0 0 -10.37 -4.35 l -1.94 -17.52 H 102.34 L 100.4 56.1 A 41.88 41.88 0 0 0 90 60.38 l -13.77 -11 L 63.88 61.71 l 11 13.72 a 41.23 41.23 0 0 0 -4.34 10.36 L 53 87.74 v 17.47 l 17.45 1.94 a 41.41 41.41 0 0 0 4.27 10.39 l -11 13.78 L 76 143.67 l 13.71 -11 A 41.83 41.83 0 0 0 100.12 137 l 1.94 17.52 h 17.47 l 1.94 -17.44 a 41.51 41.51 0 0 0 10.4 -4.28 l 13.77 11 L 158 131.51 L 147 117.8 a 41.45 41.45 0 0 0 4.34 -10.37 Z m -57.95 12 a 20.85 20.85 0 1 1 20.84 -20.85 A 20.85 20.85 0 0 1 110.94 117.46 Z" stroke-linecap="round" />
</g>
		<g transform="matrix(1 0 0 1 -176.83 -179.01)" id="freepik--Gears--inject-5"  >
<path style="stroke: rgb(0,0,0); stroke-width: 1; stroke-dasharray: none; stroke-linecap: butt; stroke-dashoffset: 0; stroke-linejoin: miter; stroke-miterlimit: 10; fill: none; fill-rule: nonzero; opacity: 0.30000000000000004;"  transform=" translate(-198.17, -70.99)" d="M 237.52 70.42 l -1.93 -11.56 l -11.77 0.65 a 27.89 27.89 0 0 0 -4 -6.41 l 5.77 -10.34 L 216.06 36 l -7.86 8.78 A 27.93 27.93 0 0 0 200.85 43 l -3.23 -11.39 l -11.56 1.94 l 0.65 11.76 a 27.89 27.89 0 0 0 -6.41 4 L 170 43.54 l -6.81 9.54 L 171.93 61 a 27.86 27.86 0 0 0 -1.72 7.34 l -11.39 3.23 l 1.94 11.56 l 11.76 -0.64 a 27.83 27.83 0 0 0 4 6.4 l -5.76 10.34 l 9.54 6.81 l 7.87 -8.78 a 28.27 28.27 0 0 0 7.34 1.73 l 3.23 11.38 l 11.56 -1.93 l -0.64 -11.77 a 27.83 27.83 0 0 0 6.4 -4 l 10.34 5.77 l 6.81 -9.55 L 224.41 81 a 28.37 28.37 0 0 0 1.73 -7.34 Z m -37 14.35 A 14 14 0 1 1 212 68.66 A 14 14 0 0 1 200.48 84.77 Z" stroke-linecap="round" />
</g>
		<g transform="matrix(1 0 0 1 7.81 -14.91)" id="freepik--Device--inject-5"  >
<path style="stroke: rgb(38,50,56); stroke-width: 1; stroke-dasharray: none; stroke-linecap: round; stroke-dashoffset: 0; stroke-linejoin: round; stroke-miterlimit: 4; fill: rgb(23,148,172); fill-rule: nonzero; opacity: 1;"  transform=" translate(-382.81, -235.09)" d="M 155.51 80.75 H 610.18 A 10.46 10.46 0 0 1 620.63 91.2 V 389.44 a 0 0 0 0 1 0 0 H 145 a 0 0 0 0 1 0 0 V 91.2 A 10.46 10.46 0 0 1 155.51 80.75 Z" stroke-linecap="round" />
</g>
		<g transform="matrix(1 0 0 1 8.94 132.63)" id="freepik--Device--inject-5"  >
<rect style="stroke: rgb(38,50,56); stroke-width: 1; stroke-dasharray: none; stroke-linecap: round; stroke-dashoffset: 0; stroke-linejoin: round; stroke-miterlimit: 4; fill: rgb(38,50,56); fill-rule: nonzero; opacity: 1;"  x="-163.425" y="-8.05" rx="0" ry="0" width="326.85" height="16.1" />
</g>
		<g transform="matrix(1 0 0 1 8.94 136.5)" id="freepik--Device--inject-5"  >
<rect style="stroke: rgb(38,50,56); stroke-width: 1; stroke-dasharray: none; stroke-linecap: round; stroke-dashoffset: 0; stroke-linejoin: round; stroke-miterlimit: 4; fill: rgb(255,255,255); fill-rule: nonzero; opacity: 1;"  x="-163.425" y="-4.175" rx="0" ry="0" width="326.85" height="8.35" />
</g>
		<g transform="matrix(1 0 0 1 6.84 156.2)" id="freepik--Device--inject-5"  >
<path style="stroke: rgb(38,50,56); stroke-width: 1; stroke-dasharray: none; stroke-linecap: round; stroke-dashoffset: 0; stroke-linejoin: round; stroke-miterlimit: 4; fill: rgb(38,50,56); fill-rule: nonzero; opacity: 1;"  transform=" translate(-381.84, -406.2)" d="M 106.59 400.23 s 5.37 6.56 21.47 11.93 H 639.8 s 11.93 -3 17.3 -11.34 Z" stroke-linecap="round" />
</g>
		<g transform="matrix(1 0 0 1 6.88 144.75)" id="freepik--Device--inject-5"  >
<rect style="stroke: rgb(38,50,56); stroke-width: 1; stroke-dasharray: none; stroke-linecap: round; stroke-dashoffset: 0; stroke-linejoin: round; stroke-miterlimit: 4; fill: rgb(23,148,172); fill-rule: nonzero; opacity: 1;"  x="-276.38" y="-6.27" rx="1.89" ry="1.89" width="552.76" height="12.54" />
</g>
		<g transform="matrix(1 0 0 1 7.74 -159.92)" id="freepik--Device--inject-5"  >
<circle style="stroke: none; stroke-width: 1; stroke-dasharray: none; stroke-linecap: butt; stroke-dashoffset: 0; stroke-linejoin: miter; stroke-miterlimit: 4; fill: rgb(38,50,56); fill-rule: nonzero; opacity: 1;"  cx="0" cy="0" r="4.17" />
</g>
		<g transform="matrix(1 0 0 1 7.84 -21.66)" id="freepik--Device--inject-5"  >
<rect style="stroke: rgb(38,50,56); stroke-width: 1; stroke-dasharray: none; stroke-linecap: round; stroke-dashoffset: 0; stroke-linejoin: round; stroke-miterlimit: 4; fill: rgb(255,255,255); fill-rule: nonzero; opacity: 1;"  x="-218.5" y="-123.48" rx="0" ry="0" width="437" height="246.96" />
</g>
		<g transform="matrix(1 0 0 1 7.84 -137.66)" id="freepik--Device--inject-5"  >
<rect style="stroke: rgb(38,50,56); stroke-width: 1; stroke-dasharray: none; stroke-linecap: round; stroke-dashoffset: 0; stroke-linejoin: round; stroke-miterlimit: 4; fill: rgb(201,201,201); fill-rule: nonzero; opacity: 1;"  x="-218.5" y="-7.475" rx="0" ry="0" width="437" height="14.95" />
</g>
		<g transform="matrix(1 0 0 1 -3.73 162.16)" id="freepik--Table--inject-5"  >
<line style="stroke: rgb(38,50,56); stroke-width: 1; stroke-dasharray: none; stroke-linecap: round; stroke-dashoffset: 0; stroke-linejoin: round; stroke-miterlimit: 4; fill: none; fill-rule: nonzero; opacity: 1;"  x1="-348.05" y1="0" x2="348.05" y2="0" />
</g>
		<g transform="matrix(1 0 0 1 101.11 34.23)" id="freepik--Video--inject-5"  >
<rect style="stroke: rgb(38,50,56); stroke-width: 1; stroke-dasharray: none; stroke-linecap: round; stroke-dashoffset: 0; stroke-linejoin: round; stroke-miterlimit: 4; fill: none; fill-rule: nonzero; opacity: 1;"  x="-90.245" y="-50.99" rx="0" ry="0" width="180.49" height="101.98" />
</g>
		<g transform="matrix(1 0 0 1 101.11 79.09)" id="freepik--Video--inject-5"  >
<rect style="stroke: rgb(38,50,56); stroke-width: 1; stroke-dasharray: none; stroke-linecap: round; stroke-dashoffset: 0; stroke-linejoin: round; stroke-miterlimit: 4; fill: none; fill-rule: nonzero; opacity: 1;"  x="-90.245" y="-6.13" rx="0" ry="0" width="180.49" height="12.26" />
</g>
		<g transform="matrix(1 0 0 1 101.11 79.09)" id="freepik--Video--inject-5"  >
<rect style="stroke: rgb(38,50,56); stroke-width: 1; stroke-dasharray: none; stroke-linecap: round; stroke-dashoffset: 0; stroke-linejoin: round; stroke-miterlimit: 4; fill: none; fill-rule: nonzero; opacity: 1;"  x="-90.245" y="-1.64" rx="0" ry="0" width="180.49" height="3.28" />
</g>
		<g transform="matrix(1 0 0 1 102.07 28.97)" id="freepik--Video--inject-5"  >
<circle style="stroke: rgb(38,50,56); stroke-width: 1; stroke-dasharray: none; stroke-linecap: round; stroke-dashoffset: 0; stroke-linejoin: round; stroke-miterlimit: 4; fill: none; fill-rule: nonzero; opacity: 1;"  cx="0" cy="0" r="19.08" />
</g>
		<g transform="matrix(1 0 0 1 104.46 29.06)" id="freepik--Video--inject-5"  >
<polygon style="stroke: rgb(38,50,56); stroke-width: 1; stroke-dasharray: none; stroke-linecap: round; stroke-dashoffset: 0; stroke-linejoin: round; stroke-miterlimit: 4; fill: none; fill-rule: nonzero; opacity: 1;"  points="12.27,0 -12.28,-14.18 -12.28,14.18 12.27,0 " />
</g>
		<g transform="matrix(1 0 0 1 101.18 -69.66)" id="freepik--Picture--inject-5"  >
<rect style="stroke: rgb(38,50,56); stroke-width: 1; stroke-dasharray: none; stroke-linecap: round; stroke-dashoffset: 0; stroke-linejoin: round; stroke-miterlimit: 4; fill: none; fill-rule: nonzero; opacity: 1;"  x="-90.015" y="-42.6" rx="0" ry="0" width="180.03" height="85.2" />
</g>
		<g transform="matrix(1 0 0 1 101.18 -61.04)" id="freepik--Picture--inject-5"  >
<polyline style="stroke: rgb(38,50,56); stroke-width: 1; stroke-dasharray: none; stroke-linecap: round; stroke-dashoffset: 0; stroke-linejoin: round; stroke-miterlimit: 4; fill: none; fill-rule: nonzero; opacity: 1;"  points="-90.02,33.98 -25.04,-16.69 10.13,2.98 51.86,-33.98 90.01,-9.54 " />
</g>
		<g transform="matrix(1 0 0 1 35.01 -88.46)" id="freepik--Picture--inject-5"  >
<circle style="stroke: rgb(38,50,56); stroke-width: 1; stroke-dasharray: none; stroke-linecap: round; stroke-dashoffset: 0; stroke-linejoin: round; stroke-miterlimit: 4; fill: none; fill-rule: nonzero; opacity: 1;"  cx="0" cy="0" r="13.11" />
</g>
		<g transform="matrix(1 0 0 1 -167.67 34.93)" id="freepik--Chart--inject-5"  >
<rect style="stroke: rgb(38,50,56); stroke-width: 1; stroke-dasharray: none; stroke-linecap: round; stroke-dashoffset: 0; stroke-linejoin: round; stroke-miterlimit: 4; fill: none; fill-rule: nonzero; opacity: 1;"  x="-6.555" y="-47.69" rx="0" ry="0" width="13.11" height="95.38" />
</g>
		<g transform="matrix(1 0 0 1 -148.59 56.4)" id="freepik--Chart--inject-5"  >
<rect style="stroke: rgb(38,50,56); stroke-width: 1; stroke-dasharray: none; stroke-linecap: round; stroke-dashoffset: 0; stroke-linejoin: round; stroke-miterlimit: 4; fill: none; fill-rule: nonzero; opacity: 1;"  x="-6.555" y="-26.23" rx="0" ry="0" width="13.11" height="52.46" />
</g>
		<g transform="matrix(1 0 0 1 -129.53 63.85)" id="freepik--Chart--inject-5"  >
<rect style="stroke: rgb(38,50,56); stroke-width: 1; stroke-dasharray: none; stroke-linecap: round; stroke-dashoffset: 0; stroke-linejoin: round; stroke-miterlimit: 4; fill: none; fill-rule: nonzero; opacity: 1;"  x="-6.555" y="-18.78" rx="0" ry="0" width="13.11" height="37.56" />
</g>
		<g transform="matrix(1 0 0 1 -110.44 48.94)" id="freepik--Chart--inject-5"  >
<rect style="stroke: rgb(38,50,56); stroke-width: 1; stroke-dasharray: none; stroke-linecap: round; stroke-dashoffset: 0; stroke-linejoin: round; stroke-miterlimit: 4; fill: none; fill-rule: nonzero; opacity: 1;"  x="-6.555" y="-33.68" rx="0" ry="0" width="13.11" height="67.36" />
</g>
		<g transform="matrix(1 0 0 1 -91.38 52.22)" id="freepik--Chart--inject-5"  >
<rect style="stroke: rgb(38,50,56); stroke-width: 1; stroke-dasharray: none; stroke-linecap: round; stroke-dashoffset: 0; stroke-linejoin: round; stroke-miterlimit: 4; fill: none; fill-rule: nonzero; opacity: 1;"  x="-6.555" y="-30.4" rx="0" ry="0" width="13.11" height="60.8" />
</g>
		<g transform="matrix(1 0 0 1 -72.3 76.06)" id="freepik--Chart--inject-5"  >
<rect style="stroke: rgb(38,50,56); stroke-width: 1; stroke-dasharray: none; stroke-linecap: round; stroke-dashoffset: 0; stroke-linejoin: round; stroke-miterlimit: 4; fill: none; fill-rule: nonzero; opacity: 1;"  x="-6.555" y="-6.555" rx="0" ry="0" width="13.11" height="13.11" />
</g>
		<g transform="matrix(1 0 0 1 -38.61 -5.6)" id="freepik--Chart--inject-5"  >
<line style="stroke: rgb(38,50,56); stroke-width: 1; stroke-dasharray: none; stroke-linecap: round; stroke-dashoffset: 0; stroke-linejoin: round; stroke-miterlimit: 4; fill: none; fill-rule: nonzero; opacity: 1;"  x1="-18.78" y1="0" x2="18.78" y2="0" />
</g>
		<g transform="matrix(1 0 0 1 -38.61 6.92)" id="freepik--Chart--inject-5"  >
<line style="stroke: rgb(38,50,56); stroke-width: 1; stroke-dasharray: none; stroke-linecap: round; stroke-dashoffset: 0; stroke-linejoin: round; stroke-miterlimit: 4; fill: none; fill-rule: nonzero; opacity: 1;"  x1="-18.78" y1="0" x2="18.78" y2="0" />
</g>
		<g transform="matrix(1 0 0 1 -38.61 19.43)" id="freepik--Chart--inject-5"  >
<line style="stroke: rgb(38,50,56); stroke-width: 1; stroke-dasharray: none; stroke-linecap: round; stroke-dashoffset: 0; stroke-linejoin: round; stroke-miterlimit: 4; fill: none; fill-rule: nonzero; opacity: 1;"  x1="-18.78" y1="0" x2="18.78" y2="0" />
</g>
		<g transform="matrix(1 0 0 1 -38.61 31.95)" id="freepik--Chart--inject-5"  >
<line style="stroke: rgb(38,50,56); stroke-width: 1; stroke-dasharray: none; stroke-linecap: round; stroke-dashoffset: 0; stroke-linejoin: round; stroke-miterlimit: 4; fill: none; fill-rule: nonzero; opacity: 1;"  x1="-18.78" y1="0" x2="18.78" y2="0" />
</g>
		<g transform="matrix(1 0 0 1 -38.61 44.47)" id="freepik--Chart--inject-5"  >
<line style="stroke: rgb(38,50,56); stroke-width: 1; stroke-dasharray: none; stroke-linecap: round; stroke-dashoffset: 0; stroke-linejoin: round; stroke-miterlimit: 4; fill: none; fill-rule: nonzero; opacity: 1;"  x1="-18.78" y1="0" x2="18.78" y2="0" />
</g>
		<g transform="matrix(1 0 0 1 -38.61 56.99)" id="freepik--Chart--inject-5"  >
<line style="stroke: rgb(38,50,56); stroke-width: 1; stroke-dasharray: none; stroke-linecap: round; stroke-dashoffset: 0; stroke-linejoin: round; stroke-miterlimit: 4; fill: none; fill-rule: nonzero; opacity: 1;"  x1="-18.78" y1="0" x2="18.78" y2="0" />
</g>
		<g transform="matrix(1 0 0 1 -38.61 69.51)" id="freepik--Chart--inject-5"  >
<line style="stroke: rgb(38,50,56); stroke-width: 1; stroke-dasharray: none; stroke-linecap: round; stroke-dashoffset: 0; stroke-linejoin: round; stroke-miterlimit: 4; fill: none; fill-rule: nonzero; opacity: 1;"  x1="-18.78" y1="0" x2="18.78" y2="0" />
</g>
		<g transform="matrix(1 0 0 1 -38.61 82.03)" id="freepik--Chart--inject-5"  >
<line style="stroke: rgb(38,50,56); stroke-width: 1; stroke-dasharray: none; stroke-linecap: round; stroke-dashoffset: 0; stroke-linejoin: round; stroke-miterlimit: 4; fill: none; fill-rule: nonzero; opacity: 1;"  x1="-18.78" y1="0" x2="18.78" y2="0" />
</g>
		<g transform="matrix(1 0 0 1 -155.29 -81.43)" id="freepik--Text--inject-5"  >
<path style="stroke: none; stroke-width: 1; stroke-dasharray: none; stroke-linecap: butt; stroke-dashoffset: 0; stroke-linejoin: miter; stroke-miterlimit: 4; fill: rgb(38,50,56); fill-rule: nonzero; opacity: 1;"  transform=" translate(-219.71, -168.57)" d="M 207.51 193.68 l -8.18 -50.21 h 5.82 l 5.4 36.08 l 6.75 -35.89 h 5 l 6.82 36.08 l 5.27 -36.27 h 5.7 L 232 193.68 h -5.08 l -7 -37.19 l -7.07 37.19 Z" stroke-linecap="round" />
</g>
		<g transform="matrix(1 0 0 1 -69.18 -103.92)" id="freepik--Text--inject-5"  >
<line style="stroke: rgb(38,50,56); stroke-width: 1; stroke-dasharray: none; stroke-linecap: round; stroke-dashoffset: 0; stroke-linejoin: round; stroke-miterlimit: 4; fill: none; fill-rule: nonzero; opacity: 1;"  x1="-52" y1="0" x2="52" y2="0" />
</g>
		<g transform="matrix(1 0 0 1 -69.18 -92.89)" id="freepik--Text--inject-5"  >
<line style="stroke: rgb(38,50,56); stroke-width: 1; stroke-dasharray: none; stroke-linecap: round; stroke-dashoffset: 0; stroke-linejoin: round; stroke-miterlimit: 4; fill: none; fill-rule: nonzero; opacity: 1;"  x1="-52" y1="0" x2="52" y2="0" />
</g>
		<g transform="matrix(1 0 0 1 -69.18 -81.86)" id="freepik--Text--inject-5"  >
<line style="stroke: rgb(38,50,56); stroke-width: 1; stroke-dasharray: none; stroke-linecap: round; stroke-dashoffset: 0; stroke-linejoin: round; stroke-miterlimit: 4; fill: none; fill-rule: nonzero; opacity: 1;"  x1="-52" y1="0" x2="52" y2="0" />
</g>
		<g transform="matrix(1 0 0 1 -69.18 -70.83)" id="freepik--Text--inject-5"  >
<line style="stroke: rgb(38,50,56); stroke-width: 1; stroke-dasharray: none; stroke-linecap: round; stroke-dashoffset: 0; stroke-linejoin: round; stroke-miterlimit: 4; fill: none; fill-rule: nonzero; opacity: 1;"  x1="-52" y1="0" x2="52" y2="0" />
</g>
		<g transform="matrix(1 0 0 1 -69.18 -59.8)" id="freepik--Text--inject-5"  >
<line style="stroke: rgb(38,50,56); stroke-width: 1; stroke-dasharray: none; stroke-linecap: round; stroke-dashoffset: 0; stroke-linejoin: round; stroke-miterlimit: 4; fill: none; fill-rule: nonzero; opacity: 1;"  x1="-52" y1="0" x2="52" y2="0" />
</g>
		<g transform="matrix(1 0 0 1 175.09 -0.84)" id="freepik--code-3--inject-5"  >
<path style="stroke: rgb(38,50,56); stroke-width: 1; stroke-dasharray: none; stroke-linecap: round; stroke-dashoffset: 0; stroke-linejoin: round; stroke-miterlimit: 4; fill: rgb(38,50,56); fill-rule: nonzero; opacity: 1;"  transform=" translate(-550.1, -249.16)" d="M 580.32 211 H 519.88 c -3.38 0 -6.15 3.4 -6.15 7.56 V 258.9 c 0 4.15 2.77 7.55 6.15 7.55 h 14.48 l -9.47 20.87 l 25.25 -20.87 h 30.18 c 3.38 0 6.14 -3.4 6.14 -7.55 V 218.57 C 586.46 214.41 583.7 211 580.32 211 Z" stroke-linecap="round" />
</g>
		<g transform="matrix(1 0 0 1 158.26 -9.89)" id="freepik--code-3--inject-5"  >
<path style="stroke: none; stroke-width: 1; stroke-dasharray: none; stroke-linecap: butt; stroke-dashoffset: 0; stroke-linejoin: miter; stroke-miterlimit: 4; fill: rgb(23,148,172); fill-rule: nonzero; opacity: 1;"  transform=" translate(-533.26, -240.11)" d="M 539.62 251.52 l -12.71 -9 v -4.76 l 12.71 -9.07 v 4.81 l -9.11 6.62 l 9.11 6.62 Z" stroke-linecap="round" />
</g>
		<g transform="matrix(1 0 0 1 175.4 -14.88)" id="freepik--code-3--inject-5"  >
<path style="stroke: none; stroke-width: 1; stroke-dasharray: none; stroke-linecap: butt; stroke-dashoffset: 0; stroke-linejoin: miter; stroke-miterlimit: 4; fill: rgb(23,148,172); fill-rule: nonzero; opacity: 1;"  transform=" translate(-550.4, -235.12)" d="M 543.49 253.12 l 9.69 -36 h 4.13 l -9.73 36 Z" stroke-linecap="round" />
</g>
		<g transform="matrix(1 0 0 1 192.56 -9.88)" id="freepik--code-3--inject-5"  >
<path style="stroke: none; stroke-width: 1; stroke-dasharray: none; stroke-linecap: butt; stroke-dashoffset: 0; stroke-linejoin: miter; stroke-miterlimit: 4; fill: rgb(23,148,172); fill-rule: nonzero; opacity: 1;"  transform=" translate(-567.56, -240.12)" d="M 561.18 251.52 v -4.76 l 9.16 -6.66 l -9.16 -6.58 v -4.81 l 12.76 9 v 4.76 Z" stroke-linecap="round" />
</g>
		<g transform="matrix(1 0 0 1 171.21 -136)" id="freepik--code-2--inject-5"  >
<path style="stroke: rgb(38,50,56); stroke-width: 1; stroke-dasharray: none; stroke-linecap: round; stroke-dashoffset: 0; stroke-linejoin: round; stroke-miterlimit: 4; fill: rgb(38,50,56); fill-rule: nonzero; opacity: 1;"  transform=" translate(-546.21, -114)" d="M 576.38 75.85 H 516 c -3.38 0 -6.15 3.4 -6.15 7.55 v 40.33 c 0 4.16 2.77 7.56 6.15 7.56 h 14.47 L 521 152.15 l 25.26 -20.86 h 30.17 c 3.38 0 6.15 -3.4 6.15 -7.56 V 83.4 C 582.53 79.25 579.76 75.85 576.38 75.85 Z" stroke-linecap="round" />
</g>
		<g transform="matrix(1 0 0 1 154.33 -145.06)" id="freepik--code-2--inject-5"  >
<path style="stroke: none; stroke-width: 1; stroke-dasharray: none; stroke-linecap: butt; stroke-dashoffset: 0; stroke-linejoin: miter; stroke-miterlimit: 4; fill: rgb(23,148,172); fill-rule: nonzero; opacity: 1;"  transform=" translate(-529.33, -104.94)" d="M 535.69 116.35 l -12.72 -9 v -4.75 l 12.72 -9.07 v 4.8 L 526.58 105 l 9.11 6.63 Z" stroke-linecap="round" />
</g>
		<g transform="matrix(1 0 0 1 171.47 -150)" id="freepik--code-2--inject-5"  >
<path style="stroke: none; stroke-width: 1; stroke-dasharray: none; stroke-linecap: butt; stroke-dashoffset: 0; stroke-linejoin: miter; stroke-miterlimit: 4; fill: rgb(23,148,172); fill-rule: nonzero; opacity: 1;"  transform=" translate(-546.47, -100)" d="M 539.56 118 l 9.69 -36 h 4.13 l -9.73 36 Z" stroke-linecap="round" />
</g>
		<g transform="matrix(1 0 0 1 188.63 -145.05)" id="freepik--code-2--inject-5"  >
<path style="stroke: none; stroke-width: 1; stroke-dasharray: none; stroke-linecap: butt; stroke-dashoffset: 0; stroke-linejoin: miter; stroke-miterlimit: 4; fill: rgb(23,148,172); fill-rule: nonzero; opacity: 1;"  transform=" translate(-563.63, -104.95)" d="M 557.25 116.35 V 111.6 l 9.16 -6.67 l -9.16 -6.58 v -4.8 l 12.76 9 v 4.76 Z" stroke-linecap="round" />
</g>
		<g transform="matrix(1 0 0 1 -66.34 -31.84)" id="freepik--code-1--inject-5"  >
<path style="stroke: rgb(38,50,56); stroke-width: 1; stroke-dasharray: none; stroke-linecap: round; stroke-dashoffset: 0; stroke-linejoin: round; stroke-miterlimit: 4; fill: rgb(38,50,56); fill-rule: nonzero; opacity: 1;"  transform=" translate(-308.66, -218.16)" d="M 338.89 180 H 278.45 c -3.38 0 -6.15 3.4 -6.15 7.55 V 227.9 c 0 4.16 2.77 7.56 6.15 7.56 h 14.48 l -9.47 20.86 l 25.25 -20.86 h 30.18 c 3.38 0 6.14 -3.4 6.14 -7.56 V 187.57 C 345 183.42 342.27 180 338.89 180 Z" stroke-linecap="round" />
</g>
		<g transform="matrix(1 0 0 1 -83.16 -40.89)" id="freepik--code-1--inject-5"  >
<path style="stroke: none; stroke-width: 1; stroke-dasharray: none; stroke-linecap: butt; stroke-dashoffset: 0; stroke-linejoin: miter; stroke-miterlimit: 4; fill: rgb(23,148,172); fill-rule: nonzero; opacity: 1;"  transform=" translate(-291.84, -209.11)" d="M 298.19 220.52 l -12.71 -9 v -4.75 l 12.71 -9.07 v 4.8 l -9.11 6.62 l 9.11 6.63 Z" stroke-linecap="round" />
</g>
		<g transform="matrix(1 0 0 1 -66.02 -45.88)" id="freepik--code-1--inject-5"  >
<path style="stroke: none; stroke-width: 1; stroke-dasharray: none; stroke-linecap: butt; stroke-dashoffset: 0; stroke-linejoin: miter; stroke-miterlimit: 4; fill: rgb(23,148,172); fill-rule: nonzero; opacity: 1;"  transform=" translate(-308.98, -204.12)" d="M 302.06 222.12 l 9.69 -36 h 4.14 l -9.74 36 Z" stroke-linecap="round" />
</g>
		<g transform="matrix(1 0 0 1 -48.87 -40.88)" id="freepik--code-1--inject-5"  >
<path style="stroke: none; stroke-width: 1; stroke-dasharray: none; stroke-linecap: butt; stroke-dashoffset: 0; stroke-linejoin: miter; stroke-miterlimit: 4; fill: rgb(23,148,172); fill-rule: nonzero; opacity: 1;"  transform=" translate(-326.13, -209.12)" d="M 319.75 220.52 v -4.75 l 9.16 -6.67 l -9.16 -6.58 v -4.8 l 12.76 9 v 4.76 Z" stroke-linecap="round" />
</g>
		<g transform="matrix(1 0 0 1 -188.04 126.31)" id="freepik--Mug--inject-5"  >
<path style="stroke: none; stroke-width: 1; stroke-dasharray: none; stroke-linecap: butt; stroke-dashoffset: 0; stroke-linejoin: miter; stroke-miterlimit: 4; fill: rgb(38,50,56); fill-rule: nonzero; opacity: 1;"  transform=" translate(-186.96, -376.31)" d="M 189.94 385.08 h -0.14 c -0.58 -0.05 -5.7 -0.61 -6.83 -4 c -0.87 -2.63 -0.89 -10 1.15 -12.33 c 1.87 -2.13 4.75 -1.1 6 -0.26 a 1.5 1.5 0 0 1 -1.66 2.5 s -1.51 -0.93 -2.09 -0.27 c -1 1.12 -1.33 7.1 -0.56 9.41 c 0.37 1.1 2.76 1.82 4.26 2 a 1.5 1.5 0 0 1 -0.14 3 Z" stroke-linecap="round" />
</g>
		<g transform="matrix(1 0 0 1 -176.91 127.11)" id="freepik--Mug--inject-5"  >
<rect style="stroke: rgb(38,50,56); stroke-width: 1; stroke-dasharray: none; stroke-linecap: round; stroke-dashoffset: 0; stroke-linejoin: round; stroke-miterlimit: 4; fill: rgb(38,50,56); fill-rule: nonzero; opacity: 1;"  x="-9" y="-11.055" rx="0" ry="0" width="18" height="22.11" />
</g>
		<g transform="matrix(1 0 0 1 -177.96 104.48)" id="freepik--Mug--inject-5"  >
<path style="stroke: rgb(38,50,56); stroke-width: 1; stroke-dasharray: none; stroke-linecap: round; stroke-dashoffset: 0; stroke-linejoin: round; stroke-miterlimit: 4; fill: none; fill-rule: nonzero; opacity: 1;"  transform=" translate(-197.04, -354.48)" d="M 193.54 363 a 9.38 9.38 0 0 1 1.07 -7.05 c 2.13 -3.42 6.4 -4.06 6.19 -10" stroke-linecap="round" />
</g>
		<g transform="matrix(1 0 0 1 -172.49 108.4)" id="freepik--Mug--inject-5"  >
<path style="stroke: rgb(38,50,56); stroke-width: 1; stroke-dasharray: none; stroke-linecap: round; stroke-dashoffset: 0; stroke-linejoin: round; stroke-miterlimit: 4; fill: none; fill-rule: nonzero; opacity: 1;"  transform=" translate(-202.51, -358.4)" d="M 204.65 353.81 a 32.6 32.6 0 0 1 -2.78 4.05 a 8.24 8.24 0 0 0 -1.5 5.13" stroke-linecap="round" />
</g>
		<g transform="matrix(1 0 0 1 -167.96 96.69)" id="freepik--Mug--inject-5"  >
<path style="stroke: rgb(38,50,56); stroke-width: 1; stroke-dasharray: none; stroke-linecap: round; stroke-dashoffset: 0; stroke-linejoin: round; stroke-miterlimit: 4; fill: none; fill-rule: nonzero; opacity: 1;"  transform=" translate(-207.04, -346.69)" d="M 206.57 350 a 13.58 13.58 0 0 0 0.85 -6.62" stroke-linecap="round" />
</g>
		<g transform="matrix(1 0 0 1 -225.2 5.25)" id="freepik--Character--inject-5"  >
<path style="stroke: rgb(38,50,56); stroke-width: 1; stroke-dasharray: none; stroke-linecap: round; stroke-dashoffset: 0; stroke-linejoin: round; stroke-miterlimit: 4; fill: rgb(38,50,56); fill-rule: nonzero; opacity: 1;"  transform=" translate(-149.8, -255.25)" d="M 145.72 230.88 s -0.88 -3.83 -3.13 -3.56 s -1.53 1 -3.67 0.44 s -2.57 -2.38 -3.62 -0.8 s 0.93 2.58 -1 2.39 s -2.65 -1.34 -3.39 -0.63 a 5.52 5.52 0 0 0 -1.08 1.37 l -0.31 0.87 a 2 2 0 0 1 3 -0.78 c 2 1.21 3.49 1.45 3.78 0.38 s 2.78 -1 2.85 -0.35 a 3.2 3.2 0 0 0 0.79 1.36 s -5.54 0.46 -7.17 0.65 s -2.83 -1.11 -5.18 0 s -4.3 2.17 -5.17 3.52 s 1.19 3 0.9 4 s -4.48 2.41 -4.3 3.83 s 2.06 1.62 0.14 2.89 s -3.61 2.71 -3.06 3.89 s 2 2.45 1.69 3.73 s -2.46 3.61 -1.29 4.71 s 1.88 0.19 1.67 1.87 s -1.25 5.12 0 5.59 s 2.83 1.11 2.82 2.77 s -0.27 2.93 0.88 3.83 s 3.82 0.78 4.11 3.23 s 0.6 3.24 1.7 3.73 s 2.81 -0.75 3.66 1.22 s 3.34 1.88 4.51 1.32 s 2.1 -1.49 3.19 0.65 s 2.36 2.41 3.94 1.81 s 3.91 -0.27 4.87 0.86 s 3.21 0.86 4.34 -0.11 s 1.93 -2.92 2.94 -1.39 s 3.46 2.9 4.33 1.55 s 1.44 -3.48 2.82 -2.41 a 2.9 2.9 0 0 0 4.06 -0.69 a 4.28 4.28 0 0 1 3.88 -2.13 c 1.69 0.22 3.75 0.17 3.71 -1.89 s -0.21 -3.5 1.47 -3.29 s 4.23 0.74 4.19 -1.33 s -0.19 -3.29 1 -3.44 s 3.09 -1.82 2.74 -3 s -1.28 -5.44 -0.66 -5.51 s 1.43 -1.83 0.57 -3.8 s -1 -3.6 -0.46 -3.88 s 1.13 -2.62 -0.29 -4.11 s -2 -2.66 -0.85 -3.63 a 2.73 2.73 0 0 0 -0.08 -4.13 c -1.4 -1.28 -2.14 -2.23 -2.26 -3.25 s -2.87 -3.18 -3.76 -3.69 a 5.32 5.32 0 0 1 -2.15 -4.09 c -0.27 -2.25 -0.7 -2.4 -4.57 -3.59 a 18.43 18.43 0 0 1 -6.39 -3.17 c -1.58 -1.05 -5.46 -0.59 -7 0.43 S 148 225.84 145.72 230.88 Z" stroke-linecap="round" />
</g>
		<g transform="matrix(1 0 0 1 -232.62 57.71)" id="freepik--Character--inject-5"  >
<path style="stroke: rgb(38,50,56); stroke-width: 1; stroke-dasharray: none; stroke-linecap: round; stroke-dashoffset: 0; stroke-linejoin: round; stroke-miterlimit: 4; fill: rgb(255,255,255); fill-rule: nonzero; opacity: 1;"  transform=" translate(-142.38, -307.71)" d="M 104.49 335.5 c 6.61 -5.12 20.59 -28.33 20.59 -28.33 s 1.68 11.85 3.64 17.51 s 4.63 9.37 4 15.87 c 0 0 -0.06 -1 -0.06 -1 l 35.85 1.05 c -1.1 -2 -1.8 -2.34 -2 -3.21 c -0.59 -3.05 2.54 -9.82 2.58 -12.91 s 2.38 -9 2.38 -9 s 10.34 22.91 12.71 24.84 s 9 3 8.63 -4.18 s -12.45 -34.95 -14.57 -39.78 s -4.78 -8.18 -9.9 -7.69 s -6.31 1.38 -9.8 1.57 s -1.95 -16.57 -1.95 -16.57 a 12.77 12.77 0 0 1 -12.67 1.94 s 0.9 8.8 -0.59 11.56 s -2.27 3.63 -5.84 2.39 s -9.16 -5.47 -12.57 -3.84 s -27.36 41.48 -29.23 44.88 c -1.24 2.25 -4.58 8 -3.58 9.55 Z" stroke-linecap="round" />
</g>
		<g transform="matrix(1 0 0 1 -242.31 90.05)" id="freepik--Character--inject-5"  >
<path style="stroke: rgb(38,50,56); stroke-width: 1; stroke-dasharray: none; stroke-linecap: round; stroke-dashoffset: 0; stroke-linejoin: round; stroke-miterlimit: 4; fill: rgb(23,148,172); fill-rule: nonzero; opacity: 1;"  transform=" translate(-132.69, -340.05)" d="M 132.68 340.55 c 0 -0.34 0.06 -0.66 0.07 -1 h -0.13 S 132.68 340.57 132.68 340.55 Z" stroke-linecap="round" />
</g>
		<g transform="matrix(1 0 0 1 -232.66 63.58)" id="freepik--Character--inject-5"  >
<path style="stroke: rgb(38,50,56); stroke-width: 1; stroke-dasharray: none; stroke-linecap: round; stroke-dashoffset: 0; stroke-linejoin: round; stroke-miterlimit: 4; fill: rgb(38,50,56); fill-rule: nonzero; opacity: 1;"  transform=" translate(-142.34, -313.58)" d="M 124.92 285.75 c -3.41 1.63 -27.36 41.48 -29.23 44.88 c -1.24 2.25 -4.58 8 -3.58 9.55 l 12.38 -4.68 c 6.61 -5.12 20.59 -28.33 20.59 -28.33 s 1.68 11.85 3.64 17.51 c 1.86 5.36 4.35 9 4 14.89 l 35.72 1.05 c -1.1 -2 -1.8 -2.34 -2 -3.21 c -0.59 -3.05 2.54 -9.82 2.58 -12.91 s 2.38 -9 2.38 -9 s 10.34 22.91 12.71 24.84 s 9 3 8.63 -4.18 s -12.45 -34.95 -14.57 -39.78 s -4.78 -8.18 -9.9 -7.69 a 40.47 40.47 0 0 0 -5.44 0.88 l -14.84 18.07 l -10.57 -18.06 C 133.92 288.34 128.33 284.12 124.92 285.75 Z" stroke-linecap="round" />
</g>
		<g transform="matrix(1 0 0 1 -228.9 113.21)" id="freepik--Character--inject-5"  >
<path style="stroke: rgb(38,50,56); stroke-width: 1; stroke-dasharray: none; stroke-linecap: round; stroke-dashoffset: 0; stroke-linejoin: round; stroke-miterlimit: 4; fill: rgb(38,50,56); fill-rule: nonzero; opacity: 1;"  transform=" translate(-146.1, -363.21)" d="M 133.08 337.79 s -18.91 16.35 -19.34 31.74 c -0.15 5.34 0.87 17.27 10 18.53 s 49.57 0 49.57 0 s 3.15 -0.95 5 -11.63 s -11.94 -38 -11.94 -38 Z" stroke-linecap="round" />
</g>
		<g transform="matrix(1 0 0 1 -231.07 99.9)" id="freepik--Character--inject-5"  >
<path style="stroke: rgb(38,50,56); stroke-width: 1; stroke-dasharray: none; stroke-linecap: round; stroke-dashoffset: 0; stroke-linejoin: round; stroke-miterlimit: 4; fill: rgb(255,255,255); fill-rule: nonzero; opacity: 1;"  transform=" translate(-143.93, -349.9)" d="M 147 344.3 s -3.45 4.28 -4 4.49 s -1.15 1.88 -2.3 4.38 s -0.83 2.72 0.53 2.09 s 2.71 -3.44 2.71 -3.44 l 2.61 -1.67 S 149.16 343.57 147 344.3 Z" stroke-linecap="round" />
</g>
		<g transform="matrix(1 0 0 1 -205.55 95.01)" id="freepik--Character--inject-5"  >
<path style="stroke: rgb(38,50,56); stroke-width: 1; stroke-dasharray: none; stroke-linecap: round; stroke-dashoffset: 0; stroke-linejoin: round; stroke-miterlimit: 4; fill: rgb(255,255,255); fill-rule: nonzero; opacity: 1;"  transform=" translate(-169.45, -345.01)" d="M 182.38 332.83 s -3.23 4.37 -10.74 7.71 s -14.8 2.34 -18.91 2.53 s -4.73 -0.74 -6.48 2.55 s -0.19 12.32 0.66 12.9 s 1 -3.59 1 -3.59 s 0.75 4 1.95 4.08 s 1.58 -3.41 1.58 -3.41 s 1.06 2.46 2 2.13 s 0.77 -3 0.77 -3 s 1.18 1.55 1.76 0.7 s -0.81 -6 -0.81 -6 s 5.32 0.87 7.27 0.21 a 6.5 6.5 0 0 0 3 -2.2 a 122.06 122.06 0 0 0 15.57 -0.92 c 5.89 -1 14.05 -7.09 12.16 -10.88 S 185 331 185 331" stroke-linecap="round" />
</g>
		<g transform="matrix(1 0 0 1 -221.48 100.89)" id="freepik--Character--inject-5"  >
<path style="stroke: rgb(38,50,56); stroke-width: 1; stroke-dasharray: none; stroke-linecap: round; stroke-dashoffset: 0; stroke-linejoin: round; stroke-miterlimit: 4; fill: none; fill-rule: nonzero; opacity: 1;"  transform=" translate(-153.52, -350.89)" d="M 154.19 354.78 s -1.93 -5.56 -1.17 -7.78" stroke-linecap="round" />
</g>
		<g transform="matrix(1 0 0 1 -224.13 101.26)" id="freepik--Character--inject-5"  >
<path style="stroke: rgb(38,50,56); stroke-width: 1; stroke-dasharray: none; stroke-linecap: round; stroke-dashoffset: 0; stroke-linejoin: round; stroke-miterlimit: 4; fill: none; fill-rule: nonzero; opacity: 1;"  transform=" translate(-150.87, -351.26)" d="M 151.39 355.6 s -1.31 -5.38 -1 -8.68" stroke-linecap="round" />
</g>
		<g transform="matrix(1 0 0 1 -227.42 101.34)" id="freepik--Character--inject-5"  >
<path style="stroke: rgb(38,50,56); stroke-width: 1; stroke-dasharray: none; stroke-linecap: round; stroke-dashoffset: 0; stroke-linejoin: round; stroke-miterlimit: 4; fill: none; fill-rule: nonzero; opacity: 1;"  transform=" translate(-147.58, -351.34)" d="M 147.86 354.93 s -1 -5.88 -0.32 -7.19" stroke-linecap="round" />
</g>
		<g transform="matrix(1 0 0 1 -189.85 88.71)" id="freepik--Character--inject-5"  >
<path style="stroke: rgb(38,50,56); stroke-width: 1; stroke-dasharray: none; stroke-linecap: round; stroke-dashoffset: 0; stroke-linejoin: round; stroke-miterlimit: 4; fill: rgb(38,50,56); fill-rule: nonzero; opacity: 1;"  transform=" translate(-185.15, -338.71)" d="M 182.38 332.83 a 23.75 23.75 0 0 1 -5.49 4.82 c 2 1.51 4.08 4.15 4.78 8.77 c 5.81 -1.3 13.28 -7.1 11.46 -10.74 S 185 331 185 331" stroke-linecap="round" />
</g>
		<g transform="matrix(1 0 0 1 -247.25 69.84)" id="freepik--Character--inject-5"  >
<path style="stroke: rgb(38,50,56); stroke-width: 1; stroke-dasharray: none; stroke-linecap: round; stroke-dashoffset: 0; stroke-linejoin: round; stroke-miterlimit: 4; fill: rgb(255,255,255); fill-rule: nonzero; opacity: 1;"  transform=" translate(-127.75, -319.84)" d="M 123.36 320.58 a 24.91 24.91 0 0 0 4.33 -1.5 c 2.23 -1 3.77 -3.26 4.45 -2.4 s 0.19 2.42 -1.1 3.52 a 37.48 37.48 0 0 1 -5.06 3 S 121.92 322.4 123.36 320.58 Z" stroke-linecap="round" />
</g>
		<g transform="matrix(1 0 0 1 -262.17 79.67)" id="freepik--Character--inject-5"  >
<path style="stroke: rgb(38,50,56); stroke-width: 1; stroke-dasharray: none; stroke-linecap: round; stroke-dashoffset: 0; stroke-linejoin: round; stroke-miterlimit: 4; fill: rgb(255,255,255); fill-rule: nonzero; opacity: 1;"  transform=" translate(-112.83, -329.67)" d="M 114 329.38 s 5.1 -13.53 7.42 -13.57 s 13.32 1.91 12.8 3 s -1.84 1.43 -3.16 1.38 a 54.27 54.27 0 0 1 -6.24 -1.43 l -1.44 1.81 s 5.08 1.46 5.86 1.83 s 3.79 3.34 3 4.52 s -1.08 0.64 -1.08 0.64 a 3.09 3.09 0 0 1 0 2.1 c -0.45 0.94 -0.92 0.72 -0.92 0.72 h 0 a 1.57 1.57 0 0 1 -2.14 1.32 c -1.14 -0.44 -1.16 -2.61 -2.56 -2.43 c -1.59 0.19 -1.85 -0.09 -1.85 -0.09 a 49.7 49.7 0 0 1 -4.81 4.06 a 8.71 8.71 0 0 1 -4.48 1.33 s -9.36 7.89 -17.29 8.88 c -8.83 1.1 -5.83 -8.4 -1.41 -12.83 S 114 329.38 114 329.38 Z" stroke-linecap="round" />
</g>
		<g transform="matrix(1 0 0 1 -247.55 75.39)" id="freepik--Character--inject-5"  >
<path style="stroke: rgb(38,50,56); stroke-width: 1; stroke-dasharray: none; stroke-linecap: round; stroke-dashoffset: 0; stroke-linejoin: round; stroke-miterlimit: 4; fill: none; fill-rule: nonzero; opacity: 1;"  transform=" translate(-127.45, -325.39)" d="M 131.18 327.57 s -1.68 -2.77 -2.78 -3.29 a 27.89 27.89 0 0 0 -4.68 -1.06" stroke-linecap="round" />
</g>
		<g transform="matrix(1 0 0 1 -248.2 78.23)" id="freepik--Character--inject-5"  >
<path style="stroke: rgb(38,50,56); stroke-width: 1; stroke-dasharray: none; stroke-linecap: round; stroke-dashoffset: 0; stroke-linejoin: round; stroke-miterlimit: 4; fill: none; fill-rule: nonzero; opacity: 1;"  transform=" translate(-126.8, -328.23)" d="M 130.23 330.39 s -2.59 -3.79 -3.4 -3.84 s -3.46 -0.48 -3.46 -0.48" stroke-linecap="round" />
</g>
		<g transform="matrix(1 0 0 1 -277.75 85.92)" id="freepik--Character--inject-5"  >
<path style="stroke: rgb(38,50,56); stroke-width: 1; stroke-dasharray: none; stroke-linecap: round; stroke-dashoffset: 0; stroke-linejoin: round; stroke-miterlimit: 4; fill: rgb(38,50,56); fill-rule: nonzero; opacity: 1;"  transform=" translate(-97.25, -335.92)" d="M 99.25 335.65 a 13.56 13.56 0 0 1 3.84 -7.35 c -3 0.12 -5.81 0.72 -7.4 2.33 c -4.42 4.43 -7.42 13.93 1.41 12.83 a 21 21 0 0 0 5.29 -1.5 C 100.63 340.51 98.94 338.37 99.25 335.65 Z" stroke-linecap="round" />
</g>
		<g transform="matrix(1 0 0 1 -210.79 23.94)" id="freepik--Character--inject-5"  >
<path style="stroke: rgb(255,255,255); stroke-width: 1; stroke-dasharray: none; stroke-linecap: round; stroke-dashoffset: 0; stroke-linejoin: round; stroke-miterlimit: 4; fill: none; fill-rule: nonzero; opacity: 1;"  transform=" translate(-164.21, -273.94)" d="M 166.6 273.38 c 0.69 3 0.17 5.67 -1.15 6 s -3 -1.89 -3.65 -4.89 s -0.17 -5.67 1.16 -6 S 165.91 270.38 166.6 273.38 Z" stroke-linecap="round" />
</g>
		<g transform="matrix(1 0 0 1 -238.1 25.26)" id="freepik--Character--inject-5"  >
<path style="stroke: rgb(255,255,255); stroke-width: 1; stroke-dasharray: none; stroke-linecap: round; stroke-dashoffset: 0; stroke-linejoin: round; stroke-miterlimit: 4; fill: none; fill-rule: nonzero; opacity: 1;"  transform=" translate(-136.9, -275.26)" d="M 139.24 275.29 c 0 2.9 -1.1 5.24 -2.4 5.23 s -2.31 -2.38 -2.28 -5.28 S 135.66 270 137 270 S 139.27 272.39 139.24 275.29 Z" stroke-linecap="round" />
</g>
		<g transform="matrix(1 0 0 1 -224.64 17.82)" id="freepik--Character--inject-5"  >
<path style="stroke: rgb(38,50,56); stroke-width: 1; stroke-dasharray: none; stroke-linecap: round; stroke-dashoffset: 0; stroke-linejoin: round; stroke-miterlimit: 4; fill: rgb(255,255,255); fill-rule: nonzero; opacity: 1;"  transform=" translate(-150.36, -267.82)" d="M 148.47 248.79 s -3 0.71 -3 3 s 0.31 3.08 -1.45 3.79 s -2.7 1.29 -2.43 2.92 s 1 2.12 -1.24 2.5 s -2.07 -1.11 -2.54 1.05 s -0.56 2.81 -1.38 2.95 s 0.19 7.27 2.16 11.52 s 6.58 10.57 9.35 10.94 s 6.33 -3 8.81 -5.87 c 2.23 -2.59 5.53 -10.52 5.53 -10.52 l 0.71 -0.75 s 1.25 0 1.58 -1.73 c 0 0 -0.24 -2.67 -1.59 -3.27 a 6.67 6.67 0 0 1 -2.85 -3.28 c -0.1 -0.61 0.57 -1.55 -0.34 -2 s -2.44 -0.85 -2.88 -2.23 s 1.07 -3.52 -0.72 -4.26 s -2.74 -0.16 -3 -1.58 s 0.54 -3 -0.82 -3.62 S 148.47 248.79 148.47 248.79 Z" stroke-linecap="round" />
</g>
		<g transform="matrix(1 0 0 1 -231.44 17.75)" id="freepik--Character--inject-5"  >
<path style="stroke: none; stroke-width: 1; stroke-dasharray: none; stroke-linecap: butt; stroke-dashoffset: 0; stroke-linejoin: miter; stroke-miterlimit: 4; fill: rgb(38,50,56); fill-rule: nonzero; opacity: 1;"  transform=" translate(-143.56, -267.75)" d="M 144.5 267.59 c 0.21 1.26 0 2.36 -0.56 2.45 s -1.12 -0.87 -1.33 -2.13 s 0 -2.37 0.56 -2.45 S 144.28 266.32 144.5 267.59 Z" stroke-linecap="round" />
</g>
		<g transform="matrix(1 0 0 1 -222.18 17.71)" id="freepik--Character--inject-5"  >
<path style="stroke: none; stroke-width: 1; stroke-dasharray: none; stroke-linecap: butt; stroke-dashoffset: 0; stroke-linejoin: miter; stroke-miterlimit: 4; fill: rgb(38,50,56); fill-rule: nonzero; opacity: 1;"  transform=" translate(-152.82, -267.71)" d="M 153.79 267.72 c 0 1.28 -0.45 2.32 -1 2.31 s -0.95 -1 -0.93 -2.33 s 0.45 -2.32 1 -2.32 S 153.81 266.43 153.79 267.72 Z" stroke-linecap="round" />
</g>
		<g transform="matrix(1 0 0 1 -226.18 27.93)" id="freepik--Character--inject-5"  >
<path style="stroke: rgb(38,50,56); stroke-width: 1; stroke-dasharray: none; stroke-linecap: round; stroke-dashoffset: 0; stroke-linejoin: round; stroke-miterlimit: 4; fill: none; fill-rule: nonzero; opacity: 1;"  transform=" translate(-148.82, -277.93)" d="M 145 277.34 s 2 2.64 7.64 0" stroke-linecap="round" />
</g>
		<g transform="matrix(1 0 0 1 -232.69 13.34)" id="freepik--Character--inject-5"  >
<path style="stroke: rgb(38,50,56); stroke-width: 1; stroke-dasharray: none; stroke-linecap: round; stroke-dashoffset: 0; stroke-linejoin: round; stroke-miterlimit: 4; fill: none; fill-rule: nonzero; opacity: 1;"  transform=" translate(-142.31, -263.34)" d="M 139.21 264.18 s 2.83 -3 6.2 -1" stroke-linecap="round" />
</g>
		<g transform="matrix(1 0 0 1 -221.3 13.49)" id="freepik--Character--inject-5"  >
<path style="stroke: rgb(38,50,56); stroke-width: 1; stroke-dasharray: none; stroke-linecap: round; stroke-dashoffset: 0; stroke-linejoin: round; stroke-miterlimit: 4; fill: none; fill-rule: nonzero; opacity: 1;"  transform=" translate(-153.7, -263.49)" d="M 149.81 263 s 3.73 -2.57 7.78 1.74" stroke-linecap="round" />
</g>
		<g transform="matrix(1 0 0 1 -226.95 22.68)" id="freepik--Character--inject-5"  >
<path style="stroke: rgb(38,50,56); stroke-width: 1; stroke-dasharray: none; stroke-linecap: round; stroke-dashoffset: 0; stroke-linejoin: round; stroke-miterlimit: 4; fill: none; fill-rule: nonzero; opacity: 1;"  transform=" translate(-148.05, -272.68)" d="M 146.08 271.05 a 3.8 3.8 0 0 0 -0.28 1.43 a 2.32 2.32 0 0 0 2.55 1.81 a 2.13 2.13 0 0 0 1.73 -3.05" stroke-linecap="round" />
</g>
		<g transform="matrix(1 0 0 1 -221.37 172.12)" id="freepik--Character--inject-5"  >
<path style="stroke: rgb(38,50,56); stroke-width: 1; stroke-dasharray: none; stroke-linecap: round; stroke-dashoffset: 0; stroke-linejoin: round; stroke-miterlimit: 4; fill: rgb(255,255,255); fill-rule: nonzero; opacity: 1;"  transform=" translate(-153.63, -422.12)" d="M 153.15 361.6 a 9.77 9.77 0 0 0 -4.35 1.79 c -5.86 4.29 -4.35 14 -4.55 20.38 q -0.37 12.11 -0.78 24.19 c -0.39 11.86 -0.57 23.75 -1.33 35.59 c -0.58 9.08 -3.14 23.22 -1.19 32.88 s 7 7.53 9.73 -1.38 s -1 -26.26 -1.34 -30.18 c -0.26 -3.06 13.77 -49.34 17.54 -70.3 C 168.27 366.82 160.24 360.51 153.15 361.6 Z" stroke-linecap="round" />
</g>
		<g transform="matrix(1 0 0 1 -229.09 220.66)" id="freepik--Character--inject-5"  >
<path style="stroke: rgb(38,50,56); stroke-width: 1; stroke-dasharray: none; stroke-linecap: round; stroke-dashoffset: 0; stroke-linejoin: round; stroke-miterlimit: 4; fill: rgb(38,50,56); fill-rule: nonzero; opacity: 1;"  transform=" translate(-145.91, -470.66)" d="M 146 465.31 c -2.58 -0.59 -4.28 -3.77 -5.34 -6.76 c -0.54 6.27 -0.79 12.71 0.25 17.88 c 2 9.65 7 7.53 9.73 -1.38 c 1 -3.36 1.13 -7.92 0.85 -12.51 C 150.17 464.39 148.34 465.83 146 465.31 Z" stroke-linecap="round" />
</g>
		<g transform="matrix(1 0 0 1 -234.86 169.68)" id="freepik--Character--inject-5"  >
<path style="stroke: rgb(38,50,56); stroke-width: 1; stroke-dasharray: none; stroke-linecap: round; stroke-dashoffset: 0; stroke-linejoin: round; stroke-miterlimit: 4; fill: rgb(255,255,255); fill-rule: nonzero; opacity: 1;"  transform=" translate(-140.14, -419.68)" d="M 129.43 360.88 a 9.79 9.79 0 0 1 4.6 0.95 c 6.54 3.14 6.85 12.93 8.23 19.2 q 2.61 11.82 5.23 23.63 c 2.57 11.58 4.94 23.24 7.88 34.73 c 2.25 8.81 7.37 22.24 7.23 32.09 s -5.51 8.7 -9.82 0.44 s -3.83 -26 -4.24 -29.91 c -0.32 -3 -22.65 -45.95 -30.22 -65.85 C 115.52 368.8 122.26 361.12 129.43 360.88 Z" stroke-linecap="round" />
</g>
		<g transform="matrix(1 0 0 1 -218.93 216.18)" id="freepik--Character--inject-5"  >
<path style="stroke: rgb(38,50,56); stroke-width: 1; stroke-dasharray: none; stroke-linecap: round; stroke-dashoffset: 0; stroke-linejoin: round; stroke-miterlimit: 4; fill: rgb(38,50,56); fill-rule: nonzero; opacity: 1;"  transform=" translate(-156.07, -466.18)" d="M 155.55 461.5 c 2.43 -1.06 3.51 -4.5 4 -7.63 c 1.69 6.06 3.12 12.35 3 17.61 c -0.13 9.85 -5.51 8.7 -9.82 0.44 c -1.62 -3.11 -2.57 -7.57 -3.14 -12.13 C 151.32 461.35 153.38 462.44 155.55 461.5 Z" stroke-linecap="round" />
</g>
		<g transform="matrix(1 0 0 1 -233.04 91.8)" id="freepik--Character--inject-5"  >
<rect style="stroke: rgb(38,50,56); stroke-width: 1; stroke-dasharray: none; stroke-linecap: round; stroke-dashoffset: 0; stroke-linejoin: round; stroke-miterlimit: 4; fill: rgb(201,201,201); fill-rule: nonzero; opacity: 1;"  x="-30.78" y="-19.12" rx="0" ry="0" width="61.56" height="38.24" />
</g>
		<g transform="matrix(1 0 0 1 -233.04 111.16)" id="freepik--Character--inject-5"  >
<rect style="stroke: rgb(38,50,56); stroke-width: 1; stroke-dasharray: none; stroke-linecap: round; stroke-dashoffset: 0; stroke-linejoin: round; stroke-miterlimit: 4; fill: rgb(201,201,201); fill-rule: nonzero; opacity: 1;"  x="-30.78" y="-1.105" rx="0" ry="0" width="61.56" height="2.21" />
</g>
</g>
</g>
</svg>