<?xml version="1.0" encoding="UTF-8" standalone="no" ?>
<!DOCTYPE svg PUBLIC "-//W3C//DTD SVG 1.1//EN" "http://www.w3.org/Graphics/SVG/1.1/DTD/svg11.dtd">
<svg xmlns="http://www.w3.org/2000/svg" xmlns:xlink="http://www.w3.org/1999/xlink" version="1.1" width="640" height="480" viewBox="0 0 640 480" xml:space="preserve">
<desc>Created with Fabric.js 3.6.6</desc>
<defs>
</defs>
<g transform="matrix(5.46 0 0 5.46 312.4 238.4)"  >
<circle style="stroke: rgb(23,148,172); stroke-width: 4; stroke-dasharray: none; stroke-linecap: butt; stroke-dashoffset: 0; stroke-linejoin: miter; stroke-miterlimit: 4; fill: rgb(23,148,172); fill-opacity: 0; fill-rule: nonzero; opacity: 1;" vector-effect="non-scaling-stroke"  cx="0" cy="0" r="40" />
</g>
<g transform="matrix(5.46 0 0 5.46 328.4 242.4)"  >
<circle style="stroke: rgb(161,212,226); stroke-width: 4; stroke-dasharray: none; stroke-linecap: butt; stroke-dashoffset: 0; stroke-linejoin: miter; stroke-miterlimit: 4; fill: rgb(23,148,172); fill-opacity: 0; fill-rule: nonzero; opacity: 1;" vector-effect="non-scaling-stroke"  cx="0" cy="0" r="40" />
</g>
<g transform="matrix(0.8 0 0 0.8 322.83 235.33)"  >
<g style=""   >
		<g transform="matrix(1 0 0 1 -4.02 3.11)" id="freepik--background-simple--inject-1--inject-3"  >
<path style="stroke: none; stroke-width: 1; stroke-dasharray: none; stroke-linecap: butt; stroke-dashoffset: 0; stroke-linejoin: miter; stroke-miterlimit: 4; fill: rgb(23,148,172); fill-rule: nonzero; opacity: 1;"  transform=" translate(-245.98, -253.11)" d="M 441.4 270.76 c 2 -26.75 -4.24 -54.7 -12.64 -79.6 c -12.47 -37 -36.67 -74.94 -77.44 -83.69 c -23.51 -5 -47.43 0.36 -67.58 13 c -19.39 12.17 -34.5 27.88 -58.33 30.93 c -24.1 3.08 -48.83 1.84 -73.06 1.84 c -62.29 0 -112.85 65 -100.21 132.71 s 72.22 114.65 122.78 114.65 c 45.43 0 82.8 -27.07 126 -34.34 c 21.4 -3.6 42.88 0.66 64.06 -4.74 c 24.61 -6.28 47.75 -21.26 61.39 -42.95 C 435.61 303.8 440.13 287.51 441.4 270.76 Z" stroke-linecap="round" />
</g>
		<g transform="matrix(1 0 0 1 -4.02 3.11)" id="freepik--background-simple--inject-1--inject-3"  >
<path style="stroke: none; stroke-width: 1; stroke-dasharray: none; stroke-linecap: butt; stroke-dashoffset: 0; stroke-linejoin: miter; stroke-miterlimit: 4; fill: rgb(255,255,255); fill-rule: nonzero; opacity: 0.7000000000000001;"  transform=" translate(-245.98, -253.11)" d="M 441.4 270.76 c 2 -26.75 -4.24 -54.7 -12.64 -79.6 c -12.47 -37 -36.67 -74.94 -77.44 -83.69 c -23.51 -5 -47.43 0.36 -67.58 13 c -19.39 12.17 -34.5 27.88 -58.33 30.93 c -24.1 3.08 -48.83 1.84 -73.06 1.84 c -62.29 0 -112.85 65 -100.21 132.71 s 72.22 114.65 122.78 114.65 c 45.43 0 82.8 -27.07 126 -34.34 c 21.4 -3.6 42.88 0.66 64.06 -4.74 c 24.61 -6.28 47.75 -21.26 61.39 -42.95 C 435.61 303.8 440.13 287.51 441.4 270.76 Z" stroke-linecap="round" />
</g>
		<g transform="matrix(1 0 0 1 -3.31 167.76)" id="freepik--Shadow--inject-1--inject-3"  >
<ellipse style="stroke: none; stroke-width: 1; stroke-dasharray: none; stroke-linecap: butt; stroke-dashoffset: 0; stroke-linejoin: miter; stroke-miterlimit: 4; fill: rgb(46,53,58); fill-rule: nonzero; opacity: 1;"  cx="0" cy="0" rx="194.55" ry="5.42" />
</g>
		<g transform="matrix(1 0 0 1 86.25 0.63)" id="freepik--Crane--inject-1--inject-3"  >
<polygon style="stroke: rgb(46,53,58); stroke-width: 1; stroke-dasharray: none; stroke-linecap: round; stroke-dashoffset: 0; stroke-linejoin: round; stroke-miterlimit: 4; fill: none; fill-rule: nonzero; opacity: 1;"  points="9,162.19 -9,162.19 -9,-162.19 9,-141.26 9,162.19 " />
</g>
		<g transform="matrix(1 0 0 1 86.25 77.91)" id="freepik--Crane--inject-1--inject-3"  >
<polygon style="stroke: rgb(46,53,58); stroke-width: 1; stroke-dasharray: none; stroke-linecap: round; stroke-dashoffset: 0; stroke-linejoin: round; stroke-miterlimit: 4; fill: none; fill-rule: nonzero; opacity: 1;"  points="-8.83,8.54 8.83,8.54 -8.83,-8.53 8.83,-8.53 -8.83,8.54 " />
</g>
		<g transform="matrix(1 0 0 1 86.25 60.41)" id="freepik--Crane--inject-1--inject-3"  >
<polygon style="stroke: rgb(46,53,58); stroke-width: 1; stroke-dasharray: none; stroke-linecap: round; stroke-dashoffset: 0; stroke-linejoin: round; stroke-miterlimit: 4; fill: none; fill-rule: nonzero; opacity: 1;"  points="-8.83,8.54 8.83,8.54 -8.83,-8.53 8.83,-8.53 -8.83,8.54 " />
</g>
		<g transform="matrix(1 0 0 1 86.25 112.76)" id="freepik--Crane--inject-1--inject-3"  >
<polygon style="stroke: rgb(46,53,58); stroke-width: 1; stroke-dasharray: none; stroke-linecap: round; stroke-dashoffset: 0; stroke-linejoin: round; stroke-miterlimit: 4; fill: none; fill-rule: nonzero; opacity: 1;"  points="-8.83,8.54 8.83,8.54 -8.83,-8.53 8.83,-8.53 -8.83,8.54 " />
</g>
		<g transform="matrix(1 0 0 1 86.25 95.26)" id="freepik--Crane--inject-1--inject-3"  >
<polygon style="stroke: rgb(46,53,58); stroke-width: 1; stroke-dasharray: none; stroke-linecap: round; stroke-dashoffset: 0; stroke-linejoin: round; stroke-miterlimit: 4; fill: none; fill-rule: nonzero; opacity: 1;"  points="-8.83,8.54 8.83,8.54 -8.83,-8.53 8.83,-8.53 -8.83,8.54 " />
</g>
		<g transform="matrix(1 0 0 1 86.25 42.91)" id="freepik--Crane--inject-1--inject-3"  >
<polygon style="stroke: rgb(46,53,58); stroke-width: 1; stroke-dasharray: none; stroke-linecap: round; stroke-dashoffset: 0; stroke-linejoin: round; stroke-miterlimit: 4; fill: none; fill-rule: nonzero; opacity: 1;"  points="-8.83,8.54 8.83,8.54 -8.83,-8.53 8.83,-8.53 -8.83,8.54 " />
</g>
		<g transform="matrix(1 0 0 1 86.25 25.41)" id="freepik--Crane--inject-1--inject-3"  >
<polygon style="stroke: rgb(46,53,58); stroke-width: 1; stroke-dasharray: none; stroke-linecap: round; stroke-dashoffset: 0; stroke-linejoin: round; stroke-miterlimit: 4; fill: none; fill-rule: nonzero; opacity: 1;"  points="-8.83,8.54 8.83,8.54 -8.83,-8.53 8.83,-8.53 -8.83,8.54 " />
</g>
		<g transform="matrix(1 0 0 1 86.25 7.9)" id="freepik--Crane--inject-1--inject-3"  >
<polygon style="stroke: rgb(46,53,58); stroke-width: 1; stroke-dasharray: none; stroke-linecap: round; stroke-dashoffset: 0; stroke-linejoin: round; stroke-miterlimit: 4; fill: none; fill-rule: nonzero; opacity: 1;"  points="-8.83,8.54 8.83,8.54 -8.83,-8.53 8.83,-8.53 -8.83,8.54 " />
</g>
		<g transform="matrix(1 0 0 1 86.25 -9.59)" id="freepik--Crane--inject-1--inject-3"  >
<polygon style="stroke: rgb(46,53,58); stroke-width: 1; stroke-dasharray: none; stroke-linecap: round; stroke-dashoffset: 0; stroke-linejoin: round; stroke-miterlimit: 4; fill: none; fill-rule: nonzero; opacity: 1;"  points="-8.83,8.53 8.83,8.53 -8.83,-8.53 8.83,-8.53 -8.83,8.53 " />
</g>
		<g transform="matrix(1 0 0 1 86.25 -27.09)" id="freepik--Crane--inject-1--inject-3"  >
<polygon style="stroke: rgb(46,53,58); stroke-width: 1; stroke-dasharray: none; stroke-linecap: round; stroke-dashoffset: 0; stroke-linejoin: round; stroke-miterlimit: 4; fill: none; fill-rule: nonzero; opacity: 1;"  points="-8.83,8.53 8.83,8.53 -8.83,-8.53 8.83,-8.53 -8.83,8.53 " />
</g>
		<g transform="matrix(1 0 0 1 86.25 -44.59)" id="freepik--Crane--inject-1--inject-3"  >
<polygon style="stroke: rgb(46,53,58); stroke-width: 1; stroke-dasharray: none; stroke-linecap: round; stroke-dashoffset: 0; stroke-linejoin: round; stroke-miterlimit: 4; fill: none; fill-rule: nonzero; opacity: 1;"  points="-8.83,8.53 8.83,8.53 -8.83,-8.53 8.83,-8.53 -8.83,8.53 " />
</g>
		<g transform="matrix(1 0 0 1 86.25 -62.09)" id="freepik--Crane--inject-1--inject-3"  >
<polygon style="stroke: rgb(46,53,58); stroke-width: 1; stroke-dasharray: none; stroke-linecap: round; stroke-dashoffset: 0; stroke-linejoin: round; stroke-miterlimit: 4; fill: none; fill-rule: nonzero; opacity: 1;"  points="-8.83,8.53 8.83,8.53 -8.83,-8.53 8.83,-8.53 -8.83,8.53 " />
</g>
		<g transform="matrix(1 0 0 1 86.25 -79.59)" id="freepik--Crane--inject-1--inject-3"  >
<polygon style="stroke: rgb(46,53,58); stroke-width: 1; stroke-dasharray: none; stroke-linecap: round; stroke-dashoffset: 0; stroke-linejoin: round; stroke-miterlimit: 4; fill: none; fill-rule: nonzero; opacity: 1;"  points="-8.83,8.53 8.83,8.53 -8.83,-8.53 8.83,-8.53 -8.83,8.53 " />
</g>
		<g transform="matrix(1 0 0 1 86.25 -97.09)" id="freepik--Crane--inject-1--inject-3"  >
<polygon style="stroke: rgb(46,53,58); stroke-width: 1; stroke-dasharray: none; stroke-linecap: round; stroke-dashoffset: 0; stroke-linejoin: round; stroke-miterlimit: 4; fill: none; fill-rule: nonzero; opacity: 1;"  points="-8.83,8.53 8.83,8.53 -8.83,-8.53 8.83,-8.53 -8.83,8.53 " />
</g>
		<g transform="matrix(1 0 0 1 86.25 -114.59)" id="freepik--Crane--inject-1--inject-3"  >
<polygon style="stroke: rgb(46,53,58); stroke-width: 1; stroke-dasharray: none; stroke-linecap: round; stroke-dashoffset: 0; stroke-linejoin: round; stroke-miterlimit: 4; fill: none; fill-rule: nonzero; opacity: 1;"  points="-8.83,8.53 8.83,8.53 -8.83,-8.53 8.83,-8.53 -8.83,8.53 " />
</g>
		<g transform="matrix(1 0 0 1 86.25 -132.09)" id="freepik--Crane--inject-1--inject-3"  >
<polygon style="stroke: rgb(46,53,58); stroke-width: 1; stroke-dasharray: none; stroke-linecap: round; stroke-dashoffset: 0; stroke-linejoin: round; stroke-miterlimit: 4; fill: none; fill-rule: nonzero; opacity: 1;"  points="-8.83,8.53 8.83,8.53 -8.83,-8.53 8.83,-8.53 -8.83,8.53 " />
</g>
		<g transform="matrix(1 0 0 1 139.54 -125.84)" id="freepik--Crane--inject-1--inject-3"  >
<polygon style="stroke: rgb(46,53,58); stroke-width: 1; stroke-dasharray: none; stroke-linecap: round; stroke-dashoffset: 0; stroke-linejoin: round; stroke-miterlimit: 4; fill: none; fill-rule: nonzero; opacity: 1;"  points="39.27,2.75 30.55,-2.74 -31.67,-2.74 -39.27,2.75 39.27,2.75 " />
</g>
		<g transform="matrix(1 0 0 1 104.25 -121.56)" id="freepik--Crane--inject-1--inject-3"  >
<rect style="stroke: rgb(46,53,58); stroke-width: 1; stroke-dasharray: none; stroke-linecap: round; stroke-dashoffset: 0; stroke-linejoin: round; stroke-miterlimit: 4; fill: rgb(46,53,58); fill-rule: nonzero; opacity: 1;"  x="-76" y="-2" rx="0" ry="0" width="152" height="4" />
</g>
		<g transform="matrix(1 0 0 1 123.67 -145.07)" id="freepik--Crane--inject-1--inject-3"  >
<polyline style="stroke: rgb(46,53,58); stroke-width: 1; stroke-dasharray: none; stroke-linecap: round; stroke-dashoffset: 0; stroke-linejoin: round; stroke-miterlimit: 4; fill: none; fill-rule: nonzero; opacity: 1;"  points="46.42,16.49 -46.42,-16.49 -15.8,16.49 " />
</g>
		<g transform="matrix(1 0 0 1 52.75 -142.56)" id="freepik--Crane--inject-1--inject-3"  >
<line style="stroke: rgb(46,53,58); stroke-width: 1; stroke-dasharray: none; stroke-linecap: round; stroke-dashoffset: 0; stroke-linejoin: round; stroke-miterlimit: 4; fill: none; fill-rule: nonzero; opacity: 1;"  x1="24.5" y1="-19" x2="-24.5" y2="19" />
</g>
		<g transform="matrix(1 0 0 1 89.5 -103.06)" id="freepik--Crane--inject-1--inject-3"  >
<rect style="stroke: rgb(46,53,58); stroke-width: 1; stroke-dasharray: none; stroke-linecap: round; stroke-dashoffset: 0; stroke-linejoin: round; stroke-miterlimit: 4; fill: rgb(46,53,58); fill-rule: nonzero; opacity: 1;"  x="-18.75" y="-12" rx="0" ry="0" width="37.5" height="24" />
</g>
		<g transform="matrix(1 0 0 1 89.5 151.3)" id="freepik--Crane--inject-1--inject-3"  >
<rect style="stroke: rgb(46,53,58); stroke-width: 1; stroke-dasharray: none; stroke-linecap: round; stroke-dashoffset: 0; stroke-linejoin: round; stroke-miterlimit: 4; fill: rgb(46,53,58); fill-rule: nonzero; opacity: 1;"  x="-18.75" y="-12" rx="0" ry="0" width="37.5" height="24" />
</g>
		<g transform="matrix(1 0 0 1 89.5 -106.56)" id="freepik--Crane--inject-1--inject-3"  >
<rect style="stroke: rgb(46,53,58); stroke-width: 1; stroke-dasharray: none; stroke-linecap: round; stroke-dashoffset: 0; stroke-linejoin: round; stroke-miterlimit: 4; fill: rgb(255,255,255); fill-rule: nonzero; opacity: 1;"  x="-10.935" y="-3.5" rx="0" ry="0" width="21.87" height="7" />
</g>
		<g transform="matrix(1 0 0 1 180.25 -98)" id="freepik--Crane--inject-1--inject-3"  >
<line style="stroke: rgb(46,53,58); stroke-width: 1; stroke-dasharray: none; stroke-linecap: round; stroke-dashoffset: 0; stroke-linejoin: round; stroke-miterlimit: 4; fill: rgb(255,255,255); fill-rule: nonzero; opacity: 1;"  x1="0" y1="-21.560000000000002" x2="0" y2="21.560000000000002" />
</g>
		<g transform="matrix(1 0 0 1 180.41 -55.42)" id="freepik--Crane--inject-1--inject-3"  >
<rect style="stroke: rgb(46,53,58); stroke-width: 1; stroke-dasharray: none; stroke-linecap: round; stroke-dashoffset: 0; stroke-linejoin: round; stroke-miterlimit: 4; fill: rgb(46,53,58); fill-rule: nonzero; opacity: 1;"  x="-5.555" y="-6.295" rx="0" ry="0" width="11.11" height="12.59" />
</g>
		<g transform="matrix(1 0 0 1 180.41 -69.49)" id="freepik--Crane--inject-1--inject-3"  >
<polyline style="stroke: rgb(46,53,58); stroke-width: 1; stroke-dasharray: none; stroke-linecap: round; stroke-dashoffset: 0; stroke-linejoin: round; stroke-miterlimit: 4; fill: none; fill-rule: nonzero; opacity: 1;"  points="-5.55,7.77 0,-7.77 5.56,7.77 " />
</g>
		<g transform="matrix(1 0 0 1 -0.62 136.94)" id="freepik--Device--inject-1--inject-3"  >
<path style="stroke: rgb(46,53,58); stroke-width: 1.0954300000000001; stroke-dasharray: none; stroke-linecap: round; stroke-dashoffset: 0; stroke-linejoin: round; stroke-miterlimit: 4; fill: rgb(255,255,255); fill-rule: nonzero; opacity: 1;"  transform=" translate(-249.38, -386.94)" d="M 282.17 386.24 V 364 H 216.62 v 22.26 a 32.21 32.21 0 0 1 -7 20 l -2.87 3.62 H 292 l -2.88 -3.62 A 32.26 32.26 0 0 1 282.17 386.24 Z" stroke-linecap="round" />
</g>
		<g transform="matrix(1 0 0 1 -0.61 132.91)" id="freepik--Device--inject-1--inject-3"  >
<path style="stroke: none; stroke-width: 1; stroke-dasharray: none; stroke-linecap: butt; stroke-dashoffset: 0; stroke-linejoin: miter; stroke-miterlimit: 4; fill: rgb(23,148,172); fill-rule: nonzero; opacity: 1;"  transform=" translate(-249.39, -382.91)" d="M 212.59 401.83 H 286.2 a 32.18 32.18 0 0 1 -4 -15.59 V 364 H 216.62 v 22.26 A 32.18 32.18 0 0 1 212.59 401.83 Z" stroke-linecap="round" />
</g>
		<g transform="matrix(1 0 0 1 -0.6 122.03)" id="freepik--Device--inject-1--inject-3"  >
<rect style="stroke: rgb(46,53,58); stroke-width: 1.0954300000000001; stroke-dasharray: none; stroke-linecap: round; stroke-dashoffset: 0; stroke-linejoin: round; stroke-miterlimit: 4; fill: rgb(46,53,58); fill-rule: nonzero; opacity: 1;"  x="-32.775" y="-4.7" rx="0" ry="0" width="65.55" height="9.4" />
</g>
		<g transform="matrix(1 0 0 1 -0.6 22.2)" id="freepik--Device--inject-1--inject-3"  >
<rect style="stroke: rgb(46,53,58); stroke-width: 1.0954300000000001; stroke-dasharray: none; stroke-linecap: round; stroke-dashoffset: 0; stroke-linejoin: round; stroke-miterlimit: 4; fill: rgb(46,53,58); fill-rule: nonzero; opacity: 1;"  x="-131.735" y="-98.8" rx="9.29" ry="9.29" width="263.47" height="197.6" />
</g>
		<g transform="matrix(1 0 0 1 -0.6 105.65)" id="freepik--Device--inject-1--inject-3"  >
<path style="stroke: rgb(46,53,58); stroke-width: 1.0954300000000001; stroke-dasharray: none; stroke-linecap: round; stroke-dashoffset: 0; stroke-linejoin: round; stroke-miterlimit: 4; fill: rgb(255,255,255); fill-rule: nonzero; opacity: 1;"  transform=" translate(-249.4, -355.65)" d="M 117.66 340.29 H 381.13 a 0 0 0 0 1 0 0 v 21.42 a 9.29 9.29 0 0 1 -9.29 9.29 H 127 a 9.29 9.29 0 0 1 -9.29 -9.29 V 340.29 a 0 0 0 0 1 0 0 Z" stroke-linecap="round" />
</g>
		<g transform="matrix(1 0 0 1 -0.61 5.5)" id="freepik--Device--inject-1--inject-3"  >
<rect style="stroke: rgb(46,53,58); stroke-width: 1.0954300000000001; stroke-dasharray: none; stroke-linecap: round; stroke-dashoffset: 0; stroke-linejoin: round; stroke-miterlimit: 4; fill: rgb(23,148,172); fill-rule: nonzero; opacity: 1;"  x="-118.48" y="-69.8" rx="0" ry="0" width="236.96" height="139.6" />
</g>
		<g transform="matrix(1 0 0 1 -0.61 105.64)" id="freepik--Device--inject-1--inject-3"  >
<path style="stroke: rgb(46,53,58); stroke-width: 1.0954300000000001; stroke-dasharray: none; stroke-linecap: round; stroke-dashoffset: 0; stroke-linejoin: round; stroke-miterlimit: 4; fill: rgb(46,53,58); fill-rule: nonzero; opacity: 1;"  transform=" translate(-249.39, -355.64)" d="M 254.25 355.65 a 4.86 4.86 0 1 0 -4.86 4.85 A 4.85 4.85 0 0 0 254.25 355.65 Z" stroke-linecap="round" />
</g>
		<g transform="matrix(1 0 0 1 -0.6 161.86)" id="freepik--Device--inject-1--inject-3"  >
<rect style="stroke: rgb(46,53,58); stroke-width: 1.0954300000000001; stroke-dasharray: none; stroke-linecap: round; stroke-dashoffset: 0; stroke-linejoin: round; stroke-miterlimit: 4; fill: rgb(255,255,255); fill-rule: nonzero; opacity: 1;"  x="-42.62" y="-1.985" rx="0" ry="0" width="85.24" height="3.97" />
</g>
		<g transform="matrix(1 0 0 1 4.02 6)" id="freepik--Tools--inject-1--inject-3"  >
<path style="stroke: rgb(46,53,58); stroke-width: 1.0954300000000001; stroke-dasharray: none; stroke-linecap: round; stroke-dashoffset: 0; stroke-linejoin: round; stroke-miterlimit: 4; fill: rgb(46,53,58); fill-rule: nonzero; opacity: 1;"  transform=" translate(-254.02, -256)" d="M 326.51 220.68 A 23.72 23.72 0 0 0 333 199.36 l -14.87 14.87 a 4.51 4.51 0 0 1 -6.36 0 l -12.36 -12.36 a 4.5 4.5 0 0 1 0 -6.37 l 14.86 -14.86 a 23.71 23.71 0 0 0 -26.64 31.87 L 249.26 250 l -3.7 -3.71 l 6 -6 a 1.67 1.67 0 0 0 0 -2.34 l -4.68 -4.68 a 1.65 1.65 0 0 0 -2.33 0 l -2.34 2.34 l -5.07 -5.06 l 1.95 -1.95 a 2.21 2.21 0 0 0 0 -3.12 l -41.87 -41.87 a 10.74 10.74 0 0 0 -15.2 0 l -4.28 4.28 a 10.73 10.73 0 0 0 0 15.19 l 41.87 41.88 a 2.21 2.21 0 0 0 3.12 0 l 1.95 -1.95 l 5.06 5.07 l -2.33 2.33 a 1.65 1.65 0 0 0 0 2.34 l 4.67 4.68 a 1.67 1.67 0 0 0 2.34 0 l 6 -6 l 3.64 3.64 l -31.82 31 a 23.72 23.72 0 0 0 -31.88 26.64 l 14.87 -14.86 a 4.5 4.5 0 0 1 6.37 0 L 214 310.13 a 4.5 4.5 0 0 1 0 6.37 l -14.86 14.86 a 23.72 23.72 0 0 0 26.65 -31.87 l 31.82 -31 L 301 311.83 a 8.89 8.89 0 0 0 2 9.5 l 10.47 10.47 l 12.56 -12.57 l -10.47 -10.46 a 8.89 8.89 0 0 0 -9.5 -2 l -43.32 -43.32 L 301.15 226 A 23.72 23.72 0 0 0 326.51 220.68 Z" stroke-linecap="round" />
</g>
		<g transform="matrix(1 0 0 1 4.08 0.64)" id="freepik--Tools--inject-1--inject-3"  >
<path style="stroke: rgb(46,53,58); stroke-width: 1; stroke-dasharray: none; stroke-linecap: butt; stroke-dashoffset: 0; stroke-linejoin: miter; stroke-miterlimit: 10; fill: rgb(255,255,255); fill-rule: nonzero; opacity: 1;"  transform=" translate(-254.08, -250.64)" d="M 223.15 294.16 l 75.33 -73.49 A 23.71 23.71 0 0 0 330.35 194 l -14.86 14.86 a 4.5 4.5 0 0 1 -6.37 0 l -12.36 -12.36 a 4.49 4.49 0 0 1 0 -6.36 l 14.86 -14.87 A 23.71 23.71 0 0 0 285 207.17 l -75.33 73.49 a 23.71 23.71 0 0 0 -31.87 26.64 l 14.86 -14.86 a 4.5 4.5 0 0 1 6.37 0 l 12.36 12.36 a 4.49 4.49 0 0 1 0 6.36 L 196.5 326 a 23.72 23.72 0 0 0 26.65 -31.87 Z" stroke-linecap="round" />
</g>
		<g transform="matrix(1 0 0 1 3.4 1.33)" id="freepik--Tools--inject-1--inject-3"  >
<path style="stroke: rgb(46,53,58); stroke-width: 1; stroke-dasharray: none; stroke-linecap: butt; stroke-dashoffset: 0; stroke-linejoin: miter; stroke-miterlimit: 10; fill: rgb(255,255,255); fill-rule: nonzero; opacity: 1;"  transform=" translate(-253.4, -251.33)" d="M 217.35 286.45 h 0 a 3.08 3.08 0 0 1 0 -4.35 l 67.73 -65.89 a 3.09 3.09 0 0 1 4.36 0 h 0 a 3.09 3.09 0 0 1 0 4.36 l -67.73 65.88 A 3.09 3.09 0 0 1 217.35 286.45 Z" stroke-linecap="round" />
</g>
		<g transform="matrix(0.71 -0.71 0.71 0.71 21.43 24.51)" id="freepik--Tools--inject-1--inject-3"  >
<rect style="stroke: rgb(46,53,58); stroke-width: 1; stroke-dasharray: none; stroke-linecap: butt; stroke-dashoffset: 0; stroke-linejoin: miter; stroke-miterlimit: 10; fill: rgb(255,255,255); fill-rule: nonzero; opacity: 1;"  x="-3.58" y="-51.655" rx="0" ry="0" width="7.16" height="103.31" />
</g>
		<g transform="matrix(1 0 0 1 60.56 63.64)" id="freepik--Tools--inject-1--inject-3"  >
<path style="stroke: rgb(46,53,58); stroke-width: 1; stroke-dasharray: none; stroke-linecap: butt; stroke-dashoffset: 0; stroke-linejoin: miter; stroke-miterlimit: 10; fill: rgb(255,255,255); fill-rule: nonzero; opacity: 1;"  transform=" translate(-310.56, -313.64)" d="M 323.38 313.9 l -12.56 12.56 L 300.35 316 a 8.89 8.89 0 0 1 0 -12.57 h 0 a 8.88 8.88 0 0 1 12.56 0 Z" stroke-linecap="round" />
</g>
		<g transform="matrix(0.71 -0.71 0.71 0.71 -20.55 -17.47)" id="freepik--Tools--inject-1--inject-3"  >
<rect style="stroke: rgb(46,53,58); stroke-width: 1; stroke-dasharray: none; stroke-linecap: butt; stroke-dashoffset: 0; stroke-linejoin: miter; stroke-miterlimit: 10; fill: rgb(255,255,255); fill-rule: nonzero; opacity: 1;"  x="-8.815" y="-7.16" rx="0" ry="0" width="17.63" height="14.32" />
</g>
		<g transform="matrix(0.71 -0.71 0.71 0.71 -47.23 -44.15)" id="freepik--Tools--inject-1--inject-3"  >
<path style="stroke: rgb(46,53,58); stroke-width: 1; stroke-dasharray: none; stroke-linecap: butt; stroke-dashoffset: 0; stroke-linejoin: miter; stroke-miterlimit: 10; fill: rgb(255,255,255); fill-rule: nonzero; opacity: 1;"  transform=" translate(-202.77, -205.85)" d="M 199.74 169.77 h 6.06 a 10.74 10.74 0 0 1 10.74 10.74 v 59.22 a 2.2 2.2 0 0 1 -2.2 2.2 H 191.2 a 2.2 2.2 0 0 1 -2.2 -2.2 V 180.51 A 10.74 10.74 0 0 1 199.74 169.77 Z" stroke-linecap="round" />
</g>
		<g transform="matrix(0.71 -0.71 0.71 0.71 -13.15 -10.06)" id="freepik--Tools--inject-1--inject-3"  >
<rect style="stroke: rgb(46,53,58); stroke-width: 1; stroke-dasharray: none; stroke-linecap: butt; stroke-dashoffset: 0; stroke-linejoin: miter; stroke-miterlimit: 10; fill: rgb(255,255,255); fill-rule: nonzero; opacity: 1;"  x="-13.77" y="-4.96" rx="1.65" ry="1.65" width="27.54" height="9.92" />
</g>
		<g transform="matrix(1 0 0 1 -50.2 -35.87)" id="freepik--Tools--inject-1--inject-3"  >
<path style="stroke: rgb(46,53,58); stroke-width: 1; stroke-dasharray: none; stroke-linecap: butt; stroke-dashoffset: 0; stroke-linejoin: miter; stroke-miterlimit: 10; fill: rgb(255,255,255); fill-rule: nonzero; opacity: 1;"  transform=" translate(-199.8, -214.13)" d="M 222.44 233.32 L 219 236.77 l -41.12 -41.12 a 2.44 2.44 0 0 1 0 -3.45 h 0 a 2.43 2.43 0 0 1 3.45 0 Z" stroke-linecap="round" />
</g>
		<g transform="matrix(1 0 0 1 -44.34 -41.74)" id="freepik--Tools--inject-1--inject-3"  >
<path style="stroke: rgb(46,53,58); stroke-width: 1; stroke-dasharray: none; stroke-linecap: butt; stroke-dashoffset: 0; stroke-linejoin: miter; stroke-miterlimit: 10; fill: rgb(255,255,255); fill-rule: nonzero; opacity: 1;"  transform=" translate(-205.66, -208.26)" d="M 228.31 227.45 l -3.46 3.45 l -41.12 -41.12 a 2.44 2.44 0 0 1 0 -3.45 h 0 a 2.43 2.43 0 0 1 3.45 0 Z" stroke-linecap="round" />
</g>
		<g transform="matrix(1 0 0 1 -38.47 -47.63)" id="freepik--Tools--inject-1--inject-3"  >
<path style="stroke: rgb(46,53,58); stroke-width: 1; stroke-dasharray: none; stroke-linecap: butt; stroke-dashoffset: 0; stroke-linejoin: miter; stroke-miterlimit: 10; fill: rgb(255,255,255); fill-rule: nonzero; opacity: 1;"  transform=" translate(-211.53, -202.37)" d="M 234.18 221.58 L 230.72 225 L 189.6 183.91 a 2.44 2.44 0 0 1 0 -3.45 h 0 a 2.43 2.43 0 0 1 3.45 0 Z" stroke-linecap="round" />
</g>
		<g transform="matrix(1 0 0 1 109.39 76.74)" id="freepik--Ladders--inject-1--inject-3"  >
<polygon style="stroke: rgb(46,53,58); stroke-width: 1; stroke-dasharray: none; stroke-linecap: butt; stroke-dashoffset: 0; stroke-linejoin: miter; stroke-miterlimit: 10; fill: rgb(255,255,255); fill-rule: nonzero; opacity: 1;"  points="12.43,88.33 9.1,88.33 -12.43,-88.33 -9.09,-88.33 12.43,88.33 " />
</g>
		<g transform="matrix(1 0 0 1 135.39 76.74)" id="freepik--Ladders--inject-1--inject-3"  >
<polygon style="stroke: rgb(46,53,58); stroke-width: 1; stroke-dasharray: none; stroke-linecap: butt; stroke-dashoffset: 0; stroke-linejoin: miter; stroke-miterlimit: 10; fill: rgb(255,255,255); fill-rule: nonzero; opacity: 1;"  points="12.43,88.33 9.1,88.33 -12.43,-88.33 -9.09,-88.33 12.43,88.33 " />
</g>
		<g transform="matrix(1 0 0 1 113.18 0.32)" id="freepik--Ladders--inject-1--inject-3"  >
<polygon style="stroke: rgb(46,53,58); stroke-width: 1; stroke-dasharray: none; stroke-linecap: butt; stroke-dashoffset: 0; stroke-linejoin: miter; stroke-miterlimit: 10; fill: rgb(255,255,255); fill-rule: nonzero; opacity: 1;"  points="13.33,2.73 -12.66,2.73 -13.33,-2.72 12.67,-2.72 13.33,2.73 " />
</g>
		<g transform="matrix(1 0 0 1 115.63 20.45)" id="freepik--Ladders--inject-1--inject-3"  >
<polygon style="stroke: rgb(46,53,58); stroke-width: 1; stroke-dasharray: none; stroke-linecap: butt; stroke-dashoffset: 0; stroke-linejoin: miter; stroke-miterlimit: 10; fill: rgb(255,255,255); fill-rule: nonzero; opacity: 1;"  points="13.32,2.72 -12.66,2.72 -13.32,-2.73 12.67,-2.73 13.32,2.72 " />
</g>
		<g transform="matrix(1 0 0 1 118.09 40.56)" id="freepik--Ladders--inject-1--inject-3"  >
<polygon style="stroke: rgb(46,53,58); stroke-width: 1; stroke-dasharray: none; stroke-linecap: butt; stroke-dashoffset: 0; stroke-linejoin: miter; stroke-miterlimit: 10; fill: rgb(255,255,255); fill-rule: nonzero; opacity: 1;"  points="13.33,2.73 -12.67,2.73 -13.33,-2.73 12.66,-2.73 13.33,2.73 " />
</g>
		<g transform="matrix(1 0 0 1 120.54 60.7)" id="freepik--Ladders--inject-1--inject-3"  >
<polygon style="stroke: rgb(46,53,58); stroke-width: 1; stroke-dasharray: none; stroke-linecap: butt; stroke-dashoffset: 0; stroke-linejoin: miter; stroke-miterlimit: 10; fill: rgb(255,255,255); fill-rule: nonzero; opacity: 1;"  points="13.33,2.72 -12.66,2.72 -13.33,-2.73 12.66,-2.73 13.33,2.72 " />
</g>
		<g transform="matrix(1 0 0 1 122.99 80.81)" id="freepik--Ladders--inject-1--inject-3"  >
<polygon style="stroke: rgb(46,53,58); stroke-width: 1; stroke-dasharray: none; stroke-linecap: butt; stroke-dashoffset: 0; stroke-linejoin: miter; stroke-miterlimit: 10; fill: rgb(255,255,255); fill-rule: nonzero; opacity: 1;"  points="13.33,2.73 -12.66,2.73 -13.33,-2.73 12.66,-2.73 13.33,2.73 " />
</g>
		<g transform="matrix(1 0 0 1 125.44 100.94)" id="freepik--Ladders--inject-1--inject-3"  >
<polygon style="stroke: rgb(46,53,58); stroke-width: 1; stroke-dasharray: none; stroke-linecap: butt; stroke-dashoffset: 0; stroke-linejoin: miter; stroke-miterlimit: 10; fill: rgb(255,255,255); fill-rule: nonzero; opacity: 1;"  points="13.32,2.73 -12.67,2.73 -13.32,-2.73 12.67,-2.73 13.32,2.73 " />
</g>
		<g transform="matrix(1 0 0 1 127.89 121.06)" id="freepik--Ladders--inject-1--inject-3"  >
<polygon style="stroke: rgb(46,53,58); stroke-width: 1; stroke-dasharray: none; stroke-linecap: butt; stroke-dashoffset: 0; stroke-linejoin: miter; stroke-miterlimit: 10; fill: rgb(255,255,255); fill-rule: nonzero; opacity: 1;"  points="13.33,2.73 -12.66,2.73 -13.32,-2.73 12.67,-2.73 13.33,2.73 " />
</g>
		<g transform="matrix(1 0 0 1 130.35 141.19)" id="freepik--Ladders--inject-1--inject-3"  >
<polygon style="stroke: rgb(46,53,58); stroke-width: 1; stroke-dasharray: none; stroke-linecap: butt; stroke-dashoffset: 0; stroke-linejoin: miter; stroke-miterlimit: 10; fill: rgb(255,255,255); fill-rule: nonzero; opacity: 1;"  points="13.33,2.73 -12.67,2.73 -13.33,-2.73 12.66,-2.73 13.33,2.73 " />
</g>
		<g transform="matrix(1 0 0 1 101.82 -0.26)" id="freepik--Ladders--inject-1--inject-3"  >
<line style="stroke: rgb(46,53,58); stroke-width: 0.5; stroke-dasharray: none; stroke-linecap: butt; stroke-dashoffset: 0; stroke-linejoin: miter; stroke-miterlimit: 10; fill: none; fill-rule: nonzero; opacity: 1;"  x1="-1.6999999999999886" y1="0" x2="1.6999999999999886" y2="0" />
</g>
		<g transform="matrix(1 0 0 1 104.22 1.34)" id="freepik--Ladders--inject-1--inject-3"  >
<line style="stroke: rgb(46,53,58); stroke-width: 0.5; stroke-dasharray: none; stroke-linecap: butt; stroke-dashoffset: 0; stroke-linejoin: miter; stroke-miterlimit: 10; fill: none; fill-rule: nonzero; opacity: 1;"  x1="-3.299999999999983" y1="0" x2="3.299999999999983" y2="0" />
</g>
		<g transform="matrix(1 0 0 1 123.71 1.34)" id="freepik--Ladders--inject-1--inject-3"  >
<line style="stroke: rgb(46,53,58); stroke-width: 0.5; stroke-dasharray: none; stroke-linecap: butt; stroke-dashoffset: 0; stroke-linejoin: miter; stroke-miterlimit: 10; fill: none; fill-rule: nonzero; opacity: 1;"  x1="2.4000000000000057" y1="0" x2="-2.4000000000000057" y2="0" />
</g>
		<g transform="matrix(1 0 0 1 126.31 20.73)" id="freepik--Ladders--inject-1--inject-3"  >
<line style="stroke: rgb(46,53,58); stroke-width: 0.5; stroke-dasharray: none; stroke-linecap: butt; stroke-dashoffset: 0; stroke-linejoin: miter; stroke-miterlimit: 10; fill: none; fill-rule: nonzero; opacity: 1;"  x1="2.1999999999999886" y1="0" x2="-2.1999999999999886" y2="0" />
</g>
		<g transform="matrix(1 0 0 1 108.42 21.73)" id="freepik--Ladders--inject-1--inject-3"  >
<line style="stroke: rgb(46,53,58); stroke-width: 0.5; stroke-dasharray: none; stroke-linecap: butt; stroke-dashoffset: 0; stroke-linejoin: miter; stroke-miterlimit: 10; fill: none; fill-rule: nonzero; opacity: 1;"  x1="-5.099999999999994" y1="0" x2="5.099999999999994" y2="0" />
</g>
		<g transform="matrix(1 0 0 1 109.52 40.52)" id="freepik--Ladders--inject-1--inject-3"  >
<line style="stroke: rgb(46,53,58); stroke-width: 0.5; stroke-dasharray: none; stroke-linecap: butt; stroke-dashoffset: 0; stroke-linejoin: miter; stroke-miterlimit: 10; fill: none; fill-rule: nonzero; opacity: 1;"  x1="-4.400000000000006" y1="0" x2="4.400000000000006" y2="0" />
</g>
		<g transform="matrix(1 0 0 1 107.92 42.12)" id="freepik--Ladders--inject-1--inject-3"  >
<line style="stroke: rgb(46,53,58); stroke-width: 0.5; stroke-dasharray: none; stroke-linecap: butt; stroke-dashoffset: 0; stroke-linejoin: miter; stroke-miterlimit: 10; fill: none; fill-rule: nonzero; opacity: 1;"  x1="-2.4000000000000057" y1="0" x2="2.4000000000000057" y2="0" />
</g>
		<g transform="matrix(1 0 0 1 131 60.31)" id="freepik--Ladders--inject-1--inject-3"  >
<line style="stroke: rgb(46,53,58); stroke-width: 0.5; stroke-dasharray: none; stroke-linecap: butt; stroke-dashoffset: 0; stroke-linejoin: miter; stroke-miterlimit: 10; fill: none; fill-rule: nonzero; opacity: 1;"  x1="2.694999999999993" y1="0" x2="-2.694999999999993" y2="0" />
</g>
		<g transform="matrix(1 0 0 1 128.81 61.91)" id="freepik--Ladders--inject-1--inject-3"  >
<line style="stroke: rgb(46,53,58); stroke-width: 0.5; stroke-dasharray: none; stroke-linecap: butt; stroke-dashoffset: 0; stroke-linejoin: miter; stroke-miterlimit: 10; fill: none; fill-rule: nonzero; opacity: 1;"  x1="4.5" y1="0" x2="-4.5" y2="0" />
</g>
		<g transform="matrix(1 0 0 1 137.01 121.74)" id="freepik--Ladders--inject-1--inject-3"  >
<line style="stroke: rgb(46,53,58); stroke-width: 0.5; stroke-dasharray: none; stroke-linecap: butt; stroke-dashoffset: 0; stroke-linejoin: miter; stroke-miterlimit: 10; fill: none; fill-rule: nonzero; opacity: 1;"  x1="4.125" y1="0" x2="-4.125" y2="0" />
</g>
		<g transform="matrix(1 0 0 1 117.39 120.24)" id="freepik--Ladders--inject-1--inject-3"  >
<line style="stroke: rgb(46,53,58); stroke-width: 0.5; stroke-dasharray: none; stroke-linecap: butt; stroke-dashoffset: 0; stroke-linejoin: miter; stroke-miterlimit: 10; fill: none; fill-rule: nonzero; opacity: 1;"  x1="-2.5" y1="0" x2="2.5" y2="0" />
</g>
		<g transform="matrix(1 0 0 1 128.39 121.74)" id="freepik--Ladders--inject-1--inject-3"  >
<line style="stroke: rgb(46,53,58); stroke-width: 0.5; stroke-dasharray: none; stroke-linecap: butt; stroke-dashoffset: 0; stroke-linejoin: miter; stroke-miterlimit: 10; fill: none; fill-rule: nonzero; opacity: 1;"  x1="3.25" y1="0" x2="-3.25" y2="0" />
</g>
		<g transform="matrix(1 0 0 1 120.89 140.99)" id="freepik--Ladders--inject-1--inject-3"  >
<line style="stroke: rgb(46,53,58); stroke-width: 0.5; stroke-dasharray: none; stroke-linecap: butt; stroke-dashoffset: 0; stroke-linejoin: miter; stroke-miterlimit: 10; fill: none; fill-rule: nonzero; opacity: 1;"  x1="-3.5" y1="0" x2="3.5" y2="0" />
</g>
		<g transform="matrix(1 0 0 1 122.89 142.74)" id="freepik--Ladders--inject-1--inject-3"  >
<line style="stroke: rgb(46,53,58); stroke-width: 0.5; stroke-dasharray: none; stroke-linecap: butt; stroke-dashoffset: 0; stroke-linejoin: miter; stroke-miterlimit: 10; fill: none; fill-rule: nonzero; opacity: 1;"  x1="-4" y1="0" x2="4" y2="0" />
</g>
		<g transform="matrix(1 0 0 1 112.01 81.74)" id="freepik--Ladders--inject-1--inject-3"  >
<line style="stroke: rgb(46,53,58); stroke-width: 0.5; stroke-dasharray: none; stroke-linecap: butt; stroke-dashoffset: 0; stroke-linejoin: miter; stroke-miterlimit: 10; fill: none; fill-rule: nonzero; opacity: 1;"  x1="-1.125" y1="0" x2="1.125" y2="0" />
</g>
		<g transform="matrix(1 0 0 1 131.26 81.24)" id="freepik--Ladders--inject-1--inject-3"  >
<line style="stroke: rgb(46,53,58); stroke-width: 0.5; stroke-dasharray: none; stroke-linecap: butt; stroke-dashoffset: 0; stroke-linejoin: miter; stroke-miterlimit: 10; fill: none; fill-rule: nonzero; opacity: 1;"  x1="4.125" y1="0" x2="-4.125" y2="0" />
</g>
		<g transform="matrix(1 0 0 1 -118.08 28.39)" id="freepik--Ladders--inject-1--inject-3"  >
<polygon style="stroke: rgb(46,53,58); stroke-width: 1.0954300000000001; stroke-dasharray: none; stroke-linecap: round; stroke-dashoffset: 0; stroke-linejoin: round; stroke-miterlimit: 4; fill: rgb(46,53,58); fill-rule: nonzero; opacity: 1;"  points="45.05,31.05 41.09,36.21 -45.05,-31.04 -41.08,-36.2 45.05,31.05 " />
</g>
		<g transform="matrix(1 0 0 1 -118.08 28.39)" id="freepik--Ladders--inject-1--inject-3"  >
<polygon style="stroke: rgb(46,53,58); stroke-width: 1.0954300000000001; stroke-dasharray: none; stroke-linecap: round; stroke-dashoffset: 0; stroke-linejoin: round; stroke-miterlimit: 4; fill: rgb(46,53,58); fill-rule: nonzero; opacity: 1;"  points="-45.05,31.05 -41.08,36.21 45.05,-31.04 41.09,-36.2 -45.05,31.05 " />
</g>
		<g transform="matrix(1 0 0 1 -118.08 103.9)" id="freepik--Ladders--inject-1--inject-3"  >
<polygon style="stroke: rgb(46,53,58); stroke-width: 1.0954300000000001; stroke-dasharray: none; stroke-linecap: round; stroke-dashoffset: 0; stroke-linejoin: round; stroke-miterlimit: 4; fill: rgb(46,53,58); fill-rule: nonzero; opacity: 1;"  points="45.05,31.08 42.6,37.73 -45.05,-31.01 -42.54,-37.72 45.05,31.08 " />
</g>
		<g transform="matrix(1 0 0 1 -118.08 105.26)" id="freepik--Ladders--inject-1--inject-3"  >
<polygon style="stroke: rgb(46,53,58); stroke-width: 1.0954300000000001; stroke-dasharray: none; stroke-linecap: round; stroke-dashoffset: 0; stroke-linejoin: round; stroke-miterlimit: 4; fill: rgb(46,53,58); fill-rule: nonzero; opacity: 1;"  points="-45.05,29.72 -44.45,37.52 45.05,-32.37 41.09,-37.52 -45.05,29.72 " />
</g>
		<g transform="matrix(1 0 0 1 -162.85 78.28)" id="freepik--Ladders--inject-1--inject-3"  >
<rect style="stroke: rgb(46,53,58); stroke-width: 1.0954300000000001; stroke-dasharray: none; stroke-linecap: round; stroke-dashoffset: 0; stroke-linejoin: round; stroke-miterlimit: 4; fill: rgb(46,53,58); fill-rule: nonzero; opacity: 1;"  x="-1.75" y="-86.8" rx="0" ry="0" width="3.5" height="173.6" />
</g>
		<g transform="matrix(1 0 0 1 -74.3 78.28)" id="freepik--Ladders--inject-1--inject-3"  >
<rect style="stroke: rgb(46,53,58); stroke-width: 1.0954300000000001; stroke-dasharray: none; stroke-linecap: round; stroke-dashoffset: 0; stroke-linejoin: round; stroke-miterlimit: 4; fill: rgb(46,53,58); fill-rule: nonzero; opacity: 1;"  x="-1.75" y="-86.8" rx="0" ry="0" width="3.5" height="173.6" />
</g>
		<g transform="matrix(1 0 0 1 -134.93 28.39)" id="freepik--Ladders--inject-1--inject-3"  >
<polygon style="stroke: rgb(46,53,58); stroke-width: 1.0954300000000001; stroke-dasharray: none; stroke-linecap: round; stroke-dashoffset: 0; stroke-linejoin: round; stroke-miterlimit: 4; fill: rgb(255,255,255); fill-rule: nonzero; opacity: 1;"  points="45.05,31.05 41.08,36.21 -45.05,-31.04 -41.09,-36.2 45.05,31.05 " />
</g>
		<g transform="matrix(1 0 0 1 -134.93 28.39)" id="freepik--Ladders--inject-1--inject-3"  >
<polygon style="stroke: rgb(46,53,58); stroke-width: 1.0954300000000001; stroke-dasharray: none; stroke-linecap: round; stroke-dashoffset: 0; stroke-linejoin: round; stroke-miterlimit: 4; fill: rgb(255,255,255); fill-rule: nonzero; opacity: 1;"  points="-45.05,31.05 -41.09,36.21 45.05,-31.04 41.08,-36.2 -45.05,31.05 " />
</g>
		<g transform="matrix(1 0 0 1 -134.93 103.9)" id="freepik--Ladders--inject-1--inject-3"  >
<polygon style="stroke: rgb(46,53,58); stroke-width: 1.0954300000000001; stroke-dasharray: none; stroke-linecap: round; stroke-dashoffset: 0; stroke-linejoin: round; stroke-miterlimit: 4; fill: rgb(255,255,255); fill-rule: nonzero; opacity: 1;"  points="45.05,31.08 42.59,37.73 -45.05,-31.01 -43.79,-37.72 45.05,31.08 " />
</g>
		<g transform="matrix(1 0 0 1 -134.93 105.26)" id="freepik--Ladders--inject-1--inject-3"  >
<polygon style="stroke: rgb(46,53,58); stroke-width: 1.0954300000000001; stroke-dasharray: none; stroke-linecap: round; stroke-dashoffset: 0; stroke-linejoin: round; stroke-miterlimit: 4; fill: rgb(255,255,255); fill-rule: nonzero; opacity: 1;"  points="-45.05,29.72 -44.45,37.52 45.05,-32.37 41.08,-37.52 -45.05,29.72 " />
</g>
		<g transform="matrix(1 0 0 1 -179.71 78.28)" id="freepik--Ladders--inject-1--inject-3"  >
<rect style="stroke: rgb(46,53,58); stroke-width: 1.0954300000000001; stroke-dasharray: none; stroke-linecap: round; stroke-dashoffset: 0; stroke-linejoin: round; stroke-miterlimit: 4; fill: rgb(255,255,255); fill-rule: nonzero; opacity: 1;"  x="-1.75" y="-86.8" rx="0" ry="0" width="3.5" height="173.6" />
</g>
		<g transform="matrix(1 0 0 1 -91.16 78.28)" id="freepik--Ladders--inject-1--inject-3"  >
<rect style="stroke: rgb(46,53,58); stroke-width: 1.0954300000000001; stroke-dasharray: none; stroke-linecap: round; stroke-dashoffset: 0; stroke-linejoin: round; stroke-miterlimit: 4; fill: rgb(255,255,255); fill-rule: nonzero; opacity: 1;"  x="-1.75" y="-86.8" rx="0" ry="0" width="3.5" height="173.6" />
</g>
		<g transform="matrix(1 0 0 1 -135.43 -7.38)" id="freepik--Ladders--inject-1--inject-3"  >
<rect style="stroke: rgb(46,53,58); stroke-width: 1.0954300000000001; stroke-dasharray: none; stroke-linecap: round; stroke-dashoffset: 0; stroke-linejoin: round; stroke-miterlimit: 4; fill: rgb(255,255,255); fill-rule: nonzero; opacity: 1;"  x="-50.53" y="-2.75" rx="0" ry="0" width="101.06" height="5.5" />
</g>
		<g transform="matrix(1 0 0 1 -83.35 -7.38)" id="freepik--Ladders--inject-1--inject-3"  >
<rect style="stroke: rgb(46,53,58); stroke-width: 1.0954300000000001; stroke-dasharray: none; stroke-linecap: round; stroke-dashoffset: 0; stroke-linejoin: round; stroke-miterlimit: 4; fill: rgb(46,53,58); fill-rule: nonzero; opacity: 1;"  x="-14.025" y="-2.75" rx="0" ry="0" width="28.05" height="5.5" />
</g>
		<g transform="matrix(1 0 0 1 -135.43 64.66)" id="freepik--Ladders--inject-1--inject-3"  >
<rect style="stroke: rgb(46,53,58); stroke-width: 1.0954300000000001; stroke-dasharray: none; stroke-linecap: round; stroke-dashoffset: 0; stroke-linejoin: round; stroke-miterlimit: 4; fill: rgb(255,255,255); fill-rule: nonzero; opacity: 1;"  x="-50.53" y="-2.75" rx="0" ry="0" width="101.06" height="5.5" />
</g>
		<g transform="matrix(1 0 0 1 -83.35 64.66)" id="freepik--Ladders--inject-1--inject-3"  >
<rect style="stroke: rgb(46,53,58); stroke-width: 1.0954300000000001; stroke-dasharray: none; stroke-linecap: round; stroke-dashoffset: 0; stroke-linejoin: round; stroke-miterlimit: 4; fill: rgb(46,53,58); fill-rule: nonzero; opacity: 1;"  x="-14.025" y="-2.75" rx="0" ry="0" width="28.05" height="5.5" />
</g>
		<g transform="matrix(1 0 0 1 42.36 134.16)" id="freepik--Ladders--inject-1--inject-3"  >
<polygon style="stroke: rgb(46,53,58); stroke-width: 0.9727319999999999; stroke-dasharray: none; stroke-linecap: butt; stroke-dashoffset: 0; stroke-linejoin: miter; stroke-miterlimit: 10; fill: rgb(46,53,58); fill-rule: nonzero; opacity: 1;"  points="-1.33,30.91 -9.24,30.91 1.31,-30.9 9.23,-30.9 -1.33,30.91 " />
</g>
		<g transform="matrix(1 0 0 1 55.54 134.16)" id="freepik--Ladders--inject-1--inject-3"  >
<polygon style="stroke: rgb(46,53,58); stroke-width: 0.9727319999999999; stroke-dasharray: none; stroke-linecap: butt; stroke-dashoffset: 0; stroke-linejoin: miter; stroke-miterlimit: 10; fill: rgb(255,255,255); fill-rule: nonzero; opacity: 1;"  points="1.32,30.91 9.24,30.91 -1.32,-30.9 -9.23,-30.9 1.32,30.91 " />
</g>
		<g transform="matrix(1 0 0 1 154.67 134.16)" id="freepik--Ladders--inject-1--inject-3"  >
<polygon style="stroke: rgb(46,53,58); stroke-width: 0.9727319999999999; stroke-dasharray: none; stroke-linecap: butt; stroke-dashoffset: 0; stroke-linejoin: miter; stroke-miterlimit: 10; fill: rgb(46,53,58); fill-rule: nonzero; opacity: 1;"  points="-1.32,30.91 -9.23,30.91 1.32,-30.9 9.23,-30.9 -1.32,30.91 " />
</g>
		<g transform="matrix(1 0 0 1 167.87 134.16)" id="freepik--Ladders--inject-1--inject-3"  >
<polygon style="stroke: rgb(46,53,58); stroke-width: 0.9727319999999999; stroke-dasharray: none; stroke-linecap: butt; stroke-dashoffset: 0; stroke-linejoin: miter; stroke-miterlimit: 10; fill: rgb(255,255,255); fill-rule: nonzero; opacity: 1;"  points="1.31,30.91 9.24,30.91 -1.32,-30.9 -9.24,-30.9 1.31,30.91 " />
</g>
		<g transform="matrix(1 0 0 1 99.24 95.88)" id="freepik--Ladders--inject-1--inject-3"  >
<rect style="stroke: rgb(46,53,58); stroke-width: 0.9727319999999999; stroke-dasharray: none; stroke-linecap: butt; stroke-dashoffset: 0; stroke-linejoin: miter; stroke-miterlimit: 10; fill: rgb(23,148,172); fill-rule: nonzero; opacity: 1;"  x="-75.485" y="-10.485" rx="0" ry="0" width="150.97" height="20.97" />
</g>
		<g transform="matrix(1 0 0 1 102.92 95.88)" id="freepik--Ladders--inject-1--inject-3"  >
<rect style="stroke: rgb(46,53,58); stroke-width: 0.9727319999999999; stroke-dasharray: none; stroke-linecap: butt; stroke-dashoffset: 0; stroke-linejoin: miter; stroke-miterlimit: 10; fill: rgb(23,148,172); fill-rule: nonzero; opacity: 1;"  x="-75.485" y="-10.485" rx="0" ry="0" width="150.97" height="20.97" />
</g>
		<g transform="matrix(1 0 0 1 39.61 95.88)" id="freepik--Ladders--inject-1--inject-3"  >
<polygon style="stroke: none; stroke-width: 1; stroke-dasharray: none; stroke-linecap: butt; stroke-dashoffset: 0; stroke-linejoin: miter; stroke-miterlimit: 4; fill: rgb(46,53,58); fill-rule: nonzero; opacity: 1;"  points="-9.72,10.49 3.09,10.49 9.71,-10.49 -3.1,-10.49 -9.72,10.49 " />
</g>
		<g transform="matrix(1 0 0 1 70.9 95.88)" id="freepik--Ladders--inject-1--inject-3"  >
<polygon style="stroke: none; stroke-width: 1; stroke-dasharray: none; stroke-linecap: butt; stroke-dashoffset: 0; stroke-linejoin: miter; stroke-miterlimit: 4; fill: rgb(46,53,58); fill-rule: nonzero; opacity: 1;"  points="9.72,-10.49 -3.1,-10.49 -9.72,10.49 3.1,10.49 9.72,-10.49 " />
</g>
		<g transform="matrix(1 0 0 1 164.75 95.88)" id="freepik--Ladders--inject-1--inject-3"  >
<polygon style="stroke: none; stroke-width: 1; stroke-dasharray: none; stroke-linecap: butt; stroke-dashoffset: 0; stroke-linejoin: miter; stroke-miterlimit: 4; fill: rgb(46,53,58); fill-rule: nonzero; opacity: 1;"  points="9.72,-10.49 -3.1,-10.49 -9.72,10.49 3.1,10.49 9.72,-10.49 " />
</g>
		<g transform="matrix(1 0 0 1 133.47 95.88)" id="freepik--Ladders--inject-1--inject-3"  >
<polygon style="stroke: none; stroke-width: 1; stroke-dasharray: none; stroke-linecap: butt; stroke-dashoffset: 0; stroke-linejoin: miter; stroke-miterlimit: 4; fill: rgb(46,53,58); fill-rule: nonzero; opacity: 1;"  points="9.71,-10.49 -3.1,-10.49 -9.72,10.49 3.09,10.49 9.71,-10.49 " />
</g>
		<g transform="matrix(1 0 0 1 102.18 95.88)" id="freepik--Ladders--inject-1--inject-3"  >
<polygon style="stroke: none; stroke-width: 1; stroke-dasharray: none; stroke-linecap: butt; stroke-dashoffset: 0; stroke-linejoin: miter; stroke-miterlimit: 4; fill: rgb(46,53,58); fill-rule: nonzero; opacity: 1;"  points="9.72,-10.49 -3.1,-10.49 -9.72,10.49 3.1,10.49 9.72,-10.49 " />
</g>
		<g transform="matrix(1 0 0 1 165.08 94.7)" id="freepik--Ladders--inject-1--inject-3"  >
<line style="stroke: rgb(46,53,58); stroke-width: 1; stroke-dasharray: none; stroke-linecap: butt; stroke-dashoffset: 0; stroke-linejoin: miter; stroke-miterlimit: 10; fill: none; fill-rule: nonzero; opacity: 1;"  x1="12.490000000000009" y1="0" x2="-12.490000000000009" y2="0" />
</g>
		<g transform="matrix(1 0 0 1 175.16 98.2)" id="freepik--Ladders--inject-1--inject-3"  >
<line style="stroke: rgb(46,53,58); stroke-width: 1; stroke-dasharray: none; stroke-linecap: butt; stroke-dashoffset: 0; stroke-linejoin: miter; stroke-miterlimit: 10; fill: none; fill-rule: nonzero; opacity: 1;"  x1="1.9699999999999989" y1="0" x2="-1.9699999999999989" y2="0" />
</g>
		<g transform="matrix(1 0 0 1 39.28 97.33)" id="freepik--Ladders--inject-1--inject-3"  >
<line style="stroke: rgb(46,53,58); stroke-width: 1; stroke-dasharray: none; stroke-linecap: butt; stroke-dashoffset: 0; stroke-linejoin: miter; stroke-miterlimit: 10; fill: none; fill-rule: nonzero; opacity: 1;"  x1="-12.48999999999998" y1="0" x2="12.48999999999998" y2="0" />
</g>
		<g transform="matrix(1 0 0 1 43 93.38)" id="freepik--Ladders--inject-1--inject-3"  >
<line style="stroke: rgb(46,53,58); stroke-width: 1; stroke-dasharray: none; stroke-linecap: butt; stroke-dashoffset: 0; stroke-linejoin: miter; stroke-miterlimit: 10; fill: none; fill-rule: nonzero; opacity: 1;"  x1="-15.779999999999973" y1="0" x2="15.779999999999973" y2="0" />
</g>
</g>
</g>
</svg>